<svg width="50" height="51" viewBox="0 0 50 51" fill="none" xmlns="http://www.w3.org/2000/svg">
<path d="M40.6671 32.5076L9.99479 47.0604C9.89416 47.1054 9.78336 47.1353 9.66584 47.1528C9.31344 47.2028 7.05272 46.1001 6.59609 45.9052C6.29401 45.7754 6.00866 45.6005 5.75034 45.3932C5.36091 45.086 5.02523 44.7063 4.79364 44.3067C4.5586 43.9071 4.42436 43.495 4.42436 43.1053L3.76301 21.6927C3.76301 21.0782 4.4478 20.1866 3.72941 19.8769C3.36686 19.722 3.69925 17.6989 3.46094 17.8013L34.8029 4.24883C35.0412 4.14643 35.37 4.16142 35.7293 4.31627C36.451 4.62598 37.0351 5.38029 37.0351 5.99473L36.9445 29.5954C36.9445 29.985 37.0787 30.3971 37.3136 30.7967C37.5454 31.1964 37.881 31.576 38.2703 31.8832C38.5288 32.0905 38.8141 32.2654 39.1162 32.3952C39.5728 32.5901 39.9856 32.65 40.3381 32.6001C40.4556 32.5826 40.5664 32.5526 40.6671 32.5076Z" fill="#FFD86A"/>
<path d="M36.0989 2.32195C35.4837 2.05523 34.9458 8.57048 34.0045 8.97485L15.7198 14.4026C13.8489 15.2062 12.3365 17.154 12.3435 18.7543L13.9238 40.4498C16.8909 41.1855 11.1648 44.8499 9.28939 45.1629L8.03875 44.6226C7.43058 44.3593 7.05366 43.8 7.04903 43.0068L6.94729 15.8073C6.94029 14.2087 8.45271 12.2608 10.3213 11.4573L32.4362 1.95713C33.3798 1.55277 34.2307 1.5149 34.8483 1.78162L36.0989 2.32195Z" fill="#D3D3DD"/>
<path d="M33.6881 2.49784C35.5589 1.69417 37.0802 2.33926 37.0862 3.93873L37.1899 31.1372C37.196 32.7354 35.6846 34.6833 33.8138 35.487L11.699 44.9874C9.82824 45.7911 8.307 45.146 8.30091 43.5478L8.19728 16.3493C8.19119 14.7498 9.70255 12.8019 11.5733 11.9982L33.6881 2.49784Z" fill="#EDEEF2"/>
<path d="M11.1582 15.8469C11.0749 15.8469 10.9933 15.8145 10.9484 15.757C10.8817 15.6708 10.9213 15.5607 11.0371 15.511L15.7798 13.4736C15.8962 13.4241 16.0433 13.4531 16.1106 13.5393C16.1774 13.6254 16.1378 13.7355 16.022 13.7852L11.2793 15.8227C11.2409 15.8392 11.1995 15.8469 11.1582 15.8469Z" fill="#D3D3DD"/>
<path d="M17.7402 13.0201C17.6569 13.0201 17.5754 12.9878 17.5305 12.9302C17.4637 12.8441 17.5033 12.734 17.6191 12.6843L28.7103 7.91921C28.8261 7.86953 28.9743 7.89877 29.0411 7.98492C29.1079 8.07108 29.0683 8.1812 28.9525 8.23087L17.8613 12.9959C17.8229 13.0124 17.7816 13.0201 17.7402 13.0201Z" fill="#D3D3DD"/>
<path d="M30.5156 7.53186C30.4323 7.53186 30.3508 7.49955 30.3059 7.44197C30.2391 7.35581 30.2787 7.24569 30.3945 7.19602L33.1581 6.00871C33.2739 5.95882 33.4216 5.98805 33.489 6.07443C33.5557 6.16058 33.5161 6.2707 33.4003 6.32037L30.6367 7.50768C30.5983 7.52417 30.5569 7.53186 30.5156 7.53186Z" fill="#D3D3DD"/>
<path d="M11.1582 19.3334C11.0749 19.3334 10.9933 19.3011 10.9484 19.2435C10.8817 19.1574 10.9213 19.0472 11.0371 18.9976L23.8947 13.4736C24.0099 13.4241 24.1581 13.4531 24.2255 13.5393C24.2922 13.6254 24.2527 13.7355 24.1369 13.7852L11.2793 19.3092C11.2409 19.3257 11.1995 19.3334 11.1582 19.3334Z" fill="#D3D3DD"/>
<path d="M26.1718 12.883C26.0885 12.883 26.007 12.8507 25.9621 12.7931C25.8954 12.707 25.9349 12.5969 26.0507 12.5472L33.1542 9.49538C33.27 9.44571 33.4177 9.47494 33.485 9.5611C33.5518 9.64725 33.5122 9.75737 33.3964 9.80704L26.293 12.8588C26.2546 12.8753 26.2132 12.883 26.1718 12.883Z" fill="#D3D3DD"/>
<path d="M11.1582 22.82C11.0749 22.82 10.9933 22.7877 10.9484 22.7301C10.8817 22.6439 10.9213 22.5338 11.0371 22.4841L15.7798 20.4465C15.8962 20.397 16.0433 20.426 16.1106 20.5122C16.1774 20.5983 16.1378 20.7084 16.022 20.7581L11.2793 22.7958C11.2409 22.8123 11.1995 22.82 11.1582 22.82Z" fill="#D3D3DD"/>
<path d="M17.7402 19.9932C17.6569 19.9932 17.5754 19.9609 17.5305 19.9033C17.4637 19.8171 17.5033 19.707 17.6191 19.6573L33.157 12.9816C33.2728 12.9317 33.4205 12.9609 33.4879 13.0473C33.5546 13.1335 33.515 13.2436 33.3992 13.2933L17.8613 19.969C17.8229 19.9855 17.7816 19.9932 17.7402 19.9932Z" fill="#D3D3DD"/>
<path d="M11.1582 26.3062C11.0749 26.3062 10.9933 26.2739 10.9484 26.2163C10.8817 26.1301 10.9213 26.02 11.0371 25.9704L27.2674 18.9975C27.3826 18.948 27.5309 18.977 27.5982 19.0632C27.665 19.1494 27.6254 19.2595 27.5096 19.3091L11.2793 26.282C11.2409 26.2985 11.1995 26.3062 11.1582 26.3062Z" fill="#D3D3DD"/>
<path d="M29.1308 18.5855C29.0475 18.5855 28.966 18.5532 28.9211 18.4956C28.8543 18.4095 28.8939 18.2994 29.0097 18.2497L33.1558 16.4683C33.2716 16.4186 33.4193 16.4478 33.4866 16.534C33.5534 16.6202 33.5138 16.7303 33.398 16.7799L29.2519 18.5614C29.2135 18.5778 29.1722 18.5855 29.1308 18.5855Z" fill="#D3D3DD"/>
<path d="M11.1582 29.7927C11.0749 29.7927 10.9933 29.7604 10.9484 29.7028C10.8817 29.6167 10.9213 29.5066 11.0371 29.4569L33.1544 19.9547C33.2702 19.9048 33.4179 19.9344 33.4853 20.0204C33.552 20.1065 33.5124 20.2166 33.3967 20.2663L11.2793 29.7685C11.2409 29.785 11.1995 29.7927 11.1582 29.7927Z" fill="#D3D3DD"/>
<path d="M11.3945 15.9081C11.3112 15.9081 11.2297 15.8758 11.1848 15.8182C11.118 15.7321 11.1576 15.622 11.2734 15.5723L16.0161 13.5348C16.1325 13.4854 16.2796 13.5144 16.347 13.6006C16.4137 13.6867 16.3741 13.7968 16.2583 13.8465L11.5156 15.884C11.4772 15.9004 11.4359 15.9081 11.3945 15.9081Z" fill="#423751"/>
<path d="M17.9726 13.0814C17.8893 13.0814 17.8078 13.0491 17.7629 12.9915C17.6961 12.9053 17.7357 12.7952 17.8515 12.7456L28.9427 7.98049C29.0585 7.93081 29.2068 7.96005 29.2735 8.0462C29.3403 8.13236 29.3007 8.24248 29.1849 8.29215L18.0937 13.0572C18.0553 13.0737 18.014 13.0814 17.9726 13.0814Z" fill="#423751"/>
<path d="M30.75 7.59314C30.6667 7.59314 30.5851 7.56083 30.5402 7.50325C30.4735 7.41709 30.5131 7.30697 30.6289 7.2573L33.3925 6.06999C33.5083 6.0201 33.656 6.04933 33.7233 6.13571C33.7901 6.22186 33.7505 6.33198 33.6347 6.38165L30.8711 7.56896C30.8327 7.58545 30.7913 7.59314 30.75 7.59314Z" fill="#423751"/>
<path d="M11.3945 19.3947C11.3112 19.3947 11.2297 19.3624 11.1848 19.3048C11.118 19.2186 11.1576 19.1085 11.2734 19.0588L24.131 13.5348C24.2462 13.4854 24.3945 13.5144 24.4618 13.6006C24.5286 13.6867 24.489 13.7968 24.3732 13.8465L11.5156 19.3705C11.4772 19.387 11.4359 19.3947 11.3945 19.3947Z" fill="#423751"/>
<path d="M26.4101 12.9443C26.3268 12.9443 26.2453 12.912 26.2004 12.8544C26.1336 12.7682 26.1732 12.6581 26.289 12.6085L33.3925 9.55666C33.5083 9.50699 33.656 9.53622 33.7233 9.62238C33.7901 9.70853 33.7505 9.81865 33.6347 9.86832L26.5312 12.9201C26.4928 12.9366 26.4515 12.9443 26.4101 12.9443Z" fill="#423751"/>
<path d="M11.3945 22.8813C11.3112 22.8813 11.2297 22.8489 11.1848 22.7914C11.118 22.7052 11.1576 22.5951 11.2734 22.5454L16.0161 20.5077C16.1325 20.4583 16.2796 20.4873 16.347 20.5735C16.4137 20.6596 16.3741 20.7697 16.2583 20.8194L11.5156 22.8571C11.4772 22.8736 11.4359 22.8813 11.3945 22.8813Z" fill="#423751"/>
<path d="M17.9726 20.0544C17.8893 20.0544 17.8078 20.0221 17.7629 19.9645C17.6961 19.8784 17.7357 19.7683 17.8515 19.7186L33.3894 13.0429C33.5052 12.993 33.6529 13.0222 33.7203 13.1086C33.787 13.1948 33.7475 13.3049 33.6317 13.3546L18.0937 20.0303C18.0553 20.0468 18.014 20.0544 17.9726 20.0544Z" fill="#423751"/>
<path d="M11.3945 26.3677C11.3112 26.3677 11.2297 26.3354 11.1848 26.2778C11.118 26.1917 11.1576 26.0815 11.2734 26.0319L27.5037 19.059C27.6189 19.0095 27.7672 19.0386 27.8345 19.1247C27.9013 19.2109 27.8617 19.321 27.7459 19.3707L11.5156 26.3435C11.4772 26.36 11.4359 26.3677 11.3945 26.3677Z" fill="#423751"/>
<path d="M29.3691 18.6468C29.2858 18.6468 29.2043 18.6145 29.1594 18.5569C29.0926 18.4708 29.1322 18.3606 29.248 18.311L33.394 16.5296C33.5098 16.4799 33.6575 16.5091 33.7249 16.5953C33.7916 16.6814 33.7521 16.7915 33.6363 16.8412L29.4902 18.6226C29.4518 18.6391 29.4105 18.6468 29.3691 18.6468Z" fill="#423751"/>
<path d="M11.3945 29.8542C11.3112 29.8542 11.2297 29.8219 11.1848 29.7644C11.118 29.6782 11.1576 29.5681 11.2734 29.5184L33.3908 20.0162C33.5066 19.9663 33.6543 19.996 33.7216 20.0819C33.7884 20.1681 33.7488 20.2782 33.633 20.3278L11.5156 29.8301C11.4772 29.8466 11.4359 29.8542 11.3945 29.8542Z" fill="#423751"/>
<path d="M43.9941 13.2482L43.9204 32.5903C43.9169 33.7192 43.3731 34.5185 42.5037 34.8857L11.1988 48.4231C12.0445 48.0485 10.8135 47.2379 10.8169 46.124L10.9131 28.0938C10.9131 27.8715 11.2434 27.337 11.1124 27.1072C10.8843 26.7001 11.1124 27.1072 10.6491 26.9074C10.2865 26.7501 10.6582 24.9524 10.4199 25.0573V25.0548L41.7619 11.5023C42.0002 11.3999 42.3292 11.4149 42.6917 11.5722C42.8427 11.6372 42.9871 11.7196 43.1213 11.8195C43.1751 11.857 43.2254 11.8994 43.2757 11.9419C43.2959 11.9594 43.316 11.9769 43.3362 11.9969C43.3798 12.0343 43.4201 12.0743 43.457 12.1143C43.5175 12.1767 43.5712 12.2391 43.6216 12.3041C43.6652 12.359 43.7022 12.4165 43.7391 12.4739C43.7625 12.5114 43.7827 12.5464 43.8028 12.5838C43.8196 12.6163 43.8364 12.6463 43.8532 12.6762C43.9236 12.8286 43.9707 12.9834 43.9874 13.1333C43.9908 13.1733 43.9941 13.2107 43.9941 13.2482Z" fill="#FFD86A"/>
<path d="M43.9956 13.2513L43.9238 32.5938C43.9135 33.7185 43.3787 34.5219 42.5046 34.8892L11.2034 48.4244C12.0467 48.0494 10.8125 47.2384 10.8125 46.1213L10.8948 32.6014C12.2626 32.9917 13.7638 33.2059 15.3371 33.2059C21.8978 33.2059 27.2037 29.4721 27.2037 24.866C27.2037 22.67 25.9904 20.6654 24.0056 19.181L41.7642 11.4991C42.0007 11.3997 42.3298 11.4149 42.6896 11.5756C42.844 11.6369 42.9878 11.721 43.1217 11.8205C43.1731 11.8587 43.2243 11.897 43.2758 11.9429C43.2964 11.9582 43.317 11.9735 43.3376 11.9964C43.3787 12.0347 43.4199 12.073 43.4608 12.1112C43.5226 12.1801 43.574 12.2413 43.6255 12.3025C43.6667 12.3561 43.7079 12.4173 43.7385 12.4708C43.7591 12.5091 43.7796 12.5474 43.8002 12.5856C43.8208 12.6162 43.8414 12.6468 43.8517 12.6774C43.9238 12.8305 43.975 12.9835 43.9855 13.1365C43.9956 13.1748 43.9956 13.213 43.9956 13.2513Z" fill="#FCCB4F"/>
<path d="M4.39402 17.8695C5.11554 18.1795 5.69956 18.9321 5.69722 19.5475L5.6073 43.1472C5.60582 43.5369 5.74016 43.9492 5.9741 44.3486C6.20804 44.748 6.54347 45.1291 6.93176 45.4368C7.19189 45.6431 7.47553 45.8176 7.77938 45.9481C8.23512 46.1423 8.64783 46.2035 8.99945 46.1532C9.34744 46.1013 9.62707 45.935 9.79288 45.6717C9.90401 45.4964 9.96458 45.2808 9.96744 45.0203L10.0411 25.6789C10.0435 25.0619 10.6294 24.8134 11.3511 25.1234C12.0726 25.4334 12.6548 26.1838 12.6525 26.8007L12.5788 46.1421C12.5745 47.2709 12.0316 48.0706 11.1644 48.4368C10.2989 48.8053 9.09098 48.7495 7.77087 48.1808C6.44861 47.6128 5.24662 46.6336 4.38643 45.5251C3.52487 44.4162 2.98987 43.1533 2.99417 42.0246L3.08408 18.4249C3.08643 17.8095 3.67427 17.5603 4.39402 17.8695Z" fill="#F7B92F"/>
</svg>
