<svg width="31" height="31" viewBox="0 0 31 31" fill="none" xmlns="http://www.w3.org/2000/svg">
<path d="M21.3821 19.5611L7.68851 28.2927C7.64358 28.3197 7.59411 28.3377 7.54165 28.3482C7.38432 28.3782 6.37503 27.7165 6.17116 27.5996C6.0363 27.5217 5.90891 27.4168 5.79358 27.2924C5.61972 27.1081 5.46986 26.8803 5.36647 26.6405C5.26153 26.4007 5.2016 26.1535 5.2016 25.9197L4.90635 13.0721C4.90635 12.7034 5.21207 12.1684 4.89134 11.9826C4.72948 11.8897 4.87788 10.6758 4.77148 10.7373L18.764 2.60579C18.8704 2.54435 19.0172 2.55334 19.1776 2.64626C19.4998 2.83208 19.7606 3.28467 19.7606 3.65333L19.7201 17.8137C19.7201 18.0475 19.7801 18.2948 19.8849 18.5345C19.9884 18.7743 20.1382 19.0021 20.312 19.1864C20.4274 19.3108 20.5548 19.4157 20.6897 19.4936C20.8936 19.6105 21.0778 19.6465 21.2352 19.6165C21.2877 19.606 21.3371 19.5881 21.3821 19.5611Z" fill="#FFD86A"/>
<path d="M19.3409 1.44932C19.0662 1.28929 18.826 5.19844 18.4058 5.44106L10.2426 8.69771C9.4074 9.17986 8.73219 10.3486 8.73531 11.3087L9.44081 24.326C10.7655 24.7674 8.2091 26.9661 7.37181 27.1539L6.81346 26.8297C6.54195 26.6717 6.37367 26.3362 6.3716 25.8602L6.32618 9.54051C6.32306 8.58138 6.99827 7.41266 7.83249 6.93051L17.7057 1.23043C18.1269 0.987812 18.5068 0.965095 18.7825 1.12512L19.3409 1.44932Z" fill="#D3D3DD"/>
<path d="M18.2632 1.55492C19.0983 1.07272 19.7775 1.45977 19.7802 2.41945L19.8265 18.7386C19.8292 19.6975 19.1545 20.8662 18.3193 21.3484L8.44616 27.0487C7.61096 27.5309 6.9318 27.1438 6.92909 26.1849L6.88282 9.86577C6.8801 8.90609 7.55484 7.73736 8.39004 7.25516L18.2632 1.55492Z" fill="#EDEEF2"/>
<path d="M8.20577 9.56429C8.16858 9.56429 8.13218 9.54491 8.11214 9.51035C8.08233 9.45866 8.1 9.39259 8.1517 9.36279L10.2691 8.14031C10.321 8.11064 10.3867 8.12804 10.4168 8.17974C10.4466 8.23143 10.4289 8.2975 10.3772 8.32731L8.25983 9.54979C8.24269 9.55968 8.22423 9.56429 8.20577 9.56429Z" fill="#D3D3DD"/>
<path d="M11.1433 7.86827C11.1061 7.86827 11.0697 7.84889 11.0496 7.81434C11.0198 7.76264 11.0375 7.69657 11.0892 7.66677L16.0408 4.80773C16.0925 4.77792 16.1587 4.79546 16.1885 4.84716C16.2183 4.89885 16.2007 4.96492 16.149 4.99472L11.1973 7.85377C11.1802 7.86366 11.1617 7.86827 11.1433 7.86827Z" fill="#D3D3DD"/>
<path d="M16.8464 4.57534C16.8092 4.57534 16.7728 4.55596 16.7528 4.52141C16.723 4.46971 16.7406 4.40364 16.7923 4.37384L18.0261 3.66145C18.0778 3.63152 18.1438 3.64905 18.1738 3.70088C18.2036 3.75258 18.186 3.81865 18.1343 3.84845L16.9005 4.56084C16.8833 4.57073 16.8649 4.57534 16.8464 4.57534Z" fill="#D3D3DD"/>
<path d="M8.20577 11.6562C8.16858 11.6562 8.13218 11.6368 8.11214 11.6023C8.08233 11.5506 8.1 11.4845 8.1517 11.4547L13.8919 8.14031C13.9434 8.11064 14.0096 8.12804 14.0396 8.17974C14.0694 8.23143 14.0518 8.2975 14.0001 8.32731L8.25983 11.6417C8.24269 11.6516 8.22423 11.6562 8.20577 11.6562Z" fill="#D3D3DD"/>
<path d="M14.9089 7.78599C14.8717 7.78599 14.8353 7.7666 14.8153 7.73205C14.7855 7.68036 14.8031 7.61429 14.8548 7.58448L18.0261 5.7534C18.0778 5.7236 18.1438 5.74114 18.1738 5.79283C18.2036 5.84453 18.186 5.9106 18.1343 5.9404L14.963 7.77148C14.9458 7.78137 14.9274 7.78599 14.9089 7.78599Z" fill="#D3D3DD"/>
<path d="M8.20577 13.7481C8.16858 13.7481 8.13218 13.7287 8.11214 13.6941C8.08233 13.6424 8.1 13.5764 8.1517 13.5466L10.2691 12.324C10.321 12.2943 10.3867 12.3117 10.4168 12.3634C10.4466 12.4151 10.4289 12.4812 10.3772 12.511L8.25983 13.7336C8.24269 13.7435 8.22423 13.7481 8.20577 13.7481Z" fill="#D3D3DD"/>
<path d="M11.1433 12.0521C11.1061 12.0521 11.0697 12.0327 11.0496 11.9982C11.0198 11.9465 11.0375 11.8804 11.0892 11.8506L18.0261 7.84517C18.0778 7.81523 18.1437 7.83277 18.1738 7.8846C18.2036 7.93629 18.1859 8.00236 18.1342 8.03216L11.1973 12.0376C11.1802 12.0475 11.1617 12.0521 11.1433 12.0521Z" fill="#D3D3DD"/>
<path d="M8.20577 15.84C8.16858 15.84 8.13218 15.8206 8.11214 15.7861C8.08233 15.7344 8.1 15.6683 8.1517 15.6385L15.3977 11.4548C15.4491 11.4251 15.5153 11.4425 15.5454 11.4942C15.5752 11.5459 15.5575 11.612 15.5058 11.6418L8.25983 15.8255C8.24269 15.8354 8.22423 15.84 8.20577 15.84Z" fill="#D3D3DD"/>
<path d="M16.2292 11.2075C16.192 11.2075 16.1556 11.1881 16.1356 11.1535C16.1058 11.1018 16.1234 11.0358 16.1751 11.006L18.0261 9.93712C18.0778 9.90732 18.1438 9.92486 18.1738 9.97655C18.2036 10.0282 18.186 10.0943 18.1343 10.1241L16.2833 11.193C16.2661 11.2029 16.2477 11.2075 16.2292 11.2075Z" fill="#D3D3DD"/>
<path d="M8.20577 17.9319C8.16858 17.9319 8.13218 17.9125 8.11214 17.878C8.08233 17.8263 8.1 17.7602 8.1517 17.7304L18.0259 12.0291C18.0776 11.9991 18.1436 12.0169 18.1736 12.0685C18.2034 12.1202 18.1858 12.1863 18.1341 12.2161L8.25983 17.9174C8.24269 17.9273 8.22423 17.9319 8.20577 17.9319Z" fill="#D3D3DD"/>
<path d="M8.31124 9.6011C8.27405 9.6011 8.23765 9.58171 8.2176 9.54716C8.1878 9.49546 8.20547 9.42939 8.25717 9.39959L10.3745 8.17711C10.4265 8.14744 10.4922 8.16485 10.5222 8.21654C10.552 8.26824 10.5344 8.33431 10.4827 8.36411L8.3653 9.58659C8.34816 9.59648 8.3297 9.6011 8.31124 9.6011Z" fill="#423751"/>
<path d="M11.2487 7.90508C11.2115 7.90508 11.1751 7.88569 11.1551 7.85114C11.1253 7.79945 11.143 7.73338 11.1947 7.70357L16.1463 4.84453C16.198 4.81473 16.2642 4.83227 16.294 4.88396C16.3238 4.93566 16.3061 5.00172 16.2544 5.03153L11.3028 7.89057C11.2857 7.90046 11.2672 7.90508 11.2487 7.90508Z" fill="#423751"/>
<path d="M16.9519 4.61221C16.9147 4.61221 16.8783 4.59282 16.8582 4.55827C16.8284 4.50658 16.8461 4.44051 16.8978 4.4107L18.1316 3.69832C18.1833 3.66838 18.2492 3.68592 18.2793 3.73775C18.3091 3.78944 18.2914 3.85551 18.2397 3.88531L17.0059 4.5977C16.9888 4.60759 16.9703 4.61221 16.9519 4.61221Z" fill="#423751"/>
<path d="M8.31124 11.693C8.27405 11.693 8.23765 11.6736 8.2176 11.6391C8.1878 11.5874 8.20547 11.5213 8.25717 11.4915L13.9974 8.17711C14.0488 8.14744 14.115 8.16485 14.1451 8.21654C14.1749 8.26824 14.1572 8.33431 14.1055 8.36411L8.3653 11.6785C8.34816 11.6884 8.3297 11.693 8.31124 11.693Z" fill="#423751"/>
<path d="M15.0144 7.82285C14.9772 7.82285 14.9408 7.80347 14.9207 7.76892C14.8909 7.71722 14.9086 7.65115 14.9603 7.62135L18.1316 5.79027C18.1833 5.76047 18.2492 5.77801 18.2793 5.8297C18.3091 5.88139 18.2914 5.94746 18.2398 5.97727L15.0684 7.80835C15.0513 7.81824 15.0328 7.82285 15.0144 7.82285Z" fill="#423751"/>
<path d="M8.31124 13.7849C8.27405 13.7849 8.23765 13.7656 8.2176 13.731C8.1878 13.6793 8.20547 13.6132 8.25717 13.5834L10.3745 12.3608C10.4265 12.3312 10.4922 12.3486 10.5222 12.4003C10.552 12.452 10.5344 12.518 10.4827 12.5478L8.3653 13.7704C8.34816 13.7803 8.3297 13.7849 8.31124 13.7849Z" fill="#423751"/>
<path d="M11.2487 12.0889C11.2115 12.0889 11.1751 12.0695 11.1551 12.035C11.1253 11.9833 11.143 11.9172 11.1947 11.8874L18.1315 7.88197C18.1832 7.85204 18.2492 7.86957 18.2792 7.9214C18.309 7.9731 18.2914 8.03917 18.2397 8.06897L11.3028 12.0744C11.2857 12.0843 11.2672 12.0889 11.2487 12.0889Z" fill="#423751"/>
<path d="M8.31124 15.8769C8.27405 15.8769 8.23765 15.8575 8.2176 15.8229C8.1878 15.7712 8.20547 15.7052 8.25717 15.6754L15.5032 11.4916C15.5546 11.462 15.6208 11.4794 15.6509 11.5311C15.6807 11.5828 15.663 11.6488 15.6113 11.6786L8.3653 15.8623C8.34816 15.8722 8.3297 15.8769 8.31124 15.8769Z" fill="#423751"/>
<path d="M16.3347 11.2443C16.2975 11.2443 16.2611 11.2249 16.241 11.1903C16.2112 11.1386 16.2289 11.0726 16.2806 11.0428L18.1316 9.97392C18.1833 9.94412 18.2492 9.96166 18.2793 10.0134C18.3091 10.0651 18.2914 10.1311 18.2397 10.1609L16.3887 11.2298C16.3716 11.2397 16.3531 11.2443 16.3347 11.2443Z" fill="#423751"/>
<path d="M8.31124 17.9687C8.27405 17.9687 8.23765 17.9493 8.2176 17.9148C8.1878 17.8631 8.20547 17.797 8.25717 17.7672L18.1314 12.0659C18.1831 12.0359 18.249 12.0537 18.2791 12.1053C18.3089 12.157 18.2912 12.2231 18.2395 12.2529L8.3653 17.9542C8.34816 17.9641 8.3297 17.9687 8.31124 17.9687Z" fill="#423751"/>
<path d="M22.8661 8.00527L22.8331 19.6105C22.8316 20.2879 22.5888 20.7674 22.2007 20.9877L8.22468 29.1102C8.60226 28.8854 8.05265 28.3991 8.05418 27.7307L8.09713 16.9126C8.09713 16.7793 8.24458 16.4586 8.18612 16.3207C8.08426 16.0764 8.18612 16.3207 7.97925 16.2008C7.81739 16.1064 7.98335 15.0278 7.87695 15.0907V15.0892L21.8695 6.95774C21.9759 6.89629 22.1228 6.90528 22.2846 6.9997C22.352 7.03866 22.4165 7.08812 22.4764 7.14807C22.5004 7.17054 22.5229 7.19602 22.5453 7.2215C22.5543 7.23199 22.5633 7.24247 22.5723 7.25446C22.5918 7.27695 22.6098 7.30092 22.6263 7.3249C22.6533 7.36237 22.6773 7.39983 22.6997 7.43879C22.7192 7.47176 22.7357 7.50623 22.7522 7.5407C22.7627 7.56318 22.7717 7.58416 22.7807 7.60664C22.7881 7.62612 22.7957 7.64411 22.8031 7.66209C22.8346 7.7535 22.8556 7.84642 22.8631 7.93633C22.8646 7.96031 22.8661 7.98279 22.8661 8.00527Z" fill="#FFD86A"/>
<path d="M22.8672 8.00722L22.8352 19.6127C22.8306 20.2876 22.5918 20.7696 22.2016 20.99L8.22724 29.1111C8.60372 28.8861 8.05273 28.3995 8.05273 27.7293L8.0895 19.6173C8.70011 19.8515 9.37034 19.98 10.0727 19.98C13.0017 19.98 15.3705 17.7397 15.3705 14.976C15.3705 13.6585 14.8289 12.4557 13.9428 11.5651L21.8711 6.95594C21.9766 6.89626 22.1236 6.90542 22.2842 7.00184C22.3531 7.03857 22.4173 7.08906 22.4771 7.14875C22.5001 7.17169 22.5229 7.19464 22.5459 7.22219C22.5551 7.23138 22.5643 7.24057 22.5735 7.25432C22.5918 7.27727 22.6102 7.30025 22.6285 7.3232C22.6561 7.3645 22.679 7.40123 22.702 7.43797C22.7204 7.47011 22.7388 7.50681 22.7525 7.53895C22.7616 7.5619 22.7708 7.58488 22.78 7.60783C22.7892 7.62618 22.7984 7.64456 22.803 7.66291C22.8352 7.75473 22.858 7.84655 22.8627 7.93835C22.8672 7.96132 22.8672 7.98427 22.8672 8.00722Z" fill="#FCCB4F"/>
<path d="M5.18747 10.7782C5.50959 10.9641 5.77033 11.4158 5.76928 11.785L5.72914 25.9448C5.72848 26.1786 5.78845 26.426 5.8929 26.6656C5.99734 26.9053 6.14709 27.1339 6.32044 27.3186C6.43657 27.4423 6.5632 27.547 6.69886 27.6253C6.90232 27.7419 7.08658 27.7786 7.24356 27.7484C7.39891 27.7173 7.52375 27.6174 7.59778 27.4595C7.64739 27.3543 7.67443 27.225 7.67571 27.0686L7.70861 15.4638C7.70966 15.0936 7.97126 14.9445 8.29343 15.1305C8.61555 15.3165 8.8755 15.7667 8.87445 16.1369L8.84155 27.7417C8.83963 28.419 8.59727 28.8989 8.21007 29.1186C7.82371 29.3397 7.28442 29.3062 6.69506 28.965C6.10474 28.6241 5.56812 28.0366 5.18409 27.3715C4.79944 26.7062 4.56059 25.9485 4.56251 25.2712L4.60265 11.1114C4.6037 10.7422 4.86614 10.5926 5.18747 10.7782Z" fill="#F7B92F"/>
</svg>
