<svg width="51" height="51" viewBox="0 0 51 51" fill="none" xmlns="http://www.w3.org/2000/svg">
<path d="M35.3478 20.9377L35.35 20.9364C35.3495 20.8377 35.3238 15.9187 35.3255 16.2311L33.6727 15.3153L32.5039 15.997V15.6876L31.8294 15.2947L31.8344 13.7522L31.2429 13.426L31.2232 5.55687L29.318 4.44968L24.5069 1.71082L8.69277 10.8411L8.72425 23.4086L7.07815 24.359L6.75478 25.6838L6.53649 26.5718L6.48438 45.623L6.48635 45.6242V45.6266L11.6632 48.5708L11.6643 48.5701L11.666 48.5711C11.7655 48.5116 35.1979 34.516 35.2993 34.4555L35.35 20.9395L35.3478 20.9408V20.9377Z" fill="#FEBC1F"/>
<path d="M30.1737 12.8361L31.8339 13.7518L31.8264 15.2929L32.5039 15.6874V16.0001L33.6727 15.3152L35.3255 16.2309L35.3478 20.936L35.2957 34.4557L11.666 48.571L6.48438 45.6229L6.53649 26.5717L7.07999 24.3606L14.5471 20.05L16.1571 20.9879L30.1737 12.8361Z" fill="#FEBC1F"/>
<path d="M8.15039 45.0529L31.7828 29.7515L34.3415 32.7903L10.6467 46.5602L8.15039 45.0529Z" fill="#EF7B56"/>
<path d="M31.8345 13.752L8.19835 27.4879L6.53711 26.5715L30.1733 12.8357" fill="#FFDE9B"/>
<path d="M31.834 13.7521L31.7828 29.7514L8.15039 45.0529L8.19788 27.4879L31.834 13.7521Z" fill="#FEBC1F"/>
<path d="M8.19852 27.488L6.53711 26.5729L7.07749 24.359L8.69663 25.3L8.19852 27.488Z" fill="#FFDE9B"/>
<path d="M8.69727 25.2999L7.07812 24.359L14.5467 20.047L16.1658 20.9879L8.69727 25.2999Z" fill="#FFDE9B"/>
<path d="M16.1659 20.9879L16.717 22.5716L8.19922 27.4879L8.69733 25.2999L16.1659 20.9879Z" fill="#FEBC1F"/>
<path d="M35.3474 20.936L16.393 31.9766L14.7403 31.0609L14.7105 26.3558C16.6494 25.2269 7.68699 30.4453 33.6724 15.3152L35.3251 16.2309L35.3474 20.936Z" fill="#FEBC1F"/>
<path d="M31.2894 33.1535L10.6816 45.0554V45.7809L8.77961 44.6731L8.69141 10.8397L24.5051 1.71228L29.3188 4.44755L31.2208 5.5554L31.2894 33.1535Z" fill="#DEDFFB"/>
<path d="M26.4286 8.32545L24.5234 7.21827L29.3189 4.44958L31.2241 5.55676L26.4286 8.32545Z" fill="#D1CFD9"/>
<path d="M26.413 2.81787L24.5078 1.71069L29.3189 4.44957L31.2241 5.55675L26.413 2.81787Z" fill="#8A8A9C"/>
<path d="M26.4121 2.81787L31.2232 5.55675L26.4277 8.32544L26.4121 2.81787Z" fill="#DEDFFB"/>
<path d="M26.4286 8.32543L24.5234 7.21826L24.5078 1.71069L26.413 2.81787L26.4286 8.32543Z" fill="#777786"/>
<path d="M10.5985 11.9481L8.69336 10.841L24.5074 1.71069L26.4126 2.81787L10.5985 11.9481Z" fill="#E9E7FC"/>
<path d="M10.6833 45.7833L8.77814 44.6761L8.69336 10.8409L10.5985 11.9481L10.6833 45.7833Z" fill="#DEDFFB"/>
<path d="M26.4117 2.81787L26.4274 8.32544L31.2229 5.55675L31.292 33.1539L10.6824 45.0529L10.5977 11.9481L26.4117 2.81787Z" fill="#F3F1FC"/>
<path d="M35.3251 16.2309C23.328 23.2173 34.1397 16.9398 16.3633 27.2715L14.7105 26.3558C16.6494 25.2269 7.68699 30.4453 33.6724 15.3152L35.3251 16.2309Z" fill="#FFDE9B"/>
<path d="M35.325 16.2332L35.3504 20.9363L16.3907 31.9769L16.3652 27.2737L35.325 16.2332Z" fill="#FEBC1F"/>
<path d="M16.3894 31.9768L14.7364 31.0616L14.7109 26.3584L16.364 27.2736L16.3894 31.9768Z" fill="#FFD06C"/>
<path d="M10.0586 33.7623L14.7374 31.066L17.9637 32.8454L13.2849 35.5417L10.0586 33.7623Z" fill="#FFDE9B"/>
<path d="M13.2847 35.5416L11.6632 48.5706L6.48633 45.6265L6.53696 26.5715L8.19821 27.4879L8.15072 45.0528L10.0109 46.1677L10.0583 33.7622L13.2847 35.5416Z" fill="#FFD06C"/>
<path d="M11.7147 34.6753L35.3508 20.9395L35.3002 34.4554L11.6641 48.5707L11.7147 34.6753Z" fill="#FEBC1F"/>
<path d="M15.6504 16.6306C15.7906 16.4542 15.9135 16.2473 16.0111 16.0255L16.0128 16.6032L15.6509 16.8122L15.6504 16.6306Z" fill="#51383C"/>
<path d="M14.6903 17.6539C14.6912 17.6623 14.6912 17.6723 14.6921 17.6817C14.7207 18.4048 15.623 17.9076 15.6524 17.1272L15.8174 17.032C15.8348 17.0796 15.8436 17.1371 15.8438 17.1996C15.8449 17.5678 15.5452 18.04 15.1738 18.2544C14.8033 18.4683 14.501 18.3436 14.5 17.9755C14.4998 17.9129 14.5083 17.8454 14.5263 17.7774L14.6921 17.6817C14.6903 17.6728 14.6903 17.6638 14.6903 17.6539Z" fill="#FEBC1F"/>
<path d="M14.6895 17.1861C14.8348 17.2007 14.9982 17.1619 15.1709 17.0622C15.3436 16.9624 15.5068 16.8128 15.6515 16.6306L15.652 16.8122L15.6529 17.098C15.6529 17.1069 15.6529 17.1169 15.6521 17.1273C15.6226 17.9089 14.7203 18.4037 14.6917 17.6818C14.6908 17.6723 14.6908 17.6624 14.6908 17.6535L14.69 17.3677L14.6895 17.1861Z" fill="#F5C9C6"/>
<path d="M14.3828 17.0543C14.4705 17.1294 14.574 17.1744 14.6888 17.186L14.6893 17.3676L14.3853 17.5431C14.3828 17.0863 14.3837 17.1958 14.3828 17.0543Z" fill="#51383C"/>
<path d="M16.224 16.7972C16.2439 16.7857 16.2612 16.7757 16.2793 16.7662C16.6628 16.5706 17.0031 16.6744 17.1278 17.0119C16.612 17.8495 15.928 18.5724 15.1784 19.0052C14.4262 19.4395 13.7404 19.5074 13.2207 19.2667C13.343 18.7865 13.6816 18.2919 14.065 18.0447C14.0822 18.0337 14.1004 18.0232 14.1194 18.0123L14.5262 17.7774C14.5082 17.8455 14.4997 17.913 14.4999 17.9755C14.5009 18.3437 14.8032 18.4683 15.1737 18.2544C15.5451 18.04 15.8447 17.5678 15.8437 17.1996C15.8435 17.1371 15.8347 17.0796 15.8173 17.032L16.224 16.7972Z" fill="#FFD06C"/>
<path d="M14.8198 14.7474C14.9546 14.6894 15.0758 14.7308 15.1238 14.8492C15.1412 14.8928 15.1491 14.9251 15.1569 14.9553C15.2007 15.1328 15.38 15.238 15.5563 15.18C15.7107 15.129 15.875 15.0129 16.0098 14.9192L16.0129 16.0255C15.9153 16.2473 15.7923 16.4542 15.6522 16.6306C15.5074 16.8127 15.3442 16.9624 15.1716 17.0621C14.9989 17.1618 14.8354 17.2007 14.6901 17.186C14.5753 17.1744 14.4718 17.1295 14.3841 17.0543C14.3743 15.5216 14.3497 15.3883 14.4663 15.1304C14.5345 14.9791 14.6702 14.8105 14.8198 14.7474Z" fill="#F4D6D4"/>
<path d="M15.1598 13.5762C15.1634 13.5741 15.167 13.572 15.1706 13.57C15.7225 13.2573 16.2498 13.4141 16.4061 13.9381C16.5019 14.2547 16.4783 14.659 16.4795 16.0249C16.48 16.1956 16.362 16.4018 16.2144 16.4871L16.1962 16.4976L16.0131 16.6033L16.0115 16.0256L16.0084 14.9192C15.8737 15.0129 15.7093 15.1291 15.555 15.18C15.3787 15.2381 15.1993 15.1329 15.1555 14.9554C15.1477 14.9251 15.1398 14.8929 15.1224 14.8493C15.0745 14.7308 14.9532 14.6895 14.8184 14.7474C14.6681 14.8108 14.533 14.9795 14.4649 15.1305C14.3355 15.4166 14.3741 15.5769 14.3852 17.5432L14.1503 17.6788L14.1356 17.6873C13.9879 17.7725 13.8684 17.7034 13.8679 17.5337L13.8678 17.495C13.8672 17.4559 13.8569 16.713 13.8515 16.3226C13.8471 16.011 13.8436 15.6919 13.924 15.3444C14.0853 14.6449 14.6109 13.893 15.1598 13.5762Z" fill="#8A4852"/>
<path d="M15.1586 12.2303C16.7701 11.2998 18.0845 12.0628 18.0898 13.9334C18.0927 14.9337 17.7204 16.0492 17.1271 17.012C17.0025 16.6744 16.6622 16.5707 16.2787 16.7663C16.2605 16.7757 16.2433 16.7857 16.2234 16.7972L15.8166 17.032L15.6517 17.1273C15.6525 17.1169 15.6525 17.1069 15.6525 17.098L15.6516 16.8122L16.1966 16.4976L16.2147 16.4871C16.3624 16.4018 16.4803 16.1956 16.4799 16.0249C16.4787 14.7025 16.5033 14.2581 16.4065 13.9381C16.2501 13.4141 15.7229 13.2573 15.171 13.5699C14.6113 13.893 14.0856 14.6449 13.9243 15.3443C13.844 15.6919 13.8475 16.0109 13.8518 16.3225C13.8573 16.713 13.8676 17.4559 13.8681 17.495L13.8683 17.5337C13.8687 17.7034 13.9883 17.7725 14.136 17.6873L14.6896 17.3676L14.6904 17.6535C14.6895 17.6639 14.6896 17.6728 14.6913 17.6817L14.5255 17.7775L14.1187 18.0123C14.0997 18.0233 14.0816 18.0338 14.0643 18.0447C13.681 18.2919 13.3424 18.7866 13.2201 19.2667C12.6224 18.9925 12.245 18.3098 12.2422 17.3095C12.2369 15.4389 13.5427 13.1632 15.1586 12.2303Z" fill="#6BB4F9"/>
<path d="M12.459 25.1988V26.2135L29.1032 16.6039V15.5892L12.459 25.1988Z" fill="#DEDFFB"/>
<path d="M12.459 22.5367V23.5514L29.1032 13.9418V12.9271L12.459 22.5367Z" fill="#DEDFFB"/>
<path d="M19.2715 15.9407V16.9554L29.1022 11.2796V10.2649L19.2715 15.9407Z" fill="#DEDFFB"/>
<path d="M19.2715 13.2785V14.2932L29.1022 8.61734V7.60266L19.2715 13.2785Z" fill="#DEDFFB"/>
<path d="M18.903 9.88357C18.8577 9.86367 18.8103 9.84617 18.7627 9.82928C18.9018 9.87751 19.0352 9.9367 19.1608 10.0096L18.2819 9.49949C17.4226 8.99865 16.2316 9.06908 14.9169 9.82815C12.3032 11.3369 10.1934 14.9946 10.2012 17.9965C10.2059 19.4881 10.7333 20.5383 11.5816 21.0313L12.459 21.5429C12.6119 21.5756 13.757 22.4095 15.8236 21.2123C18.4389 19.703 20.5511 16.0467 20.5424 13.0454C20.5386 11.7304 20.1234 10.426 18.903 9.88357ZM12.3148 20.8436C10.4181 18.9639 12.196 12.961 16.0274 10.7467C16.691 10.3607 17.3459 10.1611 17.9184 10.1611C18.2177 10.1611 18.4866 10.2175 18.7338 10.3216C19.2239 10.8117 19.4972 11.6098 19.5015 12.6594C19.5058 15.5089 17.4977 18.9873 15.0169 20.4186C14.3533 20.8046 13.7027 21.0041 13.1302 21.0041C12.8309 21.0041 12.562 20.9477 12.3148 20.8436ZM11.4139 20.3085C11.3654 20.1959 11.3213 20.0782 11.2829 19.9543C11.3179 20.0717 11.3445 20.1439 11.4139 20.3085ZM11.5166 20.5252C11.527 20.5446 11.536 20.564 11.5471 20.5834C11.6122 20.7005 11.6816 20.8133 11.7596 20.9131C11.7596 20.9131 11.7612 20.9156 11.7616 20.9169C11.6714 20.7973 11.5902 20.6659 11.5166 20.5252ZM11.8551 21.0301C12.0981 21.3195 11.9164 21.1103 11.8058 20.9715C11.8222 20.991 11.8386 21.0114 11.8551 21.0301ZM12.1543 21.3294C12.184 21.3554 12.2968 21.4378 12.3178 21.4527C12.2063 21.3761 11.7618 21.0153 12.1543 21.3294Z" fill="#475675"/>
<path d="M11.3728 22.5038C11.0932 22.253 10.6204 21.9216 10.2371 21.7111C10.2111 21.6967 10.1852 21.6852 10.1621 21.6708L11.122 20.2785C11.2045 20.1722 12.0622 20.7796 12.2549 20.9789C12.4326 21.1567 12.3688 20.972 11.3728 22.5038Z" fill="#4C5C75"/>
<path d="M11.9841 22.3907C10.7026 25.0075 8.98373 27.5091 6.85046 29.8955C6.85046 29.9032 6.85046 29.9032 6.84278 29.9109C6.8121 29.9569 6.6433 29.9032 6.35938 29.7497C5.89894 29.4965 5.31574 29.0744 5.04719 28.8059C4.93975 28.6984 4.90139 28.6294 4.92438 28.6064L4.93206 28.5987C6.3133 25.8055 8.01686 23.2963 10.058 21.0786C10.1859 20.8869 12.0783 22.2025 11.9841 22.3907Z" fill="#E93565"/>
<path d="M11.9806 22.3891C10.7002 25.0121 8.9753 27.5165 6.84138 29.9142C6.86213 29.8875 6.82063 29.8193 6.71691 29.7126C6.45313 29.4429 5.86334 29.0191 5.40099 28.7672C5.11943 28.616 4.95049 28.5597 4.92383 28.6042C6.31087 25.8123 8.01801 23.2931 10.06 21.0792C10.1837 20.8938 12.0907 22.2058 11.9806 22.3891Z" fill="#F45170"/>
<path d="M6.36255 29.7498C5.90112 29.4988 5.31172 29.0753 5.04606 28.8037C4.78108 28.5328 4.94048 28.5167 5.40191 28.7677C5.86454 29.0193 6.45274 29.4422 6.71772 29.7131C6.98339 29.9847 6.82518 30.0015 6.36255 29.7498Z" fill="#E93565"/>
<path d="M19.1475 10.0023C19.1524 10.0051 19.158 10.0067 19.1628 10.0096L18.2838 9.49949C17.4246 8.99865 16.2335 9.06908 14.9188 9.82819C12.3051 11.337 10.1953 14.9946 10.2031 17.9965C10.2079 19.4881 10.7353 20.5382 11.5836 21.0313L12.461 21.5429C12.6142 21.5755 13.763 22.407 15.8256 21.2123C18.4409 19.703 20.5531 16.0467 20.5444 13.0454C20.5372 10.5971 19.0595 9.90424 19.1475 10.0023ZM12.3168 20.8437C10.4201 18.9639 12.1979 12.961 16.0294 10.7467C16.693 10.3607 17.3479 10.1612 17.9204 10.1612C18.2196 10.1612 18.4885 10.2176 18.7358 10.3216C19.2259 10.8117 19.4992 11.6098 19.5035 12.6594C19.5078 15.5089 17.4997 18.9873 15.0188 20.4186C14.3552 20.8046 13.7047 21.0041 13.1322 21.0041C12.8329 21.0041 12.564 20.9478 12.3168 20.8437Z" fill="#1D2943"/>
<path d="M19.1608 10.0096C18.3 9.51029 17.109 9.58073 15.7943 10.3398C11.6618 12.7267 9.4803 19.8062 12.459 21.5429L11.5816 21.0313C10.7333 20.5383 10.2059 19.4881 10.2012 17.9965C10.1934 14.9946 12.3031 11.3369 14.9169 9.82816C16.2316 9.06908 17.4226 8.99865 18.2819 9.49949L19.1608 10.0096Z" fill="#4C5C75"/>
<path d="M15.7947 10.339C12.0974 12.4763 10.1146 18.0724 11.5485 20.5835C11.6136 20.7006 11.683 20.8133 11.7611 20.9131C11.7611 20.9131 11.7611 20.9174 11.7654 20.9218C11.7958 20.9608 11.8261 20.9955 11.8565 21.0302C12.8555 22.2194 14.4748 21.9945 15.825 21.2124C18.4403 19.703 20.5525 16.0468 20.5439 13.0454C20.535 9.99659 18.3374 8.8365 15.7947 10.339ZM16.0289 10.7467C16.6925 10.3607 17.3474 10.1612 17.9199 10.1612C18.2191 10.1612 18.488 10.2176 18.7353 10.3217C19.2254 10.8118 19.4986 11.6098 19.503 12.6594C19.5073 15.509 17.4992 18.9874 15.0183 20.4187C14.3547 20.8047 13.7041 21.0042 13.1316 21.0042C12.8324 21.0042 12.5635 20.9478 12.3162 20.8437C10.4196 18.9639 12.1974 12.9611 16.0289 10.7467Z" fill="#1D2943"/>
<path d="M20.0713 13.0454C20.08 15.895 18.0719 19.3734 15.591 20.8047C14.9274 21.1906 14.2768 21.3945 13.7043 21.3945C13.1405 21.3945 12.6721 21.1993 12.3164 20.8437C12.5636 20.9478 12.8325 21.0041 13.1318 21.0041C13.7043 21.0041 14.3549 20.8047 15.0185 20.4186C17.4993 18.9874 19.5075 15.5089 19.5031 12.6594C19.4988 11.6098 19.2255 10.8118 18.7354 10.3217C19.5812 10.6816 20.067 11.6445 20.0713 13.0454Z" fill="#4C5C75"/>
<g opacity="0.4">
<path d="M19.5031 12.662C19.5031 12.8973 19.4835 13.1424 19.4541 13.3875C19.2188 15.5934 17.9247 18.0051 16.2188 19.5345C15.8365 19.8777 15.4345 20.1816 15.0227 20.4169C14.7482 20.5737 14.4737 20.7012 14.2188 20.7993C13.8267 20.9365 13.4639 21.0051 13.1306 21.0051C12.8169 21.0051 12.5619 20.9463 12.3168 20.8483C10.3219 18.8533 12.3672 13.4369 15.3659 11.1914C15.5816 11.0346 15.807 10.8777 16.0326 10.7503C16.6894 10.3679 17.3463 10.162 17.9149 10.162C18.2188 10.162 18.4933 10.2208 18.7287 10.3189C18.7384 10.3287 18.7384 10.3287 18.7482 10.3385C18.9737 10.564 19.1404 10.8483 19.2679 11.2012C19.4247 11.6032 19.5031 12.0934 19.5031 12.662Z" fill="#E9E7FC"/>
</g>
<path d="M46.3582 16.1588L44.5869 15.1294L29.5938 23.7857L29.6544 47.5416L31.4257 48.571L46.4189 39.9147L46.3582 16.1588Z" fill="#E9E7FC"/>
<path d="M31.4257 48.571L29.6544 47.5416L29.5938 23.7856L31.3651 24.815L31.4257 48.571Z" fill="#DEDFFB"/>
<path d="M31.3651 24.8151L29.5938 23.7857L44.5869 15.1294L46.3582 16.1588L31.3651 24.8151Z" fill="#E9E7FC"/>
<path d="M46.3584 16.1588L46.419 39.9147L31.4259 48.571L31.3652 24.8151L46.3584 16.1588Z" fill="#F3F1FC"/>
<path d="M35.4102 28.7104C35.5384 28.549 35.6509 28.3598 35.7402 28.1569L35.7417 28.6854L35.4106 28.8765L35.4102 28.7104Z" fill="#51383C"/>
<path d="M34.5295 29.6466C34.5303 29.6543 34.5304 29.6634 34.5312 29.672C34.5574 30.3336 35.3829 29.8787 35.4098 29.1648L35.5607 29.0776C35.5767 29.1212 35.5847 29.1738 35.5849 29.231C35.5858 29.5678 35.3117 29.9999 34.9719 30.196C34.6329 30.3917 34.3564 30.2776 34.3555 29.9408C34.3553 29.8836 34.363 29.8218 34.3795 29.7596L34.5312 29.672C34.5296 29.6639 34.5296 29.6557 34.5295 29.6466Z" fill="#DF3260"/>
<path d="M34.5293 29.2186C34.6623 29.232 34.8118 29.1965 34.9698 29.1053C35.1278 29.014 35.277 28.8771 35.4095 28.7104L35.4099 28.8766L35.4107 29.1381C35.4107 29.1462 35.4107 29.1553 35.41 29.1648C35.383 29.8799 34.5575 30.3326 34.5314 29.6721C34.5306 29.6635 34.5305 29.6544 34.5305 29.6462L34.5298 29.3848L34.5293 29.2186Z" fill="#F5C9C6"/>
<path d="M34.25 29.0981C34.3303 29.1669 34.4249 29.208 34.53 29.2186L34.5304 29.3848L34.2523 29.5453C34.252 29.4831 34.2503 29.1388 34.25 29.0981Z" fill="#51383C"/>
<path d="M35.9332 28.8628C35.9514 28.8523 35.9672 28.8432 35.9838 28.8345C36.3347 28.6556 36.646 28.7505 36.76 29.0593C36.2881 29.8256 35.6624 30.4869 34.9766 30.8829C34.2884 31.2802 33.661 31.3423 33.1855 31.1221C33.2975 30.6828 33.6072 30.2303 33.958 30.0041C33.9737 29.9941 33.9903 29.9845 34.0077 29.9745L34.3799 29.7596C34.3634 29.8219 34.3557 29.8836 34.3558 29.9408C34.3568 30.2777 34.6333 30.3917 34.9723 30.196C35.312 29.9999 35.5862 29.5679 35.5853 29.231C35.5851 29.1738 35.577 29.1212 35.5611 29.0777L35.9332 28.8628Z" fill="#F45170"/>
<path d="M34.6481 26.9875C34.7714 26.9345 34.8823 26.9723 34.9261 27.0807C34.9421 27.1206 34.9493 27.1501 34.9565 27.1777C34.9965 27.3401 35.1606 27.4364 35.3219 27.3832C35.3801 27.364 35.4391 27.3352 35.4985 27.3009C35.5778 27.2551 35.6577 27.1997 35.7367 27.1447L35.7396 28.1568C35.6503 28.3597 35.5378 28.549 35.4096 28.7104C35.2771 28.877 35.1279 29.0139 34.9699 29.1052C34.8119 29.1964 34.6623 29.232 34.5294 29.2185C34.4244 29.2079 34.3297 29.1668 34.2494 29.0981C34.2423 27.9823 34.2048 27.6028 34.3246 27.3379C34.3871 27.1995 34.5112 27.0452 34.6481 26.9875Z" fill="#F4D6D4"/>
<path d="M34.9604 25.916C34.9637 25.9141 34.967 25.9122 34.9703 25.9103C35.4752 25.6243 35.9576 25.7677 36.1006 26.2472C36.1629 26.4531 36.1652 26.7091 36.1675 26.9606C36.1718 27.3564 36.1674 27.7582 36.1677 28.1563C36.1682 28.3125 36.0603 28.5011 35.9252 28.5792L35.9086 28.5887L35.7411 28.6854L35.7396 28.1569L35.7367 27.1447C35.6576 27.1998 35.5778 27.2552 35.4985 27.301C35.4391 27.3353 35.3801 27.3641 35.3219 27.3833C35.1606 27.4364 34.9965 27.3402 34.9565 27.1778C34.9493 27.1501 34.9421 27.1206 34.9261 27.0807C34.8823 26.9724 34.7714 26.9345 34.6481 26.9876C34.5105 27.0455 34.3869 27.1998 34.3246 27.338C34.2049 27.6027 34.241 27.7859 34.2494 29.0981C34.2497 29.1381 34.2514 29.4827 34.2517 29.5453L34.0368 29.6694L34.0234 29.6772C33.8883 29.7552 33.7789 29.6919 33.7784 29.5367C33.7747 29.2597 33.7684 28.7859 33.7634 28.4286C33.7594 28.1435 33.7562 27.8517 33.8297 27.5337C33.9773 26.8938 34.4582 26.2059 34.9604 25.916Z" fill="#8A4852"/>
<path d="M34.9591 24.6847C36.4335 23.8335 37.636 24.5314 37.6409 26.2428C37.6435 27.158 37.3029 28.1785 36.7601 29.0593C36.6461 28.7505 36.3348 28.6556 35.9839 28.8345C35.9673 28.8432 35.9515 28.8523 35.9333 28.8628L35.5612 29.0777L35.4103 29.1648C35.411 29.1553 35.411 29.1462 35.411 29.138L35.4102 28.8766L35.9088 28.5887L35.9254 28.5791C36.0605 28.5011 36.1684 28.3124 36.1679 28.1563C36.1676 27.7582 36.172 27.3564 36.1677 26.9606C36.1654 26.7091 36.1631 26.4531 36.1008 26.2471C35.9578 25.7677 35.4754 25.6243 34.9705 25.9103C34.4585 26.2059 33.9775 26.8937 33.83 27.5337C33.7565 27.8516 33.7597 28.1435 33.7636 28.4286C33.765 28.5273 33.7789 29.6354 33.7787 29.5366C33.7791 29.6919 33.8885 29.7551 34.0236 29.6771L34.5301 29.3847L34.5308 29.6462C34.53 29.6557 34.5301 29.6639 34.5317 29.6721L34.38 29.7597L34.0078 29.9745C33.9904 29.9846 33.9738 29.9941 33.958 30.0042C33.6073 30.2303 33.2976 30.6829 33.1856 31.1221C32.6389 30.8713 32.2936 30.2467 32.291 29.3315C32.2862 27.6202 33.4808 25.5382 34.9591 24.6847Z" fill="#5094FF"/>
<path d="M35.2617 32.3974V33.2036L45.5029 27.2908V26.4845L35.2617 32.3974Z" fill="#DEDFFB"/>
<path d="M35.2617 34.2256V35.0318L45.5029 29.119V28.3127L35.2617 34.2256Z" fill="#DEDFFB"/>
<path d="M38.4629 23.2557V24.062L45.5043 19.9966V19.1903L38.4629 23.2557Z" fill="#DEDFFB"/>
<path d="M38.4629 25.0841V25.8904L45.5043 21.8249V21.0187L38.4629 25.0841Z" fill="#DEDFFB"/>
<path d="M35.2617 36.0539V36.8602L45.5029 30.9474V30.1411L35.2617 36.0539Z" fill="#DEDFFB"/>
<path d="M35.2617 37.8822V38.6884L45.5029 32.7756V31.9694L35.2617 37.8822Z" fill="#DEDFFB"/>
<path d="M35.2617 39.7105V40.5168L45.5029 34.6039V33.7977L35.2617 39.7105Z" fill="#DEDFFB"/>
<path d="M35.2617 41.5388V42.345L45.5029 36.4322V35.626L35.2617 41.5388Z" fill="#DEDFFB"/>
<path d="M35.2617 43.3672V44.1734L45.5029 38.2605V37.4543L35.2617 43.3672Z" fill="#DEDFFB"/>
<path d="M34.0332 33.1571L34.0391 35.2219L32.2422 36.2593L32.2363 34.1946L34.0332 33.1571Z" fill="#57B3FE"/>
<path d="M34.0332 36.3923L34.0391 38.4571L32.2422 39.4946L32.2363 37.4298L34.0332 36.3923Z" fill="#72D561"/>
<path d="M34.0332 39.6276L34.0391 41.6923L32.2422 42.7298L32.2363 40.665L34.0332 39.6276Z" fill="#F45170"/>
<path d="M34.0332 42.8628L34.0391 44.9276L32.2422 45.965L32.2363 43.9002L34.0332 42.8628Z" fill="#DBA660"/>
<path d="M33.7498 33.7975C33.7789 33.7807 33.8081 33.7768 33.8306 33.7896C33.8757 33.8153 33.8759 33.8975 33.8312 33.975C32.9638 35.4586 32.9511 35.561 32.8507 35.619C32.7523 35.6758 32.6891 35.5668 32.444 35.4389C32.3717 35.4014 32.4231 35.2288 32.5238 35.1706C32.5527 35.154 32.5813 35.1504 32.6028 35.1638L32.8508 35.3028L33.6693 33.8828C33.6917 33.844 33.7207 33.8143 33.7498 33.7975Z" fill="white"/>
<path d="M33.7498 36.9358C33.7789 36.919 33.8081 36.9151 33.8306 36.9279C33.8757 36.9536 33.8759 37.0358 33.8312 37.1133C32.9638 38.5969 32.9511 38.6994 32.8507 38.7573C32.7523 38.8141 32.6891 38.7051 32.444 38.5772C32.3717 38.5397 32.4231 38.3671 32.5238 38.3089C32.5527 38.2923 32.5813 38.2887 32.6028 38.3021L32.8508 38.4411L33.6693 37.0211C33.6917 36.9823 33.7207 36.9526 33.7498 36.9358Z" fill="white"/>
<path d="M33.7498 40.1327C33.7789 40.1159 33.8081 40.112 33.8306 40.1248C33.8757 40.1505 33.8759 40.2327 33.8312 40.3102C32.9638 41.7938 32.9511 41.8962 32.8507 41.9542C32.7523 42.011 32.6891 41.902 32.444 41.7741C32.3717 41.7366 32.4231 41.564 32.5238 41.5058C32.5527 41.4892 32.5813 41.4856 32.6028 41.499L32.8508 41.638L33.6693 40.218C33.6917 40.1792 33.7207 40.1495 33.7498 40.1327Z" fill="white"/>
<path d="M33.7498 43.3786C33.7789 43.3618 33.8081 43.3579 33.8306 43.3708C33.8757 43.3965 33.8759 43.4786 33.8312 43.5562C32.9638 45.0398 32.9511 45.1422 32.8507 45.2002C32.7523 45.257 32.6891 45.1479 32.444 45.02C32.3717 44.9826 32.4231 44.81 32.5238 44.7518C32.5527 44.7351 32.5813 44.7315 32.6028 44.745L32.8508 44.8839L33.6693 43.4639C33.6917 43.4252 33.7207 43.3954 33.7498 43.3786Z" fill="white"/>
<path d="M38.8887 26.538L39.1852 27.0507L39.8365 26.7817L39.3678 27.5876L39.4785 28.2731L38.8936 28.2599L38.3107 28.9473L38.4171 28.1365L37.9453 27.8736L38.5961 27.3908L38.8887 26.538Z" fill="#FFD06C"/>
<path d="M41.5352 25.0104L41.8316 25.5232L42.4882 25.2511L42.0143 26.06L42.1301 26.7425L41.5401 26.7323L40.9571 27.4197L41.0687 26.606L40.5918 26.346L41.2477 25.8603L41.5352 25.0104Z" fill="#FFD06C"/>
<path d="M44.1849 23.48L44.4762 23.9957L45.1327 23.7237L44.6588 24.5326L44.7746 25.2151L44.1898 25.2019L43.6017 25.8923L43.7132 25.0785L43.2363 24.8186L43.8923 24.3329L44.1849 23.48Z" fill="#FFD06C"/>
</svg>
