<svg width="24" height="25" viewBox="0 0 24 25" fill="none" xmlns="http://www.w3.org/2000/svg">
<path d="M5.7 9.34087C5.14772 9.34087 4.7 9.78858 4.7 10.3409C4.7 10.8932 5.14772 11.3409 5.7 11.3409V9.34087ZM9.75 10.3409L10.4571 11.048C10.8476 10.6575 10.8476 10.0243 10.4571 9.63376L9.75 10.3409ZM7.24289 11.4338C6.85237 11.8243 6.85237 12.4575 7.24289 12.848C7.63342 13.2385 8.26658 13.2385 8.65711 12.848L7.24289 11.4338ZM8.65711 7.83376C8.26658 7.44324 7.63342 7.44324 7.24289 7.83376C6.85237 8.22429 6.85237 8.85745 7.24289 9.24798L8.65711 7.83376ZM17.85 14.9409C18.4023 14.9409 18.85 14.4932 18.85 13.9409C18.85 13.3886 18.4023 12.9409 17.85 12.9409V14.9409ZM13.8 13.9409L13.0929 13.2338C12.7024 13.6243 12.7024 14.2575 13.0929 14.648L13.8 13.9409ZM16.3071 12.848C16.6976 12.4575 16.6976 11.8243 16.3071 11.4338C15.9166 11.0432 15.2834 11.0432 14.8929 11.4338L16.3071 12.848ZM14.8929 16.448C15.2834 16.8385 15.9166 16.8385 16.3071 16.448C16.6976 16.0575 16.6976 15.4243 16.3071 15.0338L14.8929 16.448ZM4.8 3.14087V4.14087H11.1V3.14087V2.14087H4.8V3.14087ZM11.55 17.5409V16.5409H4.8V17.5409V18.5409H11.55V17.5409ZM3 15.7409H4V4.94087H3H2V15.7409H3ZM12.9 4.94087H11.9V7.64087H12.9H13.9V4.94087H12.9ZM4.8 17.5409V16.5409C4.35817 16.5409 4 16.1827 4 15.7409H3H2C2 17.2873 3.2536 18.5409 4.8 18.5409V17.5409ZM11.1 3.14087V4.14087C11.5418 4.14087 11.9 4.49904 11.9 4.94087H12.9H13.9C13.9 3.39447 12.6464 2.14087 11.1 2.14087V3.14087ZM4.8 3.14087V2.14087C3.2536 2.14087 2 3.39447 2 4.94087H3H4C4 4.49904 4.35817 4.14087 4.8 4.14087V3.14087ZM12.9 6.74087V7.74087H19.2V6.74087V5.74087H12.9V6.74087ZM21 8.54087H20V19.3409H21H22V8.54087H21ZM19.2 21.1409V20.1409H12.9V21.1409V22.1409H19.2V21.1409ZM11.1 19.3409H12.1V8.54087H11.1H10.1V19.3409H11.1ZM12.9 21.1409V20.1409C12.4582 20.1409 12.1 19.7827 12.1 19.3409H11.1H10.1C10.1 20.8873 11.3536 22.1409 12.9 22.1409V21.1409ZM21 19.3409H20C20 19.7827 19.6418 20.1409 19.2 20.1409V21.1409V22.1409C20.7464 22.1409 22 20.8873 22 19.3409H21ZM19.2 6.74087V7.74087C19.6418 7.74087 20 8.09904 20 8.54087H21H22C22 6.99447 20.7464 5.74087 19.2 5.74087V6.74087ZM12.9 6.74087V5.74087C11.3536 5.74087 10.1 6.99447 10.1 8.54087H11.1H12.1C12.1 8.09904 12.4582 7.74087 12.9 7.74087V6.74087ZM5.7 10.3409V11.3409H9.75V10.3409V9.34087H5.7V10.3409ZM7.95 12.1409L8.65711 12.848L10.4571 11.048L9.75 10.3409L9.04289 9.63376L7.24289 11.4338L7.95 12.1409ZM9.75 10.3409L10.4571 9.63376L8.65711 7.83376L7.95 8.54087L7.24289 9.24798L9.04289 11.048L9.75 10.3409ZM17.85 13.9409V12.9409H13.8V13.9409V14.9409H17.85V13.9409ZM15.6 12.1409L14.8929 11.4338L13.0929 13.2338L13.8 13.9409L14.5071 14.648L16.3071 12.848L15.6 12.1409ZM13.8 13.9409L13.0929 14.648L14.8929 16.448L15.6 15.7409L16.3071 15.0338L14.5071 13.2338L13.8 13.9409Z" fill="#3D3D3D"/>
</svg>
