<svg width="429" height="79" viewBox="0 0 429 79" fill="none" xmlns="http://www.w3.org/2000/svg">
<path d="M7.01273 24.308C4.81273 22.152 3.03073 19.93 2.23873 18.478C1.82073 17.73 1.62273 17.07 1.62273 16.52C1.62273 15.75 2.06273 15.332 2.81073 15.332C3.44873 15.332 4.04273 15.728 4.61473 16.388C5.40673 15.838 5.67073 14.848 5.67073 13.88C5.67073 13.066 5.49473 12.34 5.29673 11.878H0.69873V10.316H15.8787V11.878H13.6127V24H11.8307V18.368C11.0827 18.544 10.3127 18.632 9.49873 18.632C8.33273 18.632 6.94673 18.412 5.71473 17.774C5.27473 18.104 4.70273 18.39 4.04273 18.61C5.09873 20.04 6.59473 21.492 8.35473 23.12L7.01273 24.308ZM9.47673 17.048C10.3127 17.048 11.0607 16.96 11.8307 16.74V11.878H7.10073C7.34273 12.516 7.45273 13.22 7.45273 14.1C7.45273 15.068 7.23273 15.904 6.77073 16.608C7.67273 16.938 8.48673 17.048 9.47673 17.048ZM23.8599 23.076L22.5839 24.264C20.2739 22.174 18.6459 20.48 17.5019 18.852C16.7759 17.818 16.4899 17.114 16.4899 16.454C16.4899 15.772 16.9079 15.332 17.6559 15.332C18.2939 15.332 18.8879 15.706 19.4599 16.366C20.6699 15.794 21.1979 14.892 21.1979 13.704C21.1979 13.044 21.0439 12.318 20.8239 11.878H15.5659V10.316H24.8939V11.878H22.6499C22.8699 12.494 22.9579 13.132 22.9579 13.924C22.9579 16.3 21.4399 17.576 19.1739 18.544C20.3839 19.974 22.1219 21.602 23.8599 23.076ZM41.7939 11.878H34.6439V16.124C35.2599 15.574 36.1399 15.2 37.2179 15.2C39.3079 15.2 40.5399 16.542 40.5399 18.72C40.5399 20.26 39.9899 21.646 38.6919 23.076L37.1519 22.108C38.1199 21.118 38.7799 20.04 38.7799 18.698C38.7799 17.422 38.1419 16.74 37.0199 16.74C36.0959 16.74 35.1939 17.378 34.6439 18.368V24H32.8619V20.26C32.0699 20.964 31.0139 21.404 29.6939 21.404C27.4499 21.404 25.5799 20.128 25.5799 17.598C25.5799 15.2 27.2519 13.792 30.1119 13.792C30.8599 13.792 31.5419 13.88 32.0919 14.012L31.9379 15.618C31.4319 15.486 30.8159 15.398 30.1559 15.398C28.3519 15.398 27.3619 16.19 27.3619 17.664C27.3619 19.116 28.3739 19.82 29.6939 19.82C31.0359 19.82 32.2019 19.072 32.8619 18.126V11.878H24.5679V10.316H41.7939V11.878ZM45.1946 11.878V24H43.4126V11.878H41.4546V10.316H47.4606V11.878H45.1946ZM55.4419 23.076L54.1659 24.264C51.8559 22.174 50.2279 20.48 49.0839 18.852C48.3579 17.818 48.0719 17.114 48.0719 16.454C48.0719 15.772 48.4899 15.332 49.2379 15.332C49.8759 15.332 50.4699 15.706 51.0419 16.366C52.2519 15.794 52.7799 14.892 52.7799 13.704C52.7799 13.044 52.6259 12.318 52.4059 11.878H47.1479V10.316H56.4759V11.878H54.2319C54.4519 12.494 54.5399 13.132 54.5399 13.924C54.5399 16.3 53.0219 17.576 50.7559 18.544C51.9659 19.974 53.7039 21.602 55.4419 23.076ZM59.8899 11.878V24H58.1079V11.878H56.1499V10.316H58.0639C57.4039 7.302 56.3919 5.85 54.8959 5.85C53.6419 5.85 53.0919 6.598 53.0919 7.808C53.0919 8.666 53.3999 9.524 53.8399 10.47H52.0799C51.5739 9.436 51.3099 8.402 51.3099 7.478C51.3099 5.608 52.5199 4.288 54.6099 4.288C57.5799 4.288 58.8779 6.422 59.7139 10.316H62.1559V11.878H59.8899ZM69.6653 11.878V24H67.8833V11.878H65.9253V10.316H67.6853C67.3333 9.656 67.0913 8.974 67.0913 8.094C67.0913 5.74 69.0273 4.288 72.0193 4.288C76.2873 4.288 79.7193 6.884 81.8093 10.47H80.0053C77.8933 7.434 75.2093 5.872 72.4593 5.872C70.1933 5.872 68.8733 6.752 68.8733 8.336C68.8733 9.194 69.2033 9.832 69.5553 10.316H71.9313V11.878H69.6653ZM71.6187 10.316H84.1367V11.878H81.8707V24H80.0887V17.444H76.1067V18.632C76.1067 19.446 75.6667 19.864 74.9847 19.864C73.9067 19.864 72.4327 18.236 72.4327 17.004C72.4327 16.344 72.7847 15.882 73.7747 15.882H80.0887V11.878H71.6187V10.316ZM87.5618 11.878V24H85.7798V11.878H83.8218V10.316H85.5818C85.2298 9.656 84.9878 8.952 84.9878 8.006C84.9878 5.586 87.0558 4.288 90.0918 4.288C95.0858 4.288 99.0238 6.906 101.532 10.47H99.6618C97.1758 7.5 93.8758 5.872 90.5318 5.872C88.2218 5.872 86.7698 6.686 86.7698 8.336C86.7698 9.194 87.0558 9.81 87.4298 10.316H89.8278V11.878H87.5618ZM103.353 11.878H101.087V24H99.3051V20.832C98.5571 21.382 97.4571 21.756 96.0271 21.756C93.3871 21.756 91.6711 20.414 91.6711 18.434C91.6711 17.686 91.9351 16.916 92.6171 16.344C91.4511 15.618 90.6151 14.562 90.6151 13.088C90.6151 11.218 91.8691 10.096 93.8931 10.096C95.8731 10.096 96.7531 11.196 96.7531 12.538C96.7531 13.308 96.4451 13.968 95.7851 14.584L94.4651 13.792C94.8611 13.396 95.0591 12.978 95.0591 12.56C95.0591 11.9 94.6631 11.504 93.8931 11.504C92.9471 11.504 92.3311 12.164 92.3311 13.22C92.3311 14.254 92.9251 15.002 94.0251 15.552C94.5311 15.398 95.1031 15.354 95.6971 15.354C96.1151 15.354 96.5551 15.398 96.8851 15.464L96.7091 17.004C96.4231 16.96 96.1371 16.938 95.7411 16.938C94.2231 16.938 93.4311 17.488 93.4311 18.522C93.4311 19.644 94.5091 20.216 96.0051 20.216C97.3691 20.216 98.5351 19.622 99.3051 18.698V11.878H97.9411V10.316H103.353V11.878ZM117.582 19.248C117.582 21.404 115.998 22.636 113.842 22.636C111.224 22.636 109.464 21.096 107.77 16.432L109.332 15.794C110.52 19.226 111.774 21.03 113.688 21.03C114.986 21.03 115.844 20.304 115.844 19.05C115.844 18.038 115.162 17.246 114.304 16.63C113.754 16.784 113.094 16.894 112.346 16.96L111.994 15.398C114.744 15.046 115.47 14.452 115.47 13.242C115.47 12.274 114.832 11.658 113.644 11.658C112.654 11.658 111.708 11.966 110.762 12.538L110.19 10.998C111.202 10.426 112.346 10.096 113.71 10.096C116.218 10.096 117.23 11.57 117.23 13.264C117.23 14.408 116.812 15.332 115.822 15.97L115.866 16.014C116.57 16.19 117.34 16.256 118.022 16.256C118.704 16.256 119.43 16.19 120.2 15.992V11.878H118.594V10.316H129.946V11.878H127.68V24H125.898V11.878H121.982V24H120.2V17.62C119.606 17.774 118.99 17.818 118.374 17.818C118.022 17.818 117.604 17.796 117.186 17.73C117.45 18.192 117.582 18.72 117.582 19.248ZM142.166 11.878H139.9V24H138.14V20.524C137.304 21.14 136.204 21.47 134.928 21.47C132.508 21.47 130.638 20.084 130.638 17.642C130.638 15.024 132.53 13.792 135.192 13.792C136.006 13.792 136.732 13.88 137.348 14.034L137.238 15.618C136.622 15.486 136.006 15.398 135.258 15.398C133.608 15.398 132.42 16.19 132.42 17.686C132.42 19.006 133.278 19.886 134.928 19.886C136.226 19.886 137.37 19.292 138.14 18.368V11.878H129.626V10.316H142.166V11.878ZM137.781 7.016C137.781 6.312 138.331 5.74 138.991 5.74C139.651 5.74 140.201 6.312 140.201 7.016C140.201 7.72 139.651 8.292 138.991 8.292C138.331 8.292 137.781 7.72 137.781 7.016ZM153.247 11.878H150.651V16.124H148.825C146.119 16.124 144.623 17.026 144.623 19.226C144.623 21.294 146.163 22.372 148.077 22.372C149.441 22.372 150.475 21.932 151.751 21.03L152.499 22.46C151.333 23.428 149.947 24 148.055 24C145.019 24 142.863 22.174 142.863 19.204C142.863 16.124 144.909 14.584 148.583 14.584H148.869V11.878H141.851V10.316H153.247V11.878ZM152.937 10.316H165.455V11.878H163.189V24H161.407V17.444H157.425V18.632C157.425 19.446 156.985 19.864 156.303 19.864C155.225 19.864 153.751 18.236 153.751 17.004C153.751 16.344 154.103 15.882 155.093 15.882H161.407V11.878H152.937V10.316ZM176.152 19.116C175.272 19.116 174.348 19.314 173.644 19.622C172.412 18.83 171.246 17.796 171.246 16.344C171.246 14.65 172.346 13.792 174.656 13.792H177.252V11.878H169.002V10.316H181.212V11.878H179.034V15.332H174.678C173.49 15.332 173.006 15.728 173.006 16.476C173.006 17.026 173.424 17.576 173.93 17.928C174.634 17.686 175.47 17.532 176.328 17.532C178.704 17.532 179.98 18.72 179.98 20.612C179.98 22.548 178.66 24 175.69 24C173.16 24 171.224 22.922 169.662 21.382L170.762 19.93C172.302 21.558 173.864 22.372 175.646 22.372C177.362 22.372 178.198 21.756 178.198 20.678C178.198 19.71 177.626 19.116 176.152 19.116ZM177.278 10.47C175.804 8.798 175.21 8.534 174.11 8.534C173.428 8.534 172.724 8.732 172.152 8.996L171.602 7.456C172.262 7.17 173.01 6.994 173.714 6.994C175.1 6.994 175.804 7.5 177.036 8.776L177.124 8.732C175.892 6.29 175.298 5.806 174.066 5.806C173.56 5.806 173.076 5.916 172.504 6.136L171.998 4.618C172.592 4.398 173.296 4.288 174 4.288C176.42 4.288 177.234 5.454 178.906 10.47H177.278ZM183.834 20.194C182.514 20.194 181.612 19.534 181.612 18.522C181.612 17.686 182.206 17.202 183.064 17.202C183.79 17.202 184.34 17.51 184.978 18.214C186.738 17.642 187.926 16.234 187.926 14.078C187.926 12.428 187.178 11.548 185.858 11.548C184.846 11.548 184.274 12.12 184.274 12.89C184.274 13.924 185.198 14.364 186.716 14.474L186.452 15.904C184.142 15.728 182.646 14.716 182.646 12.802C182.646 11.152 183.79 10.096 185.814 10.096C188.168 10.096 189.664 11.636 189.664 14.21C189.664 16.828 188.212 18.654 186.078 19.556C187.244 20.678 188.278 21.932 189.18 23.164L187.662 24.132C186.408 22.372 185.396 21.096 184.538 20.128C184.296 20.172 184.098 20.194 183.834 20.194ZM193.998 11.878V24H192.216V11.878H190.258V10.316H196.264V11.878H193.998ZM208.819 11.878H206.553V24H204.771V20.634C203.891 21.206 202.835 21.514 201.449 21.514C198.677 21.514 196.961 19.996 196.961 17.664C196.961 14.98 198.941 13.704 201.757 13.704C202.637 13.704 203.363 13.77 204.001 13.924L203.869 15.442C203.231 15.288 202.571 15.222 201.889 15.222C201.559 15.222 201.229 15.244 200.943 15.288L204.023 19.226C204.309 19.028 204.551 18.83 204.771 18.61V11.878H195.949V10.316H208.819V11.878ZM198.743 17.664C198.743 19.248 199.865 20.018 201.515 20.018C201.955 20.018 202.373 19.952 202.769 19.82L199.601 15.816C199.051 16.212 198.743 16.828 198.743 17.664ZM212.257 11.878V24H210.475V11.878H208.517V10.316H210.453C209.265 6.532 208.825 5.894 207.351 5.894C206.735 5.894 206.053 6.048 205.525 6.246L205.041 4.684C205.657 4.442 206.493 4.288 207.241 4.288C209.815 4.288 210.607 5.542 212.081 10.316H214.523V11.878H212.257ZM221.14 19.116C220.26 19.116 219.336 19.314 218.632 19.622C217.4 18.83 216.234 17.796 216.234 16.344C216.234 14.65 217.334 13.792 219.644 13.792H222.24V11.878H213.99V10.316H226.2V11.878H224.022V15.332H219.666C218.478 15.332 217.994 15.728 217.994 16.476C217.994 17.026 218.412 17.576 218.918 17.928C219.622 17.686 220.458 17.532 221.316 17.532C223.692 17.532 224.968 18.72 224.968 20.612C224.968 22.548 223.648 24 220.678 24C218.148 24 216.212 22.922 214.65 21.382L215.75 19.93C217.29 21.558 218.852 22.372 220.634 22.372C222.35 22.372 223.186 21.756 223.186 20.678C223.186 19.71 222.614 19.116 221.14 19.116ZM221.98 10.47C221.276 9.678 220.66 8.49 220.66 7.28C220.66 5.256 222.046 4.288 223.96 4.288C224.884 4.288 225.654 4.486 226.226 4.816L225.764 6.158C225.236 5.96 224.774 5.806 224.18 5.806C223.036 5.806 222.42 6.466 222.42 7.544C222.42 8.534 222.926 9.48 223.784 10.47H221.98Z" fill="#222222"/>
<path d="M9.09912 45.4707H14.9644V53.3555C14.1408 53.6276 13.2886 53.8389 12.4077 53.9893C11.5269 54.1396 10.5386 54.2148 9.44287 54.2148C7.84587 54.2148 6.49235 53.8997 5.38232 53.2695C4.27946 52.6322 3.44157 51.7119 2.86865 50.5088C2.29574 49.2985 2.00928 47.8411 2.00928 46.1367C2.00928 44.4967 2.32796 43.0752 2.96533 41.8721C3.6027 40.6618 4.53011 39.7272 5.74756 39.0684C6.96501 38.4023 8.44027 38.0693 10.1733 38.0693C11.0256 38.0693 11.8491 38.1553 12.644 38.3271C13.4461 38.4919 14.1802 38.721 14.8462 39.0146L13.9438 41.1416C13.4139 40.891 12.8195 40.6797 12.1606 40.5078C11.5018 40.3359 10.8179 40.25 10.1089 40.25C8.98454 40.25 8.01416 40.4935 7.19775 40.9805C6.38851 41.4674 5.76546 42.1549 5.32861 43.043C4.89176 43.9238 4.67334 44.9658 4.67334 46.1689C4.67334 47.3363 4.8488 48.3604 5.19971 49.2412C5.55062 50.1221 6.09847 50.8096 6.84326 51.3037C7.59521 51.7907 8.56559 52.0342 9.75439 52.0342C10.3488 52.0342 10.8537 52.002 11.269 51.9375C11.6844 51.873 12.0675 51.8014 12.4185 51.7227V47.6729H9.09912V45.4707ZM28.9937 48.0273C28.9937 49.0156 28.8647 49.8929 28.6069 50.6592C28.3491 51.4255 27.9731 52.0736 27.479 52.6035C26.9849 53.1263 26.3905 53.5273 25.6958 53.8066C25.0011 54.0788 24.217 54.2148 23.3433 54.2148C22.5269 54.2148 21.7785 54.0788 21.0981 53.8066C20.4178 53.5273 19.827 53.1263 19.3257 52.6035C18.8315 52.0736 18.4484 51.4255 18.1763 50.6592C17.9041 49.8929 17.7681 49.0156 17.7681 48.0273C17.7681 46.7168 17.9937 45.6068 18.4448 44.6973C18.9032 43.7806 19.5549 43.0824 20.3999 42.6025C21.245 42.1227 22.2511 41.8828 23.4185 41.8828C24.5142 41.8828 25.481 42.1227 26.3188 42.6025C27.1567 43.0824 27.812 43.7806 28.2847 44.6973C28.7573 45.6139 28.9937 46.724 28.9937 48.0273ZM20.3677 48.0273C20.3677 48.8939 20.4715 49.6351 20.6792 50.251C20.894 50.8669 21.2235 51.3395 21.6675 51.6689C22.1115 51.9912 22.6844 52.1523 23.3862 52.1523C24.0881 52.1523 24.661 51.9912 25.105 51.6689C25.549 51.3395 25.8748 50.8669 26.0825 50.251C26.2902 49.6351 26.394 48.8939 26.394 48.0273C26.394 47.1608 26.2902 46.4268 26.0825 45.8252C25.8748 45.2165 25.549 44.7546 25.105 44.4395C24.661 44.1172 24.0845 43.9561 23.3755 43.9561C22.3299 43.9561 21.5672 44.307 21.0874 45.0088C20.6076 45.7106 20.3677 46.7168 20.3677 48.0273ZM34.6118 54L30.0894 42.1084H32.7642L35.2134 49.0908C35.3709 49.5348 35.5142 50.0146 35.6431 50.5303C35.772 51.0459 35.8615 51.4792 35.9116 51.8301H35.9976C36.0477 51.4648 36.1444 51.028 36.2876 50.5195C36.4308 50.0039 36.5776 49.5277 36.728 49.0908L39.1772 42.1084H41.8413L37.3188 54H34.6118ZM48.3833 41.8828C49.4432 41.8828 50.3527 42.1012 51.1118 42.5381C51.8709 42.9749 52.4546 43.5944 52.8628 44.3965C53.271 45.1986 53.4751 46.1582 53.4751 47.2754V48.6289H45.5366C45.5653 49.7819 45.8732 50.6699 46.4604 51.293C47.0549 51.916 47.8856 52.2275 48.9526 52.2275C49.7118 52.2275 50.3921 52.1559 50.9937 52.0127C51.6024 51.8623 52.229 51.6439 52.8735 51.3574V53.4092C52.2791 53.6885 51.674 53.8926 51.0581 54.0215C50.4422 54.1504 49.7046 54.2148 48.8452 54.2148C47.6779 54.2148 46.6502 53.9893 45.7622 53.5381C44.8813 53.0798 44.1903 52.3994 43.689 51.4971C43.1948 50.5947 42.9478 49.474 42.9478 48.1348C42.9478 46.8027 43.1733 45.6712 43.6245 44.7402C44.0757 43.8092 44.7095 43.1003 45.5259 42.6133C46.3423 42.1263 47.2948 41.8828 48.3833 41.8828ZM48.3833 43.7842C47.5884 43.7842 46.9438 44.042 46.4497 44.5576C45.9627 45.0732 45.6763 45.8288 45.5903 46.8242H51.0044C50.9972 46.2298 50.897 45.7035 50.7036 45.2451C50.5174 44.7868 50.231 44.4287 49.8442 44.1709C49.4647 43.9131 48.9777 43.7842 48.3833 43.7842ZM62.3481 41.8828C62.5487 41.8828 62.7671 41.8936 63.0034 41.915C63.2397 41.9365 63.4438 41.9652 63.6157 42.001L63.3794 44.3643C63.229 44.3213 63.0428 44.2891 62.8208 44.2676C62.606 44.2461 62.4126 44.2354 62.2407 44.2354C61.7896 44.2354 61.3599 44.3105 60.9517 44.4609C60.5435 44.6042 60.1818 44.8262 59.8667 45.127C59.5516 45.4206 59.3045 45.7894 59.1255 46.2334C58.9465 46.6774 58.8569 47.193 58.8569 47.7803V54H56.3218V42.1084H58.2983L58.6421 44.2031H58.7603C58.9966 43.7806 59.2902 43.3939 59.6411 43.043C59.992 42.6921 60.3931 42.4128 60.8442 42.2051C61.3026 41.9902 61.8039 41.8828 62.3481 41.8828ZM72.0161 41.8828C73.3553 41.8828 74.3973 42.2301 75.1421 42.9248C75.894 43.6123 76.27 44.7188 76.27 46.2441V54H73.7456V46.7168C73.7456 45.793 73.5558 45.1019 73.1763 44.6436C72.7967 44.1781 72.2095 43.9453 71.4146 43.9453C70.2616 43.9453 69.4595 44.2998 69.0083 45.0088C68.5643 45.7178 68.3423 46.7454 68.3423 48.0918V54H65.8179V42.1084H67.7837L68.1382 43.7197H68.2778C68.5356 43.3044 68.8543 42.9642 69.2339 42.6992C69.6206 42.4271 70.0503 42.223 70.5229 42.0869C71.0028 41.9508 71.5005 41.8828 72.0161 41.8828ZM93.2427 41.8828C94.5747 41.8828 95.5773 42.2266 96.2505 42.9141C96.9308 43.6016 97.271 44.7044 97.271 46.2227V54H94.7466V46.6738C94.7466 45.7715 94.5711 45.0911 94.2202 44.6328C93.8693 44.1745 93.3358 43.9453 92.6196 43.9453C91.617 43.9453 90.8937 44.2676 90.4497 44.9121C90.0129 45.5495 89.7944 46.4769 89.7944 47.6943V54H87.27V46.6738C87.27 46.0723 87.1912 45.571 87.0337 45.1699C86.8833 44.7617 86.6506 44.4574 86.3354 44.2568C86.0203 44.0492 85.6229 43.9453 85.1431 43.9453C84.4484 43.9453 83.8934 44.1029 83.478 44.418C83.0698 44.7331 82.7762 45.1986 82.5972 45.8145C82.4181 46.4232 82.3286 47.1715 82.3286 48.0596V54H79.8042V42.1084H81.77L82.1245 43.709H82.2642C82.5076 43.2936 82.8084 42.9535 83.1665 42.6885C83.5317 42.4163 83.9364 42.2158 84.3804 42.0869C84.8244 41.9508 85.2863 41.8828 85.7661 41.8828C86.6541 41.8828 87.4025 42.0404 88.0112 42.3555C88.62 42.6634 89.0747 43.1361 89.3755 43.7734H89.5688C89.9412 43.1289 90.4604 42.6527 91.1265 42.3447C91.7925 42.0368 92.4979 41.8828 93.2427 41.8828ZM105.532 41.8828C106.592 41.8828 107.501 42.1012 108.26 42.5381C109.019 42.9749 109.603 43.5944 110.011 44.3965C110.419 45.1986 110.624 46.1582 110.624 47.2754V48.6289H102.685C102.714 49.7819 103.022 50.6699 103.609 51.293C104.203 51.916 105.034 52.2275 106.101 52.2275C106.86 52.2275 107.541 52.1559 108.142 52.0127C108.751 51.8623 109.377 51.6439 110.022 51.3574V53.4092C109.428 53.6885 108.822 53.8926 108.207 54.0215C107.591 54.1504 106.853 54.2148 105.994 54.2148C104.826 54.2148 103.799 53.9893 102.911 53.5381C102.03 53.0798 101.339 52.3994 100.837 51.4971C100.343 50.5947 100.096 49.474 100.096 48.1348C100.096 46.8027 100.322 45.6712 100.773 44.7402C101.224 43.8092 101.858 43.1003 102.674 42.6133C103.491 42.1263 104.443 41.8828 105.532 41.8828ZM105.532 43.7842C104.737 43.7842 104.092 44.042 103.598 44.5576C103.111 45.0732 102.825 45.8288 102.739 46.8242H108.153C108.146 46.2298 108.045 45.7035 107.852 45.2451C107.666 44.7868 107.379 44.4287 106.993 44.1709C106.613 43.9131 106.126 43.7842 105.532 43.7842ZM119.668 41.8828C121.008 41.8828 122.05 42.2301 122.794 42.9248C123.546 43.6123 123.922 44.7188 123.922 46.2441V54H121.398V46.7168C121.398 45.793 121.208 45.1019 120.829 44.6436C120.449 44.1781 119.862 43.9453 119.067 43.9453C117.914 43.9453 117.112 44.2998 116.661 45.0088C116.217 45.7178 115.995 46.7454 115.995 48.0918V54H113.47V42.1084H115.436L115.791 43.7197H115.93C116.188 43.3044 116.507 42.9642 116.886 42.6992C117.273 42.4271 117.703 42.223 118.175 42.0869C118.655 41.9508 119.153 41.8828 119.668 41.8828ZM131.882 52.1738C132.212 52.1738 132.538 52.1452 132.86 52.0879C133.182 52.0234 133.476 51.9482 133.741 51.8623V53.7744C133.461 53.8962 133.1 54 132.656 54.0859C132.212 54.1719 131.75 54.2148 131.27 54.2148C130.597 54.2148 129.992 54.1038 129.455 53.8818C128.917 53.6527 128.491 53.2624 128.176 52.7109C127.861 52.1595 127.704 51.3968 127.704 50.4229V44.0312H126.082V42.9033L127.822 42.0117L128.649 39.4658H130.239V42.1084H133.644V44.0312H130.239V50.3906C130.239 50.9922 130.389 51.4398 130.69 51.7334C130.991 52.027 131.388 52.1738 131.882 52.1738ZM144.687 54H142.13V38.2949H151.003V40.4648H144.687V45.3633H150.595V47.5225H144.687V54ZM163.969 42.1084V54H161.982L161.638 52.3994H161.499C161.248 52.8076 160.929 53.1478 160.542 53.4199C160.156 53.6849 159.726 53.8818 159.253 54.0107C158.781 54.1468 158.283 54.2148 157.76 54.2148C156.865 54.2148 156.099 54.0645 155.461 53.7637C154.831 53.4557 154.348 52.9831 154.011 52.3457C153.675 51.7083 153.506 50.8848 153.506 49.875V42.1084H156.042V49.4023C156.042 50.3262 156.228 51.0173 156.6 51.4756C156.98 51.9339 157.567 52.1631 158.362 52.1631C159.128 52.1631 159.737 52.0055 160.188 51.6904C160.639 51.3753 160.958 50.9098 161.144 50.2939C161.337 49.6781 161.434 48.9225 161.434 48.0273V42.1084H163.969ZM173.788 41.8828C175.127 41.8828 176.169 42.2301 176.914 42.9248C177.666 43.6123 178.042 44.7188 178.042 46.2441V54H175.517V46.7168C175.517 45.793 175.327 45.1019 174.948 44.6436C174.568 44.1781 173.981 43.9453 173.186 43.9453C172.033 43.9453 171.231 44.2998 170.78 45.0088C170.336 45.7178 170.114 46.7454 170.114 48.0918V54H167.589V42.1084H169.555L169.91 43.7197H170.049C170.307 43.3044 170.626 42.9642 171.005 42.6992C171.392 42.4271 171.822 42.223 172.294 42.0869C172.774 41.9508 173.272 41.8828 173.788 41.8828ZM185.572 54.2148C184.154 54.2148 183.015 53.6992 182.156 52.668C181.304 51.6296 180.877 50.1006 180.877 48.0811C180.877 46.04 181.311 44.4967 182.177 43.4512C183.051 42.4056 184.2 41.8828 185.625 41.8828C186.227 41.8828 186.753 41.9652 187.205 42.1299C187.656 42.2874 188.042 42.5023 188.365 42.7744C188.694 43.0465 188.973 43.3509 189.203 43.6875H189.321C189.285 43.4655 189.242 43.1468 189.192 42.7314C189.149 42.3089 189.127 41.9186 189.127 41.5605V37.2852H191.663V54H189.686L189.235 52.3779H189.127C188.913 52.7217 188.64 53.0332 188.311 53.3125C187.989 53.5846 187.602 53.8031 187.151 53.9678C186.707 54.1325 186.181 54.2148 185.572 54.2148ZM186.281 52.1631C187.362 52.1631 188.125 51.8516 188.569 51.2285C189.013 50.6055 189.242 49.6709 189.256 48.4248V48.0918C189.256 46.7598 189.042 45.7393 188.612 45.0303C188.182 44.3141 187.398 43.9561 186.259 43.9561C185.35 43.9561 184.655 44.3249 184.175 45.0625C183.703 45.793 183.466 46.8135 183.466 48.124C183.466 49.4346 183.703 50.4372 184.175 51.1318C184.655 51.8193 185.357 52.1631 186.281 52.1631ZM210.988 54L209.452 49.6387H203.447L201.911 54H199.193L205.037 38.2305H207.894L213.727 54H210.988ZM208.786 47.4258L207.292 43.1289C207.235 42.9427 207.153 42.6813 207.045 42.3447C206.938 42.001 206.831 41.6536 206.723 41.3027C206.616 40.9447 206.526 40.6439 206.455 40.4004C206.383 40.694 206.293 41.0234 206.186 41.3887C206.086 41.7467 205.986 42.0833 205.885 42.3984C205.792 42.7135 205.721 42.957 205.67 43.1289L204.167 47.4258H208.786ZM218.078 54H215.542V37.2852H218.078V54ZM224.222 54H221.687V37.2852H224.222V54ZM238.359 48.0273C238.359 49.0156 238.23 49.8929 237.972 50.6592C237.714 51.4255 237.338 52.0736 236.844 52.6035C236.35 53.1263 235.756 53.5273 235.061 53.8066C234.366 54.0788 233.582 54.2148 232.708 54.2148C231.892 54.2148 231.144 54.0788 230.463 53.8066C229.783 53.5273 229.192 53.1263 228.691 52.6035C228.197 52.0736 227.814 51.4255 227.542 50.6592C227.269 49.8929 227.133 49.0156 227.133 48.0273C227.133 46.7168 227.359 45.6068 227.81 44.6973C228.268 43.7806 228.92 43.0824 229.765 42.6025C230.61 42.1227 231.616 41.8828 232.784 41.8828C233.879 41.8828 234.846 42.1227 235.684 42.6025C236.522 43.0824 237.177 43.7806 237.65 44.6973C238.123 45.6139 238.359 46.724 238.359 48.0273ZM229.733 48.0273C229.733 48.8939 229.837 49.6351 230.044 50.251C230.259 50.8669 230.589 51.3395 231.033 51.6689C231.477 51.9912 232.05 52.1523 232.751 52.1523C233.453 52.1523 234.026 51.9912 234.47 51.6689C234.914 51.3395 235.24 50.8669 235.448 50.251C235.655 49.6351 235.759 48.8939 235.759 48.0273C235.759 47.1608 235.655 46.4268 235.448 45.8252C235.24 45.2165 234.914 44.7546 234.47 44.4395C234.026 44.1172 233.45 43.9561 232.741 43.9561C231.695 43.9561 230.932 44.307 230.453 45.0088C229.973 45.7106 229.733 46.7168 229.733 48.0273ZM246.05 54.2148C244.926 54.2148 243.952 53.9964 243.128 53.5596C242.305 53.1227 241.671 52.4531 241.227 51.5508C240.783 50.6484 240.561 49.5026 240.561 48.1133C240.561 46.6667 240.805 45.485 241.292 44.5684C241.778 43.6517 242.452 42.9749 243.311 42.5381C244.178 42.1012 245.169 41.8828 246.287 41.8828C246.996 41.8828 247.637 41.9544 248.209 42.0977C248.79 42.2337 249.28 42.402 249.681 42.6025L248.929 44.6221C248.492 44.443 248.045 44.2926 247.586 44.1709C247.128 44.0492 246.688 43.9883 246.265 43.9883C245.57 43.9883 244.99 44.1423 244.525 44.4502C244.067 44.7581 243.723 45.2165 243.494 45.8252C243.272 46.4339 243.161 47.1895 243.161 48.0918C243.161 48.9655 243.275 49.7031 243.504 50.3047C243.734 50.8991 244.074 51.3503 244.525 51.6582C244.976 51.959 245.531 52.1094 246.19 52.1094C246.842 52.1094 247.425 52.0306 247.941 51.873C248.457 51.7155 248.944 51.5114 249.402 51.2607V53.4521C248.951 53.71 248.467 53.8997 247.952 54.0215C247.436 54.1504 246.802 54.2148 246.05 54.2148ZM256.857 41.8828C258.361 41.8828 259.496 42.2158 260.262 42.8818C261.036 43.5479 261.422 44.5863 261.422 45.9971V54H259.628L259.145 52.3135H259.059C258.722 52.7432 258.375 53.0977 258.017 53.377C257.659 53.6562 257.244 53.8639 256.771 54C256.306 54.1432 255.736 54.2148 255.063 54.2148C254.354 54.2148 253.72 54.0859 253.162 53.8281C252.603 53.5632 252.163 53.1621 251.84 52.625C251.518 52.0879 251.357 51.4076 251.357 50.584C251.357 49.3594 251.812 48.4391 252.721 47.8232C253.638 47.2074 255.02 46.8672 256.868 46.8027L258.93 46.7275V46.1045C258.93 45.2809 258.737 44.6937 258.35 44.3428C257.971 43.9919 257.433 43.8164 256.739 43.8164C256.144 43.8164 255.568 43.9023 255.009 44.0742C254.451 44.2461 253.906 44.4574 253.376 44.708L252.56 42.9248C253.14 42.6169 253.799 42.3662 254.537 42.1729C255.281 41.9795 256.055 41.8828 256.857 41.8828ZM258.919 48.3174L257.383 48.3711C256.123 48.4141 255.238 48.6289 254.73 49.0156C254.222 49.4023 253.967 49.9323 253.967 50.6055C253.967 51.1927 254.143 51.6224 254.494 51.8945C254.845 52.1595 255.306 52.292 255.879 52.292C256.753 52.292 257.476 52.0449 258.049 51.5508C258.629 51.0495 258.919 50.3154 258.919 49.3486V48.3174ZM269.382 52.1738C269.712 52.1738 270.038 52.1452 270.36 52.0879C270.682 52.0234 270.976 51.9482 271.241 51.8623V53.7744C270.961 53.8962 270.6 54 270.156 54.0859C269.712 54.1719 269.25 54.2148 268.77 54.2148C268.097 54.2148 267.492 54.1038 266.955 53.8818C266.417 53.6527 265.991 53.2624 265.676 52.7109C265.361 52.1595 265.204 51.3968 265.204 50.4229V44.0312H263.582V42.9033L265.322 42.0117L266.149 39.4658H267.739V42.1084H271.144V44.0312H267.739V50.3906C267.739 50.9922 267.889 51.4398 268.19 51.7334C268.491 52.027 268.888 52.1738 269.382 52.1738ZM276.182 42.1084V54H273.658V42.1084H276.182ZM274.936 37.5537C275.323 37.5537 275.656 37.6576 275.935 37.8652C276.222 38.0729 276.365 38.431 276.365 38.9395C276.365 39.4408 276.222 39.7988 275.935 40.0137C275.656 40.2214 275.323 40.3252 274.936 40.3252C274.535 40.3252 274.195 40.2214 273.916 40.0137C273.643 39.7988 273.507 39.4408 273.507 38.9395C273.507 38.431 273.643 38.0729 273.916 37.8652C274.195 37.6576 274.535 37.5537 274.936 37.5537ZM290.33 48.0273C290.33 49.0156 290.201 49.8929 289.943 50.6592C289.685 51.4255 289.309 52.0736 288.815 52.6035C288.321 53.1263 287.726 53.5273 287.032 53.8066C286.337 54.0788 285.553 54.2148 284.679 54.2148C283.863 54.2148 283.114 54.0788 282.434 53.8066C281.754 53.5273 281.163 53.1263 280.662 52.6035C280.167 52.0736 279.784 51.4255 279.512 50.6592C279.24 49.8929 279.104 49.0156 279.104 48.0273C279.104 46.7168 279.33 45.6068 279.781 44.6973C280.239 43.7806 280.891 43.0824 281.736 42.6025C282.581 42.1227 283.587 41.8828 284.754 41.8828C285.85 41.8828 286.817 42.1227 287.655 42.6025C288.493 43.0824 289.148 43.7806 289.621 44.6973C290.093 45.6139 290.33 46.724 290.33 48.0273ZM281.704 48.0273C281.704 48.8939 281.807 49.6351 282.015 50.251C282.23 50.8669 282.559 51.3395 283.003 51.6689C283.447 51.9912 284.02 52.1523 284.722 52.1523C285.424 52.1523 285.997 51.9912 286.441 51.6689C286.885 51.3395 287.211 50.8669 287.418 50.251C287.626 49.6351 287.73 48.8939 287.73 48.0273C287.73 47.1608 287.626 46.4268 287.418 45.8252C287.211 45.2165 286.885 44.7546 286.441 44.4395C285.997 44.1172 285.42 43.9561 284.711 43.9561C283.666 43.9561 282.903 44.307 282.423 45.0088C281.944 45.7106 281.704 46.7168 281.704 48.0273ZM299.428 41.8828C300.767 41.8828 301.809 42.2301 302.554 42.9248C303.306 43.6123 303.682 44.7188 303.682 46.2441V54H301.158V46.7168C301.158 45.793 300.968 45.1019 300.588 44.6436C300.209 44.1781 299.622 43.9453 298.827 43.9453C297.674 43.9453 296.872 44.2998 296.42 45.0088C295.976 45.7178 295.754 46.7454 295.754 48.0918V54H293.23V42.1084H295.196L295.55 43.7197H295.69C295.948 43.3044 296.266 42.9642 296.646 42.6992C297.033 42.4271 297.462 42.223 297.935 42.0869C298.415 41.9508 298.913 41.8828 299.428 41.8828ZM325.94 45.9971C325.94 47.766 325.611 49.2448 324.952 50.4336C324.293 51.6152 323.337 52.5068 322.083 53.1084C320.83 53.7028 319.319 54 317.55 54H313.189V38.2949H318.023C319.649 38.2949 321.052 38.5885 322.234 39.1758C323.416 39.7559 324.329 40.6188 324.973 41.7646C325.618 42.9033 325.94 44.3141 325.94 45.9971ZM323.254 46.0723C323.254 44.7832 323.05 43.7233 322.642 42.8926C322.241 42.0618 321.647 41.446 320.859 41.0449C320.078 40.6367 319.115 40.4326 317.969 40.4326H315.767V51.8408H317.593C319.491 51.8408 320.909 51.3574 321.847 50.3906C322.785 49.4238 323.254 47.9844 323.254 46.0723ZM333.728 41.8828C335.232 41.8828 336.367 42.2158 337.133 42.8818C337.907 43.5479 338.293 44.5863 338.293 45.9971V54H336.5L336.016 52.3135H335.93C335.594 52.7432 335.246 53.0977 334.888 53.377C334.53 53.6562 334.115 53.8639 333.642 54C333.177 54.1432 332.607 54.2148 331.934 54.2148C331.225 54.2148 330.591 54.0859 330.033 53.8281C329.474 53.5632 329.034 53.1621 328.711 52.625C328.389 52.0879 328.228 51.4076 328.228 50.584C328.228 49.3594 328.683 48.4391 329.592 47.8232C330.509 47.2074 331.891 46.8672 333.739 46.8027L335.801 46.7275V46.1045C335.801 45.2809 335.608 44.6937 335.221 44.3428C334.842 43.9919 334.305 43.8164 333.61 43.8164C333.015 43.8164 332.439 43.9023 331.88 44.0742C331.322 44.2461 330.778 44.4574 330.248 44.708L329.431 42.9248C330.011 42.6169 330.67 42.3662 331.408 42.1729C332.153 41.9795 332.926 41.8828 333.728 41.8828ZM335.791 48.3174L334.254 48.3711C332.994 48.4141 332.11 48.6289 331.601 49.0156C331.093 49.4023 330.838 49.9323 330.838 50.6055C330.838 51.1927 331.014 51.6224 331.365 51.8945C331.716 52.1595 332.178 52.292 332.75 52.292C333.624 52.292 334.347 52.0449 334.92 51.5508C335.5 51.0495 335.791 50.3154 335.791 49.3486V48.3174ZM349.82 50.6055C349.82 51.3861 349.63 52.0449 349.25 52.582C348.871 53.1191 348.316 53.5273 347.585 53.8066C346.862 54.0788 345.974 54.2148 344.921 54.2148C344.091 54.2148 343.375 54.154 342.773 54.0322C342.179 53.9176 341.616 53.7386 341.086 53.4951V51.3145C341.652 51.5794 342.286 51.8086 342.988 52.002C343.697 52.1953 344.366 52.292 344.997 52.292C345.827 52.292 346.425 52.1631 346.791 51.9053C347.156 51.6403 347.338 51.2894 347.338 50.8525C347.338 50.5947 347.263 50.3656 347.113 50.165C346.97 49.9574 346.697 49.7461 346.296 49.5312C345.903 49.3092 345.322 49.0443 344.556 48.7363C343.804 48.4355 343.17 48.1348 342.655 47.834C342.139 47.5332 341.749 47.1715 341.484 46.749C341.219 46.3193 341.086 45.7715 341.086 45.1055C341.086 44.0527 341.502 43.2542 342.333 42.71C343.17 42.1585 344.277 41.8828 345.652 41.8828C346.382 41.8828 347.07 41.958 347.714 42.1084C348.366 42.2516 349.003 42.4629 349.626 42.7422L348.832 44.6436C348.294 44.4072 347.754 44.2139 347.209 44.0635C346.672 43.9059 346.125 43.8271 345.566 43.8271C344.914 43.8271 344.417 43.9274 344.073 44.1279C343.736 44.3285 343.568 44.6149 343.568 44.9873C343.568 45.2666 343.65 45.5029 343.815 45.6963C343.98 45.8896 344.263 46.083 344.664 46.2764C345.072 46.4697 345.638 46.7096 346.361 46.9961C347.07 47.2682 347.682 47.5547 348.198 47.8555C348.721 48.1491 349.122 48.5107 349.401 48.9404C349.68 49.3701 349.82 49.9251 349.82 50.6055ZM355.073 37.2852V41.4854C355.073 41.9222 355.058 42.3483 355.03 42.7637C355.008 43.179 354.983 43.5013 354.955 43.7305H355.094C355.345 43.3151 355.653 42.9749 356.018 42.71C356.383 42.4378 356.792 42.2337 357.243 42.0977C357.701 41.9616 358.188 41.8936 358.704 41.8936C359.613 41.8936 360.387 42.0475 361.024 42.3555C361.661 42.6562 362.148 43.1253 362.485 43.7627C362.829 44.4001 363 45.2272 363 46.2441V54H360.476V46.7168C360.476 45.793 360.286 45.1019 359.907 44.6436C359.527 44.1781 358.94 43.9453 358.145 43.9453C357.379 43.9453 356.77 44.1064 356.319 44.4287C355.875 44.7438 355.556 45.2129 355.363 45.8359C355.169 46.4518 355.073 47.2038 355.073 48.0918V54H352.548V37.2852H355.073ZM369.059 37.2852V41.3135C369.059 41.779 369.045 42.2373 369.016 42.6885C368.995 43.1325 368.973 43.4798 368.952 43.7305H369.059C369.381 43.2148 369.829 42.7816 370.402 42.4307C370.982 42.0726 371.723 41.8936 372.625 41.8936C374.036 41.8936 375.171 42.4128 376.031 43.4512C376.89 44.4824 377.32 46.0114 377.32 48.0381C377.32 49.3844 377.123 50.516 376.729 51.4326C376.335 52.3493 375.78 53.0439 375.064 53.5166C374.355 53.9821 373.521 54.2148 372.561 54.2148C371.659 54.2148 370.928 54.0501 370.37 53.7207C369.818 53.3841 369.385 52.9938 369.07 52.5498H368.887L368.425 54H366.535V37.2852H369.059ZM371.959 43.9453C371.243 43.9453 370.674 44.0885 370.251 44.375C369.836 44.6615 369.535 45.0911 369.349 45.6641C369.163 46.2298 369.066 46.9495 369.059 47.8232V48.0488C369.059 49.3737 369.267 50.387 369.682 51.0889C370.105 51.7907 370.871 52.1416 371.981 52.1416C372.862 52.1416 373.539 51.7871 374.011 51.0781C374.484 50.362 374.72 49.3379 374.72 48.0059C374.72 46.6595 374.484 45.6462 374.011 44.9658C373.546 44.2855 372.862 43.9453 371.959 43.9453ZM390.769 48.0273C390.769 49.0156 390.64 49.8929 390.382 50.6592C390.125 51.4255 389.749 52.0736 389.254 52.6035C388.76 53.1263 388.166 53.5273 387.471 53.8066C386.777 54.0788 385.992 54.2148 385.119 54.2148C384.302 54.2148 383.554 54.0788 382.874 53.8066C382.193 53.5273 381.602 53.1263 381.101 52.6035C380.607 52.0736 380.224 51.4255 379.952 50.6592C379.68 49.8929 379.543 49.0156 379.543 48.0273C379.543 46.7168 379.769 45.6068 380.22 44.6973C380.679 43.7806 381.33 43.0824 382.175 42.6025C383.02 42.1227 384.027 41.8828 385.194 41.8828C386.29 41.8828 387.256 42.1227 388.094 42.6025C388.932 43.0824 389.587 43.7806 390.06 44.6973C390.533 45.6139 390.769 46.724 390.769 48.0273ZM382.143 48.0273C382.143 48.8939 382.247 49.6351 382.455 50.251C382.669 50.8669 382.999 51.3395 383.443 51.6689C383.887 51.9912 384.46 52.1523 385.162 52.1523C385.863 52.1523 386.436 51.9912 386.88 51.6689C387.324 51.3395 387.65 50.8669 387.858 50.251C388.066 49.6351 388.169 48.8939 388.169 48.0273C388.169 47.1608 388.066 46.4268 387.858 45.8252C387.65 45.2165 387.324 44.7546 386.88 44.4395C386.436 44.1172 385.86 43.9561 385.151 43.9561C384.105 43.9561 383.343 44.307 382.863 45.0088C382.383 45.7106 382.143 46.7168 382.143 48.0273ZM398.332 41.8828C399.835 41.8828 400.971 42.2158 401.737 42.8818C402.51 43.5479 402.897 44.5863 402.897 45.9971V54H401.103L400.62 52.3135H400.534C400.197 52.7432 399.85 53.0977 399.492 53.377C399.134 53.6562 398.718 53.8639 398.246 54C397.78 54.1432 397.211 54.2148 396.538 54.2148C395.829 54.2148 395.195 54.0859 394.636 53.8281C394.078 53.5632 393.637 53.1621 393.315 52.625C392.993 52.0879 392.832 51.4076 392.832 50.584C392.832 49.3594 393.286 48.4391 394.196 47.8232C395.112 47.2074 396.495 46.8672 398.342 46.8027L400.405 46.7275V46.1045C400.405 45.2809 400.211 44.6937 399.825 44.3428C399.445 43.9919 398.908 43.8164 398.213 43.8164C397.619 43.8164 397.042 43.9023 396.484 44.0742C395.925 44.2461 395.381 44.4574 394.851 44.708L394.035 42.9248C394.615 42.6169 395.274 42.3662 396.011 42.1729C396.756 41.9795 397.529 41.8828 398.332 41.8828ZM400.394 48.3174L398.858 48.3711C397.597 48.4141 396.713 48.6289 396.205 49.0156C395.696 49.4023 395.442 49.9323 395.442 50.6055C395.442 51.1927 395.617 51.6224 395.968 51.8945C396.319 52.1595 396.781 52.292 397.354 52.292C398.228 52.292 398.951 52.0449 399.524 51.5508C400.104 51.0495 400.394 50.3154 400.394 49.3486V48.3174ZM412.458 41.8828C412.658 41.8828 412.876 41.8936 413.113 41.915C413.349 41.9365 413.553 41.9652 413.725 42.001L413.489 44.3643C413.338 44.3213 413.152 44.2891 412.93 44.2676C412.715 44.2461 412.522 44.2354 412.35 44.2354C411.899 44.2354 411.469 44.3105 411.061 44.4609C410.653 44.6042 410.291 44.8262 409.976 45.127C409.661 45.4206 409.414 45.7894 409.235 46.2334C409.056 46.6774 408.966 47.193 408.966 47.7803V54H406.431V42.1084H408.408L408.751 44.2031H408.87C409.106 43.7806 409.4 43.3939 409.75 43.043C410.101 42.6921 410.502 42.4128 410.954 42.2051C411.412 41.9902 411.913 41.8828 412.458 41.8828ZM419.923 54.2148C418.505 54.2148 417.367 53.6992 416.507 52.668C415.655 51.6296 415.229 50.1006 415.229 48.0811C415.229 46.04 415.662 44.4967 416.529 43.4512C417.403 42.4056 418.552 41.8828 419.977 41.8828C420.579 41.8828 421.105 41.9652 421.556 42.1299C422.007 42.2874 422.394 42.5023 422.716 42.7744C423.046 43.0465 423.325 43.3509 423.554 43.6875H423.672C423.637 43.4655 423.594 43.1468 423.543 42.7314C423.5 42.3089 423.479 41.9186 423.479 41.5605V37.2852H426.014V54H424.038L423.586 52.3779H423.479C423.264 52.7217 422.992 53.0332 422.663 53.3125C422.34 53.5846 421.954 53.8031 421.502 53.9678C421.058 54.1325 420.532 54.2148 419.923 54.2148ZM420.632 52.1631C421.714 52.1631 422.476 51.8516 422.92 51.2285C423.364 50.6055 423.594 49.6709 423.608 48.4248V48.0918C423.608 46.7598 423.393 45.7393 422.963 45.0303C422.534 44.3141 421.75 43.9561 420.611 43.9561C419.701 43.9561 419.007 44.3249 418.527 45.0625C418.054 45.793 417.818 46.8135 417.818 48.124C417.818 49.4346 418.054 50.4372 418.527 51.1318C419.007 51.8193 419.708 52.1631 420.632 52.1631Z" fill="#222222"/>
<path d="M6.32471 75L3.44678 66.6533H3.38525C3.39893 66.8402 3.41488 67.0954 3.43311 67.4189C3.45133 67.7425 3.46729 68.0889 3.48096 68.458C3.49463 68.8271 3.50146 69.1803 3.50146 69.5176V75H2.01123V65.0059H4.31494L7.0835 72.9834H7.12451L9.98877 65.0059H12.2856V75H10.7202V69.4355C10.7202 69.1302 10.7248 68.7998 10.7339 68.4443C10.7476 68.0889 10.7612 67.7516 10.7749 67.4326C10.7931 67.1136 10.8068 66.8584 10.8159 66.667H10.7612L7.77393 75H6.32471ZM16.3599 67.4326V75H14.7534V67.4326H16.3599ZM15.5669 64.5342C15.813 64.5342 16.0249 64.6003 16.2026 64.7324C16.3849 64.8646 16.4761 65.0924 16.4761 65.416C16.4761 65.735 16.3849 65.9629 16.2026 66.0996C16.0249 66.2318 15.813 66.2979 15.5669 66.2979C15.3117 66.2979 15.0952 66.2318 14.9175 66.0996C14.7443 65.9629 14.6577 65.735 14.6577 65.416C14.6577 65.0924 14.7443 64.8646 14.9175 64.7324C15.0952 64.6003 15.3117 64.5342 15.5669 64.5342ZM22.6079 67.2891C23.4601 67.2891 24.1232 67.5101 24.5972 67.9521C25.0757 68.3896 25.3149 69.0938 25.3149 70.0645V75H23.7085V70.3652C23.7085 69.7773 23.5877 69.3376 23.3462 69.0459C23.1047 68.7497 22.731 68.6016 22.2251 68.6016C21.4914 68.6016 20.981 68.8271 20.6938 69.2783C20.4113 69.7295 20.27 70.3835 20.27 71.2402V75H18.6636V67.4326H19.9146L20.1401 68.458H20.229C20.3931 68.1937 20.5959 67.9772 20.8374 67.8086C21.0835 67.6354 21.3569 67.5055 21.6577 67.4189C21.9631 67.3324 22.2798 67.2891 22.6079 67.2891ZM29.1704 67.4326V75H27.564V67.4326H29.1704ZM28.3774 64.5342C28.6235 64.5342 28.8354 64.6003 29.0132 64.7324C29.1955 64.8646 29.2866 65.0924 29.2866 65.416C29.2866 65.735 29.1955 65.9629 29.0132 66.0996C28.8354 66.2318 28.6235 66.2979 28.3774 66.2979C28.1222 66.2979 27.9058 66.2318 27.728 66.0996C27.5549 65.9629 27.4683 65.735 27.4683 65.416C27.4683 65.0924 27.5549 64.8646 27.728 64.7324C27.9058 64.6003 28.1222 64.5342 28.3774 64.5342ZM36.5601 72.8398C36.5601 73.3366 36.4393 73.7559 36.1978 74.0977C35.9562 74.4395 35.603 74.6992 35.1382 74.877C34.6779 75.0501 34.1128 75.1367 33.4429 75.1367C32.9142 75.1367 32.4585 75.098 32.0757 75.0205C31.6974 74.9476 31.3397 74.8337 31.0024 74.6787V73.291C31.3625 73.4596 31.7658 73.6055 32.2124 73.7285C32.6636 73.8516 33.0897 73.9131 33.4907 73.9131C34.0194 73.9131 34.3999 73.8311 34.6323 73.667C34.8647 73.4984 34.981 73.2751 34.981 72.9971C34.981 72.833 34.9331 72.6872 34.8374 72.5596C34.7463 72.4274 34.5731 72.293 34.3179 72.1562C34.0672 72.015 33.6981 71.8464 33.2104 71.6504C32.7319 71.459 32.3286 71.2676 32.0005 71.0762C31.6724 70.8848 31.424 70.6546 31.2554 70.3857C31.0868 70.1123 31.0024 69.7637 31.0024 69.3398C31.0024 68.6699 31.2668 68.1618 31.7954 67.8154C32.3286 67.4645 33.0327 67.2891 33.9077 67.2891C34.3726 67.2891 34.8101 67.3369 35.2202 67.4326C35.6349 67.5238 36.0405 67.6582 36.437 67.8359L35.9312 69.0459C35.5894 68.8955 35.2453 68.7725 34.8989 68.6768C34.5571 68.5765 34.2085 68.5264 33.853 68.5264C33.4383 68.5264 33.1216 68.5902 32.9028 68.7178C32.6886 68.8454 32.5815 69.0277 32.5815 69.2646C32.5815 69.4424 32.634 69.5928 32.7388 69.7158C32.8436 69.8389 33.0236 69.9619 33.2788 70.085C33.5386 70.208 33.8986 70.3607 34.3589 70.543C34.8101 70.7161 35.1997 70.8984 35.5278 71.0898C35.8605 71.2767 36.1157 71.5068 36.2935 71.7803C36.4712 72.0537 36.5601 72.4069 36.5601 72.8398ZM41.1128 73.8379C41.3224 73.8379 41.5298 73.8197 41.7349 73.7832C41.9399 73.7422 42.1268 73.6943 42.2954 73.6396V74.8564C42.1177 74.9339 41.8875 75 41.605 75.0547C41.3224 75.1094 41.0285 75.1367 40.7231 75.1367C40.2948 75.1367 39.9097 75.0661 39.5679 74.9248C39.2261 74.779 38.9549 74.5306 38.7544 74.1797C38.5539 73.8288 38.4536 73.3434 38.4536 72.7236V68.6562H37.4214V67.9385L38.5288 67.3711L39.0552 65.751H40.0669V67.4326H42.2339V68.6562H40.0669V72.7031C40.0669 73.0859 40.1626 73.3708 40.354 73.5576C40.5454 73.7445 40.7983 73.8379 41.1128 73.8379ZM47.6685 67.2891C47.7961 67.2891 47.9351 67.2959 48.0854 67.3096C48.2358 67.3232 48.3657 67.3415 48.4751 67.3643L48.3247 68.8682C48.229 68.8408 48.1105 68.8203 47.9692 68.8066C47.8325 68.793 47.7095 68.7861 47.6001 68.7861C47.313 68.7861 47.0396 68.834 46.7798 68.9297C46.52 69.0208 46.2899 69.1621 46.0894 69.3535C45.8888 69.5404 45.7316 69.7751 45.6177 70.0576C45.5037 70.3402 45.4468 70.6683 45.4468 71.042V75H43.8335V67.4326H45.0913L45.3101 68.7656H45.3853C45.5356 68.4967 45.7225 68.2507 45.9458 68.0273C46.1691 67.804 46.4243 67.6263 46.7114 67.4941C47.0031 67.3574 47.3221 67.2891 47.6685 67.2891ZM48.7349 67.4326H50.4849L52.0366 71.7529C52.105 71.9489 52.1665 72.1426 52.2212 72.334C52.2804 72.5208 52.3306 72.7054 52.3716 72.8877C52.4172 73.07 52.4536 73.2523 52.481 73.4346H52.522C52.5675 73.1976 52.6313 72.9333 52.7134 72.6416C52.8 72.3454 52.8957 72.0492 53.0005 71.7529L54.4907 67.4326H56.2202L52.9731 76.0391C52.7863 76.5312 52.5562 76.9505 52.2827 77.2969C52.0138 77.6478 51.6948 77.9121 51.3257 78.0898C50.9565 78.2721 50.535 78.3633 50.061 78.3633C49.8332 78.3633 49.6349 78.3496 49.4663 78.3223C49.2977 78.2995 49.1541 78.2744 49.0356 78.2471V76.9619C49.1313 76.9847 49.2521 77.0052 49.3979 77.0234C49.5438 77.0417 49.6942 77.0508 49.8491 77.0508C50.1362 77.0508 50.3846 76.9938 50.5942 76.8799C50.8039 76.766 50.9816 76.6042 51.1274 76.3945C51.2733 76.1895 51.394 75.9548 51.4897 75.6904L51.7563 74.9795L48.7349 67.4326ZM67.7046 71.1992C67.7046 71.8281 67.6226 72.3864 67.4585 72.874C67.2944 73.3617 67.0552 73.7741 66.7407 74.1113C66.4263 74.444 66.048 74.6992 65.606 74.877C65.1639 75.0501 64.6649 75.1367 64.1089 75.1367C63.5894 75.1367 63.1131 75.0501 62.6802 74.877C62.2472 74.6992 61.8713 74.444 61.5522 74.1113C61.2378 73.7741 60.994 73.3617 60.8208 72.874C60.6476 72.3864 60.561 71.8281 60.561 71.1992C60.561 70.3652 60.7046 69.6589 60.9917 69.0801C61.2834 68.4967 61.6981 68.0524 62.2358 67.7471C62.7736 67.4417 63.4139 67.2891 64.1567 67.2891C64.854 67.2891 65.4692 67.4417 66.0024 67.7471C66.5356 68.0524 66.9526 68.4967 67.2534 69.0801C67.5542 69.6634 67.7046 70.3698 67.7046 71.1992ZM62.2153 71.1992C62.2153 71.7507 62.2814 72.2223 62.4136 72.6143C62.5503 73.0062 62.7599 73.307 63.0425 73.5166C63.325 73.7217 63.6896 73.8242 64.1362 73.8242C64.5828 73.8242 64.9474 73.7217 65.23 73.5166C65.5125 73.307 65.7199 73.0062 65.8521 72.6143C65.9842 72.2223 66.0503 71.7507 66.0503 71.1992C66.0503 70.6478 65.9842 70.1807 65.8521 69.7979C65.7199 69.4105 65.5125 69.1165 65.23 68.916C64.9474 68.7109 64.5806 68.6084 64.1294 68.6084C63.464 68.6084 62.9787 68.8317 62.6733 69.2783C62.368 69.7249 62.2153 70.3652 62.2153 71.1992ZM73.3306 68.6562H71.4917V75H69.8853V68.6562H68.6479V67.8838L69.8853 67.4121V66.8857C69.8853 66.2432 69.9855 65.7327 70.186 65.3545C70.3911 64.9762 70.6828 64.7051 71.061 64.541C71.4438 64.3724 71.8996 64.2881 72.4282 64.2881C72.7746 64.2881 73.0913 64.3177 73.3784 64.377C73.6655 64.4316 73.9071 64.4954 74.103 64.5684L73.686 65.7852C73.5311 65.735 73.3579 65.6895 73.1665 65.6484C72.9751 65.6029 72.77 65.5801 72.5513 65.5801C72.1867 65.5801 71.9178 65.694 71.7446 65.9219C71.576 66.1497 71.4917 66.4824 71.4917 66.9199V67.4326H73.3306V68.6562ZM81.3286 65.0059C82.6183 65.0059 83.5594 65.2702 84.1519 65.7988C84.7443 66.3275 85.0405 67.068 85.0405 68.0205C85.0405 68.4535 84.9722 68.8659 84.8354 69.2578C84.7033 69.6452 84.4845 69.9893 84.1792 70.29C83.8739 70.5863 83.4705 70.821 82.9692 70.9941C82.4725 71.1673 81.8595 71.2539 81.1304 71.2539H80.064V75H78.4233V65.0059H81.3286ZM81.2192 66.3662H80.064V69.8867H80.9595C81.4744 69.8867 81.9119 69.8275 82.272 69.709C82.632 69.5859 82.9054 69.3923 83.0923 69.1279C83.2791 68.8636 83.3726 68.515 83.3726 68.082C83.3726 67.5033 83.1971 67.0726 82.8462 66.79C82.4998 66.5075 81.9575 66.3662 81.2192 66.3662ZM89.8394 67.2891C90.7964 67.2891 91.5187 67.501 92.0063 67.9248C92.4985 68.3486 92.7446 69.0094 92.7446 69.9072V75H91.603L91.2954 73.9268H91.2407C91.0265 74.2002 90.8055 74.4258 90.5776 74.6035C90.3498 74.7812 90.0854 74.9134 89.7847 75C89.4884 75.0911 89.1261 75.1367 88.6978 75.1367C88.2466 75.1367 87.8433 75.0547 87.4878 74.8906C87.1323 74.722 86.8521 74.4668 86.647 74.125C86.4419 73.7832 86.3394 73.3503 86.3394 72.8262C86.3394 72.0469 86.6287 71.4613 87.2075 71.0693C87.7909 70.6774 88.6704 70.4609 89.8462 70.4199L91.1587 70.3721V69.9756C91.1587 69.4515 91.0356 69.0778 90.7896 68.8545C90.548 68.6312 90.2062 68.5195 89.7642 68.5195C89.3859 68.5195 89.019 68.5742 88.6636 68.6836C88.3081 68.793 87.9618 68.9274 87.6245 69.0869L87.105 67.9521C87.4741 67.7562 87.8934 67.5967 88.3628 67.4736C88.8368 67.3506 89.3289 67.2891 89.8394 67.2891ZM91.1519 71.3838L90.1743 71.418C89.3722 71.4453 88.8094 71.582 88.4858 71.8281C88.1623 72.0742 88.0005 72.4115 88.0005 72.8398C88.0005 73.2135 88.1121 73.487 88.3354 73.6602C88.5588 73.8288 88.8527 73.9131 89.2173 73.9131C89.7733 73.9131 90.2336 73.7559 90.5981 73.4414C90.9673 73.1224 91.1519 72.6553 91.1519 72.04V71.3838ZM98.938 67.2891C99.7902 67.2891 100.453 67.5101 100.927 67.9521C101.406 68.3896 101.645 69.0938 101.645 70.0645V75H100.039V70.3652C100.039 69.7773 99.9178 69.3376 99.6763 69.0459C99.4347 68.7497 99.061 68.6016 98.5552 68.6016C97.8215 68.6016 97.311 68.8271 97.0239 69.2783C96.7414 69.7295 96.6001 70.3835 96.6001 71.2402V75H94.9937V67.4326H96.2446L96.4702 68.458H96.5591C96.7231 68.1937 96.9259 67.9772 97.1675 67.8086C97.4136 67.6354 97.687 67.5055 97.9878 67.4189C98.2931 67.3324 98.6099 67.2891 98.938 67.2891ZM106.943 75.1367C106.227 75.1367 105.608 74.9977 105.083 74.7197C104.559 74.4417 104.156 74.0156 103.874 73.4414C103.591 72.8672 103.45 72.138 103.45 71.2539C103.45 70.3333 103.605 69.5814 103.915 68.998C104.224 68.4147 104.653 67.984 105.2 67.7061C105.751 67.4281 106.382 67.2891 107.093 67.2891C107.544 67.2891 107.952 67.3346 108.317 67.4258C108.686 67.5124 108.998 67.6195 109.253 67.7471L108.775 69.0322C108.497 68.9183 108.212 68.8226 107.92 68.7451C107.629 68.6676 107.348 68.6289 107.08 68.6289C106.638 68.6289 106.268 68.7269 105.972 68.9229C105.681 69.1188 105.462 69.4105 105.316 69.7979C105.175 70.1852 105.104 70.666 105.104 71.2402C105.104 71.7962 105.177 72.2656 105.323 72.6484C105.469 73.0267 105.685 73.3138 105.972 73.5098C106.259 73.7012 106.612 73.7969 107.032 73.7969C107.446 73.7969 107.818 73.7467 108.146 73.6465C108.474 73.5462 108.784 73.4163 109.076 73.2568V74.6514C108.789 74.8154 108.481 74.9362 108.153 75.0137C107.825 75.0957 107.421 75.1367 106.943 75.1367ZM112.459 64.3633V67.0361C112.459 67.3141 112.45 67.5853 112.432 67.8496C112.418 68.1139 112.403 68.319 112.384 68.4648H112.473C112.633 68.2005 112.829 67.984 113.061 67.8154C113.293 67.6423 113.553 67.5124 113.84 67.4258C114.132 67.3392 114.442 67.2959 114.77 67.2959C115.349 67.2959 115.841 67.3939 116.247 67.5898C116.652 67.7812 116.962 68.0798 117.176 68.4854C117.395 68.891 117.504 69.4173 117.504 70.0645V75H115.898V70.3652C115.898 69.7773 115.777 69.3376 115.536 69.0459C115.294 68.7497 114.92 68.6016 114.415 68.6016C113.927 68.6016 113.54 68.7041 113.252 68.9092C112.97 69.1097 112.767 69.4082 112.644 69.8047C112.521 70.1966 112.459 70.6751 112.459 71.2402V75H110.853V64.3633H112.459ZM122.72 67.2891C123.677 67.2891 124.4 67.501 124.887 67.9248C125.379 68.3486 125.625 69.0094 125.625 69.9072V75H124.484L124.176 73.9268H124.122C123.907 74.2002 123.686 74.4258 123.458 74.6035C123.231 74.7812 122.966 74.9134 122.666 75C122.369 75.0911 122.007 75.1367 121.579 75.1367C121.127 75.1367 120.724 75.0547 120.369 74.8906C120.013 74.722 119.733 74.4668 119.528 74.125C119.323 73.7832 119.22 73.3503 119.22 72.8262C119.22 72.0469 119.51 71.4613 120.088 71.0693C120.672 70.6774 121.551 70.4609 122.727 70.4199L124.04 70.3721V69.9756C124.04 69.4515 123.917 69.0778 123.67 68.8545C123.429 68.6312 123.087 68.5195 122.645 68.5195C122.267 68.5195 121.9 68.5742 121.544 68.6836C121.189 68.793 120.843 68.9274 120.505 69.0869L119.986 67.9521C120.355 67.7562 120.774 67.5967 121.244 67.4736C121.718 67.3506 122.21 67.2891 122.72 67.2891ZM124.033 71.3838L123.055 71.418C122.253 71.4453 121.69 71.582 121.367 71.8281C121.043 72.0742 120.881 72.4115 120.881 72.8398C120.881 73.2135 120.993 73.487 121.216 73.6602C121.44 73.8288 121.734 73.9131 122.098 73.9131C122.654 73.9131 123.114 73.7559 123.479 73.4414C123.848 73.1224 124.033 72.6553 124.033 72.04V71.3838ZM126.733 67.4326H128.483L130.035 71.7529C130.103 71.9489 130.165 72.1426 130.219 72.334C130.278 72.5208 130.329 72.7054 130.37 72.8877C130.415 73.07 130.452 73.2523 130.479 73.4346H130.52C130.566 73.1976 130.629 72.9333 130.711 72.6416C130.798 72.3454 130.894 72.0492 130.999 71.7529L132.489 67.4326H134.218L130.971 76.0391C130.784 76.5312 130.554 76.9505 130.281 77.2969C130.012 77.6478 129.693 77.9121 129.324 78.0898C128.955 78.2721 128.533 78.3633 128.059 78.3633C127.831 78.3633 127.633 78.3496 127.464 78.3223C127.296 78.2995 127.152 78.2744 127.034 78.2471V76.9619C127.129 76.9847 127.25 77.0052 127.396 77.0234C127.542 77.0417 127.692 77.0508 127.847 77.0508C128.134 77.0508 128.383 76.9938 128.592 76.8799C128.802 76.766 128.98 76.6042 129.125 76.3945C129.271 76.1895 129.392 75.9548 129.488 75.6904L129.754 74.9795L126.733 67.4326ZM138.333 67.2891C139.291 67.2891 140.013 67.501 140.5 67.9248C140.993 68.3486 141.239 69.0094 141.239 69.9072V75H140.097L139.79 73.9268H139.735C139.521 74.2002 139.3 74.4258 139.072 74.6035C138.844 74.7812 138.58 74.9134 138.279 75C137.983 75.0911 137.62 75.1367 137.192 75.1367C136.741 75.1367 136.337 75.0547 135.982 74.8906C135.626 74.722 135.346 74.4668 135.141 74.125C134.936 73.7832 134.833 73.3503 134.833 72.8262C134.833 72.0469 135.123 71.4613 135.702 71.0693C136.285 70.6774 137.165 70.4609 138.34 70.4199L139.653 70.3721V69.9756C139.653 69.4515 139.53 69.0778 139.284 68.8545C139.042 68.6312 138.7 68.5195 138.258 68.5195C137.88 68.5195 137.513 68.5742 137.158 68.6836C136.802 68.793 136.456 68.9274 136.119 69.0869L135.599 67.9521C135.968 67.7562 136.388 67.5967 136.857 67.4736C137.331 67.3506 137.823 67.2891 138.333 67.2891ZM139.646 71.3838L138.668 71.418C137.866 71.4453 137.304 71.582 136.98 71.8281C136.656 72.0742 136.495 72.4115 136.495 72.8398C136.495 73.2135 136.606 73.487 136.83 73.6602C137.053 73.8288 137.347 73.9131 137.711 73.9131C138.267 73.9131 138.728 73.7559 139.092 73.4414C139.461 73.1224 139.646 72.6553 139.646 72.04V71.3838ZM146.304 73.8379C146.514 73.8379 146.721 73.8197 146.926 73.7832C147.131 73.7422 147.318 73.6943 147.487 73.6396V74.8564C147.309 74.9339 147.079 75 146.796 75.0547C146.514 75.1094 146.22 75.1367 145.915 75.1367C145.486 75.1367 145.101 75.0661 144.759 74.9248C144.417 74.779 144.146 74.5306 143.946 74.1797C143.745 73.8288 143.645 73.3434 143.645 72.7236V68.6562H142.613V67.9385L143.72 67.3711L144.247 65.751H145.258V67.4326H147.425V68.6562H145.258V72.7031C145.258 73.0859 145.354 73.3708 145.545 73.5576C145.737 73.7445 145.99 73.8379 146.304 73.8379ZM150.631 67.4326V75H149.025V67.4326H150.631ZM149.838 64.5342C150.084 64.5342 150.296 64.6003 150.474 64.7324C150.656 64.8646 150.748 65.0924 150.748 65.416C150.748 65.735 150.656 65.9629 150.474 66.0996C150.296 66.2318 150.084 66.2979 149.838 66.2979C149.583 66.2979 149.367 66.2318 149.189 66.0996C149.016 65.9629 148.929 65.735 148.929 65.416C148.929 65.0924 149.016 64.8646 149.189 64.7324C149.367 64.6003 149.583 64.5342 149.838 64.5342ZM159.545 65.0059C160.407 65.0059 161.118 65.1107 161.678 65.3203C162.243 65.5299 162.663 65.849 162.936 66.2773C163.214 66.7057 163.353 67.2503 163.353 67.9111C163.353 68.4033 163.262 68.8226 163.08 69.1689C162.897 69.5153 162.658 69.8024 162.362 70.0303C162.066 70.2581 161.749 70.4404 161.412 70.5771L164.249 75H162.396L159.983 70.9941H158.376V75H156.736V65.0059H159.545ZM159.436 66.373H158.376V69.6406H159.511C160.272 69.6406 160.824 69.4993 161.166 69.2168C161.512 68.9342 161.685 68.5173 161.685 67.9658C161.685 67.387 161.5 66.9769 161.131 66.7354C160.767 66.4938 160.202 66.373 159.436 66.373ZM168.48 67.2891C169.437 67.2891 170.159 67.501 170.647 67.9248C171.139 68.3486 171.385 69.0094 171.385 69.9072V75H170.244L169.936 73.9268H169.881C169.667 74.2002 169.446 74.4258 169.218 74.6035C168.99 74.7812 168.726 74.9134 168.425 75C168.129 75.0911 167.767 75.1367 167.338 75.1367C166.887 75.1367 166.484 75.0547 166.128 74.8906C165.773 74.722 165.493 74.4668 165.288 74.125C165.083 73.7832 164.98 73.3503 164.98 72.8262C164.98 72.0469 165.269 71.4613 165.848 71.0693C166.431 70.6774 167.311 70.4609 168.487 70.4199L169.799 70.3721V69.9756C169.799 69.4515 169.676 69.0778 169.43 68.8545C169.189 68.6312 168.847 68.5195 168.405 68.5195C168.027 68.5195 167.66 68.5742 167.304 68.6836C166.949 68.793 166.602 68.9274 166.265 69.0869L165.746 67.9521C166.115 67.7562 166.534 67.5967 167.003 67.4736C167.477 67.3506 167.97 67.2891 168.48 67.2891ZM169.792 71.3838L168.815 71.418C168.013 71.4453 167.45 71.582 167.126 71.8281C166.803 72.0742 166.641 72.4115 166.641 72.8398C166.641 73.2135 166.753 73.487 166.976 73.6602C167.199 73.8288 167.493 73.9131 167.858 73.9131C168.414 73.9131 168.874 73.7559 169.239 73.4414C169.608 73.1224 169.792 72.6553 169.792 72.04V71.3838ZM172.875 78.3633C172.639 78.3633 172.413 78.3451 172.199 78.3086C171.985 78.2767 171.805 78.238 171.659 78.1924V76.9072C171.814 76.9528 171.964 76.987 172.11 77.0098C172.256 77.0326 172.422 77.0439 172.609 77.0439C172.905 77.0439 173.149 76.9619 173.34 76.7979C173.536 76.6338 173.634 76.3216 173.634 75.8613V67.4326H175.241V76.0049C175.241 76.4652 175.159 76.873 174.995 77.2285C174.835 77.584 174.58 77.862 174.229 78.0625C173.883 78.263 173.431 78.3633 172.875 78.3633ZM173.539 65.416C173.539 65.0924 173.625 64.8646 173.798 64.7324C173.976 64.6003 174.193 64.5342 174.448 64.5342C174.694 64.5342 174.906 64.6003 175.083 64.7324C175.266 64.8646 175.357 65.0924 175.357 65.416C175.357 65.735 175.266 65.9629 175.083 66.0996C174.906 66.2318 174.694 66.2979 174.448 66.2979C174.193 66.2979 173.976 66.2318 173.798 66.0996C173.625 65.9629 173.539 65.735 173.539 65.416Z" fill="#6A6A6A"/>
</svg>
