<svg width="13" height="19" viewBox="0 0 13 19" fill="none" xmlns="http://www.w3.org/2000/svg">
<path d="M12.9205 4.93311L12.2983 7.30242H0.869318L1.48295 4.93311H12.9205ZM6.98011 18.0581L1.15057 11.1206L1.15909 8.98992H4.03977C4.68182 8.98992 5.21875 8.87061 5.65057 8.63197C6.08239 8.39333 6.40625 8.06947 6.62216 7.66038C6.83807 7.25129 6.94886 6.78538 6.95455 6.26265C6.94886 5.47856 6.71875 4.83935 6.2642 4.34504C5.81534 3.84504 5.07386 3.59504 4.03977 3.59504H0.869318L1.56818 0.603559H4.03977C5.48864 0.603559 6.69602 0.822309 7.66193 1.25981C8.63352 1.69163 9.3608 2.3081 9.84375 3.10924C10.3324 3.91038 10.5795 4.86492 10.5852 5.97288C10.5795 6.95583 10.4148 7.81379 10.0909 8.54674C9.77273 9.2797 9.26989 9.89049 8.58239 10.3791C7.90057 10.8678 7.01136 11.2314 5.91477 11.47L5.77841 11.5212L10.9943 17.9047V18.0581H6.98011ZM12.9375 0.603559L12.2983 3.00697H2.8892L3.52841 0.603559H12.9375Z" fill="#00A305"/>
</svg>
