<svg width="41" height="42" viewBox="0 0 41 42" fill="none" xmlns="http://www.w3.org/2000/svg">
<path d="M17.1758 30.2512H23.485V38.7449H17.1758V30.2512Z" fill="url(#paint0_linear_258_609)"/>
<path d="M27.65 41.364H13.0166C11.9622 41.364 11.1074 40.4946 11.1074 39.4221C11.1074 38.3496 11.9622 37.4802 13.0166 37.4802H27.65C28.7045 37.4802 29.5592 38.3496 29.5592 39.4221C29.5592 40.4945 28.7045 41.364 27.65 41.364Z" fill="url(#paint1_linear_258_609)"/>
<path d="M17.1758 32.9983L22.8256 38.7449H23.4851V30.2512H17.1758V32.9983Z" fill="url(#paint2_linear_258_609)"/>
<path d="M37.6276 32.9982H3.0383C1.36032 32.9982 0 31.6147 0 29.9079V7.07419C0 5.36749 1.36032 3.98389 3.0383 3.98389H37.6277C39.3057 3.98389 40.666 5.36749 40.666 7.07419V29.9079C40.6659 31.6147 39.3056 32.9982 37.6276 32.9982Z" fill="url(#paint3_linear_258_609)"/>
<path d="M27.8496 3.98364L32.4531 8.6659V30.2508H27.8496V3.98364Z" fill="url(#paint4_linear_258_609)"/>
<path d="M35.3335 30.2508H5.32997C3.92667 30.2508 2.78906 29.0937 2.78906 27.6664V9.31523C2.78906 7.88792 3.92667 6.73083 5.32997 6.73083H35.3335C36.7368 6.73083 37.8744 7.88792 37.8744 9.31523V27.6664C37.8744 29.0938 36.7368 30.2508 35.3335 30.2508Z" fill="url(#paint5_linear_258_609)"/>
<path d="M30.5505 6.73083H27.8496V30.2508H32.4531V8.66593L30.5505 6.73083Z" fill="url(#paint6_linear_258_609)"/>
<path d="M0 27.304V29.9077C0 31.6144 1.36032 32.998 3.0383 32.998H37.6277C39.3057 32.998 40.666 31.6144 40.666 29.9077V27.304H0Z" fill="url(#paint7_linear_258_609)"/>
<path d="M20.1699 11.6194L22.7015 14.1943V30.251H20.1699V11.6194Z" fill="url(#paint8_linear_258_609)"/>
<path d="M34.8418 17.4435L37.3734 20.0184V28.3094C37.3734 29.3817 36.5187 30.2509 35.4645 30.2509H34.8418V17.4435Z" fill="url(#paint9_linear_258_609)"/>
<path d="M20.4945 30.2507H14.9492V12.2975C14.9492 11.6983 15.4268 11.2125 16.0159 11.2125H19.4278C20.0169 11.2125 20.4945 11.6982 20.4945 12.2975V30.2507H20.4945Z" fill="url(#paint10_linear_258_609)"/>
<path d="M27.8499 30.2509H22.3047V2.00271C22.3047 1.40352 22.7822 0.917725 23.3714 0.917725H26.7833C27.3724 0.917725 27.85 1.40344 27.85 2.00271V30.2509H27.8499Z" fill="url(#paint11_linear_258_609)"/>
<path d="M35.2034 30.2508H29.6582V18.2494C29.6582 17.6502 30.1357 17.1644 30.7249 17.1644H34.1368C34.7259 17.1644 35.2035 17.6501 35.2035 18.2494V30.2508H35.2034Z" fill="url(#paint12_linear_258_609)"/>
<path d="M7.24019 13.5264H4.66149C4.42666 13.5264 4.23633 13.3328 4.23633 13.094V11.9136C4.23633 11.6748 4.42666 11.4812 4.66149 11.4812H7.24019C7.47501 11.4812 7.66534 11.6748 7.66534 11.9136V13.094C7.66534 13.3328 7.47501 13.5264 7.24019 13.5264Z" fill="#7ACBFF"/>
<path d="M13.4996 13.5264H8.89977C8.66494 13.5264 8.47461 13.3328 8.47461 13.094V11.9136C8.47461 11.6748 8.66494 11.4812 8.89977 11.4812H13.4996C13.7344 11.4812 13.9247 11.6748 13.9247 11.9136V13.094C13.9247 13.3328 13.7344 13.5264 13.4996 13.5264Z" fill="#7ACBFF"/>
<path d="M10.9213 16.607H13.5C13.7348 16.607 13.9251 16.4134 13.9251 16.1746V14.9942C13.9251 14.7554 13.7348 14.5618 13.5 14.5618H10.9213C10.6864 14.5618 10.4961 14.7554 10.4961 14.9942V16.1746C10.4961 16.4134 10.6865 16.607 10.9213 16.607Z" fill="#7ACBFF"/>
<path d="M4.66149 16.607H9.26128C9.49611 16.607 9.68644 16.4134 9.68644 16.1746V14.9942C9.68644 14.7554 9.49611 14.5618 9.26128 14.5618H4.66149C4.42666 14.5618 4.23633 14.7554 4.23633 14.9942V16.1746C4.23633 16.4134 4.42674 16.607 4.66149 16.607Z" fill="#7ACBFF"/>
<path d="M7.24019 19.6873H4.66149C4.42666 19.6873 4.23633 19.4937 4.23633 19.2549V18.0745C4.23633 17.8357 4.42666 17.6421 4.66149 17.6421H7.24019C7.47501 17.6421 7.66534 17.8357 7.66534 18.0745V19.2549C7.66534 19.4937 7.47501 19.6873 7.24019 19.6873Z" fill="#7ACBFF"/>
<defs>
<linearGradient id="paint0_linear_258_609" x1="17.1758" y1="34.498" x2="23.4851" y2="34.498" gradientUnits="userSpaceOnUse">
<stop stop-color="#2F73A0"/>
<stop offset="1" stop-color="#174461"/>
</linearGradient>
<linearGradient id="paint1_linear_258_609" x1="20.3333" y1="37.8363" x2="20.3333" y2="40.5235" gradientUnits="userSpaceOnUse">
<stop stop-color="#2F73A0"/>
<stop offset="1" stop-color="#174461"/>
</linearGradient>
<linearGradient id="paint2_linear_258_609" x1="22.0614" y1="36.524" x2="20.1716" y2="31.3539" gradientUnits="userSpaceOnUse">
<stop stop-color="#092A40" stop-opacity="0"/>
<stop offset="1" stop-color="#092A40"/>
</linearGradient>
<linearGradient id="paint3_linear_258_609" x1="10.1918" y1="8.17629" x2="32.0076" y2="29.625" gradientUnits="userSpaceOnUse">
<stop stop-color="#2F73A0"/>
<stop offset="1" stop-color="#174461"/>
</linearGradient>
<linearGradient id="paint4_linear_258_609" x1="26.2431" y1="16.0147" x2="22.8991" y2="13.7965" gradientUnits="userSpaceOnUse">
<stop stop-color="#092A40" stop-opacity="0"/>
<stop offset="1" stop-color="#092A40"/>
</linearGradient>
<linearGradient id="paint5_linear_258_609" x1="11.7974" y1="9.81052" x2="30.1564" y2="27.8606" gradientUnits="userSpaceOnUse">
<stop stop-color="#EDF5FF"/>
<stop offset="1" stop-color="#C7E9FF"/>
</linearGradient>
<linearGradient id="paint6_linear_258_609" x1="31.8158" y1="18.4909" x2="26.7523" y2="18.4909" gradientUnits="userSpaceOnUse">
<stop stop-color="#7ACBFF" stop-opacity="0"/>
<stop offset="1" stop-color="#2F73A0"/>
</linearGradient>
<linearGradient id="paint7_linear_258_609" x1="20.333" y1="29.3421" x2="20.333" y2="33.0082" gradientUnits="userSpaceOnUse">
<stop stop-color="#092A40" stop-opacity="0"/>
<stop offset="1" stop-color="#092A40"/>
</linearGradient>
<linearGradient id="paint8_linear_258_609" x1="22.1132" y1="20.9352" x2="19.9312" y2="20.9352" gradientUnits="userSpaceOnUse">
<stop stop-color="#7ACBFF" stop-opacity="0"/>
<stop offset="1" stop-color="#2F73A0"/>
</linearGradient>
<linearGradient id="paint9_linear_258_609" x1="36.7851" y1="23.8472" x2="34.6031" y2="23.8472" gradientUnits="userSpaceOnUse">
<stop stop-color="#7ACBFF" stop-opacity="0"/>
<stop offset="1" stop-color="#2F73A0"/>
</linearGradient>
<linearGradient id="paint10_linear_258_609" x1="14.0694" y1="17.3344" x2="21.9266" y2="25.0594" gradientUnits="userSpaceOnUse">
<stop stop-color="#FF755C"/>
<stop offset="1" stop-color="#FF4181"/>
</linearGradient>
<linearGradient id="paint11_linear_258_609" x1="19.8609" y1="10.5964" x2="31.0825" y2="21.6292" gradientUnits="userSpaceOnUse">
<stop stop-color="#FFCE47"/>
<stop offset="1" stop-color="#FF9356"/>
</linearGradient>
<linearGradient id="paint12_linear_258_609" x1="29.6825" y1="21.2301" x2="35.5947" y2="27.0428" gradientUnits="userSpaceOnUse">
<stop stop-color="#7ACBFF"/>
<stop offset="1" stop-color="#45A2E0"/>
</linearGradient>
</defs>
</svg>
