<svg width="19" height="19" viewBox="0 0 19 19" fill="none" xmlns="http://www.w3.org/2000/svg">
<path d="M13.8201 4.75617V5.83541L11.4865 6.47564V7.79674H9.72017V4.75617H13.8201Z" fill="#262626"/>
<path d="M15.8523 5.91671V16.6542L15.8015 16.7152H12.0352L11.9844 16.6542V6.9553L15.8506 5.91468L15.8523 5.91671ZM12.887 8.39631V9.1971H13.5542V8.39631H12.887ZM14.2536 8.39631V9.1971H14.9209V8.39631H14.2536ZM12.887 10.195V10.9958H13.5542V10.195H12.887ZM14.2536 10.195V10.9958H14.9209V10.195H14.2536ZM13.5525 11.9958H12.8853V12.7966H13.5525V11.9958ZM14.9192 11.9958H14.2519V12.7966H14.9192V11.9958ZM13.5525 13.7559H12.8853V14.5953H13.5525V13.7559Z" fill="#262626"/>
<path d="M9.22059 7.79674H7.65412V5.3964H4.17233L4.12152 5.33543V2.31519H7.33744L9.22059 4.6139V7.79674ZM5.68799 3.51637H4.98859V4.31716H5.68799V3.51637ZM7.05463 3.51637H6.35522V4.31716H7.05463V3.51637Z" fill="#262626"/>
<path d="M3.28833 5.99598H7.12068V16.7152L3.28833 16.6745V5.99598ZM4.8548 7.35569H4.18757V8.15648H4.8548V7.35569ZM6.22144 7.35569H5.55421V8.15648H6.22144V7.35569ZM4.8548 9.15646H4.18757V9.95725H4.8548V9.15646ZM6.22144 9.15646H5.55421V9.95725H6.22144V9.15646ZM4.18757 10.9166V11.756H4.8548V10.9166H4.18757ZM6.22144 10.9166H5.55421V11.756H6.22144V10.9166ZM4.18757 12.7153V13.5161H4.8548V12.7153H4.18757ZM6.22144 12.7153H5.55421V13.5161H6.22144V12.7153Z" fill="#262626"/>
<path d="M11.4865 8.39631V16.7152H7.65412V8.39631H11.4865ZM9.22059 9.79668H8.55336V10.5975H9.22059V9.79668ZM10.5872 9.79668H9.92V10.5975H10.5872V9.79668ZM9.22059 11.5548H8.55336V12.3942H9.22059V11.5548ZM10.5872 11.5548H9.92V12.3942H10.5872V11.5548ZM8.55336 13.3555V14.1563H9.22059V13.3555H8.55336Z" fill="#262626"/>
</svg>
