<svg width="20" height="21" viewBox="0 0 20 21" fill="none" xmlns="http://www.w3.org/2000/svg">
<path d="M10 6.97412C8.89543 6.97412 8 6.07869 8 4.97412C8 3.86955 8.89543 2.97412 10 2.97412C11.1046 2.97412 12 3.86955 12 4.97412C12 6.07869 11.1046 6.97412 10 6.97412Z" fill="#787878"/>
<path d="M10 12.9741C8.89543 12.9741 8 12.0787 8 10.9741C8 9.86955 8.89543 8.97412 10 8.97412C11.1046 8.97412 12 9.86955 12 10.9741C12 12.0787 11.1046 12.9741 10 12.9741Z" fill="#787878"/>
<path d="M10 18.9741C8.89543 18.9741 8 18.0787 8 16.9741C8 15.8696 8.89543 14.9741 10 14.9741C11.1046 14.9741 12 15.8696 12 16.9741C12 18.0787 11.1046 18.9741 10 18.9741Z" fill="#787878"/>
</svg>
