<svg width="21" height="17" viewBox="0 0 21 17" fill="none" xmlns="http://www.w3.org/2000/svg">
<path d="M10.5238 13.4318C8.15919 13.4318 6.24504 11.6015 6.0689 9.28208L2.79863 6.75471C2.36872 7.29404 1.97311 7.86423 1.65388 8.48773C1.58256 8.6288 1.5454 8.78466 1.5454 8.94274C1.5454 9.10081 1.58256 9.25667 1.65388 9.39774C3.3445 12.6964 6.69146 14.9282 10.5238 14.9282C11.3627 14.9282 12.172 14.8035 12.952 14.6021L11.3344 13.3504C11.0672 13.402 10.7959 13.4293 10.5238 13.4318ZM20.3072 15.2431L16.8608 12.5795C17.9077 11.6972 18.7687 10.6155 19.3938 9.39742C19.4651 9.25635 19.5022 9.1005 19.5022 8.94242C19.5022 8.78435 19.4651 8.62849 19.3938 8.48742C17.7031 5.18878 14.3562 2.95696 10.5238 2.95696C8.91877 2.9589 7.33979 3.36297 5.9311 4.13226L1.965 1.06681C1.91329 1.02657 1.85414 0.996908 1.79096 0.979529C1.72777 0.962151 1.66178 0.957393 1.59676 0.965529C1.53173 0.973664 1.46895 0.994533 1.41199 1.02694C1.35503 1.05935 1.30502 1.10267 1.26481 1.15441L0.652844 1.94221C0.571664 2.04664 0.535287 2.17904 0.551715 2.31029C0.568144 2.44154 0.636031 2.56089 0.740446 2.64209L19.0826 16.8183C19.1344 16.8586 19.1935 16.8883 19.2567 16.9056C19.3199 16.923 19.3859 16.9278 19.4509 16.9196C19.5159 16.9115 19.5787 16.8906 19.6357 16.8582C19.6926 16.8258 19.7426 16.7825 19.7828 16.7307L20.3951 15.9429C20.4763 15.8385 20.5126 15.7061 20.4961 15.5748C20.4796 15.4436 20.4117 15.3242 20.3072 15.2431ZM14.5797 10.8162L13.3545 9.8691C13.4577 9.5709 13.5124 9.2581 13.5166 8.94258C13.5227 8.48065 13.4204 8.02372 13.2178 7.60852C13.0153 7.19331 12.7182 6.83139 12.3504 6.55183C11.9826 6.27227 11.5544 6.08286 11.1001 5.99882C10.6459 5.91478 10.1782 5.93845 9.73478 6.06792C9.92277 6.32265 10.0245 6.63078 10.025 6.94737C10.0204 7.05272 10.0043 7.15725 9.97701 7.25912L7.68221 5.48557C8.47935 4.81942 9.48498 4.45413 10.5238 4.45336C11.1134 4.45304 11.6974 4.56893 12.2422 4.79442C12.787 5.01991 13.282 5.35057 13.6989 5.76749C14.1158 6.18442 14.4465 6.67944 14.672 7.22424C14.8975 7.76905 15.0134 8.35295 15.013 8.94258C15.013 9.6169 14.8481 10.2454 14.5797 10.8165V10.8162Z" fill="black"/>
</svg>
