<svg width="31" height="31" viewBox="0 0 31 31" fill="none" xmlns="http://www.w3.org/2000/svg">
<path d="M22.2671 10.586C22.2041 10.685 20.9471 12.632 17.6501 13.313V17.816L19.9631 23.603C20.2091 24.218 19.9091 24.917 19.2941 25.163C18.6791 25.409 17.9801 25.109 17.7341 24.494L15.2471 18.347L12.7601 24.494C12.5141 25.109 11.8151 25.409 11.2001 25.163C10.5851 24.917 10.2851 24.218 10.5311 23.603L12.8441 17.816V13.313C9.54706 12.629 8.29006 10.685 8.22706 10.586C7.87606 10.025 8.04706 9.284 8.60806 8.933C9.16906 8.582 9.91006 8.753 10.2611 9.314C10.3001 9.371 11.5451 11.15 15.2441 11.15C18.9431 11.15 20.2151 9.332 20.2271 9.314C20.5781 8.753 21.3191 8.582 21.8801 8.933C22.4411 9.284 22.6121 10.025 22.2611 10.586H22.2671ZM15.2501 9.95C16.5761 9.95 17.6501 8.876 17.6501 7.55C17.6501 6.224 16.5761 5.15 15.2501 5.15C13.9241 5.15 12.8501 6.224 12.8501 7.55C12.8501 8.876 13.9241 9.95 15.2501 9.95Z" fill="white"/>
</svg>
