<svg width="24" height="25" viewBox="0 0 24 25" fill="none" xmlns="http://www.w3.org/2000/svg">
<path d="M3.22915 5.80754L18.4297 20.6474M3.22915 5.80754C3.7947 5.16187 4.63942 4.75198 5.58316 4.75198H10.7218M3.22915 5.80754C2.77429 6.32683 2.5 6.99864 2.5 7.73237V18.6605C2.5 20.3065 3.88038 21.6409 5.58316 21.6409H16.8881C18.5909 21.6409 19.9713 20.3065 19.9713 18.6605V14.1899M10.7218 14.1899L4.04158 20.6474M18.0057 6.01865V5.95515M21.5 5.94522C21.5 8.14812 18.0057 11.0853 18.0057 11.0853C18.0057 11.0853 14.5115 8.14812 14.5115 5.94522C14.5115 4.12028 16.0759 2.64087 18.0057 2.64087C19.9356 2.64087 21.5 4.12028 21.5 5.94522Z" stroke="#3D3D3D" stroke-width="2" stroke-linecap="round" stroke-linejoin="round"/>
</svg>
