<svg width="486" height="79" viewBox="0 0 486 79" fill="none" xmlns="http://www.w3.org/2000/svg">
<path d="M13.1947 11.878H11.1267V15.42C11.1267 17.774 10.2687 18.72 8.28873 19.292L7.45273 17.774C8.92673 17.334 9.34473 16.762 9.34473 15.156V11.878H4.21873V16.322C4.21873 18.5 4.52673 18.896 6.61673 19.974L8.33273 20.854C10.5547 21.998 11.1707 22.724 11.1707 23.956C11.1707 24.704 10.8847 25.43 10.4007 26.068L8.68473 25.342C9.08073 24.902 9.30073 24.462 9.30073 23.978C9.30073 23.274 8.97073 22.988 7.40873 22.174L5.53873 21.206C2.98673 19.886 2.43673 19.116 2.43673 16.652V11.878H0.69873V10.316H13.1947V11.878ZM30.0849 11.878H22.9349V16.124C23.5509 15.574 24.4309 15.2 25.5089 15.2C27.5989 15.2 28.8309 16.542 28.8309 18.72C28.8309 20.26 28.2809 21.646 26.9829 23.076L25.4429 22.108C26.4109 21.118 27.0709 20.04 27.0709 18.698C27.0709 17.422 26.4329 16.74 25.3109 16.74C24.3869 16.74 23.4849 17.378 22.9349 18.368V24H21.1529V20.26C20.3609 20.964 19.3049 21.404 17.9849 21.404C15.7409 21.404 13.8709 20.128 13.8709 17.598C13.8709 15.2 15.5429 13.792 18.4029 13.792C19.1509 13.792 19.8329 13.88 20.3829 14.012L20.2289 15.618C19.7229 15.486 19.1069 15.398 18.4469 15.398C16.6429 15.398 15.6529 16.19 15.6529 17.664C15.6529 19.116 16.6649 19.82 17.9849 19.82C19.3269 19.82 20.4929 19.072 21.1529 18.126V11.878H12.8589V10.316H30.0849V11.878ZM33.4856 11.878V24H31.7036V11.878H29.7456V10.316H31.5496C29.6356 7.346 27.5236 5.872 25.1256 5.872C23.2116 5.872 22.0676 6.774 22.0676 8.226C22.0676 9.194 22.4636 9.898 22.8376 10.47H20.9896C20.5716 9.7 20.2856 8.93 20.2856 7.984C20.2856 5.762 22.0236 4.288 24.7956 4.288C28.5576 4.288 31.3076 6.532 33.3976 10.316H35.7516V11.878H33.4856ZM52.665 11.878H45.515V16.124C46.131 15.574 47.011 15.2 48.089 15.2C50.179 15.2 51.411 16.542 51.411 18.72C51.411 20.26 50.861 21.646 49.563 23.076L48.023 22.108C48.991 21.118 49.651 20.04 49.651 18.698C49.651 17.422 49.013 16.74 47.891 16.74C46.967 16.74 46.065 17.378 45.515 18.368V24H43.733V20.26C42.941 20.964 41.885 21.404 40.565 21.404C38.321 21.404 36.451 20.128 36.451 17.598C36.451 15.2 38.123 13.792 40.983 13.792C41.731 13.792 42.413 13.88 42.963 14.012L42.809 15.618C42.303 15.486 41.687 15.398 41.027 15.398C39.223 15.398 38.233 16.19 38.233 17.664C38.233 19.116 39.245 19.82 40.565 19.82C41.907 19.82 43.073 19.072 43.733 18.126V11.878H35.439V10.316H52.665V11.878ZM48.0642 29.082C47.3162 29.588 46.2822 29.896 45.1602 29.896C43.0042 29.896 41.6182 28.708 41.6182 26.75C41.6182 24.924 42.9382 23.758 45.5122 23.604L45.6662 25.056C43.9942 25.254 43.2462 25.804 43.2462 26.838C43.2462 27.916 44.0162 28.334 45.0942 28.334C45.9522 28.334 46.6122 28.114 47.4702 27.63L48.0642 29.082ZM62.9077 11.878V24H61.1257V16.784H58.0677C56.2197 16.784 55.0977 17.356 55.0977 18.918C55.0977 20.348 56.0217 21.514 57.7817 23.186L56.5277 24.308C54.4597 22.306 53.3157 20.656 53.3157 18.698C53.3157 16.322 55.0537 15.222 57.7597 15.222H61.1257V11.878H52.3257V10.316H65.1737V11.878H62.9077ZM79.4926 11.878V24H77.7106V19.578C76.9846 20.106 75.9506 20.458 74.8066 20.458C72.1886 20.458 70.6926 19.006 70.6926 16.08V11.878H68.9546V10.316H81.7806V11.878H79.4926ZM77.7106 11.878H72.4746V16.146C72.4746 18.038 73.2886 18.896 74.7626 18.896C75.8846 18.896 76.9626 18.28 77.7106 17.488V11.878ZM77.3885 7.016C77.3885 6.312 77.9385 5.74 78.5985 5.74C79.2585 5.74 79.8085 6.312 79.8085 7.016C79.8085 7.72 79.2585 8.292 78.5985 8.292C77.9385 8.292 77.3885 7.72 77.3885 7.016ZM95.7365 11.878H93.4485V24H91.6885V20.59C90.8965 21.228 89.7525 21.602 88.5425 21.602C86.1225 21.602 84.4725 20.216 84.4725 18.082C84.4725 16.96 84.9565 16.168 85.5725 15.684L82.2945 15.728V14.144H90.0165L89.8625 15.706H89.1585C87.4425 15.706 86.2325 16.432 86.2325 17.994C86.2325 19.292 87.1565 20.018 88.4105 20.018C89.7745 20.018 90.9185 19.336 91.6885 18.412V11.878H81.4585V10.316H95.7365V11.878ZM99.1633 11.878V24H97.3813V11.878H95.4233V10.316H101.429V11.878H99.1633ZM114.185 10.316V11.878H111.919V24H110.137V20.194C109.367 20.722 108.421 21.096 107.057 21.096C104.219 21.096 102.613 19.468 101.843 16.124C104.109 15.706 105.033 15.09 105.033 13.902C105.033 13.132 104.659 12.428 104.065 11.878H101.117V10.316H114.185ZM104.043 17.246C104.571 18.764 105.407 19.534 107.035 19.534C108.399 19.534 109.389 18.83 110.137 18.016V11.878H105.979C106.529 12.582 106.793 13.352 106.793 14.1C106.793 15.662 105.935 16.63 104.043 17.246ZM124.46 11.878V24H122.678V16.784H119.62C117.772 16.784 116.65 17.356 116.65 18.918C116.65 20.348 117.574 21.514 119.334 23.186L118.08 24.308C116.012 22.306 114.868 20.656 114.868 18.698C114.868 16.322 116.606 15.222 119.312 15.222H122.678V11.878H113.878V10.316H126.726V11.878H124.46ZM136.821 24.308C134.621 22.152 132.839 19.93 132.047 18.478C131.629 17.73 131.431 17.07 131.431 16.52C131.431 15.75 131.871 15.332 132.619 15.332C133.257 15.332 133.851 15.728 134.423 16.388C135.215 15.838 135.479 14.848 135.479 13.88C135.479 13.066 135.303 12.34 135.105 11.878H130.507V10.316H145.687V11.878H143.421V24H141.639V18.368C140.891 18.544 140.121 18.632 139.307 18.632C138.141 18.632 136.755 18.412 135.523 17.774C135.083 18.104 134.511 18.39 133.851 18.61C134.907 20.04 136.403 21.492 138.163 23.12L136.821 24.308ZM139.285 17.048C140.121 17.048 140.869 16.96 141.639 16.74V11.878H136.909C137.151 12.516 137.261 13.22 137.261 14.1C137.261 15.068 137.041 15.904 136.579 16.608C137.481 16.938 138.295 17.048 139.285 17.048ZM146.761 30.028C145.111 26.53 143.857 25.254 141.789 25.254C140.469 25.254 139.699 25.826 139.699 26.86C139.699 27.872 140.469 28.312 141.415 28.312C142.053 28.312 142.603 28.18 143.197 27.784L143.857 29.192C143.175 29.698 142.383 29.896 141.459 29.896C139.325 29.896 138.049 28.664 138.049 26.816C138.049 24.88 139.479 23.758 141.811 23.758C144.803 23.758 146.585 25.694 148.257 29.236L146.761 30.028ZM159.653 11.878H157.365V24H155.605V20.59C154.813 21.228 153.669 21.602 152.459 21.602C150.039 21.602 148.389 20.216 148.389 18.082C148.389 16.96 148.873 16.168 149.489 15.684L146.211 15.728V14.144H153.933L153.779 15.706H153.075C151.359 15.706 150.149 16.432 150.149 17.994C150.149 19.292 151.073 20.018 152.327 20.018C153.691 20.018 154.835 19.336 155.605 18.412V11.878H145.375V10.316H159.653V11.878ZM159.339 10.316H171.857V11.878H169.591V24H167.809V17.444H163.827V18.632C163.827 19.446 163.387 19.864 162.705 19.864C161.627 19.864 160.153 18.236 160.153 17.004C160.153 16.344 160.505 15.882 161.495 15.882H167.809V11.878H159.339V10.316ZM175.282 11.878V24H173.5V11.878H171.542V10.316H177.548V11.878H175.282ZM188.248 19.116C187.368 19.116 186.444 19.314 185.74 19.622C184.508 18.83 183.342 17.796 183.342 16.344C183.342 14.65 184.442 13.792 186.752 13.792H189.348V11.878H181.098V10.316H193.308V11.878H191.13V15.332H186.774C185.586 15.332 185.102 15.728 185.102 16.476C185.102 17.026 185.52 17.576 186.026 17.928C186.73 17.686 187.566 17.532 188.424 17.532C190.8 17.532 192.076 18.72 192.076 20.612C192.076 22.548 190.756 24 187.786 24C185.256 24 183.32 22.922 181.758 21.382L182.858 19.93C184.398 21.558 185.96 22.372 187.742 22.372C189.458 22.372 190.294 21.756 190.294 20.678C190.294 19.71 189.722 19.116 188.248 19.116ZM189.373 10.47C187.899 8.798 187.305 8.534 186.205 8.534C185.523 8.534 184.819 8.732 184.247 8.996L183.697 7.456C184.357 7.17 185.105 6.994 185.809 6.994C187.195 6.994 187.899 7.5 189.131 8.776L189.219 8.732C187.987 6.29 187.393 5.806 186.161 5.806C185.655 5.806 185.171 5.916 184.599 6.136L184.093 4.618C184.687 4.398 185.391 4.288 186.095 4.288C188.515 4.288 189.329 5.454 191.001 10.47H189.373ZM195.929 20.194C194.609 20.194 193.707 19.534 193.707 18.522C193.707 17.686 194.301 17.202 195.159 17.202C195.885 17.202 196.435 17.51 197.073 18.214C198.833 17.642 200.021 16.234 200.021 14.078C200.021 12.428 199.273 11.548 197.953 11.548C196.941 11.548 196.369 12.12 196.369 12.89C196.369 13.924 197.293 14.364 198.811 14.474L198.547 15.904C196.237 15.728 194.741 14.716 194.741 12.802C194.741 11.152 195.885 10.096 197.909 10.096C200.263 10.096 201.759 11.636 201.759 14.21C201.759 16.828 200.307 18.654 198.173 19.556C199.339 20.678 200.373 21.932 201.275 23.164L199.757 24.132C198.503 22.372 197.491 21.096 196.633 20.128C196.391 20.172 196.193 20.194 195.929 20.194ZM206.093 11.878V24H204.311V11.878H202.353V10.316H208.359V11.878H206.093ZM220.914 11.878H218.648V24H216.866V20.634C215.986 21.206 214.93 21.514 213.544 21.514C210.772 21.514 209.056 19.996 209.056 17.664C209.056 14.98 211.036 13.704 213.852 13.704C214.732 13.704 215.458 13.77 216.096 13.924L215.964 15.442C215.326 15.288 214.666 15.222 213.984 15.222C213.654 15.222 213.324 15.244 213.038 15.288L216.118 19.226C216.404 19.028 216.646 18.83 216.866 18.61V11.878H208.044V10.316H220.914V11.878ZM210.838 17.664C210.838 19.248 211.96 20.018 213.61 20.018C214.05 20.018 214.468 19.952 214.864 19.82L211.696 15.816C211.146 16.212 210.838 16.828 210.838 17.664ZM224.353 11.878V24H222.571V11.878H220.613V10.316H222.549C221.361 6.532 220.921 5.894 219.447 5.894C218.831 5.894 218.149 6.048 217.621 6.246L217.137 4.684C217.753 4.442 218.589 4.288 219.337 4.288C221.911 4.288 222.703 5.542 224.177 10.316H226.619V11.878H224.353ZM233.236 19.116C232.356 19.116 231.432 19.314 230.728 19.622C229.496 18.83 228.33 17.796 228.33 16.344C228.33 14.65 229.43 13.792 231.74 13.792H234.336V11.878H226.086V10.316H238.296V11.878H236.118V15.332H231.762C230.574 15.332 230.09 15.728 230.09 16.476C230.09 17.026 230.508 17.576 231.014 17.928C231.718 17.686 232.554 17.532 233.412 17.532C235.788 17.532 237.064 18.72 237.064 20.612C237.064 22.548 235.744 24 232.774 24C230.244 24 228.308 22.922 226.746 21.382L227.846 19.93C229.386 21.558 230.948 22.372 232.73 22.372C234.446 22.372 235.282 21.756 235.282 20.678C235.282 19.71 234.71 19.116 233.236 19.116ZM234.076 10.47C233.372 9.678 232.756 8.49 232.756 7.28C232.756 5.256 234.142 4.288 236.056 4.288C236.98 4.288 237.75 4.486 238.322 4.816L237.86 6.158C237.332 5.96 236.87 5.806 236.276 5.806C235.132 5.806 234.516 6.466 234.516 7.544C234.516 8.534 235.022 9.48 235.88 10.47H234.076Z" fill="#222222"/>
<path d="M2.76123 54V38.2949H5.33936V54H2.76123ZM15.4263 41.8828C16.7655 41.8828 17.8075 42.2301 18.5522 42.9248C19.3042 43.6123 19.6802 44.7188 19.6802 46.2441V54H17.1558V46.7168C17.1558 45.793 16.966 45.1019 16.5864 44.6436C16.2069 44.1781 15.6196 43.9453 14.8247 43.9453C13.6717 43.9453 12.8696 44.2998 12.4185 45.0088C11.9744 45.7178 11.7524 46.7454 11.7524 48.0918V54H9.22803V42.1084H11.1938L11.5483 43.7197H11.688C11.9458 43.3044 12.2645 42.9642 12.644 42.6992C13.0308 42.4271 13.4604 42.223 13.9331 42.0869C14.4129 41.9508 14.9106 41.8828 15.4263 41.8828ZM27.6401 52.1738C27.9696 52.1738 28.2954 52.1452 28.6177 52.0879C28.9399 52.0234 29.2336 51.9482 29.4985 51.8623V53.7744C29.2192 53.8962 28.8576 54 28.4136 54.0859C27.9696 54.1719 27.5076 54.2148 27.0278 54.2148C26.3547 54.2148 25.7495 54.1038 25.2124 53.8818C24.6753 53.6527 24.2492 53.2624 23.9341 52.7109C23.619 52.1595 23.4614 51.3968 23.4614 50.4229V44.0312H21.8394V42.9033L23.5796 42.0117L24.4067 39.4658H25.9966V42.1084H29.4019V44.0312H25.9966V50.3906C25.9966 50.9922 26.147 51.4398 26.4478 51.7334C26.7485 52.027 27.146 52.1738 27.6401 52.1738ZM36.6528 41.8828C37.7127 41.8828 38.6222 42.1012 39.3813 42.5381C40.1405 42.9749 40.7241 43.5944 41.1323 44.3965C41.5405 45.1986 41.7446 46.1582 41.7446 47.2754V48.6289H33.8062C33.8348 49.7819 34.1427 50.6699 34.73 51.293C35.3244 51.916 36.1551 52.2275 37.2222 52.2275C37.9813 52.2275 38.6616 52.1559 39.2632 52.0127C39.8719 51.8623 40.4985 51.6439 41.1431 51.3574V53.4092C40.5487 53.6885 39.9435 53.8926 39.3276 54.0215C38.7118 54.1504 37.9741 54.2148 37.1147 54.2148C35.9474 54.2148 34.9198 53.9893 34.0317 53.5381C33.1509 53.0798 32.4598 52.3994 31.9585 51.4971C31.4644 50.5947 31.2173 49.474 31.2173 48.1348C31.2173 46.8027 31.4429 45.6712 31.894 44.7402C32.3452 43.8092 32.979 43.1003 33.7954 42.6133C34.6118 42.1263 35.5643 41.8828 36.6528 41.8828ZM36.6528 43.7842C35.8579 43.7842 35.2134 44.042 34.7192 44.5576C34.2323 45.0732 33.9458 45.8288 33.8599 46.8242H39.2739C39.2668 46.2298 39.1665 45.7035 38.9731 45.2451C38.7869 44.7868 38.5005 44.4287 38.1138 44.1709C37.7342 43.9131 37.2472 43.7842 36.6528 43.7842ZM47.9858 59.2852C46.3745 59.2852 45.1392 58.9951 44.2798 58.415C43.4204 57.835 42.9907 57.0221 42.9907 55.9766C42.9907 55.2461 43.2199 54.6266 43.6782 54.1182C44.1366 53.6169 44.7918 53.2695 45.644 53.0762C45.3218 52.9329 45.0425 52.7109 44.8062 52.4102C44.577 52.1022 44.4624 51.762 44.4624 51.3896C44.4624 50.9456 44.5877 50.5661 44.8384 50.251C45.089 49.9359 45.465 49.6315 45.9663 49.3379C45.3433 49.0729 44.842 48.6432 44.4624 48.0488C44.09 47.4473 43.9038 46.7419 43.9038 45.9326C43.9038 45.0732 44.0864 44.3428 44.4517 43.7412C44.8169 43.1325 45.3504 42.6706 46.0522 42.3555C46.7541 42.0332 47.6027 41.8721 48.5981 41.8721C48.813 41.8721 49.0457 41.8864 49.2964 41.915C49.5542 41.9365 49.7905 41.9652 50.0054 42.001C50.2274 42.0296 50.3957 42.0618 50.5103 42.0977H54.6245V43.5049L52.605 43.8809C52.7983 44.153 52.9523 44.4645 53.0669 44.8154C53.1815 45.1592 53.2388 45.5352 53.2388 45.9434C53.2388 47.1751 52.8127 48.1455 51.9604 48.8545C51.1154 49.5563 49.9481 49.9072 48.4585 49.9072C48.1004 49.8929 47.7531 49.8643 47.4165 49.8213C47.1587 49.9788 46.9618 50.1543 46.8257 50.3477C46.6896 50.5339 46.6216 50.7451 46.6216 50.9814C46.6216 51.1748 46.6896 51.3324 46.8257 51.4541C46.9618 51.5687 47.1623 51.6546 47.4272 51.7119C47.6994 51.7692 48.0288 51.7979 48.4155 51.7979H50.4673C51.7707 51.7979 52.7661 52.0736 53.4536 52.625C54.1411 53.1764 54.4849 53.9857 54.4849 55.0527C54.4849 56.4062 53.9263 57.4482 52.8091 58.1787C51.6919 58.9163 50.0841 59.2852 47.9858 59.2852ZM48.0825 57.5127C48.9634 57.5127 49.7046 57.4268 50.3062 57.2549C50.9077 57.083 51.3625 56.8359 51.6704 56.5137C51.9784 56.1986 52.1323 55.8226 52.1323 55.3857C52.1323 54.999 52.0356 54.7018 51.8423 54.4941C51.6489 54.2865 51.3589 54.1432 50.9722 54.0645C50.5854 53.9857 50.1056 53.9463 49.5327 53.9463H47.6636C47.1981 53.9463 46.7863 54.0179 46.4282 54.1611C46.0701 54.3115 45.7909 54.5264 45.5903 54.8057C45.397 55.085 45.3003 55.4215 45.3003 55.8154C45.3003 56.3597 45.5402 56.7786 46.02 57.0723C46.507 57.3659 47.1945 57.5127 48.0825 57.5127ZM48.5767 48.2529C49.3143 48.2529 49.8621 48.0524 50.2202 47.6514C50.5783 47.2432 50.7573 46.6702 50.7573 45.9326C50.7573 45.1305 50.5711 44.529 50.1987 44.1279C49.8335 43.7269 49.2892 43.5264 48.5659 43.5264C47.8569 43.5264 47.3162 43.7305 46.9438 44.1387C46.5786 44.5469 46.396 45.152 46.396 45.9541C46.396 46.6774 46.5786 47.2432 46.9438 47.6514C47.3162 48.0524 47.8605 48.2529 48.5767 48.2529ZM62.8208 41.8828C63.0213 41.8828 63.2397 41.8936 63.4761 41.915C63.7124 41.9365 63.9165 41.9652 64.0884 42.001L63.8521 44.3643C63.7017 44.3213 63.5155 44.2891 63.2935 44.2676C63.0786 44.2461 62.8853 44.2354 62.7134 44.2354C62.2622 44.2354 61.8325 44.3105 61.4243 44.4609C61.0161 44.6042 60.6545 44.8262 60.3394 45.127C60.0243 45.4206 59.7772 45.7894 59.5981 46.2334C59.4191 46.6774 59.3296 47.193 59.3296 47.7803V54H56.7944V42.1084H58.771L59.1147 44.2031H59.2329C59.4692 43.7806 59.7629 43.3939 60.1138 43.043C60.4647 42.6921 60.8657 42.4128 61.3169 42.2051C61.7752 41.9902 62.2765 41.8828 62.8208 41.8828ZM70.9526 41.8828C72.4565 41.8828 73.5916 42.2158 74.3579 42.8818C75.1313 43.5479 75.5181 44.5863 75.5181 45.9971V54H73.7241L73.2407 52.3135H73.1548C72.8182 52.7432 72.4709 53.0977 72.1128 53.377C71.7547 53.6562 71.3394 53.8639 70.8667 54C70.4012 54.1432 69.8319 54.2148 69.1587 54.2148C68.4497 54.2148 67.8159 54.0859 67.2573 53.8281C66.6987 53.5632 66.2583 53.1621 65.936 52.625C65.6138 52.0879 65.4526 51.4076 65.4526 50.584C65.4526 49.3594 65.9074 48.4391 66.8169 47.8232C67.7336 47.2074 69.1157 46.8672 70.9634 46.8027L73.0259 46.7275V46.1045C73.0259 45.2809 72.8325 44.6937 72.4458 44.3428C72.0662 43.9919 71.5291 43.8164 70.8345 43.8164C70.2401 43.8164 69.6636 43.9023 69.105 44.0742C68.5464 44.2461 68.0021 44.4574 67.4722 44.708L66.6558 42.9248C67.2358 42.6169 67.8947 42.3662 68.6323 42.1729C69.3771 41.9795 70.1506 41.8828 70.9526 41.8828ZM73.0151 48.3174L71.479 48.3711C70.2186 48.4141 69.3341 48.6289 68.8257 49.0156C68.3172 49.4023 68.063 49.9323 68.063 50.6055C68.063 51.1927 68.2384 51.6224 68.5894 51.8945C68.9403 52.1595 69.4022 52.292 69.9751 52.292C70.8488 52.292 71.5721 52.0449 72.145 51.5508C72.7251 51.0495 73.0151 50.3154 73.0151 49.3486V48.3174ZM83.478 52.1738C83.8075 52.1738 84.1333 52.1452 84.4556 52.0879C84.7778 52.0234 85.0715 51.9482 85.3364 51.8623V53.7744C85.0571 53.8962 84.6955 54 84.2515 54.0859C83.8075 54.1719 83.3455 54.2148 82.8657 54.2148C82.1925 54.2148 81.5874 54.1038 81.0503 53.8818C80.5132 53.6527 80.0871 53.2624 79.772 52.7109C79.4569 52.1595 79.2993 51.3968 79.2993 50.4229V44.0312H77.6772V42.9033L79.4175 42.0117L80.2446 39.4658H81.8345V42.1084H85.2397V44.0312H81.8345V50.3906C81.8345 50.9922 81.9849 51.4398 82.2856 51.7334C82.5864 52.027 82.9839 52.1738 83.478 52.1738ZM92.4907 41.8828C93.5506 41.8828 94.4601 42.1012 95.2192 42.5381C95.9784 42.9749 96.562 43.5944 96.9702 44.3965C97.3784 45.1986 97.5825 46.1582 97.5825 47.2754V48.6289H89.644C89.6727 49.7819 89.9806 50.6699 90.5679 51.293C91.1623 51.916 91.993 52.2275 93.0601 52.2275C93.8192 52.2275 94.4995 52.1559 95.1011 52.0127C95.7098 51.8623 96.3364 51.6439 96.981 51.3574V53.4092C96.3866 53.6885 95.7814 53.8926 95.1655 54.0215C94.5496 54.1504 93.812 54.2148 92.9526 54.2148C91.7853 54.2148 90.7576 53.9893 89.8696 53.5381C88.9888 53.0798 88.2977 52.3994 87.7964 51.4971C87.3022 50.5947 87.0552 49.474 87.0552 48.1348C87.0552 46.8027 87.2808 45.6712 87.7319 44.7402C88.1831 43.8092 88.8169 43.1003 89.6333 42.6133C90.4497 42.1263 91.4022 41.8828 92.4907 41.8828ZM92.4907 43.7842C91.6958 43.7842 91.0513 44.042 90.5571 44.5576C90.0701 45.0732 89.7837 45.8288 89.6978 46.8242H95.1118C95.1047 46.2298 95.0044 45.7035 94.811 45.2451C94.6248 44.7868 94.3384 44.4287 93.9517 44.1709C93.5721 43.9131 93.0851 43.7842 92.4907 43.7842ZM104.425 54.2148C103.007 54.2148 101.869 53.6992 101.009 52.668C100.157 51.6296 99.731 50.1006 99.731 48.0811C99.731 46.04 100.164 44.4967 101.031 43.4512C101.904 42.4056 103.054 41.8828 104.479 41.8828C105.081 41.8828 105.607 41.9652 106.058 42.1299C106.509 42.2874 106.896 42.5023 107.218 42.7744C107.548 43.0465 107.827 43.3509 108.056 43.6875H108.174C108.139 43.4655 108.096 43.1468 108.045 42.7314C108.002 42.3089 107.981 41.9186 107.981 41.5605V37.2852H110.516V54H108.54L108.088 52.3779H107.981C107.766 52.7217 107.494 53.0332 107.165 53.3125C106.842 53.5846 106.456 53.8031 106.004 53.9678C105.56 54.1325 105.034 54.2148 104.425 54.2148ZM105.134 52.1631C106.216 52.1631 106.978 51.8516 107.422 51.2285C107.866 50.6055 108.096 49.6709 108.11 48.4248V48.0918C108.11 46.7598 107.895 45.7393 107.465 45.0303C107.036 44.3141 106.251 43.9561 105.113 43.9561C104.203 43.9561 103.509 44.3249 103.029 45.0625C102.556 45.793 102.32 46.8135 102.32 48.124C102.32 49.4346 102.556 50.4372 103.029 51.1318C103.509 51.8193 104.21 52.1631 105.134 52.1631ZM124.674 38.2949C126.701 38.2949 128.18 38.7103 129.111 39.541C130.042 40.3717 130.507 41.5355 130.507 43.0322C130.507 43.7126 130.4 44.3607 130.185 44.9766C129.977 45.5853 129.634 46.126 129.154 46.5986C128.674 47.0641 128.04 47.4329 127.252 47.7051C126.472 47.9772 125.509 48.1133 124.363 48.1133H122.687V54H120.109V38.2949H124.674ZM124.502 40.4326H122.687V45.9648H124.094C124.903 45.9648 125.591 45.8717 126.157 45.6855C126.722 45.4922 127.152 45.1878 127.446 44.7725C127.739 44.3571 127.886 43.8092 127.886 43.1289C127.886 42.2194 127.611 41.5426 127.059 41.0986C126.515 40.6546 125.663 40.4326 124.502 40.4326ZM138.048 41.8828C139.552 41.8828 140.687 42.2158 141.454 42.8818C142.227 43.5479 142.614 44.5863 142.614 45.9971V54H140.82L140.336 52.3135H140.25C139.914 52.7432 139.567 53.0977 139.208 53.377C138.85 53.6562 138.435 53.8639 137.962 54C137.497 54.1432 136.928 54.2148 136.254 54.2148C135.545 54.2148 134.912 54.0859 134.353 53.8281C133.794 53.5632 133.354 53.1621 133.032 52.625C132.709 52.0879 132.548 51.4076 132.548 50.584C132.548 49.3594 133.003 48.4391 133.913 47.8232C134.829 47.2074 136.211 46.8672 138.059 46.8027L140.122 46.7275V46.1045C140.122 45.2809 139.928 44.6937 139.542 44.3428C139.162 43.9919 138.625 43.8164 137.93 43.8164C137.336 43.8164 136.759 43.9023 136.201 44.0742C135.642 44.2461 135.098 44.4574 134.568 44.708L133.751 42.9248C134.332 42.6169 134.99 42.3662 135.728 42.1729C136.473 41.9795 137.246 41.8828 138.048 41.8828ZM140.111 48.3174L138.575 48.3711C137.314 48.4141 136.43 48.6289 135.921 49.0156C135.413 49.4023 135.159 49.9323 135.159 50.6055C135.159 51.1927 135.334 51.6224 135.685 51.8945C136.036 52.1595 136.498 52.292 137.071 52.292C137.944 52.292 138.668 52.0449 139.241 51.5508C139.821 51.0495 140.111 50.3154 140.111 49.3486V48.3174ZM152.346 41.8828C153.685 41.8828 154.727 42.2301 155.472 42.9248C156.224 43.6123 156.6 44.7188 156.6 46.2441V54H154.076V46.7168C154.076 45.793 153.886 45.1019 153.506 44.6436C153.127 44.1781 152.54 43.9453 151.745 43.9453C150.592 43.9453 149.79 44.2998 149.338 45.0088C148.894 45.7178 148.672 46.7454 148.672 48.0918V54H146.148V42.1084H148.114L148.468 43.7197H148.608C148.866 43.3044 149.184 42.9642 149.564 42.6992C149.951 42.4271 150.38 42.223 150.853 42.0869C151.333 41.9508 151.831 41.8828 152.346 41.8828ZM164.925 54.2148C163.801 54.2148 162.827 53.9964 162.003 53.5596C161.18 53.1227 160.546 52.4531 160.102 51.5508C159.658 50.6484 159.436 49.5026 159.436 48.1133C159.436 46.6667 159.68 45.485 160.167 44.5684C160.653 43.6517 161.327 42.9749 162.186 42.5381C163.053 42.1012 164.044 41.8828 165.162 41.8828C165.871 41.8828 166.512 41.9544 167.084 42.0977C167.665 42.2337 168.155 42.402 168.556 42.6025L167.804 44.6221C167.367 44.443 166.92 44.2926 166.461 44.1709C166.003 44.0492 165.563 43.9883 165.14 43.9883C164.445 43.9883 163.865 44.1423 163.4 44.4502C162.942 44.7581 162.598 45.2165 162.369 45.8252C162.147 46.4339 162.036 47.1895 162.036 48.0918C162.036 48.9655 162.15 49.7031 162.379 50.3047C162.609 50.8991 162.949 51.3503 163.4 51.6582C163.851 51.959 164.406 52.1094 165.065 52.1094C165.717 52.1094 166.3 52.0306 166.816 51.873C167.332 51.7155 167.819 51.5114 168.277 51.2607V53.4521C167.826 53.71 167.342 53.8997 166.827 54.0215C166.311 54.1504 165.677 54.2148 164.925 54.2148ZM173.594 37.2852V41.4854C173.594 41.9222 173.58 42.3483 173.551 42.7637C173.53 43.179 173.505 43.5013 173.476 43.7305H173.616C173.866 43.3151 174.174 42.9749 174.54 42.71C174.905 42.4378 175.313 42.2337 175.764 42.0977C176.222 41.9616 176.709 41.8936 177.225 41.8936C178.135 41.8936 178.908 42.0475 179.545 42.3555C180.183 42.6562 180.67 43.1253 181.006 43.7627C181.35 44.4001 181.522 45.2272 181.522 46.2441V54H178.998V46.7168C178.998 45.793 178.808 45.1019 178.428 44.6436C178.049 44.1781 177.461 43.9453 176.667 43.9453C175.9 43.9453 175.292 44.1064 174.84 44.4287C174.396 44.7438 174.078 45.2129 173.884 45.8359C173.691 46.4518 173.594 47.2038 173.594 48.0918V54H171.07V37.2852H173.594ZM189.718 41.8828C191.222 41.8828 192.357 42.2158 193.124 42.8818C193.897 43.5479 194.284 44.5863 194.284 45.9971V54H192.49L192.006 52.3135H191.92C191.584 52.7432 191.236 53.0977 190.878 53.377C190.52 53.6562 190.105 53.8639 189.632 54C189.167 54.1432 188.597 54.2148 187.924 54.2148C187.215 54.2148 186.582 54.0859 186.023 53.8281C185.464 53.5632 185.024 53.1621 184.702 52.625C184.379 52.0879 184.218 51.4076 184.218 50.584C184.218 49.3594 184.673 48.4391 185.583 47.8232C186.499 47.2074 187.881 46.8672 189.729 46.8027L191.792 46.7275V46.1045C191.792 45.2809 191.598 44.6937 191.211 44.3428C190.832 43.9919 190.295 43.8164 189.6 43.8164C189.006 43.8164 188.429 43.9023 187.871 44.0742C187.312 44.2461 186.768 44.4574 186.238 44.708L185.421 42.9248C186.001 42.6169 186.66 42.3662 187.398 42.1729C188.143 41.9795 188.916 41.8828 189.718 41.8828ZM191.781 48.3174L190.245 48.3711C188.984 48.4141 188.1 48.6289 187.591 49.0156C187.083 49.4023 186.829 49.9323 186.829 50.6055C186.829 51.1927 187.004 51.6224 187.355 51.8945C187.706 52.1595 188.168 52.292 188.741 52.292C189.614 52.292 190.338 52.0449 190.911 51.5508C191.491 51.0495 191.781 50.3154 191.781 49.3486V48.3174ZM196.024 42.1084H198.774L201.212 48.8975C201.32 49.2054 201.417 49.5098 201.502 49.8105C201.596 50.1042 201.674 50.3942 201.739 50.6807C201.81 50.9671 201.868 51.2536 201.911 51.54H201.975C202.047 51.1676 202.147 50.7523 202.276 50.2939C202.412 49.8285 202.562 49.363 202.727 48.8975L205.069 42.1084H207.787L202.684 55.6328C202.39 56.4062 202.029 57.0651 201.599 57.6094C201.177 58.1608 200.675 58.5762 200.095 58.8555C199.515 59.1419 198.853 59.2852 198.108 59.2852C197.75 59.2852 197.438 59.2637 197.173 59.2207C196.908 59.1849 196.683 59.1455 196.497 59.1025V57.083C196.647 57.1188 196.837 57.151 197.066 57.1797C197.295 57.2083 197.531 57.2227 197.775 57.2227C198.226 57.2227 198.616 57.1331 198.946 56.9541C199.275 56.7751 199.555 56.5208 199.784 56.1914C200.013 55.8691 200.203 55.5003 200.353 55.085L200.772 53.9678L196.024 42.1084ZM214.253 41.8828C215.757 41.8828 216.892 42.2158 217.659 42.8818C218.432 43.5479 218.819 44.5863 218.819 45.9971V54H217.025L216.542 52.3135H216.456C216.119 52.7432 215.772 53.0977 215.414 53.377C215.056 53.6562 214.64 53.8639 214.167 54C213.702 54.1432 213.133 54.2148 212.459 54.2148C211.75 54.2148 211.117 54.0859 210.558 53.8281C210 53.5632 209.559 53.1621 209.237 52.625C208.915 52.0879 208.753 51.4076 208.753 50.584C208.753 49.3594 209.208 48.4391 210.118 47.8232C211.034 47.2074 212.417 46.8672 214.264 46.8027L216.327 46.7275V46.1045C216.327 45.2809 216.133 44.6937 215.747 44.3428C215.367 43.9919 214.83 43.8164 214.135 43.8164C213.541 43.8164 212.964 43.9023 212.406 44.0742C211.847 44.2461 211.303 44.4574 210.773 44.708L209.957 42.9248C210.537 42.6169 211.195 42.3662 211.933 42.1729C212.678 41.9795 213.451 41.8828 214.253 41.8828ZM216.316 48.3174L214.78 48.3711C213.519 48.4141 212.635 48.6289 212.126 49.0156C211.618 49.4023 211.364 49.9323 211.364 50.6055C211.364 51.1927 211.539 51.6224 211.89 51.8945C212.241 52.1595 212.703 52.292 213.276 52.292C214.15 52.292 214.873 52.0449 215.446 51.5508C216.026 51.0495 216.316 50.3154 216.316 49.3486V48.3174ZM226.779 52.1738C227.108 52.1738 227.434 52.1452 227.756 52.0879C228.079 52.0234 228.372 51.9482 228.637 51.8623V53.7744C228.358 53.8962 227.996 54 227.552 54.0859C227.108 54.1719 226.646 54.2148 226.167 54.2148C225.493 54.2148 224.888 54.1038 224.351 53.8818C223.814 53.6527 223.388 53.2624 223.073 52.7109C222.758 52.1595 222.6 51.3968 222.6 50.4229V44.0312H220.978V42.9033L222.718 42.0117L223.545 39.4658H225.135V42.1084H228.541V44.0312H225.135V50.3906C225.135 50.9922 225.286 51.4398 225.586 51.7334C225.887 52.027 226.285 52.1738 226.779 52.1738ZM237.027 54V38.2949H239.605V54H237.027ZM249.692 41.8828C251.031 41.8828 252.073 42.2301 252.818 42.9248C253.57 43.6123 253.946 44.7188 253.946 46.2441V54H251.421V46.7168C251.421 45.793 251.232 45.1019 250.852 44.6436C250.472 44.1781 249.885 43.9453 249.09 43.9453C247.937 43.9453 247.135 44.2998 246.684 45.0088C246.24 45.7178 246.018 46.7454 246.018 48.0918V54H243.494V42.1084H245.459L245.814 43.7197H245.954C246.211 43.3044 246.53 42.9642 246.91 42.6992C247.296 42.4271 247.726 42.223 248.199 42.0869C248.679 41.9508 249.176 41.8828 249.692 41.8828ZM263.42 44.0312H260.531V54H258.006V44.0312H256.062V42.8174L258.006 42.0762V41.249C258.006 40.2393 258.164 39.4372 258.479 38.8428C258.801 38.2484 259.26 37.8223 259.854 37.5645C260.456 37.2995 261.172 37.167 262.002 37.167C262.547 37.167 263.044 37.2135 263.496 37.3066C263.947 37.3926 264.326 37.4928 264.634 37.6074L263.979 39.5195C263.736 39.4408 263.463 39.3691 263.163 39.3047C262.862 39.2331 262.54 39.1973 262.196 39.1973C261.623 39.1973 261.2 39.3763 260.928 39.7344C260.663 40.0924 260.531 40.6152 260.531 41.3027V42.1084H263.42V44.0312ZM275.978 48.0273C275.978 49.0156 275.849 49.8929 275.591 50.6592C275.333 51.4255 274.958 52.0736 274.463 52.6035C273.969 53.1263 273.375 53.5273 272.68 53.8066C271.986 54.0788 271.201 54.2148 270.328 54.2148C269.511 54.2148 268.763 54.0788 268.083 53.8066C267.402 53.5273 266.811 53.1263 266.31 52.6035C265.816 52.0736 265.433 51.4255 265.161 50.6592C264.889 49.8929 264.752 49.0156 264.752 48.0273C264.752 46.7168 264.978 45.6068 265.429 44.6973C265.888 43.7806 266.539 43.0824 267.384 42.6025C268.229 42.1227 269.236 41.8828 270.403 41.8828C271.499 41.8828 272.465 42.1227 273.303 42.6025C274.141 43.0824 274.796 43.7806 275.269 44.6973C275.742 45.6139 275.978 46.724 275.978 48.0273ZM267.352 48.0273C267.352 48.8939 267.456 49.6351 267.664 50.251C267.878 50.8669 268.208 51.3395 268.652 51.6689C269.096 51.9912 269.669 52.1523 270.371 52.1523C271.072 52.1523 271.645 51.9912 272.089 51.6689C272.533 51.3395 272.859 50.8669 273.067 50.251C273.275 49.6351 273.378 48.8939 273.378 48.0273C273.378 47.1608 273.275 46.4268 273.067 45.8252C272.859 45.2165 272.533 44.7546 272.089 44.4395C271.645 44.1172 271.069 43.9561 270.36 43.9561C269.314 43.9561 268.552 44.307 268.072 45.0088C267.592 45.7106 267.352 46.7168 267.352 48.0273ZM284.905 41.8828C285.105 41.8828 285.324 41.8936 285.56 41.915C285.796 41.9365 286 41.9652 286.172 42.001L285.936 44.3643C285.786 44.3213 285.599 44.2891 285.377 44.2676C285.163 44.2461 284.969 44.2354 284.797 44.2354C284.346 44.2354 283.917 44.3105 283.508 44.4609C283.1 44.6042 282.738 44.8262 282.423 45.127C282.108 45.4206 281.861 45.7894 281.682 46.2334C281.503 46.6774 281.414 47.193 281.414 47.7803V54H278.878V42.1084H280.855L281.199 44.2031H281.317C281.553 43.7806 281.847 43.3939 282.198 43.043C282.549 42.6921 282.95 42.4128 283.401 42.2051C283.859 41.9902 284.361 41.8828 284.905 41.8828ZM301.813 41.8828C303.145 41.8828 304.148 42.2266 304.821 42.9141C305.501 43.6016 305.841 44.7044 305.841 46.2227V54H303.317V46.6738C303.317 45.7715 303.141 45.0911 302.791 44.6328C302.44 44.1745 301.906 43.9453 301.19 43.9453C300.187 43.9453 299.464 44.2676 299.02 44.9121C298.583 45.5495 298.365 46.4769 298.365 47.6943V54H295.84V46.6738C295.84 46.0723 295.762 45.571 295.604 45.1699C295.454 44.7617 295.221 44.4574 294.906 44.2568C294.591 44.0492 294.193 43.9453 293.713 43.9453C293.019 43.9453 292.464 44.1029 292.048 44.418C291.64 44.7331 291.347 45.1986 291.167 45.8145C290.988 46.4232 290.899 47.1715 290.899 48.0596V54H288.375V42.1084H290.34L290.695 43.709H290.834C291.078 43.2936 291.379 42.9535 291.737 42.6885C292.102 42.4163 292.507 42.2158 292.951 42.0869C293.395 41.9508 293.857 41.8828 294.336 41.8828C295.224 41.8828 295.973 42.0404 296.582 42.3555C297.19 42.6634 297.645 43.1361 297.946 43.7734H298.139C298.512 43.1289 299.031 42.6527 299.697 42.3447C300.363 42.0368 301.068 41.8828 301.813 41.8828ZM314.027 41.8828C315.531 41.8828 316.666 42.2158 317.432 42.8818C318.206 43.5479 318.592 44.5863 318.592 45.9971V54H316.798L316.315 52.3135H316.229C315.892 52.7432 315.545 53.0977 315.187 53.377C314.829 53.6562 314.414 53.8639 313.941 54C313.475 54.1432 312.906 54.2148 312.233 54.2148C311.524 54.2148 310.89 54.0859 310.332 53.8281C309.773 53.5632 309.333 53.1621 309.01 52.625C308.688 52.0879 308.527 51.4076 308.527 50.584C308.527 49.3594 308.982 48.4391 309.891 47.8232C310.808 47.2074 312.19 46.8672 314.038 46.8027L316.1 46.7275V46.1045C316.1 45.2809 315.907 44.6937 315.52 44.3428C315.14 43.9919 314.603 43.8164 313.909 43.8164C313.314 43.8164 312.738 43.9023 312.179 44.0742C311.621 44.2461 311.076 44.4574 310.546 44.708L309.73 42.9248C310.31 42.6169 310.969 42.3662 311.707 42.1729C312.451 41.9795 313.225 41.8828 314.027 41.8828ZM316.089 48.3174L314.553 48.3711C313.293 48.4141 312.408 48.6289 311.9 49.0156C311.391 49.4023 311.137 49.9323 311.137 50.6055C311.137 51.1927 311.313 51.6224 311.664 51.8945C312.014 52.1595 312.476 52.292 313.049 52.292C313.923 52.292 314.646 52.0449 315.219 51.5508C315.799 51.0495 316.089 50.3154 316.089 49.3486V48.3174ZM326.552 52.1738C326.882 52.1738 327.208 52.1452 327.53 52.0879C327.852 52.0234 328.146 51.9482 328.411 51.8623V53.7744C328.131 53.8962 327.77 54 327.326 54.0859C326.882 54.1719 326.42 54.2148 325.94 54.2148C325.267 54.2148 324.662 54.1038 324.125 53.8818C323.587 53.6527 323.161 53.2624 322.846 52.7109C322.531 52.1595 322.374 51.3968 322.374 50.4229V44.0312H320.751V42.9033L322.492 42.0117L323.319 39.4658H324.909V42.1084H328.314V44.0312H324.909V50.3906C324.909 50.9922 325.059 51.4398 325.36 51.7334C325.661 52.027 326.058 52.1738 326.552 52.1738ZM333.352 42.1084V54H330.828V42.1084H333.352ZM332.106 37.5537C332.493 37.5537 332.826 37.6576 333.105 37.8652C333.391 38.0729 333.535 38.431 333.535 38.9395C333.535 39.4408 333.391 39.7988 333.105 40.0137C332.826 40.2214 332.493 40.3252 332.106 40.3252C331.705 40.3252 331.365 40.2214 331.085 40.0137C330.813 39.7988 330.677 39.4408 330.677 38.9395C330.677 38.431 330.813 38.0729 331.085 37.8652C331.365 37.6576 331.705 37.5537 332.106 37.5537ZM347.5 48.0273C347.5 49.0156 347.371 49.8929 347.113 50.6592C346.855 51.4255 346.479 52.0736 345.985 52.6035C345.491 53.1263 344.896 53.5273 344.202 53.8066C343.507 54.0788 342.723 54.2148 341.849 54.2148C341.033 54.2148 340.284 54.0788 339.604 53.8066C338.924 53.5273 338.333 53.1263 337.832 52.6035C337.337 52.0736 336.954 51.4255 336.682 50.6592C336.41 49.8929 336.274 49.0156 336.274 48.0273C336.274 46.7168 336.5 45.6068 336.951 44.6973C337.409 43.7806 338.061 43.0824 338.906 42.6025C339.751 42.1227 340.757 41.8828 341.924 41.8828C343.02 41.8828 343.987 42.1227 344.825 42.6025C345.663 43.0824 346.318 43.7806 346.791 44.6973C347.263 45.6139 347.5 46.724 347.5 48.0273ZM338.874 48.0273C338.874 48.8939 338.977 49.6351 339.185 50.251C339.4 50.8669 339.729 51.3395 340.173 51.6689C340.617 51.9912 341.19 52.1523 341.892 52.1523C342.594 52.1523 343.167 51.9912 343.611 51.6689C344.055 51.3395 344.381 50.8669 344.588 50.251C344.796 49.6351 344.9 48.8939 344.9 48.0273C344.9 47.1608 344.796 46.4268 344.588 45.8252C344.381 45.2165 344.055 44.7546 343.611 44.4395C343.167 44.1172 342.59 43.9561 341.881 43.9561C340.836 43.9561 340.073 44.307 339.593 45.0088C339.113 45.7106 338.874 46.7168 338.874 48.0273ZM356.598 41.8828C357.937 41.8828 358.979 42.2301 359.724 42.9248C360.476 43.6123 360.852 44.7188 360.852 46.2441V54H358.328V46.7168C358.328 45.793 358.138 45.1019 357.758 44.6436C357.379 44.1781 356.792 43.9453 355.997 43.9453C354.844 43.9453 354.042 44.2998 353.59 45.0088C353.146 45.7178 352.924 46.7454 352.924 48.0918V54H350.4V42.1084H352.366L352.72 43.7197H352.86C353.118 43.3044 353.436 42.9642 353.816 42.6992C354.203 42.4271 354.632 42.223 355.105 42.0869C355.585 41.9508 356.083 41.8828 356.598 41.8828ZM383.11 45.9971C383.11 47.766 382.78 49.2448 382.122 50.4336C381.463 51.6152 380.507 52.5068 379.253 53.1084C378 53.7028 376.489 54 374.72 54H370.359V38.2949H375.193C376.819 38.2949 378.222 38.5885 379.404 39.1758C380.585 39.7559 381.499 40.6188 382.143 41.7646C382.788 42.9033 383.11 44.3141 383.11 45.9971ZM380.424 46.0723C380.424 44.7832 380.22 43.7233 379.812 42.8926C379.411 42.0618 378.817 41.446 378.029 41.0449C377.248 40.6367 376.285 40.4326 375.139 40.4326H372.937V51.8408H374.763C376.661 51.8408 378.079 51.3574 379.017 50.3906C379.955 49.4238 380.424 47.9844 380.424 46.0723ZM390.898 41.8828C392.402 41.8828 393.537 42.2158 394.303 42.8818C395.077 43.5479 395.463 44.5863 395.463 45.9971V54H393.669L393.186 52.3135H393.1C392.764 52.7432 392.416 53.0977 392.058 53.377C391.7 53.6562 391.285 53.8639 390.812 54C390.347 54.1432 389.777 54.2148 389.104 54.2148C388.395 54.2148 387.761 54.0859 387.203 53.8281C386.644 53.5632 386.204 53.1621 385.881 52.625C385.559 52.0879 385.398 51.4076 385.398 50.584C385.398 49.3594 385.853 48.4391 386.762 47.8232C387.679 47.2074 389.061 46.8672 390.909 46.8027L392.971 46.7275V46.1045C392.971 45.2809 392.778 44.6937 392.391 44.3428C392.012 43.9919 391.474 43.8164 390.78 43.8164C390.185 43.8164 389.609 43.9023 389.05 44.0742C388.492 44.2461 387.947 44.4574 387.417 44.708L386.601 42.9248C387.181 42.6169 387.84 42.3662 388.578 42.1729C389.322 41.9795 390.096 41.8828 390.898 41.8828ZM392.96 48.3174L391.424 48.3711C390.164 48.4141 389.279 48.6289 388.771 49.0156C388.263 49.4023 388.008 49.9323 388.008 50.6055C388.008 51.1927 388.184 51.6224 388.535 51.8945C388.886 52.1595 389.347 52.292 389.92 52.292C390.794 52.292 391.517 52.0449 392.09 51.5508C392.67 51.0495 392.96 50.3154 392.96 49.3486V48.3174ZM406.99 50.6055C406.99 51.3861 406.8 52.0449 406.42 52.582C406.041 53.1191 405.486 53.5273 404.755 53.8066C404.032 54.0788 403.144 54.2148 402.091 54.2148C401.261 54.2148 400.544 54.154 399.943 54.0322C399.348 53.9176 398.786 53.7386 398.256 53.4951V51.3145C398.822 51.5794 399.456 51.8086 400.158 52.002C400.867 52.1953 401.536 52.292 402.167 52.292C402.997 52.292 403.595 52.1631 403.96 51.9053C404.326 51.6403 404.508 51.2894 404.508 50.8525C404.508 50.5947 404.433 50.3656 404.283 50.165C404.139 49.9574 403.867 49.7461 403.466 49.5312C403.072 49.3092 402.492 49.0443 401.726 48.7363C400.974 48.4355 400.34 48.1348 399.825 47.834C399.309 47.5332 398.919 47.1715 398.654 46.749C398.389 46.3193 398.256 45.7715 398.256 45.1055C398.256 44.0527 398.672 43.2542 399.502 42.71C400.34 42.1585 401.447 41.8828 402.822 41.8828C403.552 41.8828 404.24 41.958 404.884 42.1084C405.536 42.2516 406.173 42.4629 406.796 42.7422L406.001 44.6436C405.464 44.4072 404.924 44.2139 404.379 44.0635C403.842 43.9059 403.294 43.8271 402.736 43.8271C402.084 43.8271 401.586 43.9274 401.243 44.1279C400.906 44.3285 400.738 44.6149 400.738 44.9873C400.738 45.2666 400.82 45.5029 400.985 45.6963C401.15 45.8896 401.432 46.083 401.833 46.2764C402.242 46.4697 402.807 46.7096 403.531 46.9961C404.24 47.2682 404.852 47.5547 405.368 47.8555C405.89 48.1491 406.292 48.5107 406.571 48.9404C406.85 49.3701 406.99 49.9251 406.99 50.6055ZM412.243 37.2852V41.4854C412.243 41.9222 412.228 42.3483 412.2 42.7637C412.178 43.179 412.153 43.5013 412.125 43.7305H412.264C412.515 43.3151 412.823 42.9749 413.188 42.71C413.553 42.4378 413.961 42.2337 414.413 42.0977C414.871 41.9616 415.358 41.8936 415.874 41.8936C416.783 41.8936 417.556 42.0475 418.194 42.3555C418.831 42.6562 419.318 43.1253 419.655 43.7627C419.999 44.4001 420.17 45.2272 420.17 46.2441V54H417.646V46.7168C417.646 45.793 417.456 45.1019 417.077 44.6436C416.697 44.1781 416.11 43.9453 415.315 43.9453C414.549 43.9453 413.94 44.1064 413.489 44.4287C413.045 44.7438 412.726 45.2129 412.533 45.8359C412.339 46.4518 412.243 47.2038 412.243 48.0918V54H409.718V37.2852H412.243ZM426.229 37.2852V41.3135C426.229 41.779 426.215 42.2373 426.186 42.6885C426.165 43.1325 426.143 43.4798 426.122 43.7305H426.229C426.551 43.2148 426.999 42.7816 427.572 42.4307C428.152 42.0726 428.893 41.8936 429.795 41.8936C431.206 41.8936 432.341 42.4128 433.201 43.4512C434.06 44.4824 434.49 46.0114 434.49 48.0381C434.49 49.3844 434.293 50.516 433.899 51.4326C433.505 52.3493 432.95 53.0439 432.234 53.5166C431.525 53.9821 430.691 54.2148 429.731 54.2148C428.829 54.2148 428.098 54.0501 427.54 53.7207C426.988 53.3841 426.555 52.9938 426.24 52.5498H426.057L425.595 54H423.705V37.2852H426.229ZM429.129 43.9453C428.413 43.9453 427.844 44.0885 427.421 44.375C427.006 44.6615 426.705 45.0911 426.519 45.6641C426.333 46.2298 426.236 46.9495 426.229 47.8232V48.0488C426.229 49.3737 426.437 50.387 426.852 51.0889C427.275 51.7907 428.041 52.1416 429.151 52.1416C430.032 52.1416 430.708 51.7871 431.181 51.0781C431.654 50.362 431.89 49.3379 431.89 48.0059C431.89 46.6595 431.654 45.6462 431.181 44.9658C430.716 44.2855 430.032 43.9453 429.129 43.9453ZM447.939 48.0273C447.939 49.0156 447.81 49.8929 447.552 50.6592C447.294 51.4255 446.918 52.0736 446.424 52.6035C445.93 53.1263 445.336 53.5273 444.641 53.8066C443.946 54.0788 443.162 54.2148 442.289 54.2148C441.472 54.2148 440.724 54.0788 440.043 53.8066C439.363 53.5273 438.772 53.1263 438.271 52.6035C437.777 52.0736 437.394 51.4255 437.122 50.6592C436.849 49.8929 436.713 49.0156 436.713 48.0273C436.713 46.7168 436.939 45.6068 437.39 44.6973C437.848 43.7806 438.5 43.0824 439.345 42.6025C440.19 42.1227 441.196 41.8828 442.364 41.8828C443.459 41.8828 444.426 42.1227 445.264 42.6025C446.102 43.0824 446.757 43.7806 447.23 44.6973C447.703 45.6139 447.939 46.724 447.939 48.0273ZM439.313 48.0273C439.313 48.8939 439.417 49.6351 439.625 50.251C439.839 50.8669 440.169 51.3395 440.613 51.6689C441.057 51.9912 441.63 52.1523 442.332 52.1523C443.033 52.1523 443.606 51.9912 444.05 51.6689C444.494 51.3395 444.82 50.8669 445.028 50.251C445.236 49.6351 445.339 48.8939 445.339 48.0273C445.339 47.1608 445.236 46.4268 445.028 45.8252C444.82 45.2165 444.494 44.7546 444.05 44.4395C443.606 44.1172 443.03 43.9561 442.321 43.9561C441.275 43.9561 440.513 44.307 440.033 45.0088C439.553 45.7106 439.313 46.7168 439.313 48.0273ZM455.501 41.8828C457.005 41.8828 458.14 42.2158 458.907 42.8818C459.68 43.5479 460.067 44.5863 460.067 45.9971V54H458.273L457.79 52.3135H457.704C457.367 52.7432 457.02 53.0977 456.662 53.377C456.304 53.6562 455.888 53.8639 455.416 54C454.95 54.1432 454.381 54.2148 453.708 54.2148C452.999 54.2148 452.365 54.0859 451.806 53.8281C451.248 53.5632 450.807 53.1621 450.485 52.625C450.163 52.0879 450.001 51.4076 450.001 50.584C450.001 49.3594 450.456 48.4391 451.366 47.8232C452.282 47.2074 453.665 46.8672 455.512 46.8027L457.575 46.7275V46.1045C457.575 45.2809 457.381 44.6937 456.995 44.3428C456.615 43.9919 456.078 43.8164 455.383 43.8164C454.789 43.8164 454.212 43.9023 453.654 44.0742C453.095 44.2461 452.551 44.4574 452.021 44.708L451.205 42.9248C451.785 42.6169 452.444 42.3662 453.181 42.1729C453.926 41.9795 454.699 41.8828 455.501 41.8828ZM457.564 48.3174L456.028 48.3711C454.767 48.4141 453.883 48.6289 453.375 49.0156C452.866 49.4023 452.612 49.9323 452.612 50.6055C452.612 51.1927 452.787 51.6224 453.138 51.8945C453.489 52.1595 453.951 52.292 454.524 52.292C455.398 52.292 456.121 52.0449 456.694 51.5508C457.274 51.0495 457.564 50.3154 457.564 49.3486V48.3174ZM469.627 41.8828C469.828 41.8828 470.046 41.8936 470.283 41.915C470.519 41.9365 470.723 41.9652 470.895 42.001L470.659 44.3643C470.508 44.3213 470.322 44.2891 470.1 44.2676C469.885 44.2461 469.692 44.2354 469.52 44.2354C469.069 44.2354 468.639 44.3105 468.231 44.4609C467.823 44.6042 467.461 44.8262 467.146 45.127C466.831 45.4206 466.584 45.7894 466.405 46.2334C466.226 46.6774 466.136 47.193 466.136 47.7803V54H463.601V42.1084H465.578L465.921 44.2031H466.04C466.276 43.7806 466.569 43.3939 466.92 43.043C467.271 42.6921 467.672 42.4128 468.124 42.2051C468.582 41.9902 469.083 41.8828 469.627 41.8828ZM477.093 54.2148C475.675 54.2148 474.537 53.6992 473.677 52.668C472.825 51.6296 472.399 50.1006 472.399 48.0811C472.399 46.04 472.832 44.4967 473.699 43.4512C474.572 42.4056 475.722 41.8828 477.147 41.8828C477.749 41.8828 478.275 41.9652 478.726 42.1299C479.177 42.2874 479.564 42.5023 479.886 42.7744C480.216 43.0465 480.495 43.3509 480.724 43.6875H480.842C480.806 43.4655 480.764 43.1468 480.713 42.7314C480.67 42.3089 480.649 41.9186 480.649 41.5605V37.2852H483.184V54H481.208L480.756 52.3779H480.649C480.434 52.7217 480.162 53.0332 479.833 53.3125C479.51 53.5846 479.124 53.8031 478.672 53.9678C478.228 54.1325 477.702 54.2148 477.093 54.2148ZM477.802 52.1631C478.884 52.1631 479.646 51.8516 480.09 51.2285C480.534 50.6055 480.764 49.6709 480.778 48.4248V48.0918C480.778 46.7598 480.563 45.7393 480.133 45.0303C479.704 44.3141 478.919 43.9561 477.781 43.9561C476.871 43.9561 476.177 44.3249 475.697 45.0625C475.224 45.793 474.988 46.8135 474.988 48.124C474.988 49.4346 475.224 50.4372 475.697 51.1318C476.177 51.8193 476.878 52.1631 477.802 52.1631Z" fill="#222222"/>
<path d="M6.32471 75L3.44678 66.6533H3.38525C3.39893 66.8402 3.41488 67.0954 3.43311 67.4189C3.45133 67.7425 3.46729 68.0889 3.48096 68.458C3.49463 68.8271 3.50146 69.1803 3.50146 69.5176V75H2.01123V65.0059H4.31494L7.0835 72.9834H7.12451L9.98877 65.0059H12.2856V75H10.7202V69.4355C10.7202 69.1302 10.7248 68.7998 10.7339 68.4443C10.7476 68.0889 10.7612 67.7516 10.7749 67.4326C10.7931 67.1136 10.8068 66.8584 10.8159 66.667H10.7612L7.77393 75H6.32471ZM16.3599 67.4326V75H14.7534V67.4326H16.3599ZM15.5669 64.5342C15.813 64.5342 16.0249 64.6003 16.2026 64.7324C16.3849 64.8646 16.4761 65.0924 16.4761 65.416C16.4761 65.735 16.3849 65.9629 16.2026 66.0996C16.0249 66.2318 15.813 66.2979 15.5669 66.2979C15.3117 66.2979 15.0952 66.2318 14.9175 66.0996C14.7443 65.9629 14.6577 65.735 14.6577 65.416C14.6577 65.0924 14.7443 64.8646 14.9175 64.7324C15.0952 64.6003 15.3117 64.5342 15.5669 64.5342ZM22.6079 67.2891C23.4601 67.2891 24.1232 67.5101 24.5972 67.9521C25.0757 68.3896 25.3149 69.0938 25.3149 70.0645V75H23.7085V70.3652C23.7085 69.7773 23.5877 69.3376 23.3462 69.0459C23.1047 68.7497 22.731 68.6016 22.2251 68.6016C21.4914 68.6016 20.981 68.8271 20.6938 69.2783C20.4113 69.7295 20.27 70.3835 20.27 71.2402V75H18.6636V67.4326H19.9146L20.1401 68.458H20.229C20.3931 68.1937 20.5959 67.9772 20.8374 67.8086C21.0835 67.6354 21.3569 67.5055 21.6577 67.4189C21.9631 67.3324 22.2798 67.2891 22.6079 67.2891ZM29.1704 67.4326V75H27.564V67.4326H29.1704ZM28.3774 64.5342C28.6235 64.5342 28.8354 64.6003 29.0132 64.7324C29.1955 64.8646 29.2866 65.0924 29.2866 65.416C29.2866 65.735 29.1955 65.9629 29.0132 66.0996C28.8354 66.2318 28.6235 66.2979 28.3774 66.2979C28.1222 66.2979 27.9058 66.2318 27.728 66.0996C27.5549 65.9629 27.4683 65.735 27.4683 65.416C27.4683 65.0924 27.5549 64.8646 27.728 64.7324C27.9058 64.6003 28.1222 64.5342 28.3774 64.5342ZM36.5601 72.8398C36.5601 73.3366 36.4393 73.7559 36.1978 74.0977C35.9562 74.4395 35.603 74.6992 35.1382 74.877C34.6779 75.0501 34.1128 75.1367 33.4429 75.1367C32.9142 75.1367 32.4585 75.098 32.0757 75.0205C31.6974 74.9476 31.3397 74.8337 31.0024 74.6787V73.291C31.3625 73.4596 31.7658 73.6055 32.2124 73.7285C32.6636 73.8516 33.0897 73.9131 33.4907 73.9131C34.0194 73.9131 34.3999 73.8311 34.6323 73.667C34.8647 73.4984 34.981 73.2751 34.981 72.9971C34.981 72.833 34.9331 72.6872 34.8374 72.5596C34.7463 72.4274 34.5731 72.293 34.3179 72.1562C34.0672 72.015 33.6981 71.8464 33.2104 71.6504C32.7319 71.459 32.3286 71.2676 32.0005 71.0762C31.6724 70.8848 31.424 70.6546 31.2554 70.3857C31.0868 70.1123 31.0024 69.7637 31.0024 69.3398C31.0024 68.6699 31.2668 68.1618 31.7954 67.8154C32.3286 67.4645 33.0327 67.2891 33.9077 67.2891C34.3726 67.2891 34.8101 67.3369 35.2202 67.4326C35.6349 67.5238 36.0405 67.6582 36.437 67.8359L35.9312 69.0459C35.5894 68.8955 35.2453 68.7725 34.8989 68.6768C34.5571 68.5765 34.2085 68.5264 33.853 68.5264C33.4383 68.5264 33.1216 68.5902 32.9028 68.7178C32.6886 68.8454 32.5815 69.0277 32.5815 69.2646C32.5815 69.4424 32.634 69.5928 32.7388 69.7158C32.8436 69.8389 33.0236 69.9619 33.2788 70.085C33.5386 70.208 33.8986 70.3607 34.3589 70.543C34.8101 70.7161 35.1997 70.8984 35.5278 71.0898C35.8605 71.2767 36.1157 71.5068 36.2935 71.7803C36.4712 72.0537 36.5601 72.4069 36.5601 72.8398ZM41.1128 73.8379C41.3224 73.8379 41.5298 73.8197 41.7349 73.7832C41.9399 73.7422 42.1268 73.6943 42.2954 73.6396V74.8564C42.1177 74.9339 41.8875 75 41.605 75.0547C41.3224 75.1094 41.0285 75.1367 40.7231 75.1367C40.2948 75.1367 39.9097 75.0661 39.5679 74.9248C39.2261 74.779 38.9549 74.5306 38.7544 74.1797C38.5539 73.8288 38.4536 73.3434 38.4536 72.7236V68.6562H37.4214V67.9385L38.5288 67.3711L39.0552 65.751H40.0669V67.4326H42.2339V68.6562H40.0669V72.7031C40.0669 73.0859 40.1626 73.3708 40.354 73.5576C40.5454 73.7445 40.7983 73.8379 41.1128 73.8379ZM47.6685 67.2891C47.7961 67.2891 47.9351 67.2959 48.0854 67.3096C48.2358 67.3232 48.3657 67.3415 48.4751 67.3643L48.3247 68.8682C48.229 68.8408 48.1105 68.8203 47.9692 68.8066C47.8325 68.793 47.7095 68.7861 47.6001 68.7861C47.313 68.7861 47.0396 68.834 46.7798 68.9297C46.52 69.0208 46.2899 69.1621 46.0894 69.3535C45.8888 69.5404 45.7316 69.7751 45.6177 70.0576C45.5037 70.3402 45.4468 70.6683 45.4468 71.042V75H43.8335V67.4326H45.0913L45.3101 68.7656H45.3853C45.5356 68.4967 45.7225 68.2507 45.9458 68.0273C46.1691 67.804 46.4243 67.6263 46.7114 67.4941C47.0031 67.3574 47.3221 67.2891 47.6685 67.2891ZM48.7349 67.4326H50.4849L52.0366 71.7529C52.105 71.9489 52.1665 72.1426 52.2212 72.334C52.2804 72.5208 52.3306 72.7054 52.3716 72.8877C52.4172 73.07 52.4536 73.2523 52.481 73.4346H52.522C52.5675 73.1976 52.6313 72.9333 52.7134 72.6416C52.8 72.3454 52.8957 72.0492 53.0005 71.7529L54.4907 67.4326H56.2202L52.9731 76.0391C52.7863 76.5312 52.5562 76.9505 52.2827 77.2969C52.0138 77.6478 51.6948 77.9121 51.3257 78.0898C50.9565 78.2721 50.535 78.3633 50.061 78.3633C49.8332 78.3633 49.6349 78.3496 49.4663 78.3223C49.2977 78.2995 49.1541 78.2744 49.0356 78.2471V76.9619C49.1313 76.9847 49.2521 77.0052 49.3979 77.0234C49.5438 77.0417 49.6942 77.0508 49.8491 77.0508C50.1362 77.0508 50.3846 76.9938 50.5942 76.8799C50.8039 76.766 50.9816 76.6042 51.1274 76.3945C51.2733 76.1895 51.394 75.9548 51.4897 75.6904L51.7563 74.9795L48.7349 67.4326ZM67.7046 71.1992C67.7046 71.8281 67.6226 72.3864 67.4585 72.874C67.2944 73.3617 67.0552 73.7741 66.7407 74.1113C66.4263 74.444 66.048 74.6992 65.606 74.877C65.1639 75.0501 64.6649 75.1367 64.1089 75.1367C63.5894 75.1367 63.1131 75.0501 62.6802 74.877C62.2472 74.6992 61.8713 74.444 61.5522 74.1113C61.2378 73.7741 60.994 73.3617 60.8208 72.874C60.6476 72.3864 60.561 71.8281 60.561 71.1992C60.561 70.3652 60.7046 69.6589 60.9917 69.0801C61.2834 68.4967 61.6981 68.0524 62.2358 67.7471C62.7736 67.4417 63.4139 67.2891 64.1567 67.2891C64.854 67.2891 65.4692 67.4417 66.0024 67.7471C66.5356 68.0524 66.9526 68.4967 67.2534 69.0801C67.5542 69.6634 67.7046 70.3698 67.7046 71.1992ZM62.2153 71.1992C62.2153 71.7507 62.2814 72.2223 62.4136 72.6143C62.5503 73.0062 62.7599 73.307 63.0425 73.5166C63.325 73.7217 63.6896 73.8242 64.1362 73.8242C64.5828 73.8242 64.9474 73.7217 65.23 73.5166C65.5125 73.307 65.7199 73.0062 65.8521 72.6143C65.9842 72.2223 66.0503 71.7507 66.0503 71.1992C66.0503 70.6478 65.9842 70.1807 65.8521 69.7979C65.7199 69.4105 65.5125 69.1165 65.23 68.916C64.9474 68.7109 64.5806 68.6084 64.1294 68.6084C63.464 68.6084 62.9787 68.8317 62.6733 69.2783C62.368 69.7249 62.2153 70.3652 62.2153 71.1992ZM73.3306 68.6562H71.4917V75H69.8853V68.6562H68.6479V67.8838L69.8853 67.4121V66.8857C69.8853 66.2432 69.9855 65.7327 70.186 65.3545C70.3911 64.9762 70.6828 64.7051 71.061 64.541C71.4438 64.3724 71.8996 64.2881 72.4282 64.2881C72.7746 64.2881 73.0913 64.3177 73.3784 64.377C73.6655 64.4316 73.9071 64.4954 74.103 64.5684L73.686 65.7852C73.5311 65.735 73.3579 65.6895 73.1665 65.6484C72.9751 65.6029 72.77 65.5801 72.5513 65.5801C72.1867 65.5801 71.9178 65.694 71.7446 65.9219C71.576 66.1497 71.4917 66.4824 71.4917 66.9199V67.4326H73.3306V68.6562ZM81.3286 65.0059C82.6183 65.0059 83.5594 65.2702 84.1519 65.7988C84.7443 66.3275 85.0405 67.068 85.0405 68.0205C85.0405 68.4535 84.9722 68.8659 84.8354 69.2578C84.7033 69.6452 84.4845 69.9893 84.1792 70.29C83.8739 70.5863 83.4705 70.821 82.9692 70.9941C82.4725 71.1673 81.8595 71.2539 81.1304 71.2539H80.064V75H78.4233V65.0059H81.3286ZM81.2192 66.3662H80.064V69.8867H80.9595C81.4744 69.8867 81.9119 69.8275 82.272 69.709C82.632 69.5859 82.9054 69.3923 83.0923 69.1279C83.2791 68.8636 83.3726 68.515 83.3726 68.082C83.3726 67.5033 83.1971 67.0726 82.8462 66.79C82.4998 66.5075 81.9575 66.3662 81.2192 66.3662ZM89.8394 67.2891C90.7964 67.2891 91.5187 67.501 92.0063 67.9248C92.4985 68.3486 92.7446 69.0094 92.7446 69.9072V75H91.603L91.2954 73.9268H91.2407C91.0265 74.2002 90.8055 74.4258 90.5776 74.6035C90.3498 74.7812 90.0854 74.9134 89.7847 75C89.4884 75.0911 89.1261 75.1367 88.6978 75.1367C88.2466 75.1367 87.8433 75.0547 87.4878 74.8906C87.1323 74.722 86.8521 74.4668 86.647 74.125C86.4419 73.7832 86.3394 73.3503 86.3394 72.8262C86.3394 72.0469 86.6287 71.4613 87.2075 71.0693C87.7909 70.6774 88.6704 70.4609 89.8462 70.4199L91.1587 70.3721V69.9756C91.1587 69.4515 91.0356 69.0778 90.7896 68.8545C90.548 68.6312 90.2062 68.5195 89.7642 68.5195C89.3859 68.5195 89.019 68.5742 88.6636 68.6836C88.3081 68.793 87.9618 68.9274 87.6245 69.0869L87.105 67.9521C87.4741 67.7562 87.8934 67.5967 88.3628 67.4736C88.8368 67.3506 89.3289 67.2891 89.8394 67.2891ZM91.1519 71.3838L90.1743 71.418C89.3722 71.4453 88.8094 71.582 88.4858 71.8281C88.1623 72.0742 88.0005 72.4115 88.0005 72.8398C88.0005 73.2135 88.1121 73.487 88.3354 73.6602C88.5588 73.8288 88.8527 73.9131 89.2173 73.9131C89.7733 73.9131 90.2336 73.7559 90.5981 73.4414C90.9673 73.1224 91.1519 72.6553 91.1519 72.04V71.3838ZM98.938 67.2891C99.7902 67.2891 100.453 67.5101 100.927 67.9521C101.406 68.3896 101.645 69.0938 101.645 70.0645V75H100.039V70.3652C100.039 69.7773 99.9178 69.3376 99.6763 69.0459C99.4347 68.7497 99.061 68.6016 98.5552 68.6016C97.8215 68.6016 97.311 68.8271 97.0239 69.2783C96.7414 69.7295 96.6001 70.3835 96.6001 71.2402V75H94.9937V67.4326H96.2446L96.4702 68.458H96.5591C96.7231 68.1937 96.9259 67.9772 97.1675 67.8086C97.4136 67.6354 97.687 67.5055 97.9878 67.4189C98.2931 67.3324 98.6099 67.2891 98.938 67.2891ZM106.943 75.1367C106.227 75.1367 105.608 74.9977 105.083 74.7197C104.559 74.4417 104.156 74.0156 103.874 73.4414C103.591 72.8672 103.45 72.138 103.45 71.2539C103.45 70.3333 103.605 69.5814 103.915 68.998C104.224 68.4147 104.653 67.984 105.2 67.7061C105.751 67.4281 106.382 67.2891 107.093 67.2891C107.544 67.2891 107.952 67.3346 108.317 67.4258C108.686 67.5124 108.998 67.6195 109.253 67.7471L108.775 69.0322C108.497 68.9183 108.212 68.8226 107.92 68.7451C107.629 68.6676 107.348 68.6289 107.08 68.6289C106.638 68.6289 106.268 68.7269 105.972 68.9229C105.681 69.1188 105.462 69.4105 105.316 69.7979C105.175 70.1852 105.104 70.666 105.104 71.2402C105.104 71.7962 105.177 72.2656 105.323 72.6484C105.469 73.0267 105.685 73.3138 105.972 73.5098C106.259 73.7012 106.612 73.7969 107.032 73.7969C107.446 73.7969 107.818 73.7467 108.146 73.6465C108.474 73.5462 108.784 73.4163 109.076 73.2568V74.6514C108.789 74.8154 108.481 74.9362 108.153 75.0137C107.825 75.0957 107.421 75.1367 106.943 75.1367ZM112.459 64.3633V67.0361C112.459 67.3141 112.45 67.5853 112.432 67.8496C112.418 68.1139 112.403 68.319 112.384 68.4648H112.473C112.633 68.2005 112.829 67.984 113.061 67.8154C113.293 67.6423 113.553 67.5124 113.84 67.4258C114.132 67.3392 114.442 67.2959 114.77 67.2959C115.349 67.2959 115.841 67.3939 116.247 67.5898C116.652 67.7812 116.962 68.0798 117.176 68.4854C117.395 68.891 117.504 69.4173 117.504 70.0645V75H115.898V70.3652C115.898 69.7773 115.777 69.3376 115.536 69.0459C115.294 68.7497 114.92 68.6016 114.415 68.6016C113.927 68.6016 113.54 68.7041 113.252 68.9092C112.97 69.1097 112.767 69.4082 112.644 69.8047C112.521 70.1966 112.459 70.6751 112.459 71.2402V75H110.853V64.3633H112.459ZM122.72 67.2891C123.677 67.2891 124.4 67.501 124.887 67.9248C125.379 68.3486 125.625 69.0094 125.625 69.9072V75H124.484L124.176 73.9268H124.122C123.907 74.2002 123.686 74.4258 123.458 74.6035C123.231 74.7812 122.966 74.9134 122.666 75C122.369 75.0911 122.007 75.1367 121.579 75.1367C121.127 75.1367 120.724 75.0547 120.369 74.8906C120.013 74.722 119.733 74.4668 119.528 74.125C119.323 73.7832 119.22 73.3503 119.22 72.8262C119.22 72.0469 119.51 71.4613 120.088 71.0693C120.672 70.6774 121.551 70.4609 122.727 70.4199L124.04 70.3721V69.9756C124.04 69.4515 123.917 69.0778 123.67 68.8545C123.429 68.6312 123.087 68.5195 122.645 68.5195C122.267 68.5195 121.9 68.5742 121.544 68.6836C121.189 68.793 120.843 68.9274 120.505 69.0869L119.986 67.9521C120.355 67.7562 120.774 67.5967 121.244 67.4736C121.718 67.3506 122.21 67.2891 122.72 67.2891ZM124.033 71.3838L123.055 71.418C122.253 71.4453 121.69 71.582 121.367 71.8281C121.043 72.0742 120.881 72.4115 120.881 72.8398C120.881 73.2135 120.993 73.487 121.216 73.6602C121.44 73.8288 121.734 73.9131 122.098 73.9131C122.654 73.9131 123.114 73.7559 123.479 73.4414C123.848 73.1224 124.033 72.6553 124.033 72.04V71.3838ZM126.733 67.4326H128.483L130.035 71.7529C130.103 71.9489 130.165 72.1426 130.219 72.334C130.278 72.5208 130.329 72.7054 130.37 72.8877C130.415 73.07 130.452 73.2523 130.479 73.4346H130.52C130.566 73.1976 130.629 72.9333 130.711 72.6416C130.798 72.3454 130.894 72.0492 130.999 71.7529L132.489 67.4326H134.218L130.971 76.0391C130.784 76.5312 130.554 76.9505 130.281 77.2969C130.012 77.6478 129.693 77.9121 129.324 78.0898C128.955 78.2721 128.533 78.3633 128.059 78.3633C127.831 78.3633 127.633 78.3496 127.464 78.3223C127.296 78.2995 127.152 78.2744 127.034 78.2471V76.9619C127.129 76.9847 127.25 77.0052 127.396 77.0234C127.542 77.0417 127.692 77.0508 127.847 77.0508C128.134 77.0508 128.383 76.9938 128.592 76.8799C128.802 76.766 128.98 76.6042 129.125 76.3945C129.271 76.1895 129.392 75.9548 129.488 75.6904L129.754 74.9795L126.733 67.4326ZM138.333 67.2891C139.291 67.2891 140.013 67.501 140.5 67.9248C140.993 68.3486 141.239 69.0094 141.239 69.9072V75H140.097L139.79 73.9268H139.735C139.521 74.2002 139.3 74.4258 139.072 74.6035C138.844 74.7812 138.58 74.9134 138.279 75C137.983 75.0911 137.62 75.1367 137.192 75.1367C136.741 75.1367 136.337 75.0547 135.982 74.8906C135.626 74.722 135.346 74.4668 135.141 74.125C134.936 73.7832 134.833 73.3503 134.833 72.8262C134.833 72.0469 135.123 71.4613 135.702 71.0693C136.285 70.6774 137.165 70.4609 138.34 70.4199L139.653 70.3721V69.9756C139.653 69.4515 139.53 69.0778 139.284 68.8545C139.042 68.6312 138.7 68.5195 138.258 68.5195C137.88 68.5195 137.513 68.5742 137.158 68.6836C136.802 68.793 136.456 68.9274 136.119 69.0869L135.599 67.9521C135.968 67.7562 136.388 67.5967 136.857 67.4736C137.331 67.3506 137.823 67.2891 138.333 67.2891ZM139.646 71.3838L138.668 71.418C137.866 71.4453 137.304 71.582 136.98 71.8281C136.656 72.0742 136.495 72.4115 136.495 72.8398C136.495 73.2135 136.606 73.487 136.83 73.6602C137.053 73.8288 137.347 73.9131 137.711 73.9131C138.267 73.9131 138.728 73.7559 139.092 73.4414C139.461 73.1224 139.646 72.6553 139.646 72.04V71.3838ZM146.304 73.8379C146.514 73.8379 146.721 73.8197 146.926 73.7832C147.131 73.7422 147.318 73.6943 147.487 73.6396V74.8564C147.309 74.9339 147.079 75 146.796 75.0547C146.514 75.1094 146.22 75.1367 145.915 75.1367C145.486 75.1367 145.101 75.0661 144.759 74.9248C144.417 74.779 144.146 74.5306 143.946 74.1797C143.745 73.8288 143.645 73.3434 143.645 72.7236V68.6562H142.613V67.9385L143.72 67.3711L144.247 65.751H145.258V67.4326H147.425V68.6562H145.258V72.7031C145.258 73.0859 145.354 73.3708 145.545 73.5576C145.737 73.7445 145.99 73.8379 146.304 73.8379ZM150.631 67.4326V75H149.025V67.4326H150.631ZM149.838 64.5342C150.084 64.5342 150.296 64.6003 150.474 64.7324C150.656 64.8646 150.748 65.0924 150.748 65.416C150.748 65.735 150.656 65.9629 150.474 66.0996C150.296 66.2318 150.084 66.2979 149.838 66.2979C149.583 66.2979 149.367 66.2318 149.189 66.0996C149.016 65.9629 148.929 65.735 148.929 65.416C148.929 65.0924 149.016 64.8646 149.189 64.7324C149.367 64.6003 149.583 64.5342 149.838 64.5342ZM159.545 65.0059C160.407 65.0059 161.118 65.1107 161.678 65.3203C162.243 65.5299 162.663 65.849 162.936 66.2773C163.214 66.7057 163.353 67.2503 163.353 67.9111C163.353 68.4033 163.262 68.8226 163.08 69.1689C162.897 69.5153 162.658 69.8024 162.362 70.0303C162.066 70.2581 161.749 70.4404 161.412 70.5771L164.249 75H162.396L159.983 70.9941H158.376V75H156.736V65.0059H159.545ZM159.436 66.373H158.376V69.6406H159.511C160.272 69.6406 160.824 69.4993 161.166 69.2168C161.512 68.9342 161.685 68.5173 161.685 67.9658C161.685 67.387 161.5 66.9769 161.131 66.7354C160.767 66.4938 160.202 66.373 159.436 66.373ZM168.48 67.2891C169.437 67.2891 170.159 67.501 170.647 67.9248C171.139 68.3486 171.385 69.0094 171.385 69.9072V75H170.244L169.936 73.9268H169.881C169.667 74.2002 169.446 74.4258 169.218 74.6035C168.99 74.7812 168.726 74.9134 168.425 75C168.129 75.0911 167.767 75.1367 167.338 75.1367C166.887 75.1367 166.484 75.0547 166.128 74.8906C165.773 74.722 165.493 74.4668 165.288 74.125C165.083 73.7832 164.98 73.3503 164.98 72.8262C164.98 72.0469 165.269 71.4613 165.848 71.0693C166.431 70.6774 167.311 70.4609 168.487 70.4199L169.799 70.3721V69.9756C169.799 69.4515 169.676 69.0778 169.43 68.8545C169.189 68.6312 168.847 68.5195 168.405 68.5195C168.027 68.5195 167.66 68.5742 167.304 68.6836C166.949 68.793 166.602 68.9274 166.265 69.0869L165.746 67.9521C166.115 67.7562 166.534 67.5967 167.003 67.4736C167.477 67.3506 167.97 67.2891 168.48 67.2891ZM169.792 71.3838L168.815 71.418C168.013 71.4453 167.45 71.582 167.126 71.8281C166.803 72.0742 166.641 72.4115 166.641 72.8398C166.641 73.2135 166.753 73.487 166.976 73.6602C167.199 73.8288 167.493 73.9131 167.858 73.9131C168.414 73.9131 168.874 73.7559 169.239 73.4414C169.608 73.1224 169.792 72.6553 169.792 72.04V71.3838ZM172.875 78.3633C172.639 78.3633 172.413 78.3451 172.199 78.3086C171.985 78.2767 171.805 78.238 171.659 78.1924V76.9072C171.814 76.9528 171.964 76.987 172.11 77.0098C172.256 77.0326 172.422 77.0439 172.609 77.0439C172.905 77.0439 173.149 76.9619 173.34 76.7979C173.536 76.6338 173.634 76.3216 173.634 75.8613V67.4326H175.241V76.0049C175.241 76.4652 175.159 76.873 174.995 77.2285C174.835 77.584 174.58 77.862 174.229 78.0625C173.883 78.263 173.431 78.3633 172.875 78.3633ZM173.539 65.416C173.539 65.0924 173.625 64.8646 173.798 64.7324C173.976 64.6003 174.193 64.5342 174.448 64.5342C174.694 64.5342 174.906 64.6003 175.083 64.7324C175.266 64.8646 175.357 65.0924 175.357 65.416C175.357 65.735 175.266 65.9629 175.083 66.0996C174.906 66.2318 174.694 66.2979 174.448 66.2979C174.193 66.2979 173.976 66.2318 173.798 66.0996C173.625 65.9629 173.539 65.735 173.539 65.416Z" fill="#6A6A6A"/>
</svg>
