<svg width="18" height="19" viewBox="0 0 18 19" fill="none" xmlns="http://www.w3.org/2000/svg">
<g clip-path="url(#clip0_18_8006)">
<path d="M9.95108 1.75785C9.75183 1.54695 9.48163 1.42847 9.19989 1.42847C8.91815 1.42847 8.64795 1.54695 8.4487 1.75785L1.38626 9.2346C1.33687 9.2869 1.29769 9.34899 1.27096 9.41732C1.24423 9.48565 1.23047 9.55889 1.23047 9.63285C1.23047 9.70681 1.24423 9.78005 1.27096 9.84838C1.29769 9.91671 1.33687 9.9788 1.38626 10.0311C1.48602 10.1367 1.62132 10.1961 1.76239 10.1961C1.83224 10.1961 1.90141 10.1815 1.96595 10.1532C2.03048 10.1249 2.08912 10.0834 2.13851 10.0311L9.19989 2.55323L16.2613 10.0311C16.361 10.1367 16.4963 10.1961 16.6374 10.1961C16.7785 10.1961 16.9138 10.1367 17.0135 10.0311C17.1133 9.92548 17.1693 9.78222 17.1693 9.63285C17.1693 9.48348 17.1133 9.34022 17.0135 9.2346L14.5124 6.58748V2.88285C14.5124 2.73367 14.4564 2.59059 14.3568 2.4851C14.2572 2.37961 14.122 2.32035 13.9811 2.32035H12.9186C12.7777 2.32035 12.6426 2.37961 12.543 2.4851C12.4434 2.59059 12.3874 2.73367 12.3874 2.88285V4.33748L9.95108 1.75785Z" fill="#262626"/>
<path d="M9.2002 3.77515L15.5752 10.5251V15.258C15.5752 15.7056 15.4073 16.1348 15.1084 16.4513C14.8095 16.7677 14.4041 16.9455 13.9814 16.9455H4.41895C3.99626 16.9455 3.59088 16.7677 3.29199 16.4513C2.99311 16.1348 2.8252 15.7056 2.8252 15.258V10.5251L9.2002 3.77515Z" fill="#262626"/>
</g>
<defs>
<clipPath id="clip0_18_8006">
<rect width="17" height="18" fill="white" transform="translate(0.699707 0.0705566)"/>
</clipPath>
</defs>
</svg>
