<svg width="18" height="19" viewBox="0 0 18 19" fill="none" xmlns="http://www.w3.org/2000/svg">
<g clip-path="url(#clip0_1_6849)">
<path d="M9.95111 1.75776C9.75186 1.54686 9.48166 1.42838 9.19993 1.42838C8.91819 1.42838 8.64799 1.54686 8.44874 1.75776L1.3863 9.23451C1.33691 9.28681 1.29773 9.3489 1.271 9.41723C1.24426 9.48556 1.2305 9.5588 1.2305 9.63276C1.2305 9.70672 1.24426 9.77996 1.271 9.84829C1.29773 9.91662 1.33691 9.97871 1.3863 10.031C1.48606 10.1366 1.62135 10.196 1.76243 10.196C1.83228 10.196 1.90145 10.1814 1.96598 10.1531C2.03052 10.1248 2.08916 10.0833 2.13855 10.031L9.19993 2.55313L16.2613 10.031C16.3611 10.1366 16.4964 10.196 16.6374 10.196C16.7785 10.196 16.9138 10.1366 17.0135 10.031C17.1133 9.92539 17.1693 9.78213 17.1693 9.63276C17.1693 9.48339 17.1133 9.34013 17.0135 9.23451L14.5124 6.58738V2.88276C14.5124 2.73358 14.4565 2.5905 14.3568 2.48501C14.2572 2.37952 14.1221 2.32026 13.9812 2.32026H12.9187C12.7778 2.32026 12.6427 2.37952 12.543 2.48501C12.4434 2.5905 12.3874 2.73358 12.3874 2.88276V4.33738L9.95111 1.75776Z" fill="white"/>
<path d="M9.20009 3.77505L15.5751 10.5251V15.2579C15.5751 15.7055 15.4072 16.1347 15.1083 16.4512C14.8094 16.7676 14.404 16.9454 13.9813 16.9454H4.41884C3.99615 16.9454 3.59077 16.7676 3.29189 16.4512C2.993 16.1347 2.82509 15.7055 2.82509 15.2579V10.5251L9.20009 3.77505Z" fill="white"/>
</g>
<defs>
<clipPath id="clip0_1_6849">
<rect width="17" height="18" fill="white" transform="translate(0.699671 0.0704651)"/>
</clipPath>
</defs>
</svg>
