<svg width="28" height="31" viewBox="0 0 28 31" fill="none" xmlns="http://www.w3.org/2000/svg">
<path fill-rule="evenodd" clip-rule="evenodd" d="M5.05935 6.1356C5.01775 6.16515 4.98269 6.18268 4.95313 6.20693C4.78147 6.34775 4.79557 6.71499 4.79557 10.9765V15.5012L4.95985 15.6774L5.12412 15.8536L6.10006 15.8746C7.17949 15.8977 7.25096 15.9138 7.43883 16.1772C7.53294 16.3092 7.53674 16.3467 7.54959 17.2658C7.55687 17.7893 7.57164 18.2177 7.58236 18.2177C7.59307 18.2177 7.70006 18.1681 7.8201 18.1074C8.53034 17.7481 9.10417 17.1477 9.42017 16.4332C9.53106 16.1826 9.64894 16.029 9.79578 15.9439C9.855 15.9097 10.5249 15.8893 12.0861 15.8746L14.2926 15.8536L14.4502 15.696L14.6077 15.5384V10.9543V6.37017L14.4315 6.20582L14.2553 6.04145H9.72362H5.19191L5.05935 6.1356ZM13.1105 8.76212V8.21921C13.1105 8.1737 13.0736 8.13681 13.028 8.13681H10.273C10.2275 8.13681 10.1906 8.1737 10.1906 8.21921V8.76212C10.1906 8.80764 10.2275 8.84453 10.273 8.84453H10.9693C11.0148 8.84453 11.0517 8.88142 11.0517 8.92692V10.8587C11.0517 10.9042 11.0148 10.9411 10.9693 10.9411H9.47205C9.45049 10.9411 9.42986 10.9326 9.41404 10.9179C9.32044 10.8311 9.21496 10.7608 9.09758 10.7071C9.01372 10.6686 8.99959 10.4578 9.0773 10.4081C9.17626 10.3448 9.26364 10.2689 9.33943 10.1803C9.51098 9.97982 9.59676 9.72917 9.59676 9.42839C9.59676 9.02735 9.4417 8.70888 9.13157 8.47297C8.82145 8.23707 8.38264 8.11912 7.81518 8.11912C7.47322 8.11912 7.15178 8.16886 6.85083 8.26834C6.81768 8.2793 6.79572 8.31054 6.79572 8.34545V8.94269C6.79572 9.00358 6.85966 9.04373 6.91606 9.02076C7.17547 8.91507 7.46198 8.86222 7.77559 8.86222C8.34965 8.86222 8.63669 9.08338 8.63669 9.5257C8.63669 9.74391 8.55091 9.91494 8.37935 10.0388C8.21439 10.1626 7.97025 10.2246 7.64692 10.2246H7.41259C7.36708 10.2246 7.33019 10.2615 7.33019 10.307V10.8853C7.33019 10.9308 7.36708 10.9677 7.41259 10.9677H7.6964C8.46183 10.9677 8.84454 11.2183 8.84454 11.7196C8.84454 12.0263 8.73566 12.2504 8.51791 12.3919C8.30017 12.5276 8.03953 12.5954 7.73599 12.5954C7.37218 12.5954 7.00566 12.5183 6.63646 12.3641C6.58097 12.341 6.51858 12.381 6.51858 12.4411V13.0511C6.51858 13.0857 6.54001 13.1165 6.57256 13.128C6.9403 13.2566 7.33801 13.3208 7.76569 13.3208C8.40574 13.3208 8.90063 13.1822 9.25034 12.905C9.60007 12.6278 9.7749 12.2651 9.7749 11.8169C9.7749 11.7951 9.77463 11.7749 9.774 11.7564C9.7722 11.7049 9.81261 11.6577 9.86418 11.6577H10.9693C11.0148 11.6577 11.0517 11.6946 11.0517 11.7401V13.8046C11.0517 13.8501 11.0886 13.887 11.1342 13.887H11.9195C11.965 13.887 12.0019 13.8501 12.0019 13.8046V8.92692C12.0019 8.88142 12.0388 8.84453 12.0843 8.84453H13.028C13.0736 8.84453 13.1105 8.80764 13.1105 8.76212Z" fill="white"/>
<path fill-rule="evenodd" clip-rule="evenodd" d="M20.6276 12.9183C19.9214 13.299 19.4114 13.8443 19.0744 14.5788C18.9279 14.8981 18.7964 15.0309 18.5764 15.082C18.4878 15.1026 17.8388 15.1198 17.1342 15.1204L15.8531 15.1214L15.8335 15.4251C15.7794 16.2682 15.0219 17.0254 14.1785 17.0795L13.8741 17.0991L13.8852 20.8624L13.8964 24.6257L14.0725 24.7901L14.2488 24.9545H18.7734C23.0337 24.9545 23.4071 24.9689 23.5456 24.7956C23.5698 24.7652 23.5869 24.7292 23.6163 24.6864L23.7085 24.5517V20.0232V15.4947L23.5442 15.3185L23.3799 15.1422L22.404 15.1214C21.3329 15.0984 21.2539 15.0804 21.0559 14.815C20.9733 14.7045 20.967 14.6364 20.9544 13.7376C20.9472 13.2099 20.9283 12.7786 20.9126 12.7791C20.8969 12.7797 20.7687 12.8423 20.6276 12.9183ZM17.0032 19.7562C18.1534 17.4642 18.3507 17.0962 18.4739 17.0148C18.5647 16.9546 18.6796 16.9206 18.7919 16.9206C19.1664 16.9206 19.1227 16.8514 20.5785 19.745C22.006 22.5822 21.9999 22.5668 21.8257 22.8522C21.6486 23.1429 21.2803 23.2388 21.0021 23.0668C20.8894 22.9973 20.8017 22.8641 20.5889 22.4392L20.3186 21.8999L18.8021 21.9003L17.2856 21.9009L17.0136 22.4329C16.8098 22.8318 16.7061 22.9887 16.5994 23.0601C16.2211 23.3133 15.6753 23.018 15.6749 22.5597C15.6747 22.438 15.9684 21.8183 17.0032 19.7562Z" fill="white"/>
<path fill-rule="evenodd" clip-rule="evenodd" d="M3.58326 6.46218C3.69247 5.62064 4.35886 4.93705 5.17262 4.83186C5.55712 4.78219 13.8233 4.77943 14.2102 4.82884C14.8563 4.91145 15.4068 5.31527 15.692 5.91593L15.8212 6.18791L15.842 10.0375L15.863 13.887L16.9574 13.8981L18.0518 13.9093L18.2039 13.6372C18.5234 13.0659 19.0471 12.5025 19.6004 12.1345C20.208 11.7307 21.094 11.3974 21.5599 11.3974C21.7663 11.3974 21.8031 11.4123 21.9632 11.5617L22.1394 11.7259L22.1518 12.8134L22.1643 13.901L22.8632 13.9148C23.5504 13.9286 23.5668 13.9311 23.8467 14.0637C24.4286 14.3393 24.8378 14.9025 24.9208 15.5421C24.9745 15.9561 24.9745 24.1198 24.9208 24.5338C24.8089 25.3962 24.1488 26.0573 23.2901 26.1671C22.8722 26.2204 14.7079 26.2202 14.2962 26.1667C13.6567 26.0837 13.0933 25.6745 12.8178 25.0927L12.6829 24.808L12.662 20.9585L12.6411 17.1089L11.5467 17.0978L10.4523 17.0866L10.3001 17.3587C9.73225 18.3742 8.71115 19.1605 7.52244 19.4976C6.98438 19.6503 6.73211 19.6298 6.51855 19.4164L6.36465 19.2625L6.35222 18.1788L6.33979 17.095L5.64088 17.081C4.95362 17.0674 4.93726 17.0648 4.65737 16.9323C4.07551 16.6567 3.66628 16.0934 3.58326 15.4538C3.52954 15.0398 3.52954 6.87618 3.58326 6.46218ZM17.4753 6.43557C17.5232 6.30946 18.6571 5.13664 18.9134 4.94809C19.2504 4.7001 19.7337 4.846 19.8619 5.23438C19.9331 5.45009 19.8763 5.64796 19.6829 5.85776C19.5889 5.95974 19.5194 6.04882 19.5286 6.05572C19.5377 6.06263 19.7362 6.09117 19.9695 6.1192C22.4523 6.41704 24.4595 8.36098 24.8581 10.8534C24.949 11.4218 24.9425 11.8445 24.8401 12.0122C24.6664 12.2971 24.3326 12.3918 24.054 12.2353C23.8041 12.0948 23.7402 11.9501 23.7027 11.4407C23.5513 9.37863 22.1048 7.7404 20.0996 7.36C19.9162 7.32519 19.7079 7.29674 19.6369 7.29674H19.5078L19.6394 7.43273C19.8171 7.61625 19.9144 7.85953 19.8812 8.03665C19.844 8.23516 19.6343 8.458 19.434 8.51194C19.1389 8.5914 19.0229 8.52006 18.3163 7.82485C17.9627 7.47688 17.6191 7.1187 17.5527 7.02895C17.4233 6.85388 17.396 6.64412 17.4753 6.43557ZM4.9531 6.20693C4.98265 6.18268 5.01772 6.16515 5.05931 6.1356L5.19187 6.04145H9.72358H14.2552L14.4315 6.20582L14.6077 6.37018V10.9543V15.5384L14.4502 15.696L14.2926 15.8536L12.0861 15.8746C10.5248 15.8893 9.85496 15.9097 9.79574 15.9439C9.6489 16.029 9.53103 16.1826 9.42014 16.4332C9.10414 17.1477 8.53031 17.7481 7.82006 18.1074C7.70002 18.1681 7.59303 18.2177 7.58232 18.2177C7.5716 18.2177 7.55683 17.7893 7.54955 17.2658C7.53671 16.3467 7.5329 16.3092 7.4388 16.1772C7.25092 15.9138 7.17945 15.8977 6.10003 15.8746L5.12409 15.8536L4.95981 15.6774L4.79553 15.5012V10.9765C4.79553 6.71499 4.78144 6.34775 4.9531 6.20693ZM19.0745 14.5788C19.4114 13.8443 19.9215 13.2991 20.6276 12.9184C20.7687 12.8423 20.897 12.7797 20.9126 12.7791C20.9284 12.7786 20.9473 13.2099 20.9545 13.7376C20.967 14.6364 20.9734 14.7045 21.0559 14.815C21.2539 15.0804 21.3329 15.0984 22.404 15.1214L23.38 15.1423L23.5442 15.3185L23.7086 15.4947V20.0232V24.5518L23.6163 24.6864C23.587 24.7292 23.5699 24.7652 23.5457 24.7956C23.4072 24.9689 23.0338 24.9545 18.7734 24.9545H14.2489L14.0725 24.7901L13.8964 24.6257L13.8853 20.8624L13.8742 17.0991L14.1786 17.0795C15.022 17.0254 15.7795 16.2682 15.8336 15.4251L15.8531 15.1214L17.1343 15.1204C17.8389 15.1198 18.4879 15.1026 18.5764 15.082C18.7965 15.0309 18.928 14.8981 19.0745 14.5788ZM3.58209 19.4621C3.58209 19.0303 3.65389 18.8611 3.8857 18.7468C4.1668 18.6082 4.51535 18.6998 4.67202 18.9533C4.7388 19.0613 4.7675 19.2057 4.79516 19.5728C4.83952 20.1607 4.95948 20.6306 5.19287 21.1309C5.4115 21.5995 5.64068 21.9418 5.97538 22.2996C6.68328 23.0563 7.69018 23.5608 8.72852 23.6788L9.00025 23.7097L8.82731 23.5222C8.73216 23.4189 8.64103 23.2738 8.62474 23.1998C8.52734 22.7562 8.89338 22.3801 9.34194 22.4628C9.4796 22.4881 9.61258 22.6023 10.2619 23.2527C10.8075 23.7991 11.0769 24.0553 11.0759 24.3106C11.075 24.5599 10.8161 24.8083 10.3049 25.3253C9.90977 25.7248 9.52596 26.0779 9.4519 26.1098C8.93146 26.3343 8.42244 25.806 8.6783 25.3069C8.72458 25.2166 8.81275 25.0958 8.87422 25.0385L8.98598 24.9341L8.49127 24.8634C7.85358 24.7723 7.34908 24.6236 6.81575 24.3695C5.66796 23.8228 4.72695 22.9058 4.16626 21.7879C3.79533 21.0482 3.58209 20.1994 3.58209 19.4621Z" fill="white"/>
<path d="M18.3419 19.7869L17.8926 20.6865H18.7921C19.2868 20.6865 19.6916 20.6769 19.6916 20.6652C19.6916 20.6373 18.8158 18.8872 18.8018 18.8872C18.7959 18.8872 18.5889 19.2921 18.3419 19.7869Z" fill="white"/>
</svg>
