<svg width="25" height="27" viewBox="0 0 25 27" fill="none" xmlns="http://www.w3.org/2000/svg">
<path d="M17.97 12.9449H17.2218V10.7003C17.2218 8.08781 15.0957 5.96167 12.4832 5.96167C9.87075 5.96167 7.74461 8.08781 7.74461 10.7003V12.9449H6.99641C6.17026 12.9449 5.5 13.6152 5.5 14.4413V20.4269C5.5 21.2531 6.17026 21.9233 6.99641 21.9233H17.97C18.7962 21.9233 19.4664 21.2531 19.4664 20.4269V14.4413C19.4664 13.6152 18.7962 12.9449 17.97 12.9449ZM14.7278 12.9449H10.2386V10.7003C10.2386 9.46263 11.2456 8.45568 12.4832 8.45568C13.7209 8.45568 14.7278 9.46263 14.7278 10.7003V12.9449Z" fill="#0D6EFD"/>
</svg>
