<svg width="24" height="24" viewBox="0 0 24 24" fill="none" xmlns="http://www.w3.org/2000/svg">
<g clip-path="url(#clip0_18_9008)">
<path d="M12 24C18.6274 24 24 18.6274 24 12C24 5.37258 18.6274 0 12 0C5.37258 0 0 5.37258 0 12C0 18.6274 5.37258 24 12 24Z" fill="white"/>
<path d="M6.9786 13.4214C7.10555 13.9781 7.37792 14.4911 7.76793 14.9081C7.98529 15.6461 8.37379 16.3223 8.9018 16.8818C9.42982 17.4414 10.0824 17.8683 10.8066 18.1281C11.6062 18.401 12.4737 18.401 13.2733 18.1281C13.9992 17.8712 14.6535 17.4452 15.1822 16.8852C15.7108 16.3253 16.0985 15.6476 16.3133 14.9081C16.7038 14.4904 16.9762 13.9764 17.1026 13.4187C17.2443 13.0951 17.3074 12.7425 17.2867 12.3898C17.2661 12.0371 17.1623 11.6943 16.9839 11.3894C16.9601 11.3682 16.9402 11.3429 16.9253 11.3147C16.9653 11.1094 16.9839 10.9054 17.0039 10.7187C17.5559 7.21873 15.5039 6.99607 15.2706 6.99607C15.2506 6.99607 15.2506 6.9774 15.2306 6.9774C14.9949 6.41989 14.5793 5.95739 14.05 5.66375C13.5208 5.37011 12.9083 5.26226 12.3106 5.3574C10.9847 5.48955 9.64842 5.47704 8.32526 5.32007C8.32735 5.49639 8.36921 5.66998 8.4477 5.82788C8.52619 5.98579 8.63931 6.12395 8.77861 6.23207C6.51195 7.53474 6.92393 10.3267 7.14126 11.3134C7.11727 11.3345 7.09739 11.3598 7.08261 11.3881C6.91176 11.6961 6.81401 12.0394 6.7969 12.3912C6.77979 12.7431 6.84378 13.0942 6.98393 13.4174L6.9786 13.4214ZM8.1626 11.7827H8.22128V11.7641C8.10552 11.4248 8.10469 11.0568 8.21892 10.717C8.33315 10.3773 8.55608 10.0845 8.85328 9.88407C10.0682 10.1043 11.3213 9.9485 12.4453 9.4374C15.5439 8.19074 15.8199 11.8014 15.8199 11.8014H15.8786C16.1946 11.8014 16.5293 12.0441 16.1746 13.1974C15.8986 14.1094 15.6413 14.3707 15.4639 14.3707C15.3343 15.038 15.0334 15.66 14.5906 16.1757C14.1479 16.6914 13.5785 17.083 12.9386 17.3121C12.3363 17.5106 11.6862 17.5106 11.0839 17.3121C10.4465 17.0799 9.87953 16.6879 9.4373 16.1735C8.99508 15.6591 8.69249 15.0397 8.5586 14.3747C8.36127 14.3561 8.10526 14.1081 7.84793 13.2014C7.51193 12.0094 7.84795 11.7867 8.16395 11.7867L8.1626 11.7827Z" fill="#0D6EFD"/>
<path d="M16.0184 17.3669C15.3736 18.1195 14.534 18.68 13.5917 18.9869C13.0956 19.1514 12.5757 19.2329 12.053 19.2282C11.5224 19.2246 10.996 19.1346 10.4944 18.9615C9.56416 18.6408 8.73403 18.0823 8.08638 17.3416C7.23837 17.7696 5.5397 19.1989 4.00104 20.2589C4.99491 21.4029 6.23692 22.3049 7.63235 22.896C9.02779 23.487 10.5398 23.7516 12.053 23.6696C13.5693 23.7541 15.0851 23.4945 16.4869 22.9104C17.8887 22.3262 19.1402 21.4325 20.1477 20.2962C18.609 19.2296 16.889 17.7882 16.0144 17.3629L16.0184 17.3669Z" fill="#0D6EFD"/>
</g>
<defs>
<clipPath id="clip0_18_9008">
<rect width="24" height="24" fill="white"/>
</clipPath>
</defs>
</svg>
