<svg width="16" height="15" viewBox="0 0 16 15" fill="none" xmlns="http://www.w3.org/2000/svg">
<g clip-path="url(#clip0_1_6780)">
<path d="M7.87506 14.9471C11.988 14.9471 15.3221 11.6129 15.3221 7.5C15.3221 3.38709 11.988 0.0529175 7.87506 0.0529175C3.76215 0.0529175 0.427979 3.38709 0.427979 7.5C0.427979 11.6129 3.76215 14.9471 7.87506 14.9471Z" fill="white"/>
<path d="M4.75959 8.38225C4.83837 8.72771 5.0074 9.04607 5.24944 9.30486C5.38433 9.76284 5.62542 10.1825 5.9531 10.5298C6.28079 10.877 6.6858 11.142 7.13521 11.3032C7.63141 11.4726 8.16979 11.4726 8.66599 11.3032C9.11649 11.1437 9.52257 10.8793 9.85063 10.5319C10.1787 10.1844 10.4193 9.76378 10.5526 9.30486C10.7949 9.04563 10.964 8.72665 11.0424 8.38059C11.1304 8.17974 11.1695 7.96094 11.1567 7.74206C11.1439 7.52319 11.0795 7.31044 10.9688 7.12121C10.954 7.10806 10.9417 7.09237 10.9324 7.07487C10.9572 6.94744 10.9688 6.82084 10.9812 6.705C11.3238 4.53293 10.0503 4.39475 9.90552 4.39475C9.89311 4.39475 9.89311 4.38316 9.88069 4.38316C9.73445 4.03717 9.47651 3.75015 9.14805 3.56792C8.81958 3.38569 8.43953 3.31876 8.06857 3.37781C7.24575 3.45982 6.41645 3.45205 5.59531 3.35464C5.59661 3.46406 5.62258 3.57179 5.67129 3.66978C5.72 3.76778 5.7902 3.85352 5.87665 3.92062C4.46998 4.72904 4.72566 6.46173 4.86053 7.07404C4.84564 7.08711 4.8333 7.10282 4.82413 7.12038C4.7181 7.31157 4.65744 7.52457 4.64683 7.74294C4.63621 7.9613 4.67592 8.17919 4.7629 8.37976L4.75959 8.38225ZM5.49437 7.3653H5.53078V7.35372C5.45894 7.14317 5.45843 6.91482 5.52932 6.70395C5.6002 6.49308 5.73855 6.31141 5.92299 6.18701C6.67694 6.32371 7.45465 6.227 8.15215 5.90981C10.0752 5.13614 10.2464 7.37689 10.2464 7.37689H10.2828C10.4789 7.37689 10.6866 7.52749 10.4665 8.24323C10.2953 8.80921 10.1356 8.97139 10.0255 8.97139C9.94508 9.38547 9.75831 9.77149 9.48353 10.0915C9.20876 10.4116 8.85544 10.6546 8.45831 10.7968C8.08453 10.9199 7.68109 10.9199 7.30731 10.7968C6.91176 10.6527 6.55987 10.4094 6.28543 10.0902C6.01099 9.77096 5.82321 9.38656 5.74012 8.97388C5.61765 8.96229 5.45878 8.80838 5.29908 8.24572C5.09056 7.50597 5.29909 7.36779 5.4952 7.36779L5.49437 7.3653Z" fill="url(#paint0_linear_1_6780)"/>
<path d="M10.369 10.8307C9.96885 11.2978 9.44781 11.6457 8.86301 11.8361C8.55512 11.9382 8.23249 11.9888 7.90812 11.9859C7.57884 11.9836 7.25213 11.9278 6.94083 11.8204C6.36355 11.6213 5.84838 11.2747 5.44645 10.815C4.92019 11.0807 3.86601 11.9677 2.91113 12.6255C3.52792 13.3355 4.2987 13.8952 5.16469 14.262C6.03069 14.6289 6.96902 14.7931 7.90812 14.7421C8.84911 14.7946 9.78979 14.6335 10.6597 14.271C11.5297 13.9085 12.3063 13.3539 12.9316 12.6487C11.9767 11.9867 10.9093 11.0922 10.3665 10.8283L10.369 10.8307Z" fill="url(#paint1_linear_1_6780)"/>
</g>
<defs>
<linearGradient id="paint0_linear_1_6780" x1="7.90211" y1="2.17033" x2="7.90211" y2="11.4302" gradientUnits="userSpaceOnUse">
<stop stop-color="#F49A0B"/>
<stop offset="1" stop-color="#EB5D0C"/>
</linearGradient>
<linearGradient id="paint1_linear_1_6780" x1="7.92136" y1="10.2377" x2="7.92136" y2="14.7518" gradientUnits="userSpaceOnUse">
<stop stop-color="#F49A0B"/>
<stop offset="1" stop-color="#EB5D0C"/>
</linearGradient>
<clipPath id="clip0_1_6780">
<rect width="14.8942" height="14.8942" fill="white" transform="translate(0.427979 0.0529175)"/>
</clipPath>
</defs>
</svg>
