<svg width="201" height="101" viewBox="0 0 201 101" fill="none" xmlns="http://www.w3.org/2000/svg">
<path d="M52.1355 20.7725C52.1355 18.1725 52.0689 15.9058 51.9355 14.0392H57.5355L57.8689 16.9058H58.0022C58.9355 15.5725 60.8022 13.5725 64.4689 13.5725C67.2689 13.5725 69.4022 14.9725 70.3355 17.1725H70.4022C71.2022 16.1058 72.1355 15.2392 73.2022 14.6392C74.4022 13.9725 75.7355 13.5725 77.2689 13.5725C81.4022 13.5725 84.5355 16.4392 84.5355 22.7058V34.0392H78.0022V23.6392C78.0022 20.5725 77.0022 18.8392 74.8689 18.8392C73.3355 18.8392 72.2022 19.8392 71.8022 21.1058C71.6022 21.5725 71.5355 22.2392 71.5355 22.7725V34.0392H65.0689V23.3058C65.0689 20.6392 64.0689 18.8392 62.0022 18.8392C60.2689 18.8392 59.2689 20.1058 58.8689 21.2392C58.6689 21.7725 58.6022 22.3725 58.6022 22.9058V34.1058H52.1355V20.7725Z" fill="#8EC850"/>
<path d="M91.2023 13.8391L94.469 24.1724C94.8023 25.4391 95.269 25.9058 95.5357 27.0391H95.669C96.0023 25.9058 96.3357 25.3724 96.669 24.1724L99.3357 13.8391H106.469L101.469 26.6391C98.3357 35.0391 97.0023 38.1058 94.8023 40.4391C92.269 43.1724 89.5357 43.7058 83.4023 42.3724L85.9357 37.8391C86.7357 37.7058 87.8023 37.3058 88.869 36.7058C89.869 36.1724 91.0023 35.1724 91.669 34.1058C91.869 33.7724 92.0023 33.4391 92.0023 33.1724C92.0023 32.9724 91.9357 32.6391 91.669 32.1058L83.8023 13.8391H91.2023Z" fill="#428DCB"/>
<path d="M91.1353 63.9724C89.0686 64.6391 85.1353 65.5724 81.2686 65.5724C75.8686 65.5724 71.9353 64.3057 69.202 61.7724C66.4686 59.3724 65.002 55.6391 65.002 51.5057C65.0686 42.1724 72.2686 36.8391 81.9353 36.8391C85.7353 36.8391 89.4686 38.1724 91.8686 34.0391C91.8686 34.0391 91.9353 38.7724 88.602 40.7057C86.202 42.0391 85.0686 42.1057 81.802 42.1057C76.202 42.1057 72.002 45.1057 72.002 51.2391C72.002 57.0391 75.802 60.5057 81.3353 60.5057C82.8686 60.5057 84.0686 60.3057 84.602 60.1057V53.7057H80.002V48.1724H91.002V63.9724H91.1353Z" fill="#2AB998"/>
<path d="M91.1353 63.9724C89.0686 64.6391 85.1353 65.5724 81.2686 65.5724C75.8686 65.5724 71.9353 64.3057 69.202 61.7724C66.4686 59.3724 65.002 55.6391 65.002 51.5057C65.0686 42.1724 72.2686 36.8391 81.9353 36.8391C85.7353 36.8391 89.4686 38.1724 91.8686 34.0391C91.8686 34.0391 91.9353 38.7724 88.602 40.7057C86.202 42.0391 85.0686 42.1057 81.802 42.1057C76.202 42.1057 72.002 45.1057 72.002 51.2391C72.002 57.0391 75.802 60.5057 81.3353 60.5057C82.8686 60.5057 84.0686 60.3057 84.602 60.1057V53.7057H80.002V48.1724H91.002V63.9724H91.1353Z" stroke="#2AB998" stroke-width="0.1533" stroke-miterlimit="10"/>
<path d="M122.336 50.9058C122.336 60.1725 116.469 65.7725 107.802 65.7725C99.0025 65.7725 93.8691 59.4392 93.8691 51.4392C93.8691 42.9725 99.5358 36.7058 108.269 36.7058C117.402 36.6392 122.336 43.1058 122.336 50.9058ZM100.936 51.3058C100.936 56.8392 103.669 60.7058 108.136 60.7058C112.669 60.7058 115.269 56.6392 115.269 51.1058C115.269 46.0392 112.736 41.7058 108.136 41.7058C103.602 41.7058 100.936 45.7725 100.936 51.3058Z" fill="#C2579B"/>
<path d="M122.336 50.9058C122.336 60.1725 116.469 65.7725 107.802 65.7725C99.0025 65.7725 93.8691 59.4392 93.8691 51.4392C93.8691 42.9725 99.5358 36.7058 108.269 36.7058C117.402 36.6392 122.336 43.1058 122.336 50.9058ZM100.936 51.3058C100.936 56.8392 103.669 60.7058 108.136 60.7058C112.669 60.7058 115.269 56.6392 115.269 51.1058C115.269 46.0392 112.736 41.7058 108.136 41.7058C103.602 41.7058 100.936 45.7725 100.936 51.3058Z" stroke="#C2579B" stroke-width="0.1533" stroke-miterlimit="10"/>
<path d="M130.67 65.306L121.203 37.106H128.536L132.136 49.0393C133.136 52.3726 134.07 55.5726 134.803 59.106H134.936C135.67 55.706 136.603 52.3726 137.603 49.1726L141.403 37.106H148.536L138.536 65.306H130.67Z" fill="#EC7026"/>
<path d="M130.67 65.306L121.203 37.106H128.536L132.136 49.0393C133.136 52.3726 134.07 55.5726 134.803 59.106H134.936C135.67 55.706 136.603 52.3726 137.603 49.1726L141.403 37.106H148.536L138.536 65.306H130.67Z" stroke="#EC7026" stroke-width="0.1533" stroke-miterlimit="10"/>
<path d="M60.6682 77.4392V86.7725H59.6682V81.8392H56.0682V83.2392V83.4392C56.0682 83.5058 56.0682 83.5725 56.0016 83.5725L55.8682 83.7058L55.6016 83.7725C55.4682 83.7725 55.3349 83.7058 55.1349 83.5725L54.4682 82.8392C54.2016 82.5725 54.0016 82.3058 53.8682 82.0392C53.8016 81.8392 53.7349 81.7058 53.6682 81.5058L53.7349 81.2392L53.9349 81.0392L54.0682 80.9725L54.2682 80.9058H55.0682V77.4392H52.6016V76.6392H62.1349V77.4392H60.6682ZM59.6682 77.4392H56.0682V80.9058H59.6682V77.4392Z" fill="#3D6599"/>
<path d="M59.2678 76.6391L55.2012 72.4391L55.8678 71.7058L59.8678 76.6391H59.2678Z" fill="#3D6599"/>
<path d="M67.4686 77.4392V79.9725C67.4686 80.5725 67.2686 81.0392 66.802 81.3725C66.6686 81.4392 66.602 81.5058 66.4686 81.5725C66.402 81.5725 66.2686 81.6392 66.0686 81.7725C65.7353 81.9058 65.4686 81.9058 65.2686 81.9058H65.002L64.6686 81.8392L66.0686 83.8392L66.602 84.5058L67.3353 85.3058L67.602 85.6392L68.0686 86.0392L67.3353 86.7058C67.0686 86.5725 66.7353 86.2392 66.202 85.6392C65.5353 84.8392 64.8686 83.9725 64.3353 83.1058L63.7353 82.1725L62.9353 80.9058L62.7353 80.5725L62.3353 79.8392L63.1353 79.2392L63.9353 80.6392C64.1353 80.9725 64.4686 81.1058 65.0686 81.1058C65.5353 81.1058 65.9353 80.9725 66.0686 80.7725C66.1353 80.6392 66.2686 80.5058 66.3353 80.3725L66.402 79.8392V77.3725H61.002V76.5725H69.002V77.3725H67.4686V77.4392Z" fill="#3D6599"/>
<path d="M71.269 77.4392V86.7726H70.269V77.4392H68.5357V76.6392H70.0023C70.069 76.5726 70.0023 76.3059 69.7357 75.9059C69.3357 75.3726 68.9357 74.7726 68.469 74.2392C67.869 73.5726 67.3357 73.1726 66.8023 73.1059C66.2023 73.1059 65.8023 73.4392 65.5357 74.1726L65.469 74.7726L65.5357 75.3059L65.7357 75.9059L66.0023 76.3726L66.1357 76.5726H65.0023L64.8023 76.2392L64.6023 75.8392L64.469 75.4392L64.4023 74.9726C64.4023 74.8392 64.4023 74.6392 64.4023 74.4392C64.4023 74.3059 64.469 74.1726 64.5357 73.9726C64.8023 73.2392 65.2023 72.7726 65.7357 72.5059C66.069 72.3726 66.3357 72.3059 66.669 72.3059C67.1357 72.3059 67.6023 72.5059 68.069 72.8392C68.669 73.2392 69.2023 73.7726 69.6023 74.4392L70.2023 75.3059L70.869 76.5726H72.7357V77.3726H71.269V77.4392Z" fill="#3D6599"/>
<path d="M89.8023 77.4391V86.7725H88.8023V81.7058H86.0023L85.3357 80.9058H88.8023V77.5058H85.1357V80.7725C85.069 80.9725 85.0023 81.1725 84.9357 81.3725C84.869 81.5058 84.7357 81.7058 84.5357 81.9058C84.3357 82.0391 84.1357 82.1058 83.869 82.1725C83.8023 82.1725 83.8023 82.1725 83.7357 82.2391H83.6023H83.469H83.2023C83.069 82.2391 82.9357 82.1725 82.9357 82.1725L84.1357 84.0391L84.669 84.7058L85.6023 85.7725L86.0023 86.1725L85.2023 86.8391C84.9357 86.7725 84.6023 86.4391 84.2023 85.8391L81.8023 82.3725L81.269 81.4391L80.9357 80.8391L80.6023 80.2391L81.4023 79.7058L82.0023 80.7725C82.2023 81.2391 82.6023 81.4391 83.2023 81.4391L83.6023 81.3725C83.7357 81.3058 83.8023 81.2391 83.869 81.1725L84.0023 80.9058V80.5058V80.2391V77.5725H79.4023V76.7725H91.3357V77.5725H89.8023V77.4391Z" fill="#3D6599"/>
<path d="M97.0021 77.4392V79.9725C97.0021 80.5725 96.8021 81.0392 96.3354 81.3725C96.2021 81.4392 96.1354 81.5058 96.0021 81.5725C95.9354 81.5725 95.8021 81.6392 95.6021 81.7725C95.2688 81.9058 95.0021 81.9058 94.8021 81.9058H94.4021L94.0687 81.8392L95.4687 83.8392L96.0021 84.5058L96.7354 85.3058L97.0687 85.6392L97.5354 86.0392L96.8021 86.7058C96.5354 86.5725 96.2021 86.2392 95.6687 85.6392C95.0021 84.8392 94.3354 83.9725 93.8021 83.1058L93.2021 82.1725L92.4021 80.9058L92.2021 80.5725L91.8021 79.8392L92.6021 79.2392L93.4021 80.6392C93.6021 80.9725 93.9354 81.1058 94.5354 81.1058C95.0021 81.1058 95.4021 80.9725 95.5354 80.7725C95.6021 80.6392 95.7354 80.5058 95.8021 80.3725L95.8688 79.8392V77.3725H90.4688V76.5725H98.4687V77.3725H97.0021V77.4392Z" fill="#3D6599"/>
<path d="M105.002 77.4392V80.3725L105.402 80.0392L105.602 79.8392L106.069 79.5725C106.202 79.5058 106.336 79.4392 106.536 79.3725L106.736 79.3058H106.936C107.736 79.3058 108.402 79.5725 108.869 80.0392C109.336 80.5058 109.602 81.1058 109.602 81.8392C109.602 82.5725 109.269 83.3725 108.602 84.2392L108.202 84.7725L107.602 85.4392L106.736 84.7725C106.869 84.7725 106.936 84.7058 107.069 84.5725L107.669 83.8392C108.269 83.1058 108.536 82.4392 108.536 81.7725C108.536 81.2392 108.402 80.8392 108.202 80.6392C108.069 80.5058 107.936 80.3725 107.669 80.2392C107.469 80.1725 107.269 80.1058 107.002 80.1058C106.469 80.1058 105.936 80.3725 105.536 80.9725C105.136 81.4392 104.936 81.9725 104.936 82.5058V86.7058H103.936V83.7725C103.469 84.2392 102.869 84.5058 102.136 84.5058C100.869 84.5058 100.002 83.9725 99.5355 82.8392C99.4022 82.5058 99.3355 82.1725 99.3355 81.7725C99.3355 81.3725 99.4022 80.9725 99.5355 80.6392C99.8022 80.0392 100.269 79.5725 101.002 79.3058C101.336 79.1725 101.669 79.1058 102.069 79.1058L102.602 79.1725L103.136 79.3058V80.1058L102.936 80.0392L102.869 79.9725L102.736 79.9058C102.669 79.9058 102.602 79.9058 102.602 79.8392H102.336H102.202C101.936 79.8392 101.669 79.9058 101.469 79.9725C101.069 80.1058 100.802 80.5058 100.536 81.0392L100.402 81.5058V81.8392C100.402 82.7058 100.736 83.3058 101.402 83.5725C101.602 83.6392 101.869 83.7058 102.069 83.7058C102.469 83.7058 102.869 83.5725 103.269 83.2392C103.669 82.9058 103.869 82.5725 103.936 82.2392V77.3725H97.9355V76.5725H110.602V77.3725H105.002V77.4392Z" fill="#3D6599"/>
<path d="M112.935 77.4392V86.7725H111.935V77.4392H110.068V76.6392H114.868V77.4392H112.935Z" fill="#3D6599"/>
<path d="M120.268 77.4392V79.9725C120.268 80.5725 120.068 81.0392 119.601 81.3725C119.468 81.4392 119.401 81.5058 119.268 81.5725C119.201 81.5725 119.068 81.6392 118.868 81.7725C118.535 81.9058 118.268 81.9058 118.068 81.9058H117.668L117.335 81.8392L118.735 83.8392L119.268 84.5058L120.001 85.3058L120.268 85.6392L120.735 86.0392L120.001 86.7058C119.735 86.5725 119.401 86.2392 118.868 85.6392C118.201 84.8392 117.535 83.9725 117.001 83.1058L116.401 82.1725L115.601 80.9058L115.401 80.5725L115.001 79.8392L115.801 79.2392L116.601 80.6392C116.801 80.9725 117.135 81.1058 117.735 81.1058C118.201 81.1058 118.601 80.9725 118.735 80.7725C118.801 80.6392 118.935 80.5058 119.001 80.3725L119.068 79.8392V77.3725H113.668V76.5725H121.668V77.3725H120.268V77.4392Z" fill="#3D6599"/>
<path d="M60.6702 77.4394V86.7727H59.6702V81.8394H56.0702V83.2394V83.4394C56.0702 83.5061 56.0702 83.5727 56.0035 83.5727L55.8702 83.7061L55.6035 83.7727C55.4702 83.7727 55.3368 83.7061 55.1368 83.5727L54.4702 82.8394C54.2035 82.5727 54.0035 82.3061 53.8702 82.0394C53.8035 81.8394 53.7368 81.7061 53.6702 81.5061L53.7368 81.2394L53.9368 81.0394L54.0702 80.9727L54.2702 80.9061H55.0702V77.4394H52.6035V76.6394H62.1368V77.4394H60.6702ZM59.6702 77.4394H56.0702V80.9061H59.6702V77.4394Z" fill="#3D6599"/>
<path d="M61.0698 87.1726H59.2698V82.1726H56.4698V83.4393C56.4698 83.5726 56.4031 83.706 56.2698 83.7726L56.0031 83.9726L55.6031 84.0393C55.4031 84.0393 55.1365 83.9726 54.8698 83.706L54.8031 83.6393L54.1365 82.906C53.8698 82.6393 53.6698 82.3726 53.4698 82.106V82.0393C53.3365 81.8393 53.2698 81.6393 53.2698 81.4393V81.3726L53.4031 80.906L53.7365 80.5726L54.2031 80.4393H54.7365V77.706H52.2031V76.106H62.5365V77.706H61.0698V87.1726ZM60.0698 86.3726H60.3365V77.0393H61.8031V76.9726H53.0031V77.0393H55.4698V81.306H54.2698L54.1365 81.3726L54.0698 81.4393V81.506C54.0698 81.5726 54.1365 81.706 54.2031 81.8393C54.3365 82.106 54.5365 82.306 54.7365 82.506L55.4031 83.1726C55.5365 83.2393 55.6031 83.306 55.6031 83.306H55.6698V81.4393H60.0698V86.3726ZM60.0698 81.306H55.6698V77.0393H60.0698V81.306ZM56.4698 80.506H59.2698V77.7726H56.4698V80.506Z" fill="#3D6598"/>
<path d="M59.2698 76.6396L55.2031 72.4396L55.8698 71.7063L59.8698 76.6396H59.2698Z" fill="#3D6599"/>
<path d="M60.7363 76.9729H59.1363L54.7363 72.3729L56.003 71.0396L60.7363 76.9729ZM55.803 72.3729L57.403 74.0396L55.9363 72.2395L55.803 72.3729Z" fill="#3D6598"/>
<path d="M67.4706 77.4392V79.9725C67.4706 80.5725 67.2706 81.0392 66.8039 81.3725C66.6706 81.4392 66.6039 81.5058 66.4706 81.5725C66.4039 81.5725 66.2706 81.6392 66.0706 81.7725C65.7372 81.9058 65.4706 81.9058 65.2706 81.9058H65.0039L64.6706 81.8392L66.0706 83.8392L66.6039 84.5058L67.3372 85.3058L67.6039 85.6392L68.0706 86.0392L67.3372 86.7058C67.0706 86.5725 66.7372 86.2392 66.2039 85.6392C65.5372 84.8392 64.8706 83.9725 64.3372 83.1058L63.7372 82.1725L62.9372 80.9058L62.7372 80.5725L62.3372 79.8392L63.1372 79.2392L63.9372 80.6392C64.1372 80.9725 64.4706 81.1058 65.0706 81.1058C65.5372 81.1058 65.9372 80.9725 66.0706 80.7725C66.1372 80.6392 66.2706 80.5058 66.3372 80.3725L66.4039 79.8392V77.3725H61.0039V76.5725H69.0039V77.3725H67.4706V77.4392Z" fill="#3D6599"/>
<path d="M67.4033 87.2393L67.2033 87.1726C66.8699 87.0393 66.4699 86.706 65.9366 85.9726C65.2699 85.1726 64.6033 84.306 64.0033 83.3726L63.4033 82.4393L62.6033 81.106L62.4033 80.706L61.8033 79.706L63.2699 78.6393L64.2699 80.3726C64.4033 80.5726 64.6699 80.706 65.0699 80.706C65.5366 80.706 65.7366 80.5726 65.8033 80.506C65.8699 80.4393 65.9366 80.3726 66.0033 80.2393L66.0699 79.7726V77.706H60.6699V76.106H69.4699V77.706H67.8699V79.8393C67.8699 80.506 67.6033 81.106 67.0699 81.5726C66.9366 81.706 66.8033 81.7726 66.6699 81.8393C66.6699 81.8393 66.5366 81.906 66.2699 82.0393C65.9366 82.1726 65.6699 82.2393 65.4033 82.2393L66.3366 83.5726L66.8699 84.2393L67.5366 84.9726L67.8699 85.3726L68.6033 86.0393L67.4033 87.2393ZM62.8699 80.0393L63.1366 80.4393L63.3366 80.8393L64.1366 82.106L64.7366 82.9726C65.2699 83.8393 65.9366 84.6393 66.6033 85.506C67.0033 85.9726 67.2033 86.1726 67.4033 86.306L67.6033 86.106L67.4699 85.9726L67.1366 85.5726L66.3366 84.8393L65.7366 84.106L63.6699 81.1726L63.8699 81.2393C63.7366 81.1726 63.6699 81.0393 63.6033 80.906L63.0033 79.906L62.8699 80.0393ZM61.4699 77.0393H66.8699V79.9726L66.7366 80.5726C66.6699 80.7726 66.5366 80.9726 66.4033 81.106C66.2699 81.2393 66.0699 81.3726 65.8033 81.4393C65.8699 81.4393 65.9366 81.3726 66.0033 81.3726C66.1366 81.306 66.2699 81.2393 66.3366 81.2393C66.4033 81.1726 66.5366 81.106 66.6033 81.0393C66.9366 80.7726 67.1366 80.3726 67.1366 79.906V76.9726H68.7366V76.906L61.4699 77.0393Z" fill="#3D6598"/>
<path d="M71.271 77.4395V86.7728H70.271V77.4395H68.5376V76.6395H70.0043C70.071 76.5728 70.0043 76.3062 69.7376 75.9062C69.3376 75.3728 68.9376 74.7728 68.471 74.2395C67.871 73.5728 67.3376 73.1728 66.8043 73.1062C66.2043 73.1062 65.8043 73.4395 65.5376 74.1728L65.471 74.7728L65.5376 75.3062L65.7376 75.9062L66.0043 76.3728L66.1376 76.5728H65.0043L64.8043 76.2395L64.6043 75.8395L64.471 75.4395L64.4043 74.9728C64.4043 74.8395 64.4043 74.6395 64.4043 74.4395C64.4043 74.3062 64.471 74.1728 64.5376 73.9728C64.8043 73.2395 65.2043 72.7728 65.7376 72.5062C66.071 72.3728 66.3376 72.3062 66.671 72.3062C67.1376 72.3062 67.6043 72.5062 68.071 72.8395C68.671 73.2395 69.2043 73.7728 69.6043 74.4395L70.2043 75.3062L70.871 76.5728H72.7376V77.3728H71.271V77.4395Z" fill="#3D6599"/>
<path d="M71.6703 87.1727H69.8703V77.8394H68.137V76.2394H69.4703C69.4703 76.2394 69.4036 76.1727 69.4036 76.106C69.0703 75.5727 68.6036 75.0394 68.137 74.506C67.6036 73.906 67.2036 73.5727 66.8036 73.506C66.537 73.506 66.2036 73.6394 65.937 74.2394L65.8703 74.7727L65.937 75.1727L66.137 75.706L66.337 76.1727L66.937 76.9727L64.8036 76.906L64.4703 76.3727L64.2703 75.906L64.137 75.3727L64.0703 74.906C64.0703 74.706 64.0703 74.506 64.0703 74.306C64.0703 74.1727 64.137 73.9727 64.2703 73.7727C64.537 72.9727 65.0703 72.4394 65.6703 72.106C66.537 71.706 67.4703 71.7727 68.4703 72.506C69.137 72.9727 69.6703 73.506 70.137 74.1727L70.737 75.0394L71.337 76.106H73.337V77.706H71.6703V87.1727ZM70.6036 86.3727H70.8703V77.0394H72.537V76.9727H70.8036L70.337 76.1727C70.4703 76.4394 70.4703 76.706 70.2703 76.906L70.137 76.9727H68.937V77.0394H70.6703V86.3727H70.6036ZM65.2036 76.2394H65.4703L65.4036 76.106L65.137 75.4394L65.0703 74.906L65.2036 74.1727C65.4036 73.4394 65.8036 73.106 66.2036 72.9727C66.137 72.9727 66.0703 73.0394 66.0036 73.0394C65.537 73.2394 65.2036 73.6394 65.0036 74.306V74.3727C64.937 74.506 64.8703 74.5727 64.8703 74.6394C64.8703 74.8394 64.8036 74.9727 64.8703 75.0394L64.937 75.4394L65.0703 75.7727L65.2036 76.2394ZM67.937 73.1727C68.2036 73.3727 68.4703 73.6394 68.737 73.9727C69.2036 74.5727 69.6703 75.106 70.0036 75.706L69.937 75.5727L69.4036 74.706C69.0703 74.106 68.537 73.6394 67.937 73.1727C67.937 73.2394 67.937 73.2394 67.937 73.1727Z" fill="#3D6598"/>
<path d="M89.8043 77.4391V86.7725H88.8043V81.7058H86.0043L85.3376 80.9058H88.8043V77.5058H85.1376V80.7725C85.071 80.9725 85.0043 81.1725 84.9376 81.3725C84.871 81.5058 84.7376 81.7058 84.5376 81.9058C84.3376 82.0391 84.1376 82.1058 83.871 82.1725C83.8043 82.1725 83.8043 82.1725 83.7376 82.2391H83.6043H83.471H83.2043C83.071 82.2391 82.9376 82.1725 82.9376 82.1725L84.1376 84.0391L84.671 84.7058L85.6043 85.7725L86.0043 86.1725L85.2043 86.8391C84.9376 86.7725 84.6043 86.4391 84.2043 85.8391L81.8043 82.3725L81.271 81.4391L80.9376 80.8391L80.6043 80.2391L81.4043 79.7058L82.0043 80.7725C82.2043 81.2391 82.6043 81.4391 83.2043 81.4391L83.6043 81.3725C83.7376 81.3058 83.8043 81.2391 83.871 81.1725L84.0043 80.9058V80.5058V80.2391V77.5725H79.4043V76.7725H91.3376V77.5725H89.8043V77.4391Z" fill="#3D6599"/>
<path d="M85.3367 87.239L85.1367 87.1724C84.8034 87.039 84.4701 86.7057 84.0034 86.039L81.6034 82.5724L81.0701 81.639L80.2034 80.039L81.6701 79.039L82.4701 80.5057C82.5367 80.7724 82.7367 80.9724 83.2701 80.9724L83.6034 80.9057H83.6701L83.7367 80.7057V77.7724H79.1367V76.1724H91.8701V77.7724H90.2701V87.1057H88.4701V82.039H85.8701L85.3367 81.439C85.2701 81.639 85.0701 81.9057 84.8034 82.1724H84.7367C84.5367 82.3057 84.2701 82.3724 83.9367 82.439C83.9367 82.439 83.8701 82.439 83.8034 82.5057H83.6701L84.4701 83.7057L85.0034 84.3724L85.9367 85.439L86.6701 86.1057L85.3367 87.239ZM89.2034 86.3724H89.4701V77.039H91.0034V76.9724H79.8701V77.039H84.4701V80.439H84.7367V77.039H89.2034V81.239H86.1367L86.2034 81.3057H89.2034V86.3724ZM81.1367 80.239L81.6701 81.1724L82.2034 82.039L84.5367 85.5057C84.8034 85.9057 85.0034 86.1057 85.1367 86.239L85.4034 86.039L85.2701 85.9057L84.2701 84.839L83.7367 84.1057L81.7367 81.039H81.8034C81.7367 80.9057 81.6701 80.839 81.6034 80.7057L81.2701 80.039L81.1367 80.239ZM83.2701 81.7724H83.4701H83.6701H83.7367C84.0034 81.7057 84.1367 81.639 84.2701 81.5724C84.4701 81.3724 84.5367 81.3057 84.5367 81.239C84.6034 81.039 84.6034 80.9057 84.6701 80.7724L84.4701 80.5057V80.9724L84.2701 81.3724C84.1367 81.5057 84.0034 81.639 83.8034 81.7057H83.7367L83.2701 81.7724ZM85.4701 80.439H88.4034V77.839H85.4701V80.439Z" fill="#3D6598"/>
<path d="M97.004 77.4392V79.9725C97.004 80.5725 96.804 81.0392 96.3374 81.3725C96.204 81.4392 96.1374 81.5058 96.004 81.5725C95.9374 81.5725 95.804 81.6392 95.604 81.7725C95.2707 81.9058 95.004 81.9058 94.804 81.9058H94.404L94.0707 81.8392L95.4707 83.8392L96.004 84.5058L96.7374 85.3058L97.0707 85.6392L97.5374 86.0392L96.804 86.7058C96.5374 86.5725 96.204 86.2392 95.6707 85.6392C95.004 84.8392 94.3374 83.9725 93.804 83.1058L93.204 82.1725L92.404 80.9058L92.204 80.5725L91.804 79.8392L92.604 79.2392L93.404 80.6392C93.604 80.9725 93.9374 81.1058 94.5374 81.1058C95.004 81.1058 95.404 80.9725 95.5374 80.7725C95.604 80.6392 95.7374 80.5058 95.804 80.3725L95.8707 79.8392V77.3725H90.4707V76.5725H98.4707V77.3725H97.004V77.4392Z" fill="#3D6599"/>
<path d="M96.9365 87.2393L96.7365 87.1726C96.5365 87.106 96.2031 86.906 95.4698 85.9726C94.8031 85.106 94.1365 84.2393 93.5365 83.3726L92.9365 82.4393L92.1365 81.106L91.9365 80.706L91.3365 79.706L92.8031 78.6393L93.8031 80.3726C93.9365 80.5726 94.2031 80.706 94.6031 80.706C95.0698 80.706 95.2698 80.5726 95.3365 80.506C95.4031 80.4393 95.4698 80.3726 95.5365 80.2393L95.6031 79.7726V77.706H90.2031V76.106H99.0031V77.706H97.4031V79.8393C97.4031 80.506 97.1365 81.106 96.6031 81.5726C96.4698 81.706 96.3365 81.7726 96.2031 81.8393C96.1365 81.8393 96.0698 81.906 95.8031 82.0393H95.7365C95.4031 82.1726 95.1365 82.1726 94.9365 82.1726L95.8698 83.506L96.4031 84.1726L97.0698 84.906L97.4031 85.306L98.1365 85.9726L96.9365 87.2393ZM92.3365 80.0393L92.6031 80.4393L92.8031 80.8393L93.6031 82.106L94.2031 82.9726C94.7365 83.8393 95.4031 84.6393 96.0698 85.506C96.4698 85.9726 96.6698 86.1726 96.8698 86.306L97.0698 86.106L96.9365 85.9726L96.6031 85.5726L95.8698 84.8393L95.2698 84.106L93.2031 81.1726L93.4031 81.2393C93.2698 81.1726 93.2031 81.0393 93.1365 80.906L92.5365 79.906L92.3365 80.0393ZM90.9365 77.0393H96.3365V79.9726L96.2031 80.5726C96.1365 80.7726 96.0031 80.9726 95.8698 81.106C95.7365 81.2393 95.5365 81.3726 95.2698 81.4393C95.3365 81.4393 95.4031 81.4393 95.4698 81.3726C95.6698 81.306 95.7365 81.2393 95.8031 81.2393C95.8698 81.1726 96.0031 81.1726 96.0698 81.0393C96.4031 80.7726 96.6031 80.3726 96.6031 79.906V76.9726H98.2031V76.906L90.9365 77.0393Z" fill="#3D6598"/>
<path d="M105.002 77.4394V80.3728L105.402 80.0394L105.602 79.8394L106.069 79.5728C106.202 79.5061 106.336 79.4394 106.536 79.3728L106.736 79.3061H106.936C107.736 79.3061 108.402 79.5728 108.869 80.0394C109.336 80.5061 109.602 81.1061 109.602 81.8394C109.602 82.5728 109.269 83.3728 108.602 84.2394L108.202 84.7728L107.602 85.4394L106.736 84.7728C106.869 84.7728 106.936 84.7061 107.069 84.5728L107.669 83.8394C108.269 83.1061 108.536 82.4394 108.536 81.7728C108.536 81.2394 108.402 80.8394 108.202 80.6394C108.069 80.5061 107.936 80.3728 107.669 80.2394C107.469 80.1728 107.269 80.1061 107.002 80.1061C106.469 80.1061 105.936 80.3728 105.536 80.9728C105.136 81.4394 104.936 81.9728 104.936 82.5061V86.7061H103.936V83.7728C103.469 84.2394 102.869 84.5061 102.136 84.5061C100.869 84.5061 100.002 83.9728 99.5355 82.8394C99.4022 82.5061 99.3355 82.1728 99.3355 81.7728C99.3355 81.3728 99.4022 80.9728 99.5355 80.6394C99.8022 80.0394 100.269 79.5728 101.002 79.3061C101.336 79.1728 101.669 79.1061 102.069 79.1061L102.602 79.1728L103.136 79.3061V80.1061L102.936 80.0394L102.869 79.9728L102.736 79.9061C102.669 79.9061 102.602 79.9061 102.602 79.8394H102.336H102.202C101.936 79.8394 101.669 79.9061 101.469 79.9728C101.069 80.1061 100.802 80.5061 100.536 81.0394L100.402 81.5061V81.8394C100.402 82.7061 100.736 83.3061 101.402 83.5728C101.602 83.6394 101.869 83.7061 102.069 83.7061C102.469 83.7061 102.869 83.5728 103.269 83.2394C103.669 82.9061 103.869 82.5728 103.936 82.2394V77.3728H97.9355V76.5728H110.602V77.3728H105.002V77.4394Z" fill="#3D6599"/>
<path d="M105.403 87.1728H103.603V84.6395C103.203 84.8395 102.736 84.9728 102.203 84.9728C100.803 84.9728 99.803 84.3728 99.2697 83.1062C99.0697 82.7728 99.003 82.3062 99.003 81.8395C99.003 81.3728 99.0697 80.9062 99.2697 80.5728C99.603 79.8395 100.136 79.3062 100.936 79.0395C101.27 78.9062 101.67 78.8395 102.136 78.8395H102.203L102.803 78.9062L103.603 79.1728V80.8395L102.67 80.4395C102.603 80.4395 102.603 80.4395 102.536 80.4395H102.336C102.136 80.4395 101.936 80.5062 101.803 80.5728H101.736C101.47 80.7062 101.27 80.9728 101.07 81.4395L101.003 81.7728V82.0395C101.003 82.9728 101.403 83.3062 101.736 83.4395C102.203 83.6395 102.736 83.5728 103.203 83.1728C103.47 82.9062 103.67 82.6395 103.736 82.3728V77.9062H97.7363V76.3062H111.003V77.9062H105.336V79.5728L105.803 79.3062C105.936 79.2395 106.136 79.1728 106.336 79.1062L106.603 79.0395H106.87C107.803 79.0395 108.536 79.3062 109.136 79.9062C109.67 80.5062 110.003 81.1728 110.003 81.9728C110.003 82.7728 109.603 83.7062 108.936 84.6395L108.536 85.1728L107.67 86.1062L105.87 84.7728L106.67 84.5728C106.67 84.5728 106.736 84.5728 106.803 84.5062L107.403 83.7728C107.936 83.1062 108.203 82.5062 108.203 81.9728C108.203 81.5728 108.136 81.2395 107.936 81.1062C107.87 81.0395 107.736 80.9062 107.536 80.8395C107.403 80.7728 107.27 80.7728 107.07 80.7728C106.67 80.7728 106.27 80.9728 105.87 81.5062C105.536 81.9062 105.403 82.3728 105.403 82.7728V87.1728ZM104.336 86.3728H104.603V82.5728C104.603 81.9728 104.803 81.3728 105.27 80.8395C105.803 80.1728 106.403 79.8395 107.07 79.8395C107.336 79.8395 107.67 79.9062 107.87 79.9728H107.936C108.203 80.1062 108.403 80.2395 108.536 80.4395C108.87 80.7728 109.003 81.2395 109.003 81.8395C109.003 82.5728 108.67 83.3062 108.003 84.1062L107.403 84.8395L107.536 84.9728L107.87 84.5728L108.27 84.0395C108.87 83.2395 109.203 82.5062 109.203 81.9062C109.203 81.3062 109.003 80.8395 108.603 80.3728C108.203 79.9728 107.67 79.7728 106.936 79.7728L106.536 79.8395C106.403 79.8395 106.336 79.9062 106.203 79.9728L105.803 80.1728L104.603 81.2395V77.0395H110.27V76.9728H98.403V77.0395H104.403V82.3728C104.336 82.8395 104.07 83.2395 103.603 83.6395C103.336 83.8395 103.07 84.0395 102.736 84.1062C103.136 84.0395 103.47 83.8395 103.736 83.5728L104.403 82.8395V86.3728H104.336ZM102.003 79.5728C101.67 79.5728 101.403 79.6395 101.136 79.7728C100.536 80.0395 100.136 80.3728 99.8697 80.9062C99.7363 81.1728 99.6697 81.5062 99.6697 81.8395C99.6697 82.1728 99.7363 82.5062 99.8697 82.7728C100.203 83.5062 100.736 83.9728 101.47 84.1062C101.403 84.1062 101.336 84.0395 101.27 84.0395C100.736 83.7728 100.07 83.2395 100.07 81.9728V81.5728L100.203 81.1062C100.47 80.4395 100.87 79.9728 101.336 79.8395C101.536 79.7062 101.803 79.6395 102.136 79.6395L102.003 79.5728Z" fill="#3D6598"/>
<path d="M112.937 77.4392V86.7725H111.937V77.4392H110.07V76.6392H114.87V77.4392H112.937Z" fill="#3D6599"/>
<path d="M113.337 87.1726H111.537V77.8393H109.67V76.2393H115.27V77.8393H113.337V87.1726ZM112.337 86.3726H112.603V77.0393H114.537V76.9726H110.47V77.0393H112.337V86.3726Z" fill="#3D6598"/>
<path d="M120.268 77.4392V79.9725C120.268 80.5725 120.068 81.0392 119.601 81.3725C119.468 81.4392 119.401 81.5058 119.268 81.5725C119.201 81.5725 119.068 81.6392 118.868 81.7725C118.535 81.9058 118.268 81.9058 118.068 81.9058H117.668L117.335 81.8392L118.735 83.8392L119.268 84.5058L120.001 85.3058L120.268 85.6392L120.735 86.0392L120.001 86.7058C119.735 86.5725 119.401 86.2392 118.868 85.6392C118.201 84.8392 117.535 83.9725 117.001 83.1058L116.401 82.1725L115.601 80.9058L115.401 80.5725L115.001 79.8392L115.801 79.2392L116.601 80.6392C116.801 80.9725 117.135 81.1058 117.735 81.1058C118.201 81.1058 118.601 80.9725 118.735 80.7725C118.801 80.6392 118.935 80.5058 119.001 80.3725L119.068 79.8392V77.3725H113.668V76.5725H121.668V77.3725H120.268V77.4392Z" fill="#3D6599"/>
<path d="M120.202 87.2393L120.002 87.1726C119.669 87.0393 119.269 86.706 118.735 85.9726C118.069 85.1726 117.402 84.306 116.802 83.3726L116.202 82.4393L115.402 81.106L115.202 80.706L114.602 79.706L116.069 78.6393L117.069 80.3726C117.202 80.5726 117.469 80.706 117.869 80.706C118.202 80.706 118.469 80.6393 118.602 80.506C118.669 80.4393 118.735 80.3726 118.802 80.2393L118.869 79.7726V77.706H113.469V76.106H122.269V77.706H120.669V79.8393C120.669 80.506 120.402 81.106 119.869 81.5726C119.735 81.706 119.602 81.7726 119.469 81.8393C119.469 81.8393 119.335 81.906 119.069 82.0393H119.002C118.669 82.1726 118.402 82.1726 118.202 82.1726L119.135 83.506L119.669 84.1726L120.335 84.906L120.669 85.306L121.402 85.9726L120.202 87.2393ZM115.669 80.0393L116.069 80.8393L116.869 82.106L117.469 82.9726C118.002 83.8393 118.669 84.6393 119.335 85.506C119.735 85.9726 119.935 86.1726 120.135 86.306L120.335 86.106L120.202 85.9726L119.869 85.5726L119.135 84.8393L118.535 84.106L116.469 81.1726L116.669 81.2393C116.535 81.1726 116.469 81.0393 116.402 80.906L115.802 79.906L115.669 80.0393ZM114.202 77.0393H119.602V79.9726L119.469 80.5726C119.402 80.7726 119.269 80.9726 119.135 81.106C119.002 81.2393 118.802 81.3726 118.535 81.4393C118.602 81.4393 118.669 81.4393 118.735 81.3726C118.935 81.306 119.002 81.2393 119.069 81.2393C119.202 81.1726 119.269 81.106 119.335 81.0393C119.669 80.7726 119.869 80.3726 119.869 79.906V76.9726H121.469V76.906L114.202 77.0393Z" fill="#3D6598"/>
</svg>
