<svg width="12" height="13" viewBox="0 0 12 13" fill="none" xmlns="http://www.w3.org/2000/svg">
<mask id="mask0_1_6768" style="mask-type:alpha" maskUnits="userSpaceOnUse" x="0" y="0" width="12" height="13">
<rect y="0.5" width="12" height="12" fill="#D9D9D9"/>
</mask>
<g mask="url(#mask0_1_6768)">
<path d="M2.5 11C2.225 11 1.98958 10.9021 1.79375 10.7063C1.59792 10.5104 1.5 10.275 1.5 10V3C1.5 2.725 1.59792 2.48958 1.79375 2.29375C1.98958 2.09792 2.225 2 2.5 2H6V3H2.5V10H9.5V6.5H10.5V10C10.5 10.275 10.4021 10.5104 10.2063 10.7063C10.0104 10.9021 9.775 11 9.5 11H2.5ZM4.85 8.35L4.15 7.65L8.8 3H7V2H10.5V5.5H9.5V3.7L4.85 8.35Z" fill="#FAEFFF"/>
</g>
</svg>
