<svg width="31" height="31" viewBox="0 0 31 31" fill="none" xmlns="http://www.w3.org/2000/svg">
<path d="M9.75775 5.19514C9.75775 4.2692 9.0071 3.51855 8.08116 3.51855H2.42659C1.50065 3.51855 0.75 4.26914 0.75 5.19514V27.6568C0.75 29.0288 1.86223 30.141 3.23417 30.141H23.776C24.8836 30.141 25.7815 29.243 25.7815 28.1354V8.87732C25.7815 7.76967 24.8836 6.87173 23.776 6.87173H11.4343C10.5083 6.87173 9.75775 6.12108 9.75775 5.19514Z" fill="url(#paint0_linear_284_5234)"/>
<path d="M25.7815 28.1355V14.4767H0.75V27.6567C0.75 29.0288 1.86223 30.141 3.23417 30.141H23.776C24.8837 30.141 25.7815 29.2431 25.7815 28.1355Z" fill="url(#paint1_linear_284_5234)"/>
<path d="M23.7771 6.8717H20.8145V30.1409H23.7771C24.8847 30.1409 25.7827 29.243 25.7827 28.1353V8.87729C25.7826 7.76965 24.8847 6.8717 23.7771 6.8717Z" fill="url(#paint2_linear_284_5234)"/>
<path d="M23.7771 6.8717H20.8145V30.1409H23.7771C24.8847 30.1409 25.7827 29.243 25.7827 28.1353V8.87729C25.7826 7.76965 24.8847 6.8717 23.7771 6.8717Z" fill="url(#paint3_linear_284_5234)"/>
<path d="M17.1126 17.937H17.0212H11.8288H11.7373C6.94994 17.937 3.06836 21.8185 3.06836 26.606C3.06836 26.8539 3.16854 27.0783 3.33154 27.2407C3.49383 27.4037 3.7183 27.5038 3.96618 27.5038H6.99818H21.8517H24.8837C25.1316 27.5038 25.3561 27.4037 25.5184 27.2407C25.6814 27.0784 25.7816 26.8539 25.7816 26.606C25.7816 21.8185 21.9 17.937 17.1126 17.937Z" fill="url(#paint4_linear_284_5234)"/>
<path d="M25.7815 26.606C25.7815 25.5299 25.5849 24.4998 25.2264 23.5491H3.62342C3.26501 24.4999 3.06836 25.5299 3.06836 26.606C3.06836 26.8538 3.16854 27.0783 3.33154 27.2406C3.49383 27.4037 3.7183 27.5038 3.96618 27.5038H6.99818H21.8517H24.8837C25.1316 27.5038 25.356 27.4036 25.5183 27.2406C25.6813 27.0783 25.7815 26.8538 25.7815 26.606Z" fill="url(#paint5_linear_284_5234)"/>
<path d="M25.7817 26.6061C25.7817 21.8184 21.9005 17.9371 17.1128 17.9371H11.8291C11.7412 17.9371 11.6536 17.9388 11.5664 17.9414V22.4692L16.6007 27.5035H24.8843C25.3799 27.5035 25.7817 27.1018 25.7817 26.6061Z" fill="url(#paint6_linear_284_5234)"/>
<path d="M14.4248 21.0315L12.4414 27.5036H16.4082L14.4248 21.0315Z" fill="url(#paint7_linear_284_5234)"/>
<path d="M13.1226 22.4347L11.7891 20.7183H17.0608L15.7272 22.4347C15.0669 23.2846 13.7828 23.2846 13.1226 22.4347Z" fill="url(#paint8_linear_284_5234)"/>
<path d="M14.4708 20.8496C15.8569 20.8496 16.9806 19.7259 16.9806 18.3398C16.9806 16.9536 15.8569 15.83 14.4708 15.83C13.0846 15.83 11.9609 16.9536 11.9609 18.3398C11.9609 19.7259 13.0846 20.8496 14.4708 20.8496Z" fill="url(#paint9_linear_284_5234)"/>
<path d="M14.4708 20.8496C15.8569 20.8496 16.9806 19.7259 16.9806 18.3398C16.9806 16.9536 15.8569 15.83 14.4708 15.83C13.0846 15.83 11.9609 16.9536 11.9609 18.3398C11.9609 19.7259 13.0846 20.8496 14.4708 20.8496Z" fill="url(#paint10_linear_284_5234)"/>
<path d="M14.4704 20.8497L10.5102 16.3151L10.2711 16.3969C9.65048 16.6091 9.33671 17.3002 9.58554 17.9072L11.3574 22.2298C11.471 22.5069 11.8095 22.6111 12.0592 22.4457L14.4704 20.8497Z" fill="url(#paint11_linear_284_5234)"/>
<path d="M14.4688 20.8497L18.4289 16.3151L18.668 16.3969C19.2886 16.6091 19.6024 17.3002 19.3536 17.9072L17.5817 22.2298C17.4681 22.5069 17.1296 22.6111 16.8799 22.4457L14.4688 20.8497Z" fill="url(#paint12_linear_284_5234)"/>
<path d="M5.38672 10.8925C5.38672 9.71025 6.20742 8.71966 7.31019 8.45937C7.60495 8.38978 7.88671 8.61772 7.88671 8.9206V12.8645C7.88671 13.1674 7.60495 13.3953 7.31019 13.3257C6.20742 13.0654 5.38672 12.0748 5.38672 10.8925Z" fill="url(#paint13_linear_284_5234)"/>
<path d="M23.4628 10.8925C23.4628 9.71019 22.6421 8.7196 21.5394 8.4593C21.2447 8.38972 20.9629 8.61766 20.9629 8.92054V12.8644C20.9629 13.1673 21.2447 13.3952 21.5394 13.3257C22.6422 13.0654 23.4628 12.0748 23.4628 10.8925Z" fill="url(#paint14_linear_284_5234)"/>
<path d="M23.4628 10.8925C23.4628 9.71019 22.6421 8.7196 21.5394 8.4593C21.2447 8.38972 20.9629 8.61766 20.9629 8.92054V12.8644C20.9629 13.1673 21.2447 13.3952 21.5394 13.3257C22.6422 13.0654 23.4628 12.0748 23.4628 10.8925Z" fill="url(#paint15_linear_284_5234)"/>
<path d="M14.4248 20.102C10.431 20.102 7.19336 16.8643 7.19336 12.8705V9.16201C7.19336 5.16819 10.431 1.93054 14.4248 1.93054C18.4186 1.93054 21.6563 5.16819 21.6563 9.16201V12.8705C21.6563 16.8643 18.4186 20.102 14.4248 20.102Z" fill="url(#paint16_linear_284_5234)"/>
<path d="M23.9892 7.49392C23.9892 8.9018 23.5963 9.82274 23.0561 10.4236C22.037 11.5569 20.182 11.1539 19.6424 9.72851C19.0079 8.05239 17.5091 6.8748 15.7617 6.8748C15.7135 6.8748 15.6654 6.87556 15.6172 6.87786C15.8901 4.60521 17.6521 2.85162 19.7848 2.85162C22.1071 2.85156 23.9892 4.93004 23.9892 7.49392Z" fill="url(#paint17_linear_284_5234)"/>
<path d="M21.3421 3.63987C21.2742 2.69616 20.7645 1.83328 19.9785 1.3064C19.0275 0.668812 17.4 0.14093 14.6184 0.14093C12.8425 0.14093 11.5372 0.356107 10.5779 0.677636C9.92884 0.895165 9.2739 1.09575 8.60749 1.25234C6.45549 1.75799 4.85938 3.61087 4.85938 5.81963C4.85938 8.41769 7.06743 10.5238 9.79125 10.5238C11.7947 10.5238 15.2547 6.92946 18.3373 6.92946C18.7201 6.92946 19.0256 6.59546 19.3755 6.4401C20.1389 6.10116 21.4598 5.27405 21.3421 3.63987Z" fill="url(#paint18_linear_284_5234)"/>
<path d="M27.5046 27.5957C27.1938 29.0788 25.886 30.141 24.3706 30.141H3.23242C4.63848 30.141 5.85201 29.1554 6.14036 27.7792L9.44053 12.0296C9.62853 11.1325 10.4196 10.4899 11.3362 10.4899H29.2723C30.2089 10.4899 30.9084 11.3512 30.7163 12.2679L27.5046 27.5957Z" fill="url(#paint19_linear_284_5234)"/>
<path d="M27.5046 27.5957C27.1938 29.0788 25.886 30.141 24.3706 30.141H3.23242C4.63848 30.141 5.85201 29.1554 6.14036 27.7792L9.44053 12.0296C9.62853 11.1325 10.4196 10.4899 11.3362 10.4899H29.2723C30.2089 10.4899 30.9084 11.3512 30.7163 12.2679L27.5046 27.5957Z" fill="url(#paint20_linear_284_5234)"/>
<path d="M30.7169 12.268L27.5051 27.5956C27.194 29.0786 25.8863 30.1409 24.371 30.1409H21.5898L25.7069 10.4897H29.2728C30.2092 10.4897 30.9087 11.3509 30.7169 12.268Z" fill="url(#paint21_linear_284_5234)"/>
<path d="M25.7804 28.1355V10.4899H14.043V30.141H23.7749C24.8825 30.141 25.7804 29.2431 25.7804 28.1355Z" fill="url(#paint22_linear_284_5234)"/>
<path d="M25.781 26.6062C25.781 26.8539 25.6804 27.078 25.5174 27.2404C25.3551 27.4039 25.131 27.5039 24.8827 27.5039H6.19922L8.0298 18.768C8.51451 18.5386 9.02392 18.3521 9.55333 18.2145C10.8386 19.3868 12.548 20.1015 14.4239 20.1015C16.3004 20.1015 18.0104 19.3868 19.2951 18.2145C23.0257 19.1821 25.781 22.5727 25.781 26.6062Z" fill="url(#paint23_linear_284_5234)"/>
<path d="M14.4694 20.8499L12.0582 22.4458C11.8088 22.6111 11.47 22.507 11.3565 22.2299L9.79883 18.4293C10.9006 19.347 12.2794 19.9434 13.7918 20.074L14.4694 20.8499Z" fill="url(#paint24_linear_284_5234)"/>
<path d="M19.1907 18.3093L17.5836 22.2299C17.4701 22.507 17.1313 22.6111 16.8819 22.4458L14.4707 20.8499L15.156 20.0652C16.6942 19.9105 18.0907 19.274 19.1907 18.3093Z" fill="url(#paint25_linear_284_5234)"/>
<path d="M16.4079 27.5034H12.4414L13.8326 22.9628C14.2126 23.1081 14.6361 23.1087 15.0161 22.9634L16.4079 27.5034Z" fill="url(#paint26_linear_284_5234)"/>
<path d="M16.1115 21.9374L15.725 22.4344C15.065 23.2844 13.7809 23.2844 13.1209 22.4344L12.7656 21.9768L14.4686 20.8497L16.1115 21.9374Z" fill="url(#paint27_linear_284_5234)"/>
<path d="M11.3367 10.4899C10.4201 10.4899 9.62898 11.1325 9.44098 12.0296L8.41992 16.9025C9.71851 18.8322 11.9227 20.1019 14.4237 20.1019C18.4175 20.1019 21.6551 16.8642 21.6551 12.8704V10.4899H11.3367Z" fill="url(#paint28_linear_284_5234)"/>
<path d="M23.4614 10.8927C23.4614 12.0374 22.692 13.0021 21.6426 13.2986C21.6508 13.1568 21.6549 13.0145 21.6549 12.8703V10.4897H23.4285C23.4496 10.6209 23.4614 10.7556 23.4614 10.8927Z" fill="url(#paint29_linear_284_5234)"/>
<path d="M22.9918 10.4899H20.1406C20.9086 11.2353 22.1834 11.3127 22.9918 10.4899Z" fill="url(#paint30_linear_284_5234)"/>
<path d="M27.5046 27.5957L29.477 18.1824H8.1513L6.14042 27.7792C5.85201 29.1554 4.63848 30.141 3.23242 30.141H24.3706C25.8859 30.141 27.1938 29.0788 27.5046 27.5957Z" fill="url(#paint31_linear_284_5234)"/>
<path d="M29.4761 18.1823L30.7154 12.2678C30.9074 11.3513 30.208 10.49 29.2717 10.4899H11.335C10.4185 10.4901 9.62756 11.1325 9.43962 12.0296L8.15039 18.1824L29.4761 18.1823Z" fill="url(#paint32_linear_284_5234)"/>
<defs>
<linearGradient id="paint0_linear_284_5234" x1="2.99729" y1="8.09767" x2="19.7688" y2="24.8691" gradientUnits="userSpaceOnUse">
<stop stop-color="#FEE45A"/>
<stop offset="1" stop-color="#FEA613"/>
</linearGradient>
<linearGradient id="paint1_linear_284_5234" x1="13.2658" y1="19.4148" x2="13.2658" y2="30.4096" gradientUnits="userSpaceOnUse">
<stop stop-color="#FEA613" stop-opacity="0"/>
<stop offset="1" stop-color="#E94444"/>
</linearGradient>
<linearGradient id="paint2_linear_284_5234" x1="23.3709" y1="18.5064" x2="26.5669" y2="18.5064" gradientUnits="userSpaceOnUse">
<stop stop-color="#FEA613" stop-opacity="0"/>
<stop offset="1" stop-color="#E94444"/>
</linearGradient>
<linearGradient id="paint3_linear_284_5234" x1="26.1954" y1="18.5063" x2="23.1749" y2="18.5063" gradientUnits="userSpaceOnUse">
<stop stop-color="#FEA613" stop-opacity="0"/>
<stop offset="1" stop-color="#E94444"/>
</linearGradient>
<linearGradient id="paint4_linear_284_5234" x1="12.1517" y1="20.3355" x2="16.2851" y2="30.3288" gradientUnits="userSpaceOnUse">
<stop stop-color="#EAF9FA"/>
<stop offset="1" stop-color="#B3DAFE"/>
</linearGradient>
<linearGradient id="paint5_linear_284_5234" x1="14.4249" y1="25.7064" x2="14.4249" y2="27.9756" gradientUnits="userSpaceOnUse">
<stop stop-color="#7BACDF" stop-opacity="0"/>
<stop offset="1" stop-color="#7BACDF"/>
</linearGradient>
<linearGradient id="paint6_linear_284_5234" x1="18.9863" y1="24.4095" x2="16.6549" y2="18.8421" gradientUnits="userSpaceOnUse">
<stop stop-color="#7BACDF" stop-opacity="0"/>
<stop offset="1" stop-color="#7BACDF"/>
</linearGradient>
<linearGradient id="paint7_linear_284_5234" x1="13.1091" y1="24.1416" x2="15.2268" y2="24.9651" gradientUnits="userSpaceOnUse">
<stop stop-color="#B3DAFE"/>
<stop offset="1" stop-color="#0182FC"/>
</linearGradient>
<linearGradient id="paint8_linear_284_5234" x1="14.498" y1="20.8247" x2="15.3592" y2="22.0773" gradientUnits="userSpaceOnUse">
<stop stop-color="#B3DAFE"/>
<stop offset="1" stop-color="#0182FC"/>
</linearGradient>
<linearGradient id="paint9_linear_284_5234" x1="12.8639" y1="16.733" x2="15.5686" y2="19.4377" gradientUnits="userSpaceOnUse">
<stop stop-color="#FFDFCF"/>
<stop offset="1" stop-color="#FFA78F"/>
</linearGradient>
<linearGradient id="paint10_linear_284_5234" x1="14.4708" y1="20.836" x2="14.4708" y2="16.8524" gradientUnits="userSpaceOnUse">
<stop stop-color="#CA6E59" stop-opacity="0"/>
<stop offset="1" stop-color="#883F2E"/>
</linearGradient>
<linearGradient id="paint11_linear_284_5234" x1="12.2663" y1="18.5535" x2="10.7758" y2="20.9068" gradientUnits="userSpaceOnUse">
<stop stop-color="#EAF9FA"/>
<stop offset="1" stop-color="#B3DAFE"/>
</linearGradient>
<linearGradient id="paint12_linear_284_5234" x1="16.6119" y1="18.5368" x2="18.3377" y2="20.6809" gradientUnits="userSpaceOnUse">
<stop stop-color="#EAF9FA"/>
<stop offset="1" stop-color="#B3DAFE"/>
</linearGradient>
<linearGradient id="paint13_linear_284_5234" x1="6.12236" y1="9.81172" x2="8.13313" y2="11.8225" gradientUnits="userSpaceOnUse">
<stop stop-color="#FFDFCF"/>
<stop offset="1" stop-color="#FFA78F"/>
</linearGradient>
<linearGradient id="paint14_linear_284_5234" x1="20.1835" y1="9.42966" x2="22.9973" y2="12.2434" gradientUnits="userSpaceOnUse">
<stop stop-color="#FFDFCF"/>
<stop offset="1" stop-color="#FFA78F"/>
</linearGradient>
<linearGradient id="paint15_linear_284_5234" x1="22.8036" y1="11.1512" x2="21.1956" y2="10.8478" gradientUnits="userSpaceOnUse">
<stop stop-color="#F89580" stop-opacity="0"/>
<stop offset="0.9972" stop-color="#C5715A"/>
</linearGradient>
<linearGradient id="paint16_linear_284_5234" x1="9.57" y1="7.75254" x2="19.2164" y2="14.2375" gradientUnits="userSpaceOnUse">
<stop stop-color="#FFDFCF"/>
<stop offset="1" stop-color="#FFA78F"/>
</linearGradient>
<linearGradient id="paint17_linear_284_5234" x1="18.7742" y1="5.12739" x2="21.8981" y2="8.25126" gradientUnits="userSpaceOnUse">
<stop stop-color="#5A5A5A"/>
<stop offset="1" stop-color="#444444"/>
</linearGradient>
<linearGradient id="paint18_linear_284_5234" x1="9.99301" y1="2.0374" x2="14.69" y2="6.73427" gradientUnits="userSpaceOnUse">
<stop stop-color="#5A5A5A"/>
<stop offset="1" stop-color="#444444"/>
</linearGradient>
<linearGradient id="paint19_linear_284_5234" x1="13.1859" y1="10.6019" x2="20.2215" y2="29.6859" gradientUnits="userSpaceOnUse">
<stop stop-color="#FEE45A"/>
<stop offset="1" stop-color="#FEA613"/>
</linearGradient>
<linearGradient id="paint20_linear_284_5234" x1="13.1859" y1="10.6019" x2="20.2215" y2="29.6859" gradientUnits="userSpaceOnUse">
<stop stop-color="#FEE45A"/>
<stop offset="1" stop-color="#FEA613"/>
</linearGradient>
<linearGradient id="paint21_linear_284_5234" x1="26.0927" y1="20.4647" x2="30.0927" y2="21.5235" gradientUnits="userSpaceOnUse">
<stop stop-color="#FEA613" stop-opacity="0"/>
<stop offset="1" stop-color="#E94444"/>
</linearGradient>
<linearGradient id="paint22_linear_284_5234" x1="20.3185" y1="19.9607" x2="33.5644" y2="16.2642" gradientUnits="userSpaceOnUse">
<stop stop-color="#FEA613" stop-opacity="0"/>
<stop offset="1" stop-color="#E94444"/>
</linearGradient>
<linearGradient id="paint23_linear_284_5234" x1="14.0087" y1="20.0986" x2="18.5577" y2="34.5299" gradientUnits="userSpaceOnUse">
<stop stop-color="#EAF9FA" stop-opacity="0"/>
<stop offset="1" stop-color="#B3DAFE"/>
</linearGradient>
<linearGradient id="paint24_linear_284_5234" x1="12.1241" y1="19.6049" x2="13.3398" y2="23.801" gradientUnits="userSpaceOnUse">
<stop stop-color="#EAF9FA" stop-opacity="0"/>
<stop offset="1" stop-color="#B3DAFE"/>
</linearGradient>
<linearGradient id="paint25_linear_284_5234" x1="16.7328" y1="19.3035" x2="18.0269" y2="22.9506" gradientUnits="userSpaceOnUse">
<stop stop-color="#EAF9FA" stop-opacity="0"/>
<stop offset="1" stop-color="#B3DAFE"/>
</linearGradient>
<linearGradient id="paint26_linear_284_5234" x1="12.7246" y1="23.9581" x2="16.7541" y2="29.0757" gradientUnits="userSpaceOnUse">
<stop stop-color="#B3DAFE" stop-opacity="0"/>
<stop offset="1" stop-color="#0182FC"/>
</linearGradient>
<linearGradient id="paint27_linear_284_5234" x1="13.8593" y1="20.7356" x2="15.2122" y2="23.5885" gradientUnits="userSpaceOnUse">
<stop stop-color="#B3DAFE" stop-opacity="0"/>
<stop offset="1" stop-color="#0182FC"/>
</linearGradient>
<linearGradient id="paint28_linear_284_5234" x1="14.116" y1="12" x2="20.2039" y2="23.2053" gradientUnits="userSpaceOnUse">
<stop stop-color="#F89580" stop-opacity="0"/>
<stop offset="0.9972" stop-color="#C5715A"/>
</linearGradient>
<linearGradient id="paint29_linear_284_5234" x1="22.0318" y1="10.5686" x2="23.522" y2="14.4902" gradientUnits="userSpaceOnUse">
<stop stop-color="#F89580" stop-opacity="0"/>
<stop offset="0.9972" stop-color="#C5715A"/>
</linearGradient>
<linearGradient id="paint30_linear_284_5234" x1="21.3003" y1="9.81628" x2="22.1827" y2="12.0516" gradientUnits="userSpaceOnUse">
<stop stop-color="#5A5A5A" stop-opacity="0"/>
<stop offset="1" stop-color="#444444"/>
</linearGradient>
<linearGradient id="paint31_linear_284_5234" x1="16.3547" y1="25.5701" x2="16.3547" y2="31.248" gradientUnits="userSpaceOnUse">
<stop stop-color="#FEA613" stop-opacity="0"/>
<stop offset="1" stop-color="#E94444"/>
</linearGradient>
<linearGradient id="paint32_linear_284_5234" x1="19.3345" y1="14.3645" x2="18.2757" y2="8.40375" gradientUnits="userSpaceOnUse">
<stop stop-color="white" stop-opacity="0"/>
<stop offset="1" stop-color="white"/>
</linearGradient>
</defs>
</svg>
