<svg width="140" height="80" viewBox="0 0 140 80" fill="none" xmlns="http://www.w3.org/2000/svg">
<path d="M53.6919 37.5845L57.5506 50.1758H82.7838L87.6579 37.7876C88.3687 36.0106 87.0486 34.0305 85.1193 34.0305H56.2813C54.4535 34.0813 53.1335 35.8583 53.6919 37.5845Z" fill="#E48425"/>
<path d="M26.6304 34.0813H11.5005C9.41891 34.0813 7.99732 36.2645 8.9112 38.143L14.5468 50.1758H35.3122L26.6304 34.0813Z" fill="#E48425"/>
<path d="M114.067 34.0808H130.974C133.157 34.0808 134.629 36.4163 133.614 38.3964L127.521 50.226H105.639L114.067 34.0808Z" fill="#E48425"/>
<path d="M70.4381 27.7854C74.1675 27.7854 77.1907 24.7622 77.1907 21.0328C77.1907 17.3035 74.1675 14.2803 70.4381 14.2803C66.7088 14.2803 63.6855 17.3035 63.6855 21.0328C63.6855 24.7622 66.7088 27.7854 70.4381 27.7854Z" fill="#1D1D1D"/>
<path d="M46.0243 21.9978C49.1087 21.9978 51.6091 19.4974 51.6091 16.413C51.6091 13.3285 49.1087 10.8281 46.0243 10.8281C42.9399 10.8281 40.4395 13.3285 40.4395 16.413C40.4395 19.4974 42.9399 21.9978 46.0243 21.9978Z" fill="#ED2224"/>
<path d="M18.2469 30.1699C21.3314 30.1699 23.8318 27.6695 23.8318 24.5851C23.8318 21.5007 21.3314 19.0002 18.2469 19.0002C15.1625 19.0002 12.6621 21.5007 12.6621 24.5851C12.6621 27.6695 15.1625 30.1699 18.2469 30.1699Z" fill="#ED2224"/>
<path d="M95.2645 21.9978C98.3489 21.9978 100.849 19.4974 100.849 16.413C100.849 13.3285 98.3489 10.8281 95.2645 10.8281C92.1801 10.8281 89.6797 13.3285 89.6797 16.413C89.6797 19.4974 92.1801 21.9978 95.2645 21.9978Z" fill="#ED2224"/>
<path d="M122.741 29.6135C125.826 29.6135 128.326 27.1131 128.326 24.0287C128.326 20.9443 125.826 18.4438 122.741 18.4438C119.657 18.4438 117.156 20.9443 117.156 24.0287C117.156 27.1131 119.657 29.6135 122.741 29.6135Z" fill="#ED2224"/>
<path d="M41.3474 50.1758L30.6347 30.4258C29.6193 28.4965 30.9901 26.161 33.1225 26.161L108.518 25.6533C110.65 25.6533 112.021 27.8365 111.158 29.7658L101.613 50.1758H87.4476L91.9155 39.8693C91.9155 39.8693 93.9971 30.2227 86.4322 29.1058L55.1572 28.9534C55.1572 28.9534 47.2876 30.2227 48.4046 38.4984L53.5833 50.125H41.3474V50.1758Z" fill="#E48425"/>
<path d="M35.3597 60.3299V70.738H34.1919V66.3717L33.7858 66.6763L33.4811 66.8794C32.9734 67.2348 32.4149 67.3871 31.8057 67.3871C30.5364 67.3871 29.5718 66.7778 28.9625 65.5085C28.8102 65.0516 28.7594 64.6962 28.7594 64.3408V60.2791H27.0332V59.3652H37.1367V60.2791L35.3597 60.3299ZM34.1919 60.3299H29.9272V64.5439C29.9272 65.3562 30.3333 66.0163 31.1457 66.4732L31.8057 66.5747C32.2626 66.5747 32.6688 66.4224 33.1257 66.1686L33.5319 65.8639L33.8365 65.5593L34.1919 65.1024V60.3299Z" fill="#ED1C24" stroke="#ED1C24" stroke-width="0.409278" stroke-miterlimit="10"/>
<path d="M34.75 56.9284V55.5068H36.2731V56.9284H34.75Z" fill="#ED1C24" stroke="#ED1C24" stroke-width="0.409278" stroke-miterlimit="10"/>
<path d="M47.3417 60.3299V70.738H46.1739V66.3717L45.8185 66.8286L45.0062 67.4886C44.7016 67.7425 44.2954 67.9456 43.6862 68.1994C43.2292 68.3518 42.823 68.4533 42.4676 68.4533C41.7568 68.4533 41.1476 68.2502 40.6399 67.7933C40.4368 67.5902 40.2337 67.3363 40.0814 67.0317C39.9291 66.7271 39.8783 66.3717 39.8783 66.0163C39.8783 65.2547 40.2337 64.4931 40.9953 63.7316C41.1476 63.5793 41.3507 63.4269 41.5538 63.2746H37.949V62.3608H44.6508V63.2746H43.1784L42.5692 63.7316L42.1122 64.087C41.4014 64.6962 41.046 65.3055 41.046 65.9655C41.046 66.6763 41.3507 67.184 41.9092 67.4379L42.5184 67.5394C43.3815 67.5394 44.2446 67.1332 45.1077 66.3209L45.5647 65.864C45.9709 65.4578 46.1739 65.1532 46.1739 64.9501V60.3807H36.8828V59.4668H48.8648V60.3807L47.3417 60.3299Z" fill="#ED1C24" stroke="#ED1C24" stroke-width="0.409278" stroke-miterlimit="10"/>
<path d="M51.8548 60.3301V70.7382H50.6871V60.3301H48.5547V59.4163H53.9872V60.3301H51.8548Z" fill="#ED1C24" stroke="#ED1C24" stroke-width="0.409278" stroke-miterlimit="10"/>
<path d="M63.0294 60.3299V70.738H61.8616V67.3363C61.1 67.9963 60.1862 68.301 59.1707 68.301C58.003 68.301 57.0383 67.9456 56.2768 67.2348C55.4137 66.4224 54.9567 65.4578 54.9567 64.2393L55.109 64.29L55.3121 64.3408C55.4137 64.3408 55.4644 64.3408 55.5152 64.3408H55.7183C56.226 64.3408 56.6829 64.1885 57.0891 63.8839C57.4445 63.5792 57.6476 63.0715 57.6476 62.4623C57.6476 62.0561 57.4445 61.5484 57.0891 60.9391L56.5306 60.2283H53.4336V59.3145H64.5525V60.2283H63.0294V60.3299ZM61.8616 60.3299H58.003L58.2569 60.7868L58.4092 61.0914L58.7646 61.9546L58.8661 62.6146C58.8661 63.5792 58.4599 64.3408 57.5968 64.8485L57.0383 65.0516L56.2768 65.2547L56.3276 65.4578L56.4291 65.6101L56.4799 65.7624L56.5306 65.9147C57.0383 66.9809 57.8507 67.4886 58.9677 67.4886C59.5769 67.4886 60.1354 67.3363 60.5923 66.9809C60.8462 66.8286 61.1 66.6255 61.3031 66.3716L61.8108 65.7116V60.3299H61.8616Z" fill="#ED1C24" stroke="#ED1C24" stroke-width="0.409278" stroke-miterlimit="10"/>
<path d="M64.5469 60.3301V59.4163H70.6394V60.3301H64.5469ZM68.2532 63.6303C67.9993 63.6303 67.7455 63.681 67.5931 63.7318C67.1362 63.8334 66.8823 64.1888 66.8823 64.8488C66.8823 65.3565 67.0347 65.915 67.2885 66.575C67.5424 67.235 67.9485 67.7935 68.4055 68.352L69.4209 69.5197C69.624 69.7228 69.8271 69.8244 69.9794 69.8751L69.2178 70.5859L68.2024 69.672L67.4916 68.9105L66.7808 67.9458C66.1208 66.9304 65.8162 65.9657 65.8162 65.0519C65.8162 64.4934 65.9685 63.9857 66.2731 63.5287C66.5777 63.0718 67.0347 62.8687 67.6439 62.8687H72.6195V63.681L68.2532 63.6303Z" fill="#ED1C24" stroke="#ED1C24" stroke-width="0.409278" stroke-miterlimit="10"/>
<path d="M73.6927 60.3299V70.738H72.525V60.3299H70.3926V59.416H75.8251V60.3299H73.6927Z" fill="#ED1C24" stroke="#ED1C24" stroke-width="0.409278" stroke-miterlimit="10"/>
<path d="M78.4125 60.3299V70.738H77.2448V60.3299H75.3155V59.416H76.991V59.3145C76.991 58.9591 76.3817 58.096 75.214 56.7252C74.5032 55.9128 73.8939 55.5066 73.3354 55.5066C72.8785 55.5066 72.4723 55.7097 72.2185 56.0651C72.0661 56.2682 71.9646 56.5728 71.8631 56.979V57.3852C71.8631 57.5883 71.9138 57.7406 71.9646 57.8929C72.0154 58.0452 72.0661 58.1975 72.1169 58.2991C72.1677 58.4006 72.2185 58.5021 72.2185 58.6037L72.5231 59.1622L72.6754 59.3653H71.3553L71.1015 59.0099L70.8984 58.5529L70.7461 58.0452V57.5375C70.7461 57.3344 70.7461 57.1821 70.7461 57.0298C70.7461 56.9282 70.7969 56.7252 70.8984 56.4205C71.3046 55.1512 72.1169 54.542 73.3354 54.542C73.8431 54.542 74.4016 54.7451 74.9601 55.1512C75.6709 55.6082 76.2294 56.2174 76.6863 56.9282L77.3463 57.8929L78.1587 59.2637H80.2403V60.1776H78.4125V60.3299Z" fill="#ED1C24" stroke="#ED1C24" stroke-width="0.409278" stroke-miterlimit="10"/>
<path d="M95.1685 60.3301V63.1733C95.1685 64.138 94.6608 64.798 93.6961 65.1534C93.3915 65.2549 93.0869 65.3057 92.833 65.3057H92.4269C92.2238 65.255 92.0715 65.255 92.0207 65.2042L93.5946 67.4889L94.2039 68.2505L95.3716 69.5197L95.8793 70.0274L95.067 70.789C94.8639 70.7382 94.4577 70.3321 93.8485 69.6213C93.1377 68.8089 92.4269 67.8443 91.7161 66.7781L91.056 65.7627L90.396 64.6965L89.9391 63.8841L89.4821 63.0718L90.396 62.4118L91.3099 63.9349C91.5638 64.2903 91.9699 64.4934 92.5792 64.4934C93.0869 64.4934 93.4423 64.3918 93.6454 64.1888C93.8485 63.9857 94.0515 63.6303 94.1023 63.0718V60.3301H88.0605V59.4163H97.047V60.3301H95.1685Z" fill="#ED1C24" stroke="#ED1C24" stroke-width="0.409278" stroke-miterlimit="10"/>
<path d="M99.6868 60.3301V70.7382H98.5191V60.3301H96.3867V59.4163H101.819V60.3301H99.6868Z" fill="#ED1C24" stroke="#ED1C24" stroke-width="0.409278" stroke-miterlimit="10"/>
<path d="M101.305 60.3301V59.4163H110.291V60.3301H101.305ZM109.123 63.7318L109.428 64.0872L109.834 64.798L110.037 65.4073L110.139 65.8642C110.139 66.6258 109.936 67.235 109.53 67.7427C109.022 68.352 108.362 68.6059 107.55 68.6059C106.585 68.6059 105.671 68.0981 104.808 67.1335C104.706 66.9812 104.554 66.8289 104.351 66.575C104.249 66.4227 104.097 66.1688 103.894 65.915C103.64 65.5088 103.386 65.0011 103.132 64.3918L102.676 63.3256L102.574 62.9195L103.539 62.1579C103.488 62.2087 103.488 62.2594 103.488 62.361C103.488 62.5133 103.539 62.7164 103.691 63.021L104.554 64.9503C105.366 66.8289 106.433 67.7427 107.6 67.7427C108.21 67.7427 108.616 67.3873 108.87 66.6765L109.022 65.915C109.022 65.5088 108.87 65.0519 108.514 64.4426C108.26 63.9349 107.956 63.5287 107.6 63.1226L107.296 62.7672H112.271V63.6303H109.123V63.7318Z" fill="#ED1C24" stroke="#ED1C24" stroke-width="0.409278" stroke-miterlimit="10"/>
<path d="M113.345 60.3299V70.738H112.177V60.3299H110.045V59.416H115.477V60.3299H113.345Z" fill="#ED1C24" stroke="#ED1C24" stroke-width="0.409278" stroke-miterlimit="10"/>
</svg>
