<svg width="39" height="43" viewBox="0 0 39 43" fill="none" xmlns="http://www.w3.org/2000/svg">
<rect y="0.140869" width="38.3906" height="42" rx="6.5625" fill="#E8E9F2"/>
<path fill-rule="evenodd" clip-rule="evenodd" d="M31.8281 14.8245V31.969C31.8281 32.9263 31.4479 33.8443 30.771 34.5212C30.0941 35.1981 29.176 35.5784 28.2188 35.5784H26.4141V33.7737H28.2188C28.6974 33.7737 29.1564 33.5835 29.4949 33.2451C29.8333 32.9067 30.0234 32.4476 30.0234 31.969V14.8245H26.4141C25.6961 14.8245 25.0076 14.5393 24.4999 14.0316C23.9922 13.5239 23.707 12.8354 23.707 12.1174V8.50806H13.7812C13.3026 8.50806 12.8436 8.69819 12.5051 9.03664C12.1667 9.37508 11.9766 9.83411 11.9766 10.3127V26.5549H10.1719V10.3127C10.1719 9.35548 10.5521 8.43742 11.229 7.76053C11.9059 7.08364 12.824 6.70337 13.7812 6.70337H23.707L31.8281 14.8245ZM9.45 28.0889H6.5625V35.3059H7.99001V32.884H9.43917C9.95652 32.884 10.3969 32.7799 10.7602 32.5718C11.1272 32.3612 11.4057 32.0761 11.5958 31.7163C11.7939 31.34 11.8938 30.9198 11.8863 30.4946C11.8863 30.0434 11.7913 29.6361 11.6012 29.2728C11.4108 28.9136 11.1231 28.6153 10.771 28.412C10.4101 28.1954 9.96975 28.0877 9.45 28.0889ZM10.4336 30.4946C10.4397 30.7323 10.387 30.9679 10.2802 31.1803C10.1844 31.3655 10.0346 31.5172 9.85064 31.6153C9.64041 31.7188 9.40814 31.7696 9.17388 31.7633H7.98459V29.2259H9.17569C9.56911 29.2259 9.87711 29.3348 10.0997 29.5525C10.3223 29.7727 10.4336 30.0867 10.4336 30.4946ZM12.6299 28.0889V35.3059H15.2647C15.989 35.3059 16.5893 35.1633 17.0658 34.8782C17.5479 34.5897 17.9244 34.1537 18.1396 33.6347C18.3754 33.0933 18.4933 32.4412 18.4933 31.6784C18.4933 30.9205 18.3754 30.2738 18.1396 29.7384C17.9265 29.2256 17.5537 28.7953 17.0766 28.5112C16.6002 28.2297 15.9956 28.0889 15.2629 28.0889H12.6299ZM14.0574 29.2529H15.0734C15.5198 29.2529 15.8861 29.3444 16.1725 29.5273C16.4694 29.723 16.6938 30.0109 16.8113 30.3466C16.9533 30.7099 17.0243 31.1629 17.0243 31.7055C17.0299 32.0655 16.9886 32.4246 16.9016 32.7739C16.8393 33.0501 16.7187 33.3097 16.5478 33.5355C16.3908 33.7378 16.1828 33.8948 15.9451 33.9902C15.6665 34.0944 15.3707 34.1446 15.0734 34.1382H14.0574V29.2529ZM20.8123 32.4346V35.3059H19.3866V28.0889H23.985V29.2674H20.8123V31.2832H23.7106V32.4346H20.8123Z" fill="#1A237E"/>
<path d="M15.6299 24.5835C15.4079 24.4756 15.2292 24.2644 15.1325 23.9954C14.911 23.4521 14.9849 22.9088 15.2233 22.4523C15.4482 22.0225 15.8207 21.657 16.242 21.3504C16.7757 20.9773 17.3398 20.6746 17.9249 20.4472C18.3786 19.4394 18.7814 18.3979 19.131 17.3289C18.9226 16.7446 18.7591 16.1375 18.6426 15.5156C18.545 14.9555 18.5075 14.401 18.5904 13.9249C18.6756 13.4293 18.9016 12.984 19.3286 12.7726C19.5466 12.6647 19.7828 12.6045 20.0122 12.6647C20.1276 12.695 20.2361 12.7566 20.3297 12.845C20.4234 12.9334 20.5 13.0464 20.5539 13.1758C20.6538 13.4055 20.6901 13.6743 20.6981 13.9291C20.706 14.1924 20.6845 14.4836 20.6447 14.7889C20.5493 15.503 20.3381 16.3767 20.0542 17.3009C20.3678 18.1269 20.7402 18.9169 21.1671 19.6617C21.6726 19.613 22.1809 19.6365 22.682 19.7317C23.0954 19.8241 23.5155 20.0047 23.7722 20.3828C23.9085 20.5844 23.9914 20.8309 23.9993 21.1081C24.0073 21.377 23.9459 21.643 23.8426 21.8964C23.7531 22.1313 23.6143 22.3324 23.4406 22.4789C23.2688 22.6167 23.0661 22.6843 22.8614 22.6722C22.4855 22.6526 22.1187 22.3977 21.8019 22.0883C21.4166 21.6956 21.0694 21.2492 20.7674 20.7581C19.9995 20.8659 19.2406 21.0561 18.4996 21.3265C18.1602 22.0686 17.7729 22.7757 17.3412 23.4409C17.0096 23.931 16.6497 24.3594 16.2885 24.5429C16.0809 24.6577 15.8458 24.6721 15.6299 24.5835ZM17.1959 21.9216C17.0066 22.029 16.8329 22.1401 16.6746 22.2549C16.3022 22.5265 16.0603 22.7912 15.9399 23.0208C15.8332 23.2239 15.8309 23.3709 15.8945 23.5263C15.9066 23.5562 15.9164 23.5767 15.924 23.5879L15.9637 23.5711C16.1193 23.4927 16.3669 23.2421 16.6849 22.7702C16.8659 22.4974 17.0365 22.2142 17.1959 21.9216ZM19.0583 20.0593C19.4376 19.9506 19.8202 19.8605 20.2052 19.7891C19.9988 19.3987 19.8055 18.9979 19.6261 18.5877C19.4479 19.0842 19.2585 19.5744 19.0583 20.0579V20.0593ZM21.836 20.6894C22.0071 20.9181 22.1717 21.1095 22.33 21.2635C22.6025 21.5296 22.7922 21.6178 22.8955 21.622C22.9232 21.6273 22.9515 21.6199 22.975 21.601C23.0225 21.5553 23.0593 21.4949 23.0817 21.426C23.1219 21.3406 23.1449 21.2445 23.1487 21.1459C23.1476 21.1132 23.1371 21.0819 23.1192 21.0577C23.0602 20.9709 22.8921 20.8449 22.531 20.7651C22.3012 20.7184 22.0688 20.6936 21.836 20.6908V20.6894ZM19.5761 15.7802C19.6708 15.3998 19.7467 15.0126 19.8032 14.6209C19.8381 14.3576 19.8524 14.1406 19.8464 13.9698C19.847 13.8755 19.8347 13.7818 19.8101 13.6925C19.7532 13.7008 19.6977 13.7197 19.6454 13.7485C19.5466 13.7975 19.466 13.8969 19.4228 14.1448C19.3774 14.4136 19.3887 14.8015 19.475 15.2958C19.5023 15.4517 19.5364 15.6132 19.5773 15.7802H19.5761Z" fill="#1A237E"/>
</svg>
