<svg width="39" height="34" viewBox="0 0 39 34" fill="none" xmlns="http://www.w3.org/2000/svg">
<g clip-path="url(#clip0_284_3410)" filter="url(#filter0_d_284_3410)">
<path d="M34.7491 17.8491L34.7498 17.8491V17.2601L4.75 14.5783V15.1868L4.75041 15.1869C4.74912 15.2879 4.82207 15.3948 4.96639 15.4782L21.5607 25.0589C21.8223 25.2099 22.218 25.2263 22.4445 25.0955L34.597 18.0793C34.7032 18.0179 34.7526 17.9352 34.7491 17.8491Z" fill="url(#paint0_linear_284_3410)"/>
<path d="M17.0554 7.34702L4.90297 14.3633C4.67638 14.494 4.7048 14.7226 4.96642 14.8736L21.5607 24.4543C21.8223 24.6054 22.2181 24.6218 22.4446 24.491L34.5971 17.4747C34.8237 17.3439 34.7953 17.1154 34.5336 16.9644L17.9394 7.38364C17.6778 7.23264 17.282 7.21624 17.0554 7.34702Z" fill="url(#paint1_linear_284_3410)"/>
<path d="M14.8798 10.2392L9.9868 13.0642C9.73438 13.2099 9.76608 13.4644 10.0575 13.6327C10.349 13.801 10.7898 13.8193 11.0422 13.6736L15.9352 10.8486C16.1877 10.7029 16.156 10.4483 15.8645 10.28C15.5731 10.1117 15.1322 10.0935 14.8798 10.2392Z" fill="#B5B9C3"/>
<path d="M20.1375 10.8777L14.4223 14.1773C14.1699 14.323 14.2016 14.5776 14.4931 14.7459C14.7845 14.9141 15.2254 14.9324 15.4778 14.7867L21.1929 11.4871C21.4453 11.3414 21.4136 11.0869 21.1222 10.9186C20.8307 10.7503 20.3899 10.732 20.1375 10.8777Z" fill="#B5B9C3"/>
<path d="M23.3211 12.7148L17.6059 16.0144C17.3535 16.1601 17.3852 16.4146 17.6767 16.5829C17.9681 16.7512 18.409 16.7695 18.6614 16.6237L24.3765 13.3241C24.6289 13.1784 24.5972 12.9239 24.3058 12.7556C24.0143 12.5873 23.5735 12.569 23.3211 12.7148Z" fill="#B5B9C3"/>
<path d="M26.5027 14.5519L20.7876 17.8515C20.5352 17.9972 20.5669 18.2517 20.8583 18.42C21.1498 18.5883 21.5906 18.6066 21.843 18.4608L27.5581 15.1612C27.8106 15.0155 27.7789 14.761 27.4874 14.5927C27.196 14.4244 26.7551 14.4061 26.5027 14.5519Z" fill="#B5B9C3"/>
<path d="M29.6843 16.3889L23.9692 19.6885C23.7168 19.8342 23.7485 20.0887 24.0399 20.257C24.3314 20.4253 24.7722 20.4436 25.0247 20.2979L30.7398 16.9983C30.9922 16.8526 30.9605 16.598 30.6691 16.4297C30.3776 16.2615 29.9368 16.2432 29.6843 16.3889Z" fill="#B5B9C3"/>
<path d="M12.4996 15.0425C12.5702 15.0018 12.6939 15.0069 12.7754 15.0539L13.9599 15.7378C14.0414 15.7848 14.0503 15.8563 13.9797 15.897L12.9539 16.4893C12.8833 16.53 12.7596 16.5249 12.6781 16.4779L11.4936 15.794C11.4121 15.747 11.4033 15.6756 11.4738 15.6348L12.4996 15.0425ZM12.2056 14.8728L11.1798 15.465C10.9684 15.587 10.995 15.8001 11.239 15.941L12.4234 16.6249C12.6675 16.7658 13.0366 16.7811 13.2479 16.6591L14.2737 16.0668C14.4851 15.9448 14.4585 15.7317 14.2145 15.5908L13.03 14.907C12.786 14.7661 12.4169 14.7508 12.2056 14.8728Z" fill="#B5B9C3"/>
<path d="M15.6812 16.8795C15.7518 16.8388 15.8755 16.8439 15.957 16.891L17.1415 17.5748C17.223 17.6219 17.2319 17.6933 17.1613 17.734L16.1355 18.3263C16.0649 18.367 15.9412 18.3619 15.8597 18.3149L14.6752 17.631C14.5937 17.584 14.5849 17.5125 14.6554 17.4718L15.6812 16.8795ZM15.3872 16.7098L14.3614 17.3021C14.1501 17.4241 14.1766 17.6372 14.4206 17.7781L15.6051 18.4619C15.8491 18.6028 16.2182 18.6181 16.4295 18.4961L17.4553 17.9038C17.6667 17.7818 17.6402 17.5687 17.3962 17.4278L16.2117 16.744C15.9677 16.6031 15.5986 16.5878 15.3872 16.7098Z" fill="#B5B9C3"/>
<path d="M18.8629 18.7166C18.9335 18.6759 19.0572 18.681 19.1387 18.7281L20.3232 19.4119C20.4047 19.459 20.4136 19.5304 20.343 19.5712L19.3172 20.1634C19.2467 20.2042 19.1229 20.1991 19.0414 20.152L17.8569 19.4682C17.7754 19.4211 17.7666 19.3497 17.8371 19.309L18.8629 18.7166ZM18.5689 18.5468L17.5431 19.1391C17.3317 19.2611 17.3583 19.4742 17.6022 19.6151L18.7867 20.299C19.0308 20.4399 19.3999 20.4552 19.6112 20.3332L20.637 19.7409C20.8483 19.6189 20.8218 19.4058 20.5777 19.2649L19.3933 18.5811C19.1494 18.4401 18.7802 18.4248 18.5689 18.5468Z" fill="#B5B9C3"/>
<path d="M22.0445 20.5539C22.1151 20.5131 22.2388 20.5182 22.3203 20.5653L23.5048 21.2491C23.5863 21.2962 23.5952 21.3676 23.5246 21.4083L22.4988 22.0006C22.4282 22.0413 22.3045 22.0362 22.223 21.9892L21.0385 21.3053C20.957 21.2583 20.9482 21.1868 21.0187 21.1461L22.0445 20.5539ZM21.7505 20.3841L20.7247 20.9763C20.5134 21.0983 20.5399 21.3114 20.7839 21.4523L21.9684 22.1362C22.2124 22.277 22.5815 22.2923 22.7928 22.1703L23.8186 21.5781C24.03 21.4561 24.0034 21.243 23.7594 21.1021L22.575 20.4182C22.3309 20.2774 21.9618 20.2621 21.7505 20.3841Z" fill="#B5B9C3"/>
<path d="M13.1158 15.9862C13.0449 16.0271 12.9442 16.0477 12.8357 16.0432L11.1827 15.9747C10.9572 15.9654 10.7613 15.8523 10.7451 15.7221C10.729 15.5919 10.9149 15.5168 11.1403 15.5261L12.5656 15.5225L12.1146 13.8228C12.0808 13.6922 12.1197 13.5384 12.3431 13.5374C12.5667 13.5365 12.6763 13.7428 12.7101 13.8733L13.2111 15.8059C13.2282 15.8718 13.1973 15.9349 13.1261 15.98C13.1227 15.9821 13.1193 15.9841 13.1158 15.9862Z" fill="url(#paint2_linear_284_3410)"/>
<path d="M16.2994 17.8037C16.2285 17.8447 16.1278 17.8653 16.0193 17.8608L14.3663 17.7923C14.1408 17.7829 13.9449 17.6698 13.9287 17.5397C13.9126 17.4095 14.0985 17.3344 14.3239 17.3437L15.7492 17.3401L15.2982 15.6403C15.2644 15.5098 15.3033 15.3559 15.5267 15.355C15.7503 15.3541 15.8599 15.5604 15.8937 15.6909L16.3947 17.6234C16.4118 17.6894 16.3809 17.7525 16.3097 17.7975C16.3063 17.7996 16.3029 17.8017 16.2994 17.8037Z" fill="url(#paint3_linear_284_3410)"/>
<path d="M19.1309 15.4119L19.2092 19.1428C19.2138 19.361 19.4824 19.4619 19.6295 19.3005L22.3031 16.3672L19.1309 15.4119Z" fill="#EBCBA0"/>
<path d="M22.4211 16.1671L24.4564 10.9251L21.207 9.97778L19.1756 15.2095C19.0843 15.4217 19.13 15.677 19.3358 15.933C19.7768 16.4819 20.7856 16.8262 21.5891 16.7021C22.041 16.6323 22.3318 16.4292 22.4211 16.1671Z" fill="url(#paint4_linear_284_3410)"/>
<path d="M24.6865 10.9731L25.6538 8.48195L21.957 7.40417L20.9943 9.88369H20.9943C20.8905 10.125 20.9424 10.4155 21.1765 10.7068C21.6782 11.3312 22.8259 11.723 23.74 11.5819C24.2541 11.5025 24.5848 11.2713 24.6865 10.9731Z" fill="url(#paint5_linear_284_3410)"/>
<path d="M24.6972 9.11946C25.6112 8.97825 25.9456 8.35762 25.4438 7.73319C24.9421 7.10875 23.7944 6.717 22.8803 6.85821C21.9663 6.99942 21.6319 7.62004 22.1336 8.24448C22.6354 8.86891 23.7831 9.26067 24.6972 9.11946Z" fill="#F2EFFA"/>
<path d="M25.4426 8.38343L26.1542 6.55068L22.9047 5.60333L22.1971 7.42583H22.1972C22.1059 7.638 22.1515 7.89329 22.3573 8.14935C22.7983 8.6982 23.8071 9.04255 24.6106 8.91845C25.0625 8.84872 25.3533 8.64552 25.4426 8.38343Z" fill="url(#paint6_linear_284_3410)"/>
<path d="M25.3138 7.11089C26.1172 6.98679 26.4111 6.44122 25.9701 5.89237C25.5291 5.34352 24.5203 4.99917 23.7168 5.12327C22.9134 5.24737 22.6195 5.79288 23.0605 6.34179C23.5015 6.89063 24.5104 7.23499 25.3138 7.11089Z" fill="#FF7A85"/>
<path d="M19.2096 19.1426C19.2141 19.3608 19.4828 19.4617 19.6298 19.3003L20.7111 18.1141C20.7112 18.1136 20.7114 18.1129 20.7114 18.1129H20.7113C20.6398 18.1826 20.5277 18.2342 20.3806 18.2569C19.9874 18.3176 19.4937 18.1491 19.2779 17.8805C19.2085 17.7942 19.1767 17.7081 19.178 17.6289L19.1777 17.6288L19.2096 19.1426Z" fill="#565D68"/>
</g>
<defs>
<filter id="filter0_d_284_3410" x="0.75" y="0.14093" width="38" height="38" filterUnits="userSpaceOnUse" color-interpolation-filters="sRGB">
<feFlood flood-opacity="0" result="BackgroundImageFix"/>
<feColorMatrix in="SourceAlpha" type="matrix" values="0 0 0 0 0 0 0 0 0 0 0 0 0 0 0 0 0 0 127 0" result="hardAlpha"/>
<feOffset dy="4"/>
<feGaussianBlur stdDeviation="2"/>
<feComposite in2="hardAlpha" operator="out"/>
<feColorMatrix type="matrix" values="0 0 0 0 0 0 0 0 0 0 0 0 0 0 0 0 0 0 0.25 0"/>
<feBlend mode="normal" in2="BackgroundImageFix" result="effect1_dropShadow_284_3410"/>
<feBlend mode="normal" in="SourceGraphic" in2="effect1_dropShadow_284_3410" result="shape"/>
</filter>
<linearGradient id="paint0_linear_284_3410" x1="21.6467" y1="19.881" x2="22.5425" y2="19.881" gradientUnits="userSpaceOnUse">
<stop stop-color="#C5BAEB"/>
<stop offset="0.9627" stop-color="#D7D1EB"/>
</linearGradient>
<linearGradient id="paint1_linear_284_3410" x1="41.5615" y1="28.5157" x2="28.2466" y2="5.45421" gradientUnits="userSpaceOnUse">
<stop stop-color="#C5BAEB"/>
<stop offset="0.4836" stop-color="#E9E5F6"/>
<stop offset="1" stop-color="#F2EDFF"/>
</linearGradient>
<linearGradient id="paint2_linear_284_3410" x1="13.4879" y1="15.7659" x2="12.2123" y2="13.5565" gradientUnits="userSpaceOnUse">
<stop offset="0.0028" stop-color="#80E37B"/>
<stop offset="0.7597" stop-color="#A6EBA2"/>
<stop offset="1" stop-color="#B3EEB0"/>
</linearGradient>
<linearGradient id="paint3_linear_284_3410" x1="16.6715" y1="17.5823" x2="15.3959" y2="15.373" gradientUnits="userSpaceOnUse">
<stop offset="0.0028" stop-color="#80E37B"/>
<stop offset="0.7597" stop-color="#A6EBA2"/>
<stop offset="1" stop-color="#B3EEB0"/>
</linearGradient>
<linearGradient id="paint4_linear_284_3410" x1="20.0736" y1="12.8461" x2="23.217" y2="14.0671" gradientUnits="userSpaceOnUse">
<stop stop-color="#FFC538"/>
<stop offset="0.508" stop-color="#FAD53D"/>
<stop offset="1" stop-color="#F7E041"/>
</linearGradient>
<linearGradient id="paint5_linear_284_3410" x1="21.3438" y1="8.93323" x2="24.9199" y2="10.3222" gradientUnits="userSpaceOnUse">
<stop stop-color="#C5BAEB"/>
<stop offset="0.4836" stop-color="#E9E5F6"/>
<stop offset="1" stop-color="white"/>
</linearGradient>
<linearGradient id="paint6_linear_284_3410" x1="22.4331" y1="6.76835" x2="25.5765" y2="7.98927" gradientUnits="userSpaceOnUse">
<stop stop-color="#AB2C37"/>
<stop offset="0.6173" stop-color="#FF4F5E"/>
<stop offset="1" stop-color="#FF7A85"/>
</linearGradient>
<clipPath id="clip0_284_3410">
<rect width="30" height="30" fill="white" transform="translate(4.75 0.14093)"/>
</clipPath>
</defs>
</svg>
