<svg width="51" height="51" viewBox="0 0 51 51" fill="none" xmlns="http://www.w3.org/2000/svg">
<g clip-path="url(#clip0_258_113)">
<path d="M50.6665 29.6545L50.6676 29.6546V28.673L0.667969 24.2032V25.2174L0.668652 25.2175C0.666504 25.386 0.788086 25.5641 1.02861 25.7031L28.6857 41.6709C29.1218 41.9226 29.7813 41.9499 30.1589 41.732L50.413 30.0382C50.5899 29.936 50.6724 29.7981 50.6665 29.6545Z" fill="url(#paint0_linear_258_113)"/>
<path d="M21.177 12.1511L0.922913 23.8448C0.545276 24.0628 0.592639 24.4436 1.02867 24.6954L28.6858 40.6633C29.1218 40.915 29.7814 40.9424 30.1589 40.7243L50.4131 29.0305C50.7908 28.8126 50.7434 28.4317 50.3074 28.18L22.6503 12.2121C22.2142 11.9604 21.5546 11.9331 21.177 12.1511Z" fill="url(#paint1_linear_258_113)"/>
<path d="M17.5523 16.9714L9.39727 21.6797C8.97657 21.9225 9.0294 22.3468 9.51514 22.6272C10.0009 22.9077 10.7357 22.9382 11.1564 22.6953L19.3113 17.987C19.732 17.7441 19.6792 17.3199 19.1935 17.0394C18.7077 16.7589 17.9729 16.7285 17.5523 16.9714Z" fill="#B5B9C3"/>
<path d="M26.315 18.0355L16.7899 23.5349C16.3691 23.7777 16.422 24.2019 16.9077 24.4824C17.3935 24.7629 18.1282 24.7934 18.5489 24.5505L28.0741 19.0512C28.4948 18.8083 28.442 18.3841 27.9563 18.1036C27.4705 17.8231 26.7357 17.7927 26.315 18.0355Z" fill="#B5B9C3"/>
<path d="M31.6197 21.0973L22.0945 26.5966C21.6738 26.8395 21.7267 27.2637 22.2124 27.5442C22.6982 27.8246 23.4329 27.8551 23.8536 27.6122L33.3788 22.1129C33.7995 21.8701 33.7467 21.4458 33.2609 21.1654C32.7752 20.8849 32.0404 20.8544 31.6197 21.0973Z" fill="#B5B9C3"/>
<path d="M36.9225 24.1591L27.3973 29.6584C26.9766 29.9013 27.0294 30.3255 27.5151 30.6059C28.0009 30.8864 28.7357 30.9169 29.1564 30.674L38.6815 25.1747C39.1023 24.9318 39.0494 24.5076 38.5637 24.2271C38.0779 23.9467 37.3431 23.9162 36.9225 24.1591Z" fill="#B5B9C3"/>
<path d="M42.2252 27.2208L32.7 32.7202C32.2793 32.963 32.3321 33.3872 32.8179 33.6677C33.3036 33.9482 34.0384 33.9787 34.4591 33.7358L43.9843 28.2365C44.405 27.9936 44.3522 27.5694 43.8664 27.2889C43.3807 27.0084 42.6459 26.978 42.2252 27.2208Z" fill="#B5B9C3"/>
<path d="M13.5859 24.9768C13.7036 24.9089 13.9098 24.9174 14.0456 24.9959L16.0197 26.1356C16.1556 26.214 16.1704 26.3331 16.0527 26.401L14.3431 27.3881C14.2254 27.456 14.0192 27.4475 13.8834 27.3691L11.9093 26.2293C11.7734 26.1509 11.7587 26.0319 11.8763 25.964L13.5859 24.9768ZM13.0959 24.6939L11.3862 25.681C11.034 25.8843 11.0782 26.2395 11.4849 26.4744L13.459 27.6141C13.8657 27.849 14.4809 27.8745 14.8331 27.6711L16.5428 26.684C16.895 26.4807 16.8508 26.1255 16.444 25.8907L14.4699 24.7509C14.0633 24.5161 13.448 24.4906 13.0959 24.6939Z" fill="#B5B9C3"/>
<path d="M18.8887 28.0386C19.0063 27.9707 19.2125 27.9792 19.3483 28.0576L21.3225 29.1974C21.4583 29.2758 21.473 29.3948 21.3555 29.4627L19.6458 30.4498C19.5281 30.5177 19.322 30.5092 19.1861 30.4308L17.212 29.291C17.0762 29.2126 17.0614 29.0936 17.179 29.0257L18.8887 28.0386ZM18.3986 27.7557L16.689 28.7428C16.3367 28.9461 16.3809 29.3013 16.7876 29.5361L18.7617 30.6759C19.1684 30.9107 19.7836 30.9361 20.1358 30.7328L21.8455 29.7457C22.1977 29.5424 22.1535 29.1872 21.7469 28.9524L19.7727 27.8126C19.366 27.5778 18.7509 27.5524 18.3986 27.7557Z" fill="#B5B9C3"/>
<path d="M24.1915 31.1004C24.3092 31.0326 24.5153 31.0411 24.6512 31.1195L26.6253 32.2592C26.7611 32.3376 26.776 32.4567 26.6583 32.5247L24.9486 33.5118C24.831 33.5796 24.6248 33.5711 24.489 33.4927L22.5148 32.353C22.379 32.2746 22.3642 32.1555 22.4818 32.0876L24.1915 31.1004ZM23.7014 30.8174L21.9917 31.8045C21.6394 32.0079 21.6837 32.363 22.0903 32.5979L24.0644 33.7376C24.4712 33.9725 25.0864 33.998 25.4386 33.7947L27.1482 32.8076C27.5005 32.6042 27.4562 32.2491 27.0495 32.0142L25.0754 30.8745C24.6688 30.6396 24.0536 30.6141 23.7014 30.8174Z" fill="#B5B9C3"/>
<path d="M29.4941 34.1625C29.6118 34.0946 29.818 34.1031 29.9538 34.1815L31.9279 35.3213C32.0638 35.3997 32.0785 35.5187 31.9609 35.5866L30.2513 36.5737C30.1336 36.6416 29.9274 36.6331 29.7916 36.5546L27.8175 35.4149C27.6816 35.3365 27.6669 35.2174 27.7845 35.1496L29.4941 34.1625ZM29.0041 33.8795L27.2944 34.8666C26.9422 35.0699 26.9864 35.4251 27.3931 35.6599L29.3672 36.7997C29.7739 37.0344 30.3891 37.0599 30.7413 36.8566L32.451 35.8695C32.8032 35.6662 32.759 35.311 32.3523 35.0761L30.3782 33.9364C29.9715 33.7016 29.3562 33.6761 29.0041 33.8795Z" fill="#B5B9C3"/>
<path d="M14.611 26.5495C14.4927 26.6178 14.325 26.6522 14.1442 26.6446L11.3891 26.5305C11.0133 26.5148 10.6868 26.3264 10.6598 26.1094C10.633 25.8924 10.9427 25.7673 11.3185 25.7828L13.6939 25.7768L12.9422 22.9439C12.8859 22.7263 12.9508 22.4698 13.3232 22.4683C13.6958 22.4668 13.8785 22.8106 13.9348 23.0281L14.7698 26.249C14.7983 26.3589 14.7468 26.4641 14.6281 26.5392C14.6225 26.5427 14.6168 26.5461 14.611 26.5495Z" fill="url(#paint2_linear_258_113)"/>
<path d="M19.9157 29.5789C19.7974 29.6472 19.6297 29.6816 19.4489 29.6741L16.6938 29.5599C16.318 29.5443 15.9915 29.3558 15.9645 29.1388C15.9377 28.9218 16.2474 28.7967 16.6232 28.8122L18.9986 28.8062L18.2469 25.9733C18.1906 25.7557 18.2555 25.4992 18.6279 25.4977C19.0005 25.4962 19.1832 25.8401 19.2395 26.0575L20.0745 29.2784C20.103 29.3883 20.0515 29.4935 19.9328 29.5686C19.9272 29.5721 19.9214 29.5756 19.9157 29.5789Z" fill="url(#paint3_linear_258_113)"/>
<path d="M24.6348 25.5925L24.7653 31.8106C24.7729 32.1744 25.2207 32.3424 25.4658 32.0735L29.9219 27.1847L24.6348 25.5925Z" fill="#EBCBA0"/>
<path d="M30.1185 26.8512L33.5107 18.1146L28.095 16.5356L24.7094 25.2552C24.5572 25.6088 24.6334 26.0343 24.9764 26.461C25.7113 27.3758 27.3927 27.9497 28.7318 27.7429C29.4851 27.6266 29.9696 27.288 30.1185 26.8512Z" fill="url(#paint4_linear_258_113)"/>
<path d="M33.8948 18.1945L35.5069 14.0426L29.3457 12.2463L27.7411 16.3789H27.7412C27.5682 16.7811 27.6547 17.2653 28.0448 17.7507C28.881 18.7915 30.7938 19.4444 32.3173 19.2091C33.1742 19.0768 33.7254 18.6916 33.8948 18.1945Z" fill="url(#paint5_linear_258_113)"/>
<path d="M33.9113 15.1051C35.4347 14.8697 35.9919 13.8354 35.1557 12.7946C34.3196 11.7539 32.4067 11.101 30.8833 11.3363C29.3598 11.5717 28.8026 12.6061 29.6387 13.6468C30.475 14.6875 32.3878 15.3404 33.9113 15.1051Z" fill="#F2EFFA"/>
<path d="M35.1556 13.8784L36.3416 10.8238L30.9259 9.24487L29.7465 12.2824H29.7466C29.5944 12.636 29.6705 13.0615 30.0135 13.4882C30.7484 14.403 32.4298 14.9769 33.7689 14.7701C34.5222 14.6539 35.0067 14.3152 35.1556 13.8784Z" fill="url(#paint6_linear_258_113)"/>
<path d="M34.939 11.7575C36.2781 11.5506 36.7678 10.6413 36.0329 9.7266C35.2979 8.81186 33.6166 8.23793 32.2774 8.44477C30.9383 8.6516 30.4485 9.56078 31.1835 10.4756C31.9185 11.3904 33.6 11.9643 34.939 11.7575Z" fill="#FF7A85"/>
<path d="M24.7659 31.8103C24.7735 32.1741 25.2213 32.3421 25.4664 32.0732L27.2685 30.0961C27.2687 30.0954 27.2689 30.0942 27.2689 30.0942H27.2688C27.1497 30.2104 26.9628 30.2964 26.7177 30.3342C26.0623 30.4354 25.2395 30.1545 24.8798 29.7069C24.7642 29.563 24.7112 29.4196 24.7134 29.2875L24.7129 29.2874L24.7659 31.8103Z" fill="#565D68"/>
</g>
<defs>
<linearGradient id="paint0_linear_258_113" x1="28.8292" y1="33.0411" x2="30.3221" y2="33.0411" gradientUnits="userSpaceOnUse">
<stop stop-color="#C5BAEB"/>
<stop offset="0.9627" stop-color="#D7D1EB"/>
</linearGradient>
<linearGradient id="paint1_linear_258_113" x1="62.0205" y1="47.4323" x2="39.8289" y2="8.99639" gradientUnits="userSpaceOnUse">
<stop stop-color="#C5BAEB"/>
<stop offset="0.4836" stop-color="#E9E5F6"/>
<stop offset="1" stop-color="#F2EDFF"/>
</linearGradient>
<linearGradient id="paint2_linear_258_113" x1="15.2311" y1="26.1823" x2="13.1051" y2="22.5001" gradientUnits="userSpaceOnUse">
<stop offset="0.0028" stop-color="#80E37B"/>
<stop offset="0.7597" stop-color="#A6EBA2"/>
<stop offset="1" stop-color="#B3EEB0"/>
</linearGradient>
<linearGradient id="paint3_linear_258_113" x1="20.5359" y1="29.21" x2="18.4099" y2="25.5277" gradientUnits="userSpaceOnUse">
<stop offset="0.0028" stop-color="#80E37B"/>
<stop offset="0.7597" stop-color="#A6EBA2"/>
<stop offset="1" stop-color="#B3EEB0"/>
</linearGradient>
<linearGradient id="paint4_linear_258_113" x1="26.206" y1="21.3162" x2="31.445" y2="23.3511" gradientUnits="userSpaceOnUse">
<stop stop-color="#FFC538"/>
<stop offset="0.508" stop-color="#FAD53D"/>
<stop offset="1" stop-color="#F7E041"/>
</linearGradient>
<linearGradient id="paint5_linear_258_113" x1="28.3237" y1="14.7948" x2="34.2839" y2="17.1098" gradientUnits="userSpaceOnUse">
<stop stop-color="#C5BAEB"/>
<stop offset="0.4836" stop-color="#E9E5F6"/>
<stop offset="1" stop-color="white"/>
</linearGradient>
<linearGradient id="paint6_linear_258_113" x1="30.1399" y1="11.1866" x2="35.3788" y2="13.2214" gradientUnits="userSpaceOnUse">
<stop stop-color="#AB2C37"/>
<stop offset="0.6173" stop-color="#FF4F5E"/>
<stop offset="1" stop-color="#FF7A85"/>
</linearGradient>
<clipPath id="clip0_258_113">
<rect width="50" height="50" fill="white" transform="translate(0.667969 0.140869)"/>
</clipPath>
</defs>
</svg>
