<svg width="40" height="41" viewBox="0 0 40 41" fill="none" xmlns="http://www.w3.org/2000/svg">
<path d="M12.0103 6.87974C12.0103 5.64515 11.0095 4.64429 9.77489 4.64429H2.23545C1.00086 4.64429 0 5.64507 0 6.87974V36.8286C0 38.6579 1.48298 40.1408 3.31223 40.1408H30.7013C32.1781 40.1408 33.3754 38.9436 33.3754 37.4667V11.7893C33.3754 10.3124 32.1781 9.11519 30.7013 9.11519H14.2458C13.0111 9.11519 12.0103 8.11433 12.0103 6.87974Z" fill="url(#paint0_linear_258_6447)"/>
<path d="M33.3754 37.4668V19.2551H0V36.8285C0 38.6579 1.48298 40.1409 3.31223 40.1409H30.7013C32.1782 40.1409 33.3754 38.9437 33.3754 37.4668Z" fill="url(#paint1_linear_258_6447)"/>
<path d="M30.7021 9.11523H26.752V40.1409H30.7021C32.179 40.1409 33.3763 38.9436 33.3763 37.4668V11.7894C33.3762 10.3125 32.179 9.11523 30.7021 9.11523Z" fill="url(#paint2_linear_258_6447)"/>
<path d="M30.7021 9.11523H26.752V40.1409H30.7021C32.179 40.1409 33.3763 38.9436 33.3763 37.4668V11.7894C33.3762 10.3125 32.179 9.11523 30.7021 9.11523Z" fill="url(#paint3_linear_258_6447)"/>
<path d="M21.8175 23.8689H21.6956H14.7723H14.6504C8.26724 23.8689 3.0918 29.0443 3.0918 35.4276C3.0918 35.7581 3.22537 36.0573 3.4427 36.2738C3.65909 36.4912 3.95838 36.6247 4.28889 36.6247H8.33155H28.1363H32.179C32.5095 36.6247 32.8088 36.4911 33.0252 36.2738C33.2426 36.0574 33.3761 35.7581 33.3761 35.4276C33.3761 29.0443 28.2007 23.8689 21.8175 23.8689Z" fill="url(#paint4_linear_258_6447)"/>
<path d="M33.376 35.4274C33.376 33.9927 33.1138 32.6193 32.6359 31.3517H3.83187C3.35399 32.6194 3.0918 33.9927 3.0918 35.4274C3.0918 35.758 3.22537 36.0572 3.4427 36.2736C3.65909 36.4911 3.95838 36.6245 4.28889 36.6245H8.33155H28.1363H32.1789C32.5094 36.6245 32.8087 36.491 33.0251 36.2736C33.2424 36.0573 33.376 35.758 33.376 35.4274Z" fill="url(#paint5_linear_258_6447)"/>
<path d="M33.3756 35.4278C33.3756 29.0441 28.2007 23.8691 21.817 23.8691H14.7721C14.6549 23.8691 14.5382 23.8714 14.4219 23.8749V29.9119L21.1343 36.6243H32.1791C32.8399 36.6244 33.3756 36.0887 33.3756 35.4278Z" fill="url(#paint6_linear_258_6447)"/>
<path d="M18.2344 27.9949L15.5898 36.6244H20.8789L18.2344 27.9949Z" fill="url(#paint7_linear_258_6447)"/>
<path d="M16.4968 29.8658L14.7188 27.5773H21.7477L19.9696 29.8658C19.0893 30.9989 17.3771 30.9989 16.4968 29.8658Z" fill="url(#paint8_linear_258_6447)"/>
<path d="M18.2956 27.7524C20.1438 27.7524 21.6421 26.2542 21.6421 24.406C21.6421 22.5578 20.1438 21.0596 18.2956 21.0596C16.4475 21.0596 14.9492 22.5578 14.9492 24.406C14.9492 26.2542 16.4475 27.7524 18.2956 27.7524Z" fill="url(#paint9_linear_258_6447)"/>
<path d="M18.2956 27.7524C20.1438 27.7524 21.6421 26.2542 21.6421 24.406C21.6421 22.5578 20.1438 21.0596 18.2956 21.0596C16.4475 21.0596 14.9492 22.5578 14.9492 24.406C14.9492 26.2542 16.4475 27.7524 18.2956 27.7524Z" fill="url(#paint10_linear_258_6447)"/>
<path d="M18.2951 27.7524L13.015 21.7063L12.6961 21.8153C11.8686 22.0983 11.4503 23.0198 11.782 23.829L14.1445 29.5925C14.296 29.962 14.7473 30.1009 15.0803 29.8804L18.2951 27.7524Z" fill="url(#paint11_linear_258_6447)"/>
<path d="M18.2949 27.7524L23.5751 21.7063L23.8939 21.8153C24.7214 22.0983 25.1398 23.0198 24.808 23.829L22.4455 29.5925C22.2941 29.962 21.8427 30.1009 21.5097 29.8804L18.2949 27.7524Z" fill="url(#paint12_linear_258_6447)"/>
<path d="M6.18359 14.4764C6.18359 12.9 7.27787 11.5792 8.74822 11.2321C9.14124 11.1393 9.51692 11.4433 9.51692 11.8471V17.1056C9.51692 17.5094 9.14124 17.8134 8.74822 17.7206C7.27787 17.3735 6.18359 16.0527 6.18359 14.4764Z" fill="url(#paint13_linear_258_6447)"/>
<path d="M30.2844 14.4764C30.2844 12.9 29.1901 11.5792 27.7199 11.2321C27.3269 11.1393 26.9512 11.4433 26.9512 11.8471V17.1056C26.9512 17.5094 27.3269 17.8134 27.7199 17.7206C29.1902 17.3735 30.2844 16.0527 30.2844 14.4764Z" fill="url(#paint14_linear_258_6447)"/>
<path d="M30.2844 14.4764C30.2844 12.9 29.1901 11.5792 27.7199 11.2321C27.3269 11.1393 26.9512 11.4433 26.9512 11.8471V17.1056C26.9512 17.5094 27.3269 17.8134 27.7199 17.7206C29.1902 17.3735 30.2844 16.0527 30.2844 14.4764Z" fill="url(#paint15_linear_258_6447)"/>
<path d="M18.2337 26.7554C12.9087 26.7554 8.5918 22.4385 8.5918 17.1134V12.1688C8.5918 6.84372 12.9087 2.52686 18.2337 2.52686C23.5588 2.52686 27.8757 6.84372 27.8757 12.1688V17.1134C27.8757 22.4385 23.5588 26.7554 18.2337 26.7554Z" fill="url(#paint16_linear_258_6447)"/>
<path d="M30.9869 9.94485C30.9869 11.822 30.463 13.05 29.7427 13.851C28.384 15.3622 25.9106 14.8249 25.1912 12.9243C24.3452 10.6895 22.3468 9.11936 20.0168 9.11936C19.9526 9.11936 19.8885 9.12038 19.8242 9.12344C20.1881 6.09324 22.5374 3.75513 25.3811 3.75513C28.4775 3.75505 30.9869 6.52634 30.9869 9.94485Z" fill="url(#paint17_linear_258_6447)"/>
<path d="M27.4594 4.80612C27.3688 3.54785 26.6892 2.39734 25.6413 1.69483C24.3732 0.844712 22.2033 0.140869 18.4944 0.140869C16.1266 0.140869 14.3862 0.427771 13.1071 0.856477C12.2417 1.14652 11.3685 1.41397 10.4799 1.62275C7.61058 2.29695 5.48242 4.76746 5.48242 7.71248C5.48242 11.1766 8.4265 13.9847 12.0583 13.9847C14.7295 13.9847 19.3428 9.19224 23.453 9.19224C23.9634 9.19224 24.3708 8.74691 24.8373 8.53977C25.8552 8.08785 27.6163 6.98502 27.4594 4.80612Z" fill="url(#paint18_linear_258_6447)"/>
<path d="M35.6754 36.7471C35.261 38.7246 33.5172 40.1409 31.4968 40.1409H3.3125C5.18724 40.1409 6.80528 38.8267 7.18975 36.9918L11.59 15.9923C11.8406 14.7962 12.8954 13.9395 14.1176 13.9395H38.0324C39.2811 13.9395 40.2138 15.0878 39.9577 16.31L35.6754 36.7471Z" fill="url(#paint19_linear_258_6447)"/>
<path d="M35.6754 36.7471C35.261 38.7246 33.5172 40.1409 31.4968 40.1409H3.3125C5.18724 40.1409 6.80528 38.8267 7.18975 36.9918L11.59 15.9923C11.8406 14.7962 12.8954 13.9395 14.1176 13.9395H38.0324C39.2811 13.9395 40.2138 15.0878 39.9577 16.31L35.6754 36.7471Z" fill="url(#paint20_linear_258_6447)"/>
<path d="M39.9585 16.3103L35.6761 36.7472C35.2612 38.7244 33.5177 40.1409 31.4973 40.1409H27.7891L33.2785 13.9393H38.033C39.2816 13.9393 40.2141 15.0876 39.9585 16.3103Z" fill="url(#paint21_linear_258_6447)"/>
<path d="M33.3765 37.4668V13.9395H17.7266V40.1409H30.7025C32.1793 40.1409 33.3765 38.9437 33.3765 37.4668Z" fill="url(#paint22_linear_258_6447)"/>
<path d="M33.3766 35.4279C33.3766 35.7581 33.2424 36.0569 33.0252 36.2734C32.8087 36.4914 32.5099 36.6248 32.1789 36.6248H7.26758L9.70836 24.9769C10.3546 24.671 11.0338 24.4224 11.7397 24.2389C13.4535 25.802 15.7327 26.755 18.2338 26.755C20.7358 26.755 23.0158 25.802 24.7287 24.2389C29.7028 25.5291 33.3766 30.0499 33.3766 35.4279Z" fill="url(#paint23_linear_258_6447)"/>
<path d="M18.2958 27.7527L15.0809 29.8806C14.7484 30.101 14.2966 29.9621 14.1452 29.5927L12.0684 24.5253C13.5374 25.7488 15.3758 26.5441 17.3923 26.7182L18.2958 27.7527Z" fill="url(#paint24_linear_258_6447)"/>
<path d="M24.5882 24.3652L22.4455 29.5927C22.2941 29.9621 21.8424 30.1009 21.5098 29.8805L18.2949 27.7527L19.2086 26.7064C21.2596 26.5001 23.1216 25.6515 24.5882 24.3652Z" fill="url(#paint25_linear_258_6447)"/>
<path d="M20.8785 36.6241H15.5898L17.4447 30.5699C17.9514 30.7637 18.5161 30.7645 19.0228 30.5707L20.8785 36.6241Z" fill="url(#paint26_linear_258_6447)"/>
<path d="M20.4846 29.2029L19.9693 29.8656C19.0893 30.999 17.3772 30.999 16.4972 29.8656L16.0234 29.2554L18.294 27.7527L20.4846 29.2029Z" fill="url(#paint27_linear_258_6447)"/>
<path d="M14.1175 13.9395C12.8954 13.9395 11.8406 14.7962 11.5899 15.9923L10.2285 22.4895C11.96 25.0625 14.8989 26.7554 18.2335 26.7554C23.5586 26.7554 27.8755 22.4385 27.8755 17.1134V13.9395H14.1175Z" fill="url(#paint28_linear_258_6447)"/>
<path d="M30.2845 14.4766C30.2845 16.0029 29.2586 17.2891 27.8594 17.6844C27.8704 17.4954 27.8758 17.3056 27.8758 17.1134V13.9393H30.2405C30.2688 14.1142 30.2845 14.2938 30.2845 14.4766Z" fill="url(#paint29_linear_258_6447)"/>
<path d="M29.657 13.9395H25.8555C26.8794 14.9333 28.5792 15.0365 29.657 13.9395Z" fill="url(#paint30_linear_258_6447)"/>
<path d="M35.6754 36.7472L38.3052 24.1962H9.871L7.18983 36.9919C6.80528 38.8268 5.18724 40.1409 3.3125 40.1409H31.4967C33.5172 40.1409 35.261 38.7247 35.6754 36.7472Z" fill="url(#paint31_linear_258_6447)"/>
<path d="M38.3053 24.1961L39.9577 16.3101C40.2138 15.088 39.2812 13.9397 38.0328 13.9396H14.1172C12.8952 13.9398 11.8407 14.7964 11.5901 15.9924L9.87109 24.1962L38.3053 24.1961Z" fill="url(#paint32_linear_258_6447)"/>
<defs>
<linearGradient id="paint0_linear_258_6447" x1="2.99639" y1="10.7498" x2="25.3583" y2="33.1117" gradientUnits="userSpaceOnUse">
<stop stop-color="#FEE45A"/>
<stop offset="1" stop-color="#FEA613"/>
</linearGradient>
<linearGradient id="paint1_linear_258_6447" x1="16.6877" y1="25.8393" x2="16.6877" y2="40.499" gradientUnits="userSpaceOnUse">
<stop stop-color="#FEA613" stop-opacity="0"/>
<stop offset="1" stop-color="#E94444"/>
</linearGradient>
<linearGradient id="paint2_linear_258_6447" x1="30.1605" y1="24.6281" x2="34.4219" y2="24.6281" gradientUnits="userSpaceOnUse">
<stop stop-color="#FEA613" stop-opacity="0"/>
<stop offset="1" stop-color="#E94444"/>
</linearGradient>
<linearGradient id="paint3_linear_258_6447" x1="33.9266" y1="24.6281" x2="29.8992" y2="24.6281" gradientUnits="userSpaceOnUse">
<stop stop-color="#FEA613" stop-opacity="0"/>
<stop offset="1" stop-color="#E94444"/>
</linearGradient>
<linearGradient id="paint4_linear_258_6447" x1="15.2029" y1="27.0669" x2="20.7141" y2="40.3912" gradientUnits="userSpaceOnUse">
<stop stop-color="#EAF9FA"/>
<stop offset="1" stop-color="#B3DAFE"/>
</linearGradient>
<linearGradient id="paint5_linear_258_6447" x1="18.2339" y1="34.2281" x2="18.2339" y2="37.2536" gradientUnits="userSpaceOnUse">
<stop stop-color="#7BACDF" stop-opacity="0"/>
<stop offset="1" stop-color="#7BACDF"/>
</linearGradient>
<linearGradient id="paint6_linear_258_6447" x1="24.3151" y1="32.499" x2="21.2066" y2="25.0757" gradientUnits="userSpaceOnUse">
<stop stop-color="#7BACDF" stop-opacity="0"/>
<stop offset="1" stop-color="#7BACDF"/>
</linearGradient>
<linearGradient id="paint7_linear_258_6447" x1="16.4801" y1="32.1416" x2="19.3036" y2="33.2397" gradientUnits="userSpaceOnUse">
<stop stop-color="#B3DAFE"/>
<stop offset="1" stop-color="#0182FC"/>
</linearGradient>
<linearGradient id="paint8_linear_258_6447" x1="18.3307" y1="27.7191" x2="19.4789" y2="29.3893" gradientUnits="userSpaceOnUse">
<stop stop-color="#B3DAFE"/>
<stop offset="1" stop-color="#0182FC"/>
</linearGradient>
<linearGradient id="paint9_linear_258_6447" x1="16.1531" y1="22.2636" x2="19.7594" y2="25.8698" gradientUnits="userSpaceOnUse">
<stop stop-color="#FFDFCF"/>
<stop offset="1" stop-color="#FFA78F"/>
</linearGradient>
<linearGradient id="paint10_linear_258_6447" x1="18.2956" y1="27.7343" x2="18.2956" y2="22.4228" gradientUnits="userSpaceOnUse">
<stop stop-color="#CA6E59" stop-opacity="0"/>
<stop offset="1" stop-color="#883F2E"/>
</linearGradient>
<linearGradient id="paint11_linear_258_6447" x1="15.3564" y1="24.6908" x2="13.3691" y2="27.8286" gradientUnits="userSpaceOnUse">
<stop stop-color="#EAF9FA"/>
<stop offset="1" stop-color="#B3DAFE"/>
</linearGradient>
<linearGradient id="paint12_linear_258_6447" x1="21.1525" y1="24.6685" x2="23.4536" y2="27.5274" gradientUnits="userSpaceOnUse">
<stop stop-color="#EAF9FA"/>
<stop offset="1" stop-color="#B3DAFE"/>
</linearGradient>
<linearGradient id="paint13_linear_258_6447" x1="7.16445" y1="13.0353" x2="9.84547" y2="15.7163" gradientUnits="userSpaceOnUse">
<stop stop-color="#FFDFCF"/>
<stop offset="1" stop-color="#FFA78F"/>
</linearGradient>
<linearGradient id="paint14_linear_258_6447" x1="25.912" y1="12.5259" x2="29.6637" y2="16.2776" gradientUnits="userSpaceOnUse">
<stop stop-color="#FFDFCF"/>
<stop offset="1" stop-color="#FFA78F"/>
</linearGradient>
<linearGradient id="paint15_linear_258_6447" x1="29.4054" y1="14.8213" x2="27.2614" y2="14.4168" gradientUnits="userSpaceOnUse">
<stop stop-color="#F89580" stop-opacity="0"/>
<stop offset="0.9972" stop-color="#C5715A"/>
</linearGradient>
<linearGradient id="paint16_linear_258_6447" x1="11.7607" y1="10.2895" x2="24.6225" y2="18.9361" gradientUnits="userSpaceOnUse">
<stop stop-color="#FFDFCF"/>
<stop offset="1" stop-color="#FFA78F"/>
</linearGradient>
<linearGradient id="paint17_linear_258_6447" x1="24.0336" y1="6.78948" x2="28.1988" y2="10.9546" gradientUnits="userSpaceOnUse">
<stop stop-color="#5A5A5A"/>
<stop offset="1" stop-color="#444444"/>
</linearGradient>
<linearGradient id="paint18_linear_258_6447" x1="12.3273" y1="2.6695" x2="18.5899" y2="8.93199" gradientUnits="userSpaceOnUse">
<stop stop-color="#5A5A5A"/>
<stop offset="1" stop-color="#444444"/>
</linearGradient>
<linearGradient id="paint19_linear_258_6447" x1="16.5839" y1="14.0888" x2="25.9646" y2="39.534" gradientUnits="userSpaceOnUse">
<stop stop-color="#FEE45A"/>
<stop offset="1" stop-color="#FEA613"/>
</linearGradient>
<linearGradient id="paint20_linear_258_6447" x1="16.5839" y1="14.0888" x2="25.9646" y2="39.534" gradientUnits="userSpaceOnUse">
<stop stop-color="#FEE45A"/>
<stop offset="1" stop-color="#FEA613"/>
</linearGradient>
<linearGradient id="paint21_linear_258_6447" x1="33.7929" y1="27.2393" x2="39.1262" y2="28.651" gradientUnits="userSpaceOnUse">
<stop stop-color="#FEA613" stop-opacity="0"/>
<stop offset="1" stop-color="#E94444"/>
</linearGradient>
<linearGradient id="paint22_linear_258_6447" x1="26.0939" y1="26.5671" x2="43.7551" y2="21.6384" gradientUnits="userSpaceOnUse">
<stop stop-color="#FEA613" stop-opacity="0"/>
<stop offset="1" stop-color="#E94444"/>
</linearGradient>
<linearGradient id="paint23_linear_258_6447" x1="17.6803" y1="26.751" x2="23.7456" y2="45.9928" gradientUnits="userSpaceOnUse">
<stop stop-color="#EAF9FA" stop-opacity="0"/>
<stop offset="1" stop-color="#B3DAFE"/>
</linearGradient>
<linearGradient id="paint24_linear_258_6447" x1="15.1687" y1="26.0927" x2="16.7896" y2="31.6875" gradientUnits="userSpaceOnUse">
<stop stop-color="#EAF9FA" stop-opacity="0"/>
<stop offset="1" stop-color="#B3DAFE"/>
</linearGradient>
<linearGradient id="paint25_linear_258_6447" x1="21.311" y1="25.6908" x2="23.0365" y2="30.5535" gradientUnits="userSpaceOnUse">
<stop stop-color="#EAF9FA" stop-opacity="0"/>
<stop offset="1" stop-color="#B3DAFE"/>
</linearGradient>
<linearGradient id="paint26_linear_258_6447" x1="15.9675" y1="31.897" x2="21.34" y2="38.7205" gradientUnits="userSpaceOnUse">
<stop stop-color="#B3DAFE" stop-opacity="0"/>
<stop offset="1" stop-color="#0182FC"/>
</linearGradient>
<linearGradient id="paint27_linear_258_6447" x1="17.4816" y1="27.6005" x2="19.2856" y2="31.4044" gradientUnits="userSpaceOnUse">
<stop stop-color="#B3DAFE" stop-opacity="0"/>
<stop offset="1" stop-color="#0182FC"/>
</linearGradient>
<linearGradient id="paint28_linear_258_6447" x1="17.8232" y1="15.9529" x2="25.9405" y2="30.8932" gradientUnits="userSpaceOnUse">
<stop stop-color="#F89580" stop-opacity="0"/>
<stop offset="0.9972" stop-color="#C5715A"/>
</linearGradient>
<linearGradient id="paint29_linear_258_6447" x1="28.3784" y1="14.0444" x2="30.3653" y2="19.2732" gradientUnits="userSpaceOnUse">
<stop stop-color="#F89580" stop-opacity="0"/>
<stop offset="0.9972" stop-color="#C5715A"/>
</linearGradient>
<linearGradient id="paint30_linear_258_6447" x1="27.4017" y1="13.0413" x2="28.5782" y2="16.0216" gradientUnits="userSpaceOnUse">
<stop stop-color="#5A5A5A" stop-opacity="0"/>
<stop offset="1" stop-color="#444444"/>
</linearGradient>
<linearGradient id="paint31_linear_258_6447" x1="20.8089" y1="34.0464" x2="20.8089" y2="41.617" gradientUnits="userSpaceOnUse">
<stop stop-color="#FEA613" stop-opacity="0"/>
<stop offset="1" stop-color="#E94444"/>
</linearGradient>
<linearGradient id="paint32_linear_258_6447" x1="24.7833" y1="19.1057" x2="23.3715" y2="11.158" gradientUnits="userSpaceOnUse">
<stop stop-color="white" stop-opacity="0"/>
<stop offset="1" stop-color="white"/>
</linearGradient>
</defs>
</svg>
