<svg width="580" height="823" viewBox="0 0 580 823" fill="none" xmlns="http://www.w3.org/2000/svg">
<g filter="url(#filter0_d_101_4869)">
<g clip-path="url(#clip0_101_4869)">
<rect x="50" y="38" width="480" height="723" rx="10" fill="url(#paint0_linear_101_4869)"/>
<g filter="url(#filter1_f_101_4869)">
<g opacity="0.8071">
<path d="M512.118 608.104C511.844 608.104 511.58 607.956 511.446 607.696L400.622 393.096C400.432 392.726 400.578 392.274 400.95 392.084C401.318 391.892 401.776 392.04 401.966 392.408L512.788 607.008C512.98 607.378 512.832 607.83 512.462 608.02C512.352 608.078 512.234 608.104 512.118 608.104Z" fill="url(#paint1_linear_101_4869)"/>
<path d="M512.118 608.104C511.844 608.104 511.58 607.956 511.446 607.696L400.622 393.096C400.432 392.726 400.578 392.274 400.95 392.084C401.318 391.892 401.776 392.04 401.966 392.408L512.788 607.008C512.98 607.378 512.832 607.83 512.462 608.02C512.352 608.078 512.234 608.104 512.118 608.104Z" fill="black" fill-opacity="0.2"/>
</g>
<path d="M401.294 393.504C401.116 393.504 400.938 393.442 400.794 393.316L338.652 338.558C338.34 338.284 338.312 337.808 338.588 337.498C338.864 337.186 339.342 337.158 339.652 337.432L401.794 392.19C402.108 392.464 402.136 392.94 401.86 393.25C401.71 393.418 401.502 393.504 401.294 393.504Z" fill="url(#paint2_linear_101_4869)"/>
<path d="M401.294 393.504C401.116 393.504 400.938 393.442 400.794 393.316L338.652 338.558C338.34 338.284 338.312 337.808 338.588 337.498C338.864 337.186 339.342 337.158 339.652 337.432L401.794 392.19C402.108 392.464 402.136 392.94 401.86 393.25C401.71 393.418 401.502 393.504 401.294 393.504Z" fill="black" fill-opacity="0.2"/>
<g opacity="0.721">
<path d="M383.878 511.872C383.842 511.872 383.804 511.87 383.768 511.864C383.354 511.804 383.07 511.422 383.13 511.012L400.548 392.644C400.608 392.232 401.004 391.95 401.404 392.008C401.816 392.07 402.102 392.45 402.042 392.862L384.624 511.23C384.568 511.604 384.246 511.872 383.878 511.872Z" fill="url(#paint3_linear_101_4869)"/>
<path d="M383.878 511.872C383.842 511.872 383.804 511.87 383.768 511.864C383.354 511.804 383.07 511.422 383.13 511.012L400.548 392.644C400.608 392.232 401.004 391.95 401.404 392.008C401.816 392.07 402.102 392.45 402.042 392.862L384.624 511.23C384.568 511.604 384.246 511.872 383.878 511.872Z" fill="black" fill-opacity="0.2"/>
</g>
<g opacity="0.6142">
<path d="M36.4163 446.118C36.1063 446.118 35.8163 445.926 35.7063 445.618C35.5663 445.226 35.7703 444.796 36.1623 444.658L338.898 337.288C339.29 337.146 339.722 337.352 339.864 337.744C340.004 338.134 339.798 338.564 339.406 338.704L36.6702 446.074C36.5862 446.104 36.5023 446.118 36.4163 446.118Z" fill="url(#paint4_linear_101_4869)"/>
<path d="M36.4163 446.118C36.1063 446.118 35.8163 445.926 35.7063 445.618C35.5663 445.226 35.7703 444.796 36.1623 444.658L338.898 337.288C339.29 337.146 339.722 337.352 339.864 337.744C340.004 338.134 339.798 338.564 339.406 338.704L36.6702 446.074C36.5862 446.104 36.5023 446.118 36.4163 446.118Z" fill="black" fill-opacity="0.2"/>
</g>
<g opacity="0.4568">
<path d="M426.374 510.448C426.026 510.448 425.712 510.206 425.636 509.852L400.556 392.91C400.468 392.504 400.73 392.104 401.138 392.018C401.544 391.928 401.946 392.19 402.032 392.596L427.114 509.538C427.2 509.944 426.94 510.344 426.532 510.43C426.478 510.442 426.426 510.448 426.374 510.448Z" fill="url(#paint5_linear_101_4869)"/>
<path d="M426.374 510.448C426.026 510.448 425.712 510.206 425.636 509.852L400.556 392.91C400.468 392.504 400.73 392.104 401.138 392.018C401.544 391.928 401.946 392.19 402.032 392.596L427.114 509.538C427.2 509.944 426.94 510.344 426.532 510.43C426.478 510.442 426.426 510.448 426.374 510.448Z" fill="black" fill-opacity="0.2"/>
</g>
<g opacity="0.3971">
<path d="M383.878 511.872C383.83 511.872 383.784 511.868 383.736 511.86L36.2761 446.104C35.8661 446.026 35.5962 445.632 35.6762 445.226C35.7522 444.816 36.1581 444.54 36.5581 444.628L384.018 510.382C384.428 510.46 384.696 510.854 384.618 511.26C384.55 511.622 384.232 511.872 383.878 511.872Z" fill="url(#paint6_linear_101_4869)"/>
<path d="M383.878 511.872C383.83 511.872 383.784 511.868 383.736 511.86L36.2761 446.104C35.8661 446.026 35.5962 445.632 35.6762 445.226C35.7522 444.816 36.1581 444.54 36.5581 444.628L384.018 510.382C384.428 510.46 384.696 510.854 384.618 511.26C384.55 511.622 384.232 511.872 383.878 511.872Z" fill="black" fill-opacity="0.2"/>
</g>
<path d="M512.116 608.104C511.958 608.104 511.797 608.054 511.663 607.952L383.422 511.72C383.09 511.472 383.022 511 383.274 510.668C383.524 510.334 383.998 510.27 384.33 510.52L512.572 606.752C512.904 607.002 512.972 607.474 512.72 607.804C512.572 608.002 512.346 608.104 512.116 608.104Z" fill="url(#paint7_linear_101_4869)"/>
<path d="M512.116 608.104C511.958 608.104 511.797 608.054 511.663 607.952L383.422 511.72C383.09 511.472 383.022 511 383.274 510.668C383.524 510.334 383.998 510.27 384.33 510.52L512.572 606.752C512.904 607.002 512.972 607.474 512.72 607.804C512.572 608.002 512.346 608.104 512.116 608.104Z" fill="black" fill-opacity="0.2"/>
<path d="M383.876 511.872C383.54 511.872 383.232 511.648 383.146 511.308L338.422 338.182C338.318 337.782 338.56 337.372 338.964 337.268C339.36 337.17 339.78 337.406 339.884 337.808L384.608 510.934C384.712 511.336 384.468 511.746 384.064 511.85C384.002 511.864 383.938 511.872 383.876 511.872Z" fill="url(#paint8_linear_101_4869)"/>
<path d="M383.876 511.872C383.54 511.872 383.232 511.648 383.146 511.308L338.422 338.182C338.318 337.782 338.56 337.372 338.964 337.268C339.36 337.17 339.78 337.406 339.884 337.808L384.608 510.934C384.712 511.336 384.468 511.746 384.064 511.85C384.002 511.864 383.938 511.872 383.876 511.872Z" fill="black" fill-opacity="0.2"/>
<g opacity="0.9634">
<path d="M512.118 608.104C511.906 608.104 511.698 608.016 511.548 607.846L425.806 510.19C425.532 509.878 425.564 509.402 425.878 509.13C426.19 508.856 426.668 508.886 426.942 509.202L512.686 606.858C512.96 607.17 512.928 607.644 512.614 607.918C512.472 608.044 512.294 608.104 512.118 608.104Z" fill="url(#paint9_linear_101_4869)"/>
<path d="M512.118 608.104C511.906 608.104 511.698 608.016 511.548 607.846L425.806 510.19C425.532 509.878 425.564 509.402 425.878 509.13C426.19 508.856 426.668 508.886 426.942 509.202L512.686 606.858C512.96 607.17 512.928 607.644 512.614 607.918C512.472 608.044 512.294 608.104 512.118 608.104Z" fill="black" fill-opacity="0.2"/>
</g>
<path d="M508.55 713.664C508.542 713.664 508.534 713.664 508.524 713.664C508.108 713.65 507.782 713.302 507.796 712.886L511.362 607.326C511.376 606.912 511.664 606.572 512.142 606.6C512.56 606.614 512.886 606.962 512.872 607.378L509.306 712.938C509.292 713.344 508.956 713.664 508.55 713.664Z" fill="url(#paint10_linear_101_4869)"/>
<path d="M508.55 713.664C508.542 713.664 508.534 713.664 508.524 713.664C508.108 713.65 507.782 713.302 507.796 712.886L511.362 607.326C511.376 606.912 511.664 606.572 512.142 606.6C512.56 606.614 512.886 606.962 512.872 607.378L509.306 712.938C509.292 713.344 508.956 713.664 508.55 713.664Z" fill="black" fill-opacity="0.2"/>
<g opacity="0.9621">
<path d="M426.376 510.448C426.1 510.448 425.834 510.296 425.702 510.036L338.48 338.336C338.29 337.964 338.44 337.512 338.812 337.326C339.184 337.134 339.638 337.286 339.826 337.656L427.048 509.356C427.236 509.726 427.088 510.18 426.716 510.366C426.606 510.422 426.49 510.448 426.376 510.448Z" fill="url(#paint11_linear_101_4869)"/>
<path d="M426.376 510.448C426.1 510.448 425.834 510.296 425.702 510.036L338.48 338.336C338.29 337.964 338.44 337.512 338.812 337.326C339.184 337.134 339.638 337.286 339.826 337.656L427.048 509.356C427.236 509.726 427.088 510.18 426.716 510.366C426.606 510.422 426.49 510.448 426.376 510.448Z" fill="black" fill-opacity="0.2"/>
</g>
<path d="M383.875 511.872C383.469 511.872 383.136 511.552 383.122 511.146C383.108 510.732 383.433 510.384 383.849 510.368L426.349 508.944C426.819 508.96 427.116 509.256 427.13 509.67C427.144 510.086 426.818 510.432 426.4 510.448L383.901 511.872C383.893 511.872 383.883 511.872 383.875 511.872Z" fill="url(#paint12_linear_101_4869)"/>
<path d="M383.875 511.872C383.469 511.872 383.136 511.552 383.122 511.146C383.108 510.732 383.433 510.384 383.849 510.368L426.349 508.944C426.819 508.96 427.116 509.256 427.13 509.67C427.144 510.086 426.818 510.432 426.4 510.448L383.901 511.872C383.893 511.872 383.883 511.872 383.875 511.872Z" fill="black" fill-opacity="0.2"/>
<g opacity="0.6159">
<path d="M461.238 834.906C460.858 834.906 460.53 834.62 460.488 834.234L425.624 509.776C425.58 509.362 425.88 508.992 426.294 508.948C426.71 508.894 427.08 509.202 427.126 509.616L461.99 834.074C462.034 834.486 461.734 834.858 461.32 834.902C461.292 834.904 461.264 834.906 461.238 834.906Z" fill="url(#paint13_linear_101_4869)"/>
<path d="M461.238 834.906C460.858 834.906 460.53 834.62 460.488 834.234L425.624 509.776C425.58 509.362 425.88 508.992 426.294 508.948C426.71 508.894 427.08 509.202 427.126 509.616L461.99 834.074C462.034 834.486 461.734 834.858 461.32 834.902C461.292 834.904 461.264 834.906 461.238 834.906Z" fill="black" fill-opacity="0.2"/>
</g>
<path d="M461.238 834.906C461.148 834.906 461.056 834.888 460.966 834.854C460.578 834.704 460.384 834.268 460.536 833.882L507.846 712.64C507.998 712.252 508.442 712.064 508.824 712.212C509.212 712.362 509.404 712.798 509.254 713.184L461.942 834.426C461.826 834.724 461.54 834.906 461.238 834.906Z" fill="url(#paint14_linear_101_4869)"/>
<path d="M461.238 834.906C461.148 834.906 461.056 834.888 460.966 834.854C460.578 834.704 460.384 834.268 460.536 833.882L507.846 712.64C507.998 712.252 508.442 712.064 508.824 712.212C509.212 712.362 509.404 712.798 509.254 713.184L461.942 834.426C461.826 834.724 461.54 834.906 461.238 834.906Z" fill="black" fill-opacity="0.2"/>
<path d="M508.55 713.664C508.252 713.664 507.968 713.486 507.85 713.192L425.674 509.976C425.518 509.59 425.706 509.154 426.092 508.998C426.478 508.844 426.92 509.03 427.074 509.414L509.25 712.632C509.406 713.016 509.218 713.454 508.832 713.608C508.74 713.646 508.644 713.664 508.55 713.664Z" fill="url(#paint15_linear_101_4869)"/>
<path d="M508.55 713.664C508.252 713.664 507.968 713.486 507.85 713.192L425.674 509.976C425.518 509.59 425.706 509.154 426.092 508.998C426.478 508.844 426.92 509.03 427.074 509.414L509.25 712.632C509.406 713.016 509.218 713.454 508.832 713.608C508.74 713.646 508.644 713.664 508.55 713.664Z" fill="black" fill-opacity="0.2"/>
<g opacity="0.7774">
<path d="M461.238 834.906C461.168 834.906 461.096 834.896 461.024 834.874C460.624 834.756 460.396 834.336 460.516 833.938L528.356 607.116C528.474 606.718 528.888 606.486 529.294 606.61C529.694 606.728 529.922 607.148 529.802 607.544L461.962 834.368C461.866 834.694 461.564 834.906 461.238 834.906Z" fill="url(#paint16_linear_101_4869)"/>
<path d="M461.238 834.906C461.168 834.906 461.096 834.896 461.024 834.874C460.624 834.756 460.396 834.336 460.516 833.938L528.356 607.116C528.474 606.718 528.888 606.486 529.294 606.61C529.694 606.728 529.922 607.148 529.802 607.544L461.962 834.368C461.866 834.694 461.564 834.906 461.238 834.906Z" fill="black" fill-opacity="0.2"/>
</g>
<path d="M529.079 608.082C528.893 608.082 528.705 608.012 528.559 607.874L425.855 510.238C425.553 509.952 425.543 509.476 425.831 509.176C426.115 508.876 426.597 508.866 426.897 509.152L529.6 606.788C529.902 607.074 529.913 607.55 529.625 607.85C529.479 608.004 529.279 608.082 529.079 608.082Z" fill="url(#paint17_linear_101_4869)"/>
<path d="M529.079 608.082C528.893 608.082 528.705 608.012 528.559 607.874L425.855 510.238C425.553 509.952 425.543 509.476 425.831 509.176C426.115 508.876 426.597 508.866 426.897 509.152L529.6 606.788C529.902 607.074 529.913 607.55 529.625 607.85C529.479 608.004 529.279 608.082 529.079 608.082Z" fill="black" fill-opacity="0.2"/>
<path d="M508.552 713.664C508.504 713.664 508.456 713.66 508.406 713.65C507.998 713.57 507.73 713.176 507.81 712.77L528.338 607.188C528.418 606.78 528.82 606.516 529.222 606.592C529.632 606.672 529.9 607.066 529.82 607.474L509.292 713.054C509.222 713.414 508.906 713.664 508.552 713.664Z" fill="url(#paint18_linear_101_4869)"/>
<path d="M508.552 713.664C508.504 713.664 508.456 713.66 508.406 713.65C507.998 713.57 507.73 713.176 507.81 712.77L528.338 607.188C528.418 606.78 528.82 606.516 529.222 606.592C529.632 606.672 529.9 607.066 529.82 607.474L509.292 713.054C509.222 713.414 508.906 713.664 508.552 713.664Z" fill="black" fill-opacity="0.2"/>
<path d="M426.376 510.448C426.132 510.448 425.892 510.33 425.746 510.112L382.69 445.878C382.46 445.532 382.554 445.066 382.9 444.834C383.248 444.604 383.716 444.698 383.948 445.044L427.002 509.278C427.234 509.624 427.14 510.09 426.794 510.322C426.664 510.406 426.52 510.448 426.376 510.448Z" fill="url(#paint19_linear_101_4869)"/>
<path d="M426.376 510.448C426.132 510.448 425.892 510.33 425.746 510.112L382.69 445.878C382.46 445.532 382.554 445.066 382.9 444.834C383.248 444.604 383.716 444.698 383.948 445.044L427.002 509.278C427.234 509.624 427.14 510.09 426.794 510.322C426.664 510.406 426.52 510.448 426.376 510.448Z" fill="black" fill-opacity="0.2"/>
<path d="M529.078 608.082C528.872 608.082 528.666 607.998 528.516 607.832L382.756 445.962C382.478 445.654 382.506 445.178 382.814 444.9C383.124 444.624 383.6 444.648 383.882 444.958L529.642 606.828C529.92 607.138 529.892 607.614 529.584 607.89C529.438 608.018 529.258 608.082 529.078 608.082Z" fill="url(#paint20_linear_101_4869)"/>
<path d="M529.078 608.082C528.872 608.082 528.666 607.998 528.516 607.832L382.756 445.962C382.478 445.654 382.506 445.178 382.814 444.9C383.124 444.624 383.6 444.648 383.882 444.958L529.642 606.828C529.92 607.138 529.892 607.614 529.584 607.89C529.438 608.018 529.258 608.082 529.078 608.082Z" fill="black" fill-opacity="0.2"/>
<path d="M383.32 446.212C383 446.212 382.704 446.01 382.6 445.692L371.026 410.012C370.898 409.616 371.114 409.194 371.512 409.066C371.906 408.942 372.334 409.154 372.462 409.55L384.038 445.23C384.166 445.624 383.948 446.048 383.552 446.176C383.474 446.2 383.396 446.212 383.32 446.212Z" fill="url(#paint21_linear_101_4869)"/>
<path d="M383.32 446.212C383 446.212 382.704 446.01 382.6 445.692L371.026 410.012C370.898 409.616 371.114 409.194 371.512 409.066C371.906 408.942 372.334 409.154 372.462 409.55L384.038 445.23C384.166 445.624 383.948 446.048 383.552 446.176C383.474 446.2 383.396 446.212 383.32 446.212Z" fill="black" fill-opacity="0.2"/>
<path d="M559.446 678.14C559.154 678.14 558.876 677.97 558.754 677.686L528.386 607.628C528.22 607.248 528.396 606.804 528.78 606.64C529.162 606.476 529.606 606.65 529.772 607.032L560.14 677.09C560.304 677.472 560.128 677.914 559.746 678.078C559.648 678.12 559.546 678.14 559.446 678.14Z" fill="url(#paint22_linear_101_4869)"/>
<path d="M559.446 678.14C559.154 678.14 558.876 677.97 558.754 677.686L528.386 607.628C528.22 607.248 528.396 606.804 528.78 606.64C529.162 606.476 529.606 606.65 529.772 607.032L560.14 677.09C560.304 677.472 560.128 677.914 559.746 678.078C559.648 678.12 559.546 678.14 559.446 678.14Z" fill="black" fill-opacity="0.2"/>
<path d="M286.84 578.282C286.686 578.282 286.532 578.236 286.396 578.138C286.06 577.896 285.984 577.424 286.23 577.088L382.708 445.018C382.952 444.686 383.426 444.61 383.764 444.852C384.1 445.096 384.176 445.568 383.93 445.902L287.452 577.974C287.304 578.176 287.074 578.282 286.84 578.282Z" fill="url(#paint23_linear_101_4869)"/>
<path d="M286.84 578.282C286.686 578.282 286.532 578.236 286.396 578.138C286.06 577.896 285.984 577.424 286.23 577.088L382.708 445.018C382.952 444.686 383.426 444.61 383.764 444.852C384.1 445.096 384.176 445.568 383.93 445.902L287.452 577.974C287.304 578.176 287.074 578.282 286.84 578.282Z" fill="black" fill-opacity="0.2"/>
<path d="M286.84 578.282C286.726 578.282 286.61 578.258 286.5 578.202C286.13 578.016 285.978 577.564 286.166 577.192L371.07 409.442C371.258 409.072 371.71 408.924 372.084 409.11C372.456 409.296 372.606 409.748 372.418 410.12L287.516 577.87C287.382 578.132 287.116 578.282 286.84 578.282Z" fill="url(#paint24_linear_101_4869)"/>
<path d="M286.84 578.282C286.726 578.282 286.61 578.258 286.5 578.202C286.13 578.016 285.978 577.564 286.166 577.192L371.07 409.442C371.258 409.072 371.71 408.924 372.084 409.11C372.456 409.296 372.606 409.748 372.418 410.12L287.516 577.87C287.382 578.132 287.116 578.282 286.84 578.282Z" fill="black" fill-opacity="0.2"/>
<g opacity="0.8126">
<path d="M559.446 678.14C559.36 678.14 559.272 678.126 559.186 678.094L286.58 578.236C286.19 578.092 285.988 577.662 286.132 577.272C286.276 576.88 286.712 576.68 287.102 576.826L559.706 676.682C560.098 676.826 560.298 677.258 560.156 677.648C560.042 677.952 559.754 678.14 559.446 678.14Z" fill="url(#paint25_linear_101_4869)"/>
<path d="M559.446 678.14C559.36 678.14 559.272 678.126 559.186 678.094L286.58 578.236C286.19 578.092 285.988 577.662 286.132 577.272C286.276 576.88 286.712 576.68 287.102 576.826L559.706 676.682C560.098 676.826 560.298 677.258 560.156 677.648C560.042 677.952 559.754 678.14 559.446 678.14Z" fill="black" fill-opacity="0.2"/>
</g>
<path d="M371.744 410.532C371.698 410.532 371.65 410.528 371.602 410.518L295.234 396C294.824 395.922 294.556 395.53 294.634 395.122C294.712 394.714 295.106 394.436 295.516 394.524L371.886 409.042C372.296 409.12 372.564 409.514 372.486 409.922C372.416 410.282 372.1 410.532 371.744 410.532Z" fill="url(#paint26_linear_101_4869)"/>
<path d="M371.744 410.532C371.698 410.532 371.65 410.528 371.602 410.518L295.234 396C294.824 395.922 294.556 395.53 294.634 395.122C294.712 394.714 295.106 394.436 295.516 394.524L371.886 409.042C372.296 409.12 372.564 409.514 372.486 409.922C372.416 410.282 372.1 410.532 371.744 410.532Z" fill="black" fill-opacity="0.2"/>
<path d="M79.6699 650.904C79.3599 650.904 79.0679 650.712 78.9579 650.402C78.8199 650.012 79.0259 649.582 79.4199 649.444L286.59 576.822C286.98 576.684 287.414 576.888 287.552 577.282C287.692 577.672 287.484 578.102 287.092 578.24L79.9219 650.862C79.8379 650.892 79.7539 650.904 79.6699 650.904Z" fill="url(#paint27_linear_101_4869)"/>
<path d="M79.6699 650.904C79.3599 650.904 79.0679 650.712 78.9579 650.402C78.8199 650.012 79.0259 649.582 79.4199 649.444L286.59 576.822C286.98 576.684 287.414 576.888 287.552 577.282C287.692 577.672 287.484 578.102 287.092 578.24L79.9219 650.862C79.8379 650.892 79.7539 650.904 79.6699 650.904Z" fill="black" fill-opacity="0.2"/>
<path d="M286.842 578.282C286.83 578.282 286.818 578.282 286.806 578.282C286.39 578.262 286.068 577.91 286.086 577.496L294.622 395.226C294.64 394.812 295 394.474 295.41 394.512C295.826 394.532 296.15 394.882 296.13 395.298L287.596 577.566C287.576 577.968 287.242 578.282 286.842 578.282Z" fill="url(#paint28_linear_101_4869)"/>
<path d="M286.842 578.282C286.83 578.282 286.818 578.282 286.806 578.282C286.39 578.262 286.068 577.91 286.086 577.496L294.622 395.226C294.64 394.812 295 394.474 295.41 394.512C295.826 394.532 296.15 394.882 296.13 395.298L287.596 577.566C287.576 577.968 287.242 578.282 286.842 578.282Z" fill="black" fill-opacity="0.2"/>
<path d="M420.898 505.196C420.624 505.196 420.36 505.048 420.226 504.79L371.074 410.126C370.882 409.758 371.028 409.304 371.396 409.114C371.77 408.92 372.224 409.066 372.414 409.436L421.568 504.1C421.758 504.468 421.614 504.922 421.244 505.112C421.132 505.17 421.014 505.196 420.898 505.196Z" fill="url(#paint29_linear_101_4869)"/>
<path d="M420.898 505.196C420.624 505.196 420.36 505.048 420.226 504.79L371.074 410.126C370.882 409.758 371.028 409.304 371.396 409.114C371.77 408.92 372.224 409.066 372.414 409.436L421.568 504.1C421.758 504.468 421.614 504.922 421.244 505.112C421.132 505.17 421.014 505.196 420.898 505.196Z" fill="black" fill-opacity="0.2"/>
<g opacity="0.8818">
<path d="M559.446 678.14C559.226 678.14 559.006 678.042 558.856 677.856L420.306 504.914C420.046 504.588 420.1 504.116 420.426 503.858C420.754 503.6 421.228 503.652 421.486 503.976L560.036 676.92C560.296 677.244 560.242 677.716 559.918 677.976C559.778 678.086 559.612 678.14 559.446 678.14Z" fill="url(#paint30_linear_101_4869)"/>
<path d="M559.446 678.14C559.226 678.14 559.006 678.042 558.856 677.856L420.306 504.914C420.046 504.588 420.1 504.116 420.426 503.858C420.754 503.6 421.228 503.652 421.486 503.976L560.036 676.92C560.296 677.244 560.242 677.716 559.918 677.976C559.778 678.086 559.612 678.14 559.446 678.14Z" fill="black" fill-opacity="0.2"/>
</g>
<path d="M286.842 578.282C286.574 578.282 286.316 578.142 286.178 577.892C285.978 577.528 286.112 577.07 286.478 576.872L420.534 503.786C420.902 503.588 421.358 503.722 421.56 504.084C421.758 504.448 421.626 504.904 421.26 505.104L287.204 578.19C287.088 578.254 286.964 578.282 286.842 578.282Z" fill="url(#paint31_linear_101_4869)"/>
<path d="M286.842 578.282C286.574 578.282 286.316 578.142 286.178 577.892C285.978 577.528 286.112 577.07 286.478 576.872L420.534 503.786C420.902 503.588 421.358 503.722 421.56 504.084C421.758 504.448 421.626 504.904 421.26 505.104L287.204 578.19C287.088 578.254 286.964 578.282 286.842 578.282Z" fill="black" fill-opacity="0.2"/>
<path d="M420.896 505.196C420.72 505.196 420.542 505.136 420.4 505.01L294.878 395.828C294.564 395.554 294.532 395.08 294.808 394.768C295.082 394.454 295.56 394.424 295.872 394.696L421.394 503.88C421.708 504.152 421.74 504.626 421.466 504.94C421.316 505.11 421.108 505.196 420.896 505.196Z" fill="url(#paint32_linear_101_4869)"/>
<path d="M420.896 505.196C420.72 505.196 420.542 505.136 420.4 505.01L294.878 395.828C294.564 395.554 294.532 395.08 294.808 394.768C295.082 394.454 295.56 394.424 295.872 394.696L421.394 503.88C421.708 504.152 421.74 504.626 421.466 504.94C421.316 505.11 421.108 505.196 420.896 505.196Z" fill="black" fill-opacity="0.2"/>
<g opacity="0.6606">
<path d="M79.6701 650.904C79.4541 650.904 79.2382 650.812 79.0882 650.632C78.8242 650.312 78.8682 649.838 79.1902 649.574L240.95 516.502C241.268 516.24 241.746 516.28 242.012 516.604C242.278 516.924 242.232 517.398 241.91 517.662L80.1521 650.732C80.0101 650.848 79.8401 650.904 79.6701 650.904Z" fill="url(#paint33_linear_101_4869)"/>
<path d="M79.6701 650.904C79.4541 650.904 79.2382 650.812 79.0882 650.632C78.8242 650.312 78.8682 649.838 79.1902 649.574L240.95 516.502C241.268 516.24 241.746 516.28 242.012 516.604C242.278 516.924 242.232 517.398 241.91 517.662L80.1521 650.732C80.0101 650.848 79.8401 650.904 79.6701 650.904Z" fill="black" fill-opacity="0.2"/>
</g>
<path d="M241.428 517.834C241.036 517.834 240.706 517.532 240.676 517.134C240.648 516.72 240.96 516.362 241.376 516.332L420.844 503.696C421.252 503.668 421.62 503.978 421.65 504.392C421.68 504.806 421.366 505.166 420.95 505.194L241.482 517.832C241.466 517.832 241.446 517.834 241.428 517.834Z" fill="url(#paint34_linear_101_4869)"/>
<path d="M241.428 517.834C241.036 517.834 240.706 517.532 240.676 517.134C240.648 516.72 240.96 516.362 241.376 516.332L420.844 503.696C421.252 503.668 421.62 503.978 421.65 504.392C421.68 504.806 421.366 505.166 420.95 505.194L241.482 517.832C241.466 517.832 241.446 517.834 241.428 517.834Z" fill="black" fill-opacity="0.2"/>
<g opacity="0.439">
<path d="M522.956 768.574C522.776 768.574 522.596 768.512 522.452 768.382L240.926 517.642C240.616 517.366 240.59 516.89 240.868 516.58C241.144 516.27 241.622 516.244 241.934 516.522L523.458 767.262C523.77 767.538 523.796 768.014 523.518 768.324C523.368 768.49 523.162 768.574 522.956 768.574Z" fill="url(#paint35_linear_101_4869)"/>
<path d="M522.956 768.574C522.776 768.574 522.596 768.512 522.452 768.382L240.926 517.642C240.616 517.366 240.59 516.89 240.868 516.58C241.144 516.27 241.622 516.244 241.934 516.522L523.458 767.262C523.77 767.538 523.796 768.014 523.518 768.324C523.368 768.49 523.162 768.574 522.956 768.574Z" fill="black" fill-opacity="0.2"/>
</g>
<path d="M241.428 517.834C241.3 517.834 241.168 517.8 241.048 517.732L137.9 457.618C137.54 457.41 137.42 456.948 137.63 456.59C137.84 456.232 138.304 456.112 138.664 456.32L241.812 516.434C242.172 516.642 242.292 517.104 242.082 517.462C241.942 517.7 241.688 517.834 241.428 517.834Z" fill="url(#paint36_linear_101_4869)"/>
<path d="M241.428 517.834C241.3 517.834 241.168 517.8 241.048 517.732L137.9 457.618C137.54 457.41 137.42 456.948 137.63 456.59C137.84 456.232 138.304 456.112 138.664 456.32L241.812 516.434C242.172 516.642 242.292 517.104 242.082 517.462C241.942 517.7 241.688 517.834 241.428 517.834Z" fill="black" fill-opacity="0.2"/>
<g opacity="0.9017">
<path d="M8.61191 697.754C8.49191 697.754 8.36793 697.726 8.25393 697.664C7.88793 697.468 7.7499 697.012 7.9479 696.646L137.618 456.614C137.816 456.25 138.272 456.11 138.64 456.308C139.006 456.504 139.144 456.96 138.946 457.326L9.27591 697.358C9.13991 697.612 8.8799 697.754 8.61191 697.754Z" fill="url(#paint37_linear_101_4869)"/>
<path d="M8.61191 697.754C8.49191 697.754 8.36793 697.726 8.25393 697.664C7.88793 697.468 7.7499 697.012 7.9479 696.646L137.618 456.614C137.816 456.25 138.272 456.11 138.64 456.308C139.006 456.504 139.144 456.96 138.946 457.326L9.27591 697.358C9.13991 697.612 8.8799 697.754 8.61191 697.754Z" fill="black" fill-opacity="0.2"/>
</g>
<g opacity="0.8886">
<path d="M522.954 768.574C522.844 768.574 522.728 768.55 522.622 768.496C522.248 768.314 522.094 767.862 522.278 767.49L620.638 568.486C620.822 568.114 621.272 567.956 621.65 568.142C622.024 568.326 622.178 568.776 621.994 569.148L523.632 768.154C523.5 768.42 523.234 768.574 522.954 768.574Z" fill="url(#paint38_linear_101_4869)"/>
<path d="M522.954 768.574C522.844 768.574 522.728 768.55 522.622 768.496C522.248 768.314 522.094 767.862 522.278 767.49L620.638 568.486C620.822 568.114 621.272 567.956 621.65 568.142C622.024 568.326 622.178 568.776 621.994 569.148L523.632 768.154C523.5 768.42 523.234 768.574 522.954 768.574Z" fill="black" fill-opacity="0.2"/>
</g>
<path d="M522.956 768.574C522.73 768.574 522.508 768.474 522.358 768.284C522.102 767.956 522.162 767.482 522.492 767.228L646.332 671.492C646.658 671.24 647.136 671.294 647.39 671.626C647.644 671.954 647.586 672.426 647.256 672.68L523.418 768.416C523.28 768.522 523.118 768.574 522.956 768.574Z" fill="url(#paint39_linear_101_4869)"/>
<path d="M522.956 768.574C522.73 768.574 522.508 768.474 522.358 768.284C522.102 767.956 522.162 767.482 522.492 767.228L646.332 671.492C646.658 671.24 647.136 671.294 647.39 671.626C647.644 671.954 647.586 672.426 647.256 672.68L523.418 768.416C523.28 768.522 523.118 768.574 522.956 768.574Z" fill="black" fill-opacity="0.2"/>
<g opacity="0.6122">
<path d="M138.282 457.722C137.924 457.722 137.606 457.468 137.54 457.106C137.464 456.696 137.736 456.306 138.146 456.23L475.26 394.6C475.672 394.526 476.064 394.796 476.14 395.204C476.214 395.612 475.944 396.004 475.534 396.078L138.418 457.708C138.372 457.718 138.326 457.722 138.282 457.722Z" fill="url(#paint40_linear_101_4869)"/>
<path d="M138.282 457.722C137.924 457.722 137.606 457.468 137.54 457.106C137.464 456.696 137.736 456.306 138.146 456.23L475.26 394.6C475.672 394.526 476.064 394.796 476.14 395.204C476.214 395.612 475.944 396.004 475.534 396.078L138.418 457.708C138.372 457.718 138.326 457.722 138.282 457.722Z" fill="black" fill-opacity="0.2"/>
</g>
<path d="M621.316 569.568C621.1 569.568 620.886 569.476 620.736 569.3L474.818 395.822C474.55 395.504 474.592 395.03 474.912 394.762C475.23 394.496 475.706 394.538 475.976 394.856L621.894 568.334C622.162 568.652 622.12 569.126 621.8 569.394C621.66 569.512 621.486 569.568 621.316 569.568Z" fill="url(#paint41_linear_101_4869)"/>
<path d="M621.316 569.568C621.1 569.568 620.886 569.476 620.736 569.3L474.818 395.822C474.55 395.504 474.592 395.03 474.912 394.762C475.23 394.496 475.706 394.538 475.976 394.856L621.894 568.334C622.162 568.652 622.12 569.126 621.8 569.394C621.66 569.512 621.486 569.568 621.316 569.568Z" fill="black" fill-opacity="0.2"/>
<g opacity="0.73">
<path d="M646.794 672.838C646.542 672.838 646.295 672.712 646.151 672.48L474.755 395.734C474.537 395.38 474.647 394.918 475.001 394.7C475.359 394.482 475.821 394.592 476.041 394.946L647.437 671.692C647.655 672.046 647.544 672.508 647.19 672.726C647.066 672.802 646.93 672.838 646.794 672.838Z" fill="url(#paint42_linear_101_4869)"/>
<path d="M646.794 672.838C646.542 672.838 646.295 672.712 646.151 672.48L474.755 395.734C474.537 395.38 474.647 394.918 475.001 394.7C475.359 394.482 475.821 394.592 476.041 394.946L647.437 671.692C647.655 672.046 647.544 672.508 647.19 672.726C647.066 672.802 646.93 672.838 646.794 672.838Z" fill="black" fill-opacity="0.2"/>
</g>
<g opacity="0.6732">
<path d="M138.284 457.722C138.012 457.722 137.75 457.576 137.614 457.322C137.42 456.954 137.56 456.5 137.93 456.306L172.156 438.29C172.526 438.098 172.98 438.238 173.176 438.604C173.37 438.97 173.23 439.426 172.862 439.62L138.636 457.634C138.522 457.694 138.402 457.722 138.284 457.722Z" fill="url(#paint43_linear_101_4869)"/>
<path d="M138.284 457.722C138.012 457.722 137.75 457.576 137.614 457.322C137.42 456.954 137.56 456.5 137.93 456.306L172.156 438.29C172.526 438.098 172.98 438.238 173.176 438.604C173.37 438.97 173.23 439.426 172.862 439.62L138.636 457.634C138.522 457.694 138.402 457.722 138.284 457.722Z" fill="black" fill-opacity="0.2"/>
</g>
<g opacity="0.6881">
<path d="M583.456 633.872C583.17 633.872 582.894 633.708 582.768 633.432L474.708 395.65C474.536 395.272 474.706 394.826 475.086 394.654C475.464 394.486 475.912 394.652 476.086 395.03L584.144 632.81C584.316 633.19 584.148 633.634 583.768 633.806C583.666 633.85 583.56 633.872 583.456 633.872Z" fill="url(#paint44_linear_101_4869)"/>
<path d="M583.456 633.872C583.17 633.872 582.894 633.708 582.768 633.432L474.708 395.65C474.536 395.272 474.706 394.826 475.086 394.654C475.464 394.486 475.912 394.652 476.086 395.03L584.144 632.81C584.316 633.19 584.148 633.634 583.768 633.806C583.666 633.85 583.56 633.872 583.456 633.872Z" fill="black" fill-opacity="0.2"/>
</g>
<g opacity="0.9268">
<path d="M336.2 525.046C336.082 525.046 335.962 525.018 335.85 524.96L172.158 439.62C171.788 439.428 171.646 438.974 171.84 438.606C172.032 438.238 172.488 438.096 172.858 438.29L336.55 523.628C336.92 523.82 337.062 524.274 336.868 524.642C336.734 524.9 336.472 525.046 336.2 525.046Z" fill="url(#paint45_linear_101_4869)"/>
<path d="M336.2 525.046C336.082 525.046 335.962 525.018 335.85 524.96L172.158 439.62C171.788 439.428 171.646 438.974 171.84 438.606C172.032 438.238 172.488 438.096 172.858 438.29L336.55 523.628C336.92 523.82 337.062 524.274 336.868 524.642C336.734 524.9 336.472 525.046 336.2 525.046Z" fill="black" fill-opacity="0.2"/>
</g>
<g opacity="0.5853">
<path d="M258.266 569.69C258.02 569.69 257.78 569.57 257.634 569.352L171.878 439.368C171.648 439.02 171.746 438.554 172.094 438.326C172.444 438.098 172.912 438.196 173.14 438.542L258.896 568.526C259.124 568.872 259.028 569.338 258.68 569.566C258.552 569.65 258.408 569.69 258.266 569.69Z" fill="url(#paint46_linear_101_4869)"/>
<path d="M258.266 569.69C258.02 569.69 257.78 569.57 257.634 569.352L171.878 439.368C171.648 439.02 171.746 438.554 172.094 438.326C172.444 438.098 172.912 438.196 173.14 438.542L258.896 568.526C259.124 568.872 259.028 569.338 258.68 569.566C258.552 569.65 258.408 569.69 258.266 569.69Z" fill="black" fill-opacity="0.2"/>
</g>
<g opacity="0.3806">
<path d="M-24.8638 801.318C-25.0818 801.318 -25.2978 801.224 -25.4478 801.044C-25.7118 800.724 -25.6658 800.25 -25.3438 799.986L257.784 568.358C258.106 568.094 258.584 568.14 258.848 568.46C259.114 568.782 259.066 569.256 258.744 569.518L-24.3838 801.146C-24.5238 801.262 -24.6938 801.318 -24.8638 801.318Z" fill="url(#paint47_linear_101_4869)"/>
<path d="M-24.8638 801.318C-25.0818 801.318 -25.2978 801.224 -25.4478 801.044C-25.7118 800.724 -25.6658 800.25 -25.3438 799.986L257.784 568.358C258.106 568.094 258.584 568.14 258.848 568.46C259.114 568.782 259.066 569.256 258.744 569.518L-24.3838 801.146C-24.5238 801.262 -24.6938 801.318 -24.8638 801.318Z" fill="black" fill-opacity="0.2"/>
</g>
<path d="M258.266 569.69C258.004 569.69 257.75 569.556 257.61 569.314C257.402 568.954 257.526 568.494 257.888 568.286L335.824 523.642C336.186 523.436 336.648 523.56 336.856 523.92C337.062 524.28 336.938 524.738 336.576 524.946L258.642 569.59C258.522 569.658 258.394 569.69 258.266 569.69Z" fill="url(#paint48_linear_101_4869)"/>
<path d="M258.266 569.69C258.004 569.69 257.75 569.556 257.61 569.314C257.402 568.954 257.526 568.494 257.888 568.286L335.824 523.642C336.186 523.436 336.648 523.56 336.856 523.92C337.062 524.28 336.938 524.738 336.576 524.946L258.642 569.59C258.522 569.658 258.394 569.69 258.266 569.69Z" fill="black" fill-opacity="0.2"/>
<g opacity="0.4284">
<path d="M-64.5384 824.928C-64.7604 824.928 -64.9804 824.83 -65.1284 824.644C-65.3884 824.318 -65.3344 823.844 -65.0084 823.588L257.794 568.35C258.124 568.09 258.598 568.146 258.856 568.47C259.116 568.796 259.062 569.27 258.734 569.526L-64.0684 824.764C-64.2084 824.874 -64.3724 824.928 -64.5384 824.928Z" fill="url(#paint49_linear_101_4869)"/>
<path d="M-64.5384 824.928C-64.7604 824.928 -64.9804 824.83 -65.1284 824.644C-65.3884 824.318 -65.3344 823.844 -65.0084 823.588L257.794 568.35C258.124 568.09 258.598 568.146 258.856 568.47C259.116 568.796 259.062 569.27 258.734 569.526L-64.0684 824.764C-64.2084 824.874 -64.3724 824.928 -64.5384 824.928Z" fill="black" fill-opacity="0.2"/>
</g>
<g opacity="0.9738">
<path d="M336.2 525.046C335.832 525.046 335.51 524.778 335.454 524.404L308.076 341.248C308.014 340.838 308.298 340.456 308.712 340.394C309.116 340.34 309.508 340.616 309.57 341.028L336.948 524.184C337.008 524.594 336.724 524.976 336.312 525.038C336.274 525.044 336.236 525.046 336.2 525.046Z" fill="url(#paint50_linear_101_4869)"/>
<path d="M336.2 525.046C335.832 525.046 335.51 524.778 335.454 524.404L308.076 341.248C308.014 340.838 308.298 340.456 308.712 340.394C309.116 340.34 309.508 340.616 309.57 341.028L336.948 524.184C337.008 524.594 336.724 524.976 336.312 525.038C336.274 525.044 336.236 525.046 336.2 525.046Z" fill="black" fill-opacity="0.2"/>
</g>
<g opacity="0.6772">
<path d="M505.062 546.54C505.03 546.54 504.998 546.538 504.966 546.534L336.104 525.04C335.692 524.988 335.398 524.61 335.452 524.2C335.504 523.788 335.866 523.496 336.296 523.548L505.156 545.042C505.57 545.096 505.862 545.472 505.81 545.884C505.76 546.264 505.436 546.54 505.062 546.54Z" fill="url(#paint51_linear_101_4869)"/>
<path d="M505.062 546.54C505.03 546.54 504.998 546.538 504.966 546.534L336.104 525.04C335.692 524.988 335.398 524.61 335.452 524.2C335.504 523.788 335.866 523.496 336.296 523.548L505.156 545.042C505.57 545.096 505.862 545.472 505.81 545.884C505.76 546.264 505.436 546.54 505.062 546.54Z" fill="black" fill-opacity="0.2"/>
</g>
<path d="M258.266 569.69C258.212 569.69 258.156 569.684 258.102 569.672C257.694 569.582 257.438 569.182 257.528 568.776L308.086 340.976C308.174 340.57 308.58 340.32 308.986 340.404C309.392 340.494 309.65 340.896 309.56 341.3L259.002 569.1C258.924 569.452 258.612 569.69 258.266 569.69Z" fill="url(#paint52_linear_101_4869)"/>
<path d="M258.266 569.69C258.212 569.69 258.156 569.684 258.102 569.672C257.694 569.582 257.438 569.182 257.528 568.776L308.086 340.976C308.174 340.57 308.58 340.32 308.986 340.404C309.392 340.494 309.65 340.896 309.56 341.3L259.002 569.1C258.924 569.452 258.612 569.69 258.266 569.69Z" fill="black" fill-opacity="0.2"/>
<g opacity="0.5708">
<path d="M86.8502 887.082C86.7302 887.082 86.6083 887.054 86.4943 886.992C86.1263 886.796 85.9902 886.34 86.1862 885.974L257.6 568.582C257.796 568.218 258.25 568.076 258.622 568.276C258.99 568.472 259.126 568.928 258.93 569.294L87.5162 886.688C87.3802 886.94 87.1202 887.082 86.8502 887.082Z" fill="url(#paint53_linear_101_4869)"/>
<path d="M86.8502 887.082C86.7302 887.082 86.6083 887.054 86.4943 886.992C86.1263 886.796 85.9902 886.34 86.1862 885.974L257.6 568.582C257.796 568.218 258.25 568.076 258.622 568.276C258.99 568.472 259.126 568.928 258.93 569.294L87.5162 886.688C87.3802 886.94 87.1202 887.082 86.8502 887.082Z" fill="black" fill-opacity="0.2"/>
</g>
<g opacity="0.8588">
<path d="M258.264 569.69C257.878 569.69 257.55 569.398 257.512 569.008C257.474 568.596 257.78 568.228 258.194 568.19L504.99 545.04C505.39 544.994 505.772 545.304 505.812 545.718C505.85 546.13 505.546 546.498 505.132 546.538L258.336 569.688C258.312 569.69 258.288 569.69 258.264 569.69Z" fill="url(#paint54_linear_101_4869)"/>
<path d="M258.264 569.69C257.878 569.69 257.55 569.398 257.512 569.008C257.474 568.596 257.78 568.228 258.194 568.19L504.99 545.04C505.39 544.994 505.772 545.304 505.812 545.718C505.85 546.13 505.546 546.498 505.132 546.538L258.336 569.688C258.312 569.69 258.288 569.69 258.264 569.69Z" fill="black" fill-opacity="0.2"/>
</g>
<path d="M648.566 640.072C648.424 640.072 648.282 640.034 648.154 639.95L504.646 546.418C504.298 546.19 504.2 545.724 504.428 545.376C504.658 545.03 505.122 544.93 505.474 545.158L648.98 638.692C649.33 638.92 649.426 639.386 649.198 639.732C649.054 639.954 648.812 640.072 648.566 640.072Z" fill="url(#paint55_linear_101_4869)"/>
<path d="M648.566 640.072C648.424 640.072 648.282 640.034 648.154 639.95L504.646 546.418C504.298 546.19 504.2 545.724 504.428 545.376C504.658 545.03 505.122 544.93 505.474 545.158L648.98 638.692C649.33 638.92 649.426 639.386 649.198 639.732C649.054 639.954 648.812 640.072 648.566 640.072Z" fill="black" fill-opacity="0.2"/>
<g opacity="0.8881">
<path d="M505.06 546.54C504.862 546.54 504.662 546.462 504.514 546.308L308.276 341.656C307.988 341.358 308 340.88 308.302 340.594C308.6 340.308 309.08 340.318 309.368 340.62L505.606 545.27C505.894 545.57 505.884 546.046 505.582 546.332C505.436 546.47 505.248 546.54 505.06 546.54Z" fill="url(#paint56_linear_101_4869)"/>
<path d="M505.06 546.54C504.862 546.54 504.662 546.462 504.514 546.308L308.276 341.656C307.988 341.358 308 340.88 308.302 340.594C308.6 340.308 309.08 340.318 309.368 340.62L505.606 545.27C505.894 545.57 505.884 546.046 505.582 546.332C505.436 546.47 505.248 546.54 505.06 546.54Z" fill="black" fill-opacity="0.2"/>
</g>
<g opacity="0.2269">
<path d="M657.33 631.132C657.294 631.132 657.254 631.128 657.214 631.122L258.15 569.682C257.736 569.618 257.454 569.234 257.518 568.824C257.582 568.412 257.976 568.136 258.38 568.196L657.446 629.636C657.858 629.7 658.14 630.084 658.076 630.494C658.018 630.866 657.698 631.132 657.33 631.132Z" fill="url(#paint57_linear_101_4869)"/>
<path d="M657.33 631.132C657.294 631.132 657.254 631.128 657.214 631.122L258.15 569.682C257.736 569.618 257.454 569.234 257.518 568.824C257.582 568.412 257.976 568.136 258.38 568.196L657.446 629.636C657.858 629.7 658.14 630.084 658.076 630.494C658.018 630.866 657.698 631.132 657.33 631.132Z" fill="black" fill-opacity="0.2"/>
</g>
<path d="M657.33 631.132C657.204 631.132 657.078 631.102 656.962 631.036L504.692 546.446C504.328 546.242 504.198 545.784 504.4 545.422C504.604 545.06 505.062 544.928 505.428 545.132L657.698 629.724C658.062 629.926 658.194 630.384 657.99 630.746C657.852 630.992 657.594 631.132 657.33 631.132Z" fill="url(#paint58_linear_101_4869)"/>
<path d="M657.33 631.132C657.204 631.132 657.078 631.102 656.962 631.036L504.692 546.446C504.328 546.242 504.198 545.784 504.4 545.422C504.604 545.06 505.062 544.928 505.428 545.132L657.698 629.724C658.062 629.926 658.194 630.384 657.99 630.746C657.852 630.992 657.594 631.132 657.33 631.132Z" fill="black" fill-opacity="0.2"/>
<g opacity="0.5522">
<path d="M200.5 436.5C200.292 436.5 200.082 436.414 199.934 436.244C199.658 435.932 199.69 435.456 200.004 435.184L308.324 340.572C308.636 340.3 309.118 340.328 309.39 340.642C309.664 340.954 309.634 341.43 309.32 341.702L200.998 436.312C200.856 436.438 200.678 436.5 200.5 436.5Z" fill="url(#paint59_linear_101_4869)"/>
<path d="M200.5 436.5C200.292 436.5 200.082 436.414 199.934 436.244C199.658 435.932 199.69 435.456 200.004 435.184L308.324 340.572C308.636 340.3 309.118 340.328 309.39 340.642C309.664 340.954 309.634 341.43 309.32 341.702L200.998 436.312C200.856 436.438 200.678 436.5 200.5 436.5Z" fill="black" fill-opacity="0.2"/>
</g>
<g opacity="0.9809">
<path d="M310.612 556.508C310.408 556.508 310.204 556.426 310.056 556.264L199.944 436.256C199.662 435.948 199.684 435.474 199.992 435.194C200.3 434.914 200.778 434.934 201.058 435.242L311.17 555.25C311.452 555.556 311.43 556.032 311.122 556.312C310.978 556.444 310.794 556.508 310.612 556.508Z" fill="url(#paint60_linear_101_4869)"/>
<path d="M310.612 556.508C310.408 556.508 310.204 556.426 310.056 556.264L199.944 436.256C199.662 435.948 199.684 435.474 199.992 435.194C200.3 434.914 200.778 434.934 201.058 435.242L311.17 555.25C311.452 555.556 311.43 556.032 311.122 556.312C310.978 556.444 310.794 556.508 310.612 556.508Z" fill="black" fill-opacity="0.2"/>
</g>
<g opacity="0.1919">
<path d="M787.364 769.154C787.26 769.154 787.154 769.134 787.054 769.088L310.304 556.442C309.924 556.272 309.754 555.828 309.924 555.448C310.094 555.07 310.54 554.898 310.922 555.07L787.672 767.716C788.054 767.886 788.222 768.33 788.052 768.71C787.928 768.988 787.65 769.154 787.364 769.154Z" fill="url(#paint61_linear_101_4869)"/>
<path d="M787.364 769.154C787.26 769.154 787.154 769.134 787.054 769.088L310.304 556.442C309.924 556.272 309.754 555.828 309.924 555.448C310.094 555.07 310.54 554.898 310.922 555.07L787.672 767.716C788.054 767.886 788.222 768.33 788.052 768.71C787.928 768.988 787.65 769.154 787.364 769.154Z" fill="black" fill-opacity="0.2"/>
</g>
<g opacity="0.8004">
<path d="M571.196 777.086C571.022 777.086 570.848 777.028 570.708 776.908L310.124 556.328C309.806 556.06 309.768 555.586 310.038 555.27C310.308 554.952 310.788 554.916 311.102 555.184L571.684 775.762C572.002 776.032 572.042 776.504 571.77 776.822C571.622 776.996 571.408 777.086 571.196 777.086Z" fill="url(#paint62_linear_101_4869)"/>
<path d="M571.196 777.086C571.022 777.086 570.848 777.028 570.708 776.908L310.124 556.328C309.806 556.06 309.768 555.586 310.038 555.27C310.308 554.952 310.788 554.916 311.102 555.184L571.684 775.762C572.002 776.032 572.042 776.504 571.77 776.822C571.622 776.996 571.408 777.086 571.196 777.086Z" fill="black" fill-opacity="0.2"/>
</g>
<path d="M402.128 387.908C404.816 388.366 406.62 390.906 406.16 393.582C405.7 396.258 403.148 398.056 400.46 397.596C397.772 397.138 395.968 394.598 396.428 391.922C396.888 389.246 399.44 387.448 402.128 387.908Z" fill="url(#paint63_linear_101_4869)"/>
<path d="M402.128 387.908C404.816 388.366 406.62 390.906 406.16 393.582C405.7 396.258 403.148 398.056 400.46 397.596C397.772 397.138 395.968 394.598 396.428 391.922C396.888 389.246 399.44 387.448 402.128 387.908Z" fill="black" fill-opacity="0.2"/>
<path d="M513.089 601.716C516.215 602.25 518.314 605.206 517.778 608.318C517.242 611.432 514.275 613.522 511.147 612.99C508.021 612.456 505.921 609.5 506.457 606.386C506.993 603.274 509.961 601.182 513.089 601.716Z" fill="url(#paint64_linear_101_4869)"/>
<path d="M513.089 601.716C516.215 602.25 518.314 605.206 517.778 608.318C517.242 611.432 514.275 613.522 511.147 612.99C508.021 612.456 505.921 609.5 506.457 606.386C506.993 603.274 509.961 601.182 513.089 601.716Z" fill="black" fill-opacity="0.2"/>
<path d="M340.42 330.628C344.508 331.324 347.254 335.19 346.552 339.258C345.852 343.328 341.971 346.062 337.883 345.364C333.797 344.666 331.052 340.802 331.752 336.732C332.452 332.664 336.334 329.93 340.42 330.628Z" fill="url(#paint65_linear_101_4869)"/>
<path d="M340.42 330.628C344.508 331.324 347.254 335.19 346.552 339.258C345.852 343.328 341.971 346.062 337.883 345.364C333.797 344.666 331.052 340.802 331.752 336.732C332.452 332.664 336.334 329.93 340.42 330.628Z" fill="black" fill-opacity="0.2"/>
<path d="M384.528 507.338C386.626 507.698 388.034 509.68 387.676 511.77C387.316 513.858 385.324 515.262 383.226 514.904C381.128 514.546 379.718 512.562 380.078 510.472C380.438 508.384 382.43 506.98 384.528 507.338Z" fill="url(#paint66_linear_101_4869)"/>
<path d="M384.528 507.338C386.626 507.698 388.034 509.68 387.676 511.77C387.316 513.858 385.324 515.262 383.226 514.904C381.128 514.546 379.718 512.562 380.078 510.472C380.438 508.384 382.43 506.98 384.528 507.338Z" fill="black" fill-opacity="0.2"/>
<path d="M427.24 504.668C430.028 505.144 431.9 507.78 431.422 510.556C430.944 513.332 428.298 515.198 425.51 514.722C422.722 514.246 420.848 511.61 421.326 508.834C421.804 506.058 424.452 504.192 427.24 504.668Z" fill="url(#paint67_linear_101_4869)"/>
<path d="M427.24 504.668C430.028 505.144 431.9 507.78 431.422 510.556C430.944 513.332 428.298 515.198 425.51 514.722C422.722 514.246 420.848 511.61 421.326 508.834C421.804 506.058 424.452 504.192 427.24 504.668Z" fill="black" fill-opacity="0.2"/>
<path d="M509.48 707.512C512.476 708.024 514.486 710.856 513.974 713.838C513.46 716.82 510.616 718.822 507.62 718.312C504.626 717.8 502.614 714.968 503.126 711.986C503.64 709.004 506.484 707 509.48 707.512Z" fill="url(#paint68_linear_101_4869)"/>
<path d="M509.48 707.512C512.476 708.024 514.486 710.856 513.974 713.838C513.46 716.82 510.616 718.822 507.62 718.312C504.626 717.8 502.614 714.968 503.126 711.986C503.64 709.004 506.484 707 509.48 707.512Z" fill="black" fill-opacity="0.2"/>
<path d="M529.94 602.328C532.714 602.802 534.578 605.424 534.102 608.188C533.628 610.95 530.992 612.806 528.218 612.332C525.444 611.858 523.58 609.236 524.054 606.472C524.53 603.71 527.166 601.854 529.94 602.328Z" fill="url(#paint69_linear_101_4869)"/>
<path d="M529.94 602.328C532.714 602.802 534.578 605.424 534.102 608.188C533.628 610.95 530.992 612.806 528.218 612.332C525.444 611.858 523.58 609.236 524.054 606.472C524.53 603.71 527.166 601.854 529.94 602.328Z" fill="black" fill-opacity="0.2"/>
<path d="M384.706 437.396C389.18 438.16 392.184 442.388 391.416 446.842C390.65 451.296 386.404 454.286 381.93 453.524C377.458 452.76 374.454 448.532 375.22 444.078C375.988 439.624 380.234 436.634 384.706 437.396Z" fill="url(#paint70_linear_101_4869)"/>
<path d="M384.706 437.396C389.18 438.16 392.184 442.388 391.416 446.842C390.65 451.296 386.404 454.286 381.93 453.524C377.458 452.76 374.454 448.532 375.22 444.078C375.988 439.624 380.234 436.634 384.706 437.396Z" fill="black" fill-opacity="0.2"/>
<path d="M372.688 404.294C375.732 404.814 377.776 407.692 377.254 410.722C376.732 413.752 373.842 415.788 370.8 415.268C367.756 414.748 365.712 411.87 366.232 408.84C366.754 405.81 369.644 403.774 372.688 404.294Z" fill="url(#paint71_linear_101_4869)"/>
<path d="M372.688 404.294C375.732 404.814 377.776 407.692 377.254 410.722C376.732 413.752 373.842 415.788 370.8 415.268C367.756 414.748 365.712 411.87 366.232 408.84C366.754 405.81 369.644 403.774 372.688 404.294Z" fill="black" fill-opacity="0.2"/>
<path d="M288.472 568.064C293.722 568.96 297.25 573.926 296.35 579.154C295.45 584.382 290.464 587.894 285.212 586.998C279.96 586.102 276.432 581.138 277.332 575.908C278.232 570.68 283.22 567.168 288.472 568.064Z" fill="url(#paint72_linear_101_4869)"/>
<path d="M288.472 568.064C293.722 568.96 297.25 573.926 296.35 579.154C295.45 584.382 290.464 587.894 285.212 586.998C279.96 586.102 276.432 581.138 277.332 575.908C278.232 570.68 283.22 567.168 288.472 568.064Z" fill="black" fill-opacity="0.2"/>
<path d="M80.6898 644.224C83.9798 644.786 86.1878 647.894 85.6238 651.168C85.0598 654.442 81.9378 656.642 78.6498 656.08C75.3618 655.52 73.1518 652.41 73.7158 649.136C74.2798 645.862 77.4018 643.664 80.6898 644.224Z" fill="url(#paint73_linear_101_4869)"/>
<path d="M80.6898 644.224C83.9798 644.786 86.1878 647.894 85.6238 651.168C85.0598 654.442 81.9378 656.642 78.6498 656.08C75.3618 655.52 73.1518 652.41 73.7158 649.136C74.2798 645.862 77.4018 643.664 80.6898 644.224Z" fill="black" fill-opacity="0.2"/>
<path d="M296.356 389.568C299.514 390.106 301.636 393.094 301.094 396.238C300.554 399.384 297.554 401.496 294.394 400.958C291.236 400.418 289.114 397.432 289.656 394.286C290.196 391.14 293.196 389.028 296.356 389.568Z" fill="url(#paint74_linear_101_4869)"/>
<path d="M296.356 389.568C299.514 390.106 301.636 393.094 301.094 396.238C300.554 399.384 297.554 401.496 294.394 400.958C291.236 400.418 289.114 397.432 289.656 394.286C290.196 391.14 293.196 389.028 296.356 389.568Z" fill="black" fill-opacity="0.2"/>
<path d="M421.684 499.874C424.22 500.308 425.922 502.704 425.488 505.228C425.054 507.752 422.646 509.448 420.11 509.016C417.576 508.582 415.872 506.186 416.306 503.662C416.742 501.138 419.148 499.442 421.684 499.874Z" fill="url(#paint75_linear_101_4869)"/>
<path d="M421.684 499.874C424.22 500.308 425.922 502.704 425.488 505.228C425.054 507.752 422.646 509.448 420.11 509.016C417.576 508.582 415.872 506.186 416.306 503.662C416.742 501.138 419.148 499.442 421.684 499.874Z" fill="black" fill-opacity="0.2"/>
<path d="M242.868 508.732C247.5 509.522 250.612 513.902 249.818 518.514C249.024 523.126 244.624 526.224 239.992 525.434C235.36 524.642 232.248 520.264 233.042 515.65C233.836 511.038 238.236 507.94 242.868 508.732Z" fill="url(#paint76_linear_101_4869)"/>
<path d="M242.868 508.732C247.5 509.522 250.612 513.902 249.818 518.514C249.024 523.126 244.624 526.224 239.992 525.434C235.36 524.642 232.248 520.264 233.042 515.65C233.836 511.038 238.236 507.94 242.868 508.732Z" fill="black" fill-opacity="0.2"/>
<path d="M139.68 448.856C144.18 449.624 147.202 453.88 146.43 458.36C145.66 462.842 141.386 465.85 136.886 465.082C132.386 464.314 129.362 460.06 130.134 455.58C130.906 451.098 135.178 448.088 139.68 448.856Z" fill="url(#paint77_linear_101_4869)"/>
<path d="M139.68 448.856C144.18 449.624 147.202 453.88 146.43 458.36C145.66 462.842 141.386 465.85 136.886 465.082C132.386 464.314 129.362 460.06 130.134 455.58C130.906 451.098 135.178 448.088 139.68 448.856Z" fill="black" fill-opacity="0.2"/>
<path d="M476.572 388.52C480.354 389.166 482.894 392.742 482.246 396.508C481.598 400.274 478.006 402.804 474.224 402.158C470.442 401.512 467.9 397.936 468.548 394.17C469.198 390.404 472.788 387.876 476.572 388.52Z" fill="url(#paint78_linear_101_4869)"/>
<path d="M476.572 388.52C480.354 389.166 482.894 392.742 482.246 396.508C481.598 400.274 478.006 402.804 474.224 402.158C470.442 401.512 467.9 397.936 468.548 394.17C469.198 390.404 472.788 387.876 476.572 388.52Z" fill="black" fill-opacity="0.2"/>
<path d="M174.108 429.666C179.26 430.544 182.722 435.416 181.838 440.548C180.956 445.678 176.062 449.124 170.91 448.244C165.756 447.366 162.294 442.494 163.178 437.362C164.062 432.232 168.954 428.786 174.108 429.666Z" fill="url(#paint79_linear_101_4869)"/>
<path d="M174.108 429.666C179.26 430.544 182.722 435.416 181.838 440.548C180.956 445.678 176.062 449.124 170.91 448.244C165.756 447.366 162.294 442.494 163.178 437.362C164.062 432.232 168.954 428.786 174.108 429.666Z" fill="black" fill-opacity="0.2"/>
<path d="M336.992 519.698C339.54 520.134 341.252 522.544 340.816 525.082C340.378 527.62 337.958 529.324 335.41 528.888C332.86 528.454 331.148 526.044 331.586 523.506C332.022 520.968 334.442 519.264 336.992 519.698Z" fill="url(#paint80_linear_101_4869)"/>
<path d="M336.992 519.698C339.54 520.134 341.252 522.544 340.816 525.082C340.378 527.62 337.958 529.324 335.41 528.888C332.86 528.454 331.148 526.044 331.586 523.506C332.022 520.968 334.442 519.264 336.992 519.698Z" fill="black" fill-opacity="0.2"/>
<path d="M259.253 563.206C262.431 563.748 264.566 566.754 264.022 569.92C263.476 573.086 260.459 575.212 257.279 574.67C254.099 574.128 251.965 571.122 252.509 567.956C253.053 564.79 256.073 562.664 259.253 563.206Z" fill="url(#paint81_linear_101_4869)"/>
<path d="M259.253 563.206C262.431 563.748 264.566 566.754 264.022 569.92C263.476 573.086 260.459 575.212 257.279 574.67C254.099 574.128 251.965 571.122 252.509 567.956C253.053 564.79 256.073 562.664 259.253 563.206Z" fill="black" fill-opacity="0.2"/>
<path d="M309.692 336.086C312.494 336.564 314.376 339.214 313.896 342.004C313.416 344.794 310.754 346.668 307.952 346.19C305.15 345.712 303.268 343.062 303.748 340.272C304.228 337.482 306.89 335.608 309.692 336.086Z" fill="url(#paint82_linear_101_4869)"/>
<path d="M309.692 336.086C312.494 336.564 314.376 339.214 313.896 342.004C313.416 344.794 310.754 346.668 307.952 346.19C305.15 345.712 303.268 343.062 303.748 340.272C304.228 337.482 306.89 335.608 309.692 336.086Z" fill="black" fill-opacity="0.2"/>
<path d="M506.224 539.034C509.97 539.672 512.486 543.216 511.844 546.946C511.202 550.676 507.644 553.182 503.898 552.542C500.15 551.904 497.634 548.36 498.276 544.63C498.918 540.9 502.476 538.394 506.224 539.034Z" fill="url(#paint83_linear_101_4869)"/>
<path d="M506.224 539.034C509.97 539.672 512.486 543.216 511.844 546.946C511.202 550.676 507.644 553.182 503.898 552.542C500.15 551.904 497.634 548.36 498.276 544.63C498.918 540.9 502.476 538.394 506.224 539.034Z" fill="black" fill-opacity="0.2"/>
<path d="M201.982 427.142C206.754 427.958 209.96 432.47 209.142 437.222C208.324 441.974 203.792 445.166 199.02 444.352C194.246 443.538 191.04 439.026 191.858 434.272C192.676 429.52 197.208 426.328 201.982 427.142Z" fill="url(#paint84_linear_101_4869)"/>
<path d="M201.982 427.142C206.754 427.958 209.96 432.47 209.142 437.222C208.324 441.974 203.792 445.166 199.02 444.352C194.246 443.538 191.04 439.026 191.858 434.272C192.676 429.52 197.208 426.328 201.982 427.142Z" fill="black" fill-opacity="0.2"/>
<path d="M312.278 546.082C317.644 546.998 321.248 552.072 320.328 557.414C319.408 562.756 314.312 566.344 308.948 565.43C303.582 564.514 299.978 559.44 300.898 554.098C301.816 548.756 306.912 545.168 312.278 546.082Z" fill="url(#paint85_linear_101_4869)"/>
<path d="M312.278 546.082C317.644 546.998 321.248 552.072 320.328 557.414C319.408 562.756 314.312 566.344 308.948 565.43C303.582 564.514 299.978 559.44 300.898 554.098C301.816 548.756 306.912 545.168 312.278 546.082Z" fill="black" fill-opacity="0.2"/>
</g>
</g>
</g>
<defs>
<filter id="filter0_d_101_4869" x="0" y="0" width="580" height="823" filterUnits="userSpaceOnUse" color-interpolation-filters="sRGB">
<feFlood flood-opacity="0" result="BackgroundImageFix"/>
<feColorMatrix in="SourceAlpha" type="matrix" values="0 0 0 0 0 0 0 0 0 0 0 0 0 0 0 0 0 0 127 0" result="hardAlpha"/>
<feOffset dy="12"/>
<feGaussianBlur stdDeviation="25"/>
<feComposite in2="hardAlpha" operator="out"/>
<feColorMatrix type="matrix" values="0 0 0 0 0 0 0 0 0 0 0 0 0 0 0 0 0 0 0.1 0"/>
<feBlend mode="normal" in2="BackgroundImageFix" result="effect1_dropShadow_101_4869"/>
<feBlend mode="normal" in="SourceGraphic" in2="effect1_dropShadow_101_4869" result="shape"/>
</filter>
<filter id="filter1_f_101_4869" x="-572" y="191" width="1631.61" height="1001.82" filterUnits="userSpaceOnUse" color-interpolation-filters="sRGB">
<feFlood flood-opacity="0" result="BackgroundImageFix"/>
<feBlend mode="normal" in="SourceGraphic" in2="BackgroundImageFix" result="shape"/>
<feGaussianBlur stdDeviation="2" result="effect1_foregroundBlur_101_4869"/>
</filter>
<linearGradient id="paint0_linear_101_4869" x1="50" y1="761" x2="518" y2="38" gradientUnits="userSpaceOnUse">
<stop stop-color="#F49A0B"/>
<stop offset="0.42174" stop-color="#EB5D0C"/>
</linearGradient>
<linearGradient id="paint1_linear_101_4869" x1="456.706" y1="360.308" x2="456.706" y2="608.104" gradientUnits="userSpaceOnUse">
<stop stop-color="#F49A0B"/>
<stop offset="1" stop-color="#EB5D0C"/>
</linearGradient>
<linearGradient id="paint2_linear_101_4869" x1="370.224" y1="328.993" x2="370.224" y2="393.504" gradientUnits="userSpaceOnUse">
<stop stop-color="#F49A0B"/>
<stop offset="1" stop-color="#EB5D0C"/>
</linearGradient>
<linearGradient id="paint3_linear_101_4869" x1="392.586" y1="374.42" x2="392.586" y2="511.872" gradientUnits="userSpaceOnUse">
<stop stop-color="#F49A0B"/>
<stop offset="1" stop-color="#EB5D0C"/>
</linearGradient>
<linearGradient id="paint4_linear_101_4869" x1="187.785" y1="321.276" x2="187.785" y2="446.118" gradientUnits="userSpaceOnUse">
<stop stop-color="#F49A0B"/>
<stop offset="1" stop-color="#EB5D0C"/>
</linearGradient>
<linearGradient id="paint5_linear_101_4869" x1="413.835" y1="374.629" x2="413.835" y2="510.448" gradientUnits="userSpaceOnUse">
<stop stop-color="#F49A0B"/>
<stop offset="1" stop-color="#EB5D0C"/>
</linearGradient>
<linearGradient id="paint6_linear_101_4869" x1="210.147" y1="434.747" x2="210.147" y2="511.872" gradientUnits="userSpaceOnUse">
<stop stop-color="#F49A0B"/>
<stop offset="1" stop-color="#EB5D0C"/>
</linearGradient>
<linearGradient id="paint7_linear_101_4869" x1="447.997" y1="496.035" x2="447.997" y2="608.104" gradientUnits="userSpaceOnUse">
<stop stop-color="#F49A0B"/>
<stop offset="1" stop-color="#EB5D0C"/>
</linearGradient>
<linearGradient id="paint8_linear_101_4869" x1="361.514" y1="311.636" x2="361.514" y2="511.872" gradientUnits="userSpaceOnUse">
<stop stop-color="#F49A0B"/>
<stop offset="1" stop-color="#EB5D0C"/>
</linearGradient>
<linearGradient id="paint9_linear_101_4869" x1="469.246" y1="494.401" x2="469.246" y2="608.104" gradientUnits="userSpaceOnUse">
<stop stop-color="#F49A0B"/>
<stop offset="1" stop-color="#EB5D0C"/>
</linearGradient>
<linearGradient id="paint10_linear_101_4869" x1="510.334" y1="590.897" x2="510.334" y2="713.664" gradientUnits="userSpaceOnUse">
<stop stop-color="#F49A0B"/>
<stop offset="1" stop-color="#EB5D0C"/>
</linearGradient>
<linearGradient id="paint11_linear_101_4869" x1="382.763" y1="311.841" x2="382.763" y2="510.448" gradientUnits="userSpaceOnUse">
<stop stop-color="#F49A0B"/>
<stop offset="1" stop-color="#EB5D0C"/>
</linearGradient>
<linearGradient id="paint12_linear_101_4869" x1="405.126" y1="508.515" x2="405.126" y2="511.872" gradientUnits="userSpaceOnUse">
<stop stop-color="#F49A0B"/>
<stop offset="1" stop-color="#EB5D0C"/>
</linearGradient>
<linearGradient id="paint13_linear_101_4869" x1="443.807" y1="461.138" x2="443.807" y2="834.906" gradientUnits="userSpaceOnUse">
<stop stop-color="#F49A0B"/>
<stop offset="1" stop-color="#EB5D0C"/>
</linearGradient>
<linearGradient id="paint14_linear_101_4869" x1="484.895" y1="694.16" x2="484.895" y2="834.906" gradientUnits="userSpaceOnUse">
<stop stop-color="#F49A0B"/>
<stop offset="1" stop-color="#EB5D0C"/>
</linearGradient>
<linearGradient id="paint15_linear_101_4869" x1="467.462" y1="478.921" x2="467.462" y2="713.664" gradientUnits="userSpaceOnUse">
<stop stop-color="#F49A0B"/>
<stop offset="1" stop-color="#EB5D0C"/>
</linearGradient>
<linearGradient id="paint16_linear_101_4869" x1="495.159" y1="573.091" x2="495.159" y2="834.906" gradientUnits="userSpaceOnUse">
<stop stop-color="#F49A0B"/>
<stop offset="1" stop-color="#EB5D0C"/>
</linearGradient>
<linearGradient id="paint17_linear_101_4869" x1="477.728" y1="494.405" x2="477.728" y2="608.082" gradientUnits="userSpaceOnUse">
<stop stop-color="#F49A0B"/>
<stop offset="1" stop-color="#EB5D0C"/>
</linearGradient>
<linearGradient id="paint18_linear_101_4869" x1="518.815" y1="590.875" x2="518.815" y2="713.664" gradientUnits="userSpaceOnUse">
<stop stop-color="#F49A0B"/>
<stop offset="1" stop-color="#EB5D0C"/>
</linearGradient>
<linearGradient id="paint19_linear_101_4869" x1="404.847" y1="435.067" x2="404.847" y2="510.448" gradientUnits="userSpaceOnUse">
<stop stop-color="#F49A0B"/>
<stop offset="1" stop-color="#EB5D0C"/>
</linearGradient>
<linearGradient id="paint20_linear_101_4869" x1="456.199" y1="420.749" x2="456.199" y2="608.082" gradientUnits="userSpaceOnUse">
<stop stop-color="#F49A0B"/>
<stop offset="1" stop-color="#EB5D0C"/>
</linearGradient>
<linearGradient id="paint21_linear_101_4869" x1="377.532" y1="403.577" x2="377.532" y2="446.212" gradientUnits="userSpaceOnUse">
<stop stop-color="#F49A0B"/>
<stop offset="1" stop-color="#EB5D0C"/>
</linearGradient>
<linearGradient id="paint22_linear_101_4869" x1="544.262" y1="596.084" x2="544.262" y2="678.14" gradientUnits="userSpaceOnUse">
<stop stop-color="#F49A0B"/>
<stop offset="1" stop-color="#EB5D0C"/>
</linearGradient>
<linearGradient id="paint23_linear_101_4869" x1="335.08" y1="425.121" x2="335.08" y2="578.282" gradientUnits="userSpaceOnUse">
<stop stop-color="#F49A0B"/>
<stop offset="1" stop-color="#EB5D0C"/>
</linearGradient>
<linearGradient id="paint24_linear_101_4869" x1="329.292" y1="384.208" x2="329.292" y2="578.282" gradientUnits="userSpaceOnUse">
<stop stop-color="#F49A0B"/>
<stop offset="1" stop-color="#EB5D0C"/>
</linearGradient>
<linearGradient id="paint25_linear_101_4869" x1="423.144" y1="561.913" x2="423.144" y2="678.14" gradientUnits="userSpaceOnUse">
<stop stop-color="#F49A0B"/>
<stop offset="1" stop-color="#EB5D0C"/>
</linearGradient>
<linearGradient id="paint26_linear_101_4869" x1="333.56" y1="392.158" x2="333.56" y2="410.532" gradientUnits="userSpaceOnUse">
<stop stop-color="#F49A0B"/>
<stop offset="1" stop-color="#EB5D0C"/>
</linearGradient>
<linearGradient id="paint27_linear_101_4869" x1="183.255" y1="565.909" x2="183.255" y2="650.904" gradientUnits="userSpaceOnUse">
<stop stop-color="#F49A0B"/>
<stop offset="1" stop-color="#EB5D0C"/>
</linearGradient>
<linearGradient id="paint28_linear_101_4869" x1="291.108" y1="367.558" x2="291.108" y2="578.282" gradientUnits="userSpaceOnUse">
<stop stop-color="#F49A0B"/>
<stop offset="1" stop-color="#EB5D0C"/>
</linearGradient>
<linearGradient id="paint29_linear_101_4869" x1="396.32" y1="394.925" x2="396.32" y2="505.196" gradientUnits="userSpaceOnUse">
<stop stop-color="#F49A0B"/>
<stop offset="1" stop-color="#EB5D0C"/>
</linearGradient>
<linearGradient id="paint30_linear_101_4869" x1="490.171" y1="478.111" x2="490.171" y2="678.14" gradientUnits="userSpaceOnUse">
<stop stop-color="#F49A0B"/>
<stop offset="1" stop-color="#EB5D0C"/>
</linearGradient>
<linearGradient id="paint31_linear_101_4869" x1="353.868" y1="492.756" x2="353.868" y2="578.282" gradientUnits="userSpaceOnUse">
<stop stop-color="#F49A0B"/>
<stop offset="1" stop-color="#EB5D0C"/>
</linearGradient>
<linearGradient id="paint32_linear_101_4869" x1="358.136" y1="378.278" x2="358.136" y2="505.196" gradientUnits="userSpaceOnUse">
<stop stop-color="#F49A0B"/>
<stop offset="1" stop-color="#EB5D0C"/>
</linearGradient>
<linearGradient id="paint33_linear_101_4869" x1="160.551" y1="496.594" x2="160.551" y2="650.904" gradientUnits="userSpaceOnUse">
<stop stop-color="#F49A0B"/>
<stop offset="1" stop-color="#EB5D0C"/>
</linearGradient>
<linearGradient id="paint34_linear_101_4869" x1="331.163" y1="501.621" x2="331.163" y2="517.834" gradientUnits="userSpaceOnUse">
<stop stop-color="#F49A0B"/>
<stop offset="1" stop-color="#EB5D0C"/>
</linearGradient>
<linearGradient id="paint35_linear_101_4869" x1="382.193" y1="479.337" x2="382.193" y2="768.574" gradientUnits="userSpaceOnUse">
<stop stop-color="#F49A0B"/>
<stop offset="1" stop-color="#EB5D0C"/>
</linearGradient>
<linearGradient id="paint36_linear_101_4869" x1="189.856" y1="447.182" x2="189.856" y2="517.834" gradientUnits="userSpaceOnUse">
<stop stop-color="#F49A0B"/>
<stop offset="1" stop-color="#EB5D0C"/>
</linearGradient>
<linearGradient id="paint37_linear_101_4869" x1="73.4469" y1="420.796" x2="73.4469" y2="697.754" gradientUnits="userSpaceOnUse">
<stop stop-color="#F49A0B"/>
<stop offset="1" stop-color="#EB5D0C"/>
</linearGradient>
<linearGradient id="paint38_linear_101_4869" x1="572.136" y1="538.658" x2="572.136" y2="768.574" gradientUnits="userSpaceOnUse">
<stop stop-color="#F49A0B"/>
<stop offset="1" stop-color="#EB5D0C"/>
</linearGradient>
<linearGradient id="paint39_linear_101_4869" x1="584.874" y1="657.073" x2="584.874" y2="768.574" gradientUnits="userSpaceOnUse">
<stop stop-color="#F49A0B"/>
<stop offset="1" stop-color="#EB5D0C"/>
</linearGradient>
<linearGradient id="paint40_linear_101_4869" x1="306.84" y1="385.329" x2="306.84" y2="457.722" gradientUnits="userSpaceOnUse">
<stop stop-color="#F49A0B"/>
<stop offset="1" stop-color="#EB5D0C"/>
</linearGradient>
<linearGradient id="paint41_linear_101_4869" x1="548.356" y1="368.925" x2="548.356" y2="569.568" gradientUnits="userSpaceOnUse">
<stop stop-color="#F49A0B"/>
<stop offset="1" stop-color="#EB5D0C"/>
</linearGradient>
<linearGradient id="paint42_linear_101_4869" x1="561.096" y1="353.782" x2="561.096" y2="672.838" gradientUnits="userSpaceOnUse">
<stop stop-color="#F49A0B"/>
<stop offset="1" stop-color="#EB5D0C"/>
</linearGradient>
<linearGradient id="paint43_linear_101_4869" x1="155.395" y1="435.341" x2="155.395" y2="457.722" gradientUnits="userSpaceOnUse">
<stop stop-color="#F49A0B"/>
<stop offset="1" stop-color="#EB5D0C"/>
</linearGradient>
<linearGradient id="paint44_linear_101_4869" x1="529.426" y1="359.497" x2="529.426" y2="633.872" gradientUnits="userSpaceOnUse">
<stop stop-color="#F49A0B"/>
<stop offset="1" stop-color="#EB5D0C"/>
</linearGradient>
<linearGradient id="paint45_linear_101_4869" x1="254.354" y1="425.467" x2="254.354" y2="525.046" gradientUnits="userSpaceOnUse">
<stop stop-color="#F49A0B"/>
<stop offset="1" stop-color="#EB5D0C"/>
</linearGradient>
<linearGradient id="paint46_linear_101_4869" x1="215.387" y1="418.92" x2="215.387" y2="569.69" gradientUnits="userSpaceOnUse">
<stop stop-color="#F49A0B"/>
<stop offset="1" stop-color="#EB5D0C"/>
</linearGradient>
<linearGradient id="paint47_linear_101_4869" x1="116.701" y1="533.997" x2="116.701" y2="801.318" gradientUnits="userSpaceOnUse">
<stop stop-color="#F49A0B"/>
<stop offset="1" stop-color="#EB5D0C"/>
</linearGradient>
<linearGradient id="paint48_linear_101_4869" x1="297.232" y1="516.775" x2="297.232" y2="569.69" gradientUnits="userSpaceOnUse">
<stop stop-color="#F49A0B"/>
<stop offset="1" stop-color="#EB5D0C"/>
</linearGradient>
<linearGradient id="paint49_linear_101_4869" x1="96.8635" y1="530.534" x2="96.8635" y2="824.928" gradientUnits="userSpaceOnUse">
<stop stop-color="#F49A0B"/>
<stop offset="1" stop-color="#EB5D0C"/>
</linearGradient>
<linearGradient id="paint50_linear_101_4869" x1="322.512" y1="313.307" x2="322.512" y2="525.046" gradientUnits="userSpaceOnUse">
<stop stop-color="#F49A0B"/>
<stop offset="1" stop-color="#EB5D0C"/>
</linearGradient>
<linearGradient id="paint51_linear_101_4869" x1="420.631" y1="520.169" x2="420.631" y2="546.54" gradientUnits="userSpaceOnUse">
<stop stop-color="#F49A0B"/>
<stop offset="1" stop-color="#EB5D0C"/>
</linearGradient>
<linearGradient id="paint52_linear_101_4869" x1="283.544" y1="306.76" x2="283.544" y2="569.69" gradientUnits="userSpaceOnUse">
<stop stop-color="#F49A0B"/>
<stop offset="1" stop-color="#EB5D0C"/>
</linearGradient>
<linearGradient id="paint53_linear_101_4869" x1="172.558" y1="521.417" x2="172.558" y2="887.082" gradientUnits="userSpaceOnUse">
<stop stop-color="#F49A0B"/>
<stop offset="1" stop-color="#EB5D0C"/>
</linearGradient>
<linearGradient id="paint54_linear_101_4869" x1="381.662" y1="541.419" x2="381.662" y2="569.69" gradientUnits="userSpaceOnUse">
<stop stop-color="#F49A0B"/>
<stop offset="1" stop-color="#EB5D0C"/>
</linearGradient>
<linearGradient id="paint55_linear_101_4869" x1="576.813" y1="531.098" x2="576.813" y2="640.072" gradientUnits="userSpaceOnUse">
<stop stop-color="#F49A0B"/>
<stop offset="1" stop-color="#EB5D0C"/>
</linearGradient>
<linearGradient id="paint56_linear_101_4869" x1="406.941" y1="310.154" x2="406.941" y2="546.54" gradientUnits="userSpaceOnUse">
<stop stop-color="#F49A0B"/>
<stop offset="1" stop-color="#EB5D0C"/>
</linearGradient>
<linearGradient id="paint57_linear_101_4869" x1="457.797" y1="558.957" x2="457.797" y2="631.132" gradientUnits="userSpaceOnUse">
<stop stop-color="#F49A0B"/>
<stop offset="1" stop-color="#EB5D0C"/>
</linearGradient>
<linearGradient id="paint58_linear_101_4869" x1="581.195" y1="532.41" x2="581.195" y2="631.132" gradientUnits="userSpaceOnUse">
<stop stop-color="#F49A0B"/>
<stop offset="1" stop-color="#EB5D0C"/>
</linearGradient>
<linearGradient id="paint59_linear_101_4869" x1="254.662" y1="326.29" x2="254.662" y2="436.5" gradientUnits="userSpaceOnUse">
<stop stop-color="#F49A0B"/>
<stop offset="1" stop-color="#EB5D0C"/>
</linearGradient>
<linearGradient id="paint60_linear_101_4869" x1="255.557" y1="417.177" x2="255.557" y2="556.508" gradientUnits="userSpaceOnUse">
<stop stop-color="#F49A0B"/>
<stop offset="1" stop-color="#EB5D0C"/>
</linearGradient>
<linearGradient id="paint61_linear_101_4869" x1="548.988" y1="523.597" x2="548.988" y2="769.154" gradientUnits="userSpaceOnUse">
<stop stop-color="#F49A0B"/>
<stop offset="1" stop-color="#EB5D0C"/>
</linearGradient>
<linearGradient id="paint62_linear_101_4869" x1="440.905" y1="522.436" x2="440.905" y2="777.086" gradientUnits="userSpaceOnUse">
<stop stop-color="#F49A0B"/>
<stop offset="1" stop-color="#EB5D0C"/>
</linearGradient>
<linearGradient id="paint63_linear_101_4869" x1="401.294" y1="386.394" x2="401.294" y2="397.668" gradientUnits="userSpaceOnUse">
<stop stop-color="#F49A0B"/>
<stop offset="1" stop-color="#EB5D0C"/>
</linearGradient>
<linearGradient id="paint64_linear_101_4869" x1="512.118" y1="599.955" x2="512.118" y2="613.073" gradientUnits="userSpaceOnUse">
<stop stop-color="#F49A0B"/>
<stop offset="1" stop-color="#EB5D0C"/>
</linearGradient>
<linearGradient id="paint65_linear_101_4869" x1="339.152" y1="328.327" x2="339.152" y2="345.473" gradientUnits="userSpaceOnUse">
<stop stop-color="#F49A0B"/>
<stop offset="1" stop-color="#EB5D0C"/>
</linearGradient>
<linearGradient id="paint66_linear_101_4869" x1="383.876" y1="506.156" x2="383.876" y2="514.96" gradientUnits="userSpaceOnUse">
<stop stop-color="#F49A0B"/>
<stop offset="1" stop-color="#EB5D0C"/>
</linearGradient>
<linearGradient id="paint67_linear_101_4869" x1="426.374" y1="503.098" x2="426.374" y2="514.796" gradientUnits="userSpaceOnUse">
<stop stop-color="#F49A0B"/>
<stop offset="1" stop-color="#EB5D0C"/>
</linearGradient>
<linearGradient id="paint68_linear_101_4869" x1="508.55" y1="705.825" x2="508.55" y2="718.392" gradientUnits="userSpaceOnUse">
<stop stop-color="#F49A0B"/>
<stop offset="1" stop-color="#EB5D0C"/>
</linearGradient>
<linearGradient id="paint69_linear_101_4869" x1="529.078" y1="600.765" x2="529.078" y2="612.406" gradientUnits="userSpaceOnUse">
<stop stop-color="#F49A0B"/>
<stop offset="1" stop-color="#EB5D0C"/>
</linearGradient>
<linearGradient id="paint70_linear_101_4869" x1="383.318" y1="434.877" x2="383.318" y2="453.643" gradientUnits="userSpaceOnUse">
<stop stop-color="#F49A0B"/>
<stop offset="1" stop-color="#EB5D0C"/>
</linearGradient>
<linearGradient id="paint71_linear_101_4869" x1="371.743" y1="402.58" x2="371.743" y2="415.349" gradientUnits="userSpaceOnUse">
<stop stop-color="#F49A0B"/>
<stop offset="1" stop-color="#EB5D0C"/>
</linearGradient>
<linearGradient id="paint72_linear_101_4869" x1="286.841" y1="565.107" x2="286.841" y2="587.138" gradientUnits="userSpaceOnUse">
<stop stop-color="#F49A0B"/>
<stop offset="1" stop-color="#EB5D0C"/>
</linearGradient>
<linearGradient id="paint73_linear_101_4869" x1="79.6698" y1="642.373" x2="79.6698" y2="656.168" gradientUnits="userSpaceOnUse">
<stop stop-color="#F49A0B"/>
<stop offset="1" stop-color="#EB5D0C"/>
</linearGradient>
<linearGradient id="paint74_linear_101_4869" x1="295.375" y1="387.788" x2="295.375" y2="401.041" gradientUnits="userSpaceOnUse">
<stop stop-color="#F49A0B"/>
<stop offset="1" stop-color="#EB5D0C"/>
</linearGradient>
<linearGradient id="paint75_linear_101_4869" x1="420.897" y1="498.446" x2="420.897" y2="509.083" gradientUnits="userSpaceOnUse">
<stop stop-color="#F49A0B"/>
<stop offset="1" stop-color="#EB5D0C"/>
</linearGradient>
<linearGradient id="paint76_linear_101_4869" x1="241.43" y1="506.123" x2="241.43" y2="525.557" gradientUnits="userSpaceOnUse">
<stop stop-color="#F49A0B"/>
<stop offset="1" stop-color="#EB5D0C"/>
</linearGradient>
<linearGradient id="paint77_linear_101_4869" x1="138.282" y1="446.322" x2="138.282" y2="465.202" gradientUnits="userSpaceOnUse">
<stop stop-color="#F49A0B"/>
<stop offset="1" stop-color="#EB5D0C"/>
</linearGradient>
<linearGradient id="paint78_linear_101_4869" x1="475.397" y1="386.39" x2="475.397" y2="402.259" gradientUnits="userSpaceOnUse">
<stop stop-color="#F49A0B"/>
<stop offset="1" stop-color="#EB5D0C"/>
</linearGradient>
<linearGradient id="paint79_linear_101_4869" x1="172.508" y1="426.765" x2="172.508" y2="448.382" gradientUnits="userSpaceOnUse">
<stop stop-color="#F49A0B"/>
<stop offset="1" stop-color="#EB5D0C"/>
</linearGradient>
<linearGradient id="paint80_linear_101_4869" x1="336.201" y1="518.263" x2="336.201" y2="528.956" gradientUnits="userSpaceOnUse">
<stop stop-color="#F49A0B"/>
<stop offset="1" stop-color="#EB5D0C"/>
</linearGradient>
<linearGradient id="paint81_linear_101_4869" x1="258.265" y1="561.416" x2="258.265" y2="574.755" gradientUnits="userSpaceOnUse">
<stop stop-color="#F49A0B"/>
<stop offset="1" stop-color="#EB5D0C"/>
</linearGradient>
<linearGradient id="paint82_linear_101_4869" x1="308.822" y1="334.508" x2="308.822" y2="346.264" gradientUnits="userSpaceOnUse">
<stop stop-color="#F49A0B"/>
<stop offset="1" stop-color="#EB5D0C"/>
</linearGradient>
<linearGradient id="paint83_linear_101_4869" x1="505.06" y1="536.924" x2="505.06" y2="552.642" gradientUnits="userSpaceOnUse">
<stop stop-color="#F49A0B"/>
<stop offset="1" stop-color="#EB5D0C"/>
</linearGradient>
<linearGradient id="paint84_linear_101_4869" x1="200.5" y1="424.455" x2="200.5" y2="444.479" gradientUnits="userSpaceOnUse">
<stop stop-color="#F49A0B"/>
<stop offset="1" stop-color="#EB5D0C"/>
</linearGradient>
<linearGradient id="paint85_linear_101_4869" x1="310.613" y1="543.06" x2="310.613" y2="565.572" gradientUnits="userSpaceOnUse">
<stop stop-color="#F49A0B"/>
<stop offset="1" stop-color="#EB5D0C"/>
</linearGradient>
<clipPath id="clip0_101_4869">
<rect x="50" y="38" width="480" height="723" rx="10" fill="white"/>
</clipPath>
</defs>
</svg>
