<svg width="24" height="25" viewBox="0 0 24 25" fill="none" xmlns="http://www.w3.org/2000/svg">
<g clip-path="url(#clip0_37_2156)">
<path d="M19 3.14087H18V1.14087H16V3.14087H8V1.14087H6V3.14087H5C3.89 3.14087 3 4.04087 3 5.14087V19.1409C3 20.2409 3.89 21.1409 5 21.1409H19C20.1 21.1409 21 20.2409 21 19.1409V5.14087C21 4.04087 20.1 3.14087 19 3.14087ZM19 19.1409H5V9.14087H19V19.1409ZM19 7.14087H5V5.14087H19V7.14087ZM7 11.1409H12V16.1409H7V11.1409Z" fill="#3D3D3D"/>
</g>
<defs>
<clipPath id="clip0_37_2156">
<rect width="24" height="24" fill="white" transform="translate(0 0.140869)"/>
</clipPath>
</defs>
</svg>
