<svg width="18" height="21" viewBox="0 0 18 21" fill="none" xmlns="http://www.w3.org/2000/svg">
<g clip-path="url(#clip0_18_8160)">
<path d="M17 16.417V17.417C17 18.517 16.1 19.417 15 19.417H1C-0.11 19.417 -1 18.517 -1 17.417V3.41699C-1 2.31699 -0.11 1.41699 1 1.41699H15C16.1 1.41699 17 2.31699 17 3.41699V4.41699H8C6.89 4.41699 6 5.31699 6 6.41699V14.417C6 15.517 6.89 16.417 8 16.417H17ZM8 14.417H18V6.41699H8V14.417ZM12 11.917C11.17 11.917 10.5 11.247 10.5 10.417C10.5 9.58699 11.17 8.91699 12 8.91699C12.83 8.91699 13.5 9.58699 13.5 10.417C13.5 11.247 12.83 11.917 12 11.917Z" fill="#FFBD00"/>
</g>
<defs>
<clipPath id="clip0_18_8160">
<path d="M0.354492 0.974609H17.1253V20.1413H0.354492V0.974609Z" fill="white"/>
</clipPath>
</defs>
</svg>
