<svg width="29" height="24" viewBox="0 0 29 24" fill="none" xmlns="http://www.w3.org/2000/svg">
<path d="M14.0778 6.02808L14.7699 5.336C15.0629 5.04295 15.5368 5.04295 15.8267 5.336L21.8871 11.3933C22.1802 11.6864 22.1802 12.1602 21.8871 12.4502L15.8267 18.5106C15.5337 18.8036 15.0598 18.8036 14.7699 18.5106L14.0778 17.8185C13.7816 17.5223 13.7878 17.0391 14.0902 16.7492L17.8468 13.1703H8.88712C8.47249 13.1703 8.13892 12.8367 8.13892 12.4221V11.4245C8.13892 11.0099 8.47249 10.6763 8.88712 10.6763H17.8468L14.0902 7.09739C13.7847 6.80746 13.7785 6.32425 14.0778 6.02808Z" fill="#0D6EFD"/>
</svg>
