<svg width="25" height="25" viewBox="0 0 25 25" fill="none" xmlns="http://www.w3.org/2000/svg">
<path fill-rule="evenodd" clip-rule="evenodd" d="M13.7821 4.81627C13.3546 3.06124 10.857 3.06124 10.4295 4.81627C10.3657 5.07999 10.2405 5.32492 10.0641 5.53112C9.88778 5.73732 9.66522 5.89897 9.41458 6.00291C9.16393 6.10684 8.89229 6.15014 8.62176 6.12927C8.35122 6.10839 8.08943 6.02394 7.8577 5.88279C6.31415 4.94227 4.54785 6.70855 5.48838 8.25207C6.0959 9.24884 5.55701 10.5494 4.42297 10.825C2.66679 11.2514 2.66679 13.75 4.42297 14.1753C4.68677 14.2392 4.93174 14.3645 5.13794 14.541C5.34415 14.7175 5.50575 14.9402 5.60959 15.191C5.71343 15.4418 5.75658 15.7135 5.73551 15.9841C5.71445 16.2547 5.62977 16.5165 5.48838 16.7482C4.54785 18.2917 6.31415 20.058 7.8577 19.1175C8.08939 18.9761 8.3512 18.8914 8.62181 18.8704C8.89242 18.8493 9.16418 18.8924 9.41495 18.9963C9.66573 19.1001 9.88844 19.2617 10.0649 19.4679C10.2414 19.6741 10.3667 19.9191 10.4307 20.1829C10.857 21.939 13.3557 21.939 13.781 20.1829C13.8451 19.9192 13.9706 19.6744 14.1471 19.4684C14.3236 19.2623 14.5463 19.1008 14.797 18.997C15.0477 18.8932 15.3194 18.85 15.5899 18.8709C15.8604 18.8919 16.1222 18.9764 16.354 19.1175C17.8975 20.058 19.6638 18.2917 18.7233 16.7482C18.5821 16.5165 18.4977 16.2547 18.4767 15.9842C18.4558 15.7136 18.499 15.442 18.6028 15.1913C18.7066 14.9406 18.8681 14.7179 19.0742 14.5414C19.2802 14.3648 19.525 14.2394 19.7887 14.1753C21.5449 13.7489 21.5449 11.2502 19.7887 10.825C19.5249 10.7611 19.2799 10.6358 19.0737 10.4593C18.8675 10.2828 18.7059 10.0601 18.6021 9.8093C18.4982 9.55853 18.4551 9.28677 18.4762 9.01617C18.4972 8.74556 18.5819 8.48376 18.7233 8.25207C19.6638 6.70855 17.8975 4.94227 16.354 5.88279C16.1223 6.02418 15.8605 6.10886 15.5899 6.12992C15.3193 6.15098 15.0475 6.10784 14.7967 6.004C14.5459 5.90016 14.3232 5.73856 14.1467 5.53236C13.9702 5.32616 13.8449 5.08119 13.781 4.8174L13.7821 4.81627Z" stroke="black" stroke-width="2"/>
<path d="M14.1058 12.5C14.1058 13.6046 13.2104 14.5 12.1058 14.5C11.0013 14.5 10.1058 13.6046 10.1058 12.5C10.1058 11.3954 11.0013 10.5 12.1058 10.5C13.2104 10.5 14.1058 11.3954 14.1058 12.5Z" stroke="black" stroke-width="2"/>
</svg>
