<svg width="200" height="101" viewBox="0 0 200 101" fill="none" xmlns="http://www.w3.org/2000/svg">
<path fill-rule="evenodd" clip-rule="evenodd" d="M60.7324 41.5728H74.4658V44.1061H60.7324V41.5728Z" fill="#FAA61A"/>
<path fill-rule="evenodd" clip-rule="evenodd" d="M60.7324 46.1726H74.4658L73.7991 48.6393H61.4658L60.7324 46.1726Z" fill="#0DB14B"/>
<path fill-rule="evenodd" clip-rule="evenodd" d="M30.332 51.2394C29.932 51.3728 29.6654 51.3728 29.4654 51.3728C28.9987 51.3728 28.732 51.3728 28.1987 51.1728V48.0394H29.4654H30.6654H35.6654V50.4394C35.1987 49.9061 34.6654 49.3728 34.3987 49.1728C34.132 48.9728 33.532 48.8394 33.0654 48.8394C31.4654 48.9061 30.332 49.9728 30.332 51.2394ZM107.132 48.1061V49.5061H104.799C103.132 49.5061 102.399 50.4394 102.399 51.3728C102.399 52.5061 102.999 53.5061 104.732 55.9728L105.399 55.5061C104.532 54.4394 103.932 53.3728 103.932 52.5728C103.932 51.6394 104.265 50.9728 105.399 50.9728H107.199V54.9728L108.799 56.1061V48.1061H110.532L109.665 46.6394H101.999H100.732H96.0654H94.7987H92.3987H91.132H88.2654H87.4654H87.3987L88.2654 48.1061H88.332H89.132H89.532V51.4394H86.7987L86.8654 49.5061C86.8654 48.4394 86.2654 46.5728 84.3987 46.5728C83.1987 46.5728 82.532 47.4394 82.532 48.3728C82.532 49.3728 83.332 50.3728 85.332 50.8394L85.2654 51.4394H84.3987C84.0654 51.4394 83.8654 51.7061 83.8654 51.9728C83.8654 52.5728 85.5987 54.2394 86.132 54.2394C86.532 54.2394 86.5987 53.9061 86.6654 52.9728H89.532V55.0394L91.132 56.1728V48.1728H91.9987H93.2654V55.0394L94.7987 56.1728V48.1728H95.6654H96.932H98.332V50.6394C98.332 50.8394 98.2654 50.9728 98.132 50.9728C97.7987 50.9728 97.3987 50.5061 96.932 50.5061C96.6654 50.5061 96.3987 50.9061 96.3987 51.1061C96.3987 51.3728 96.732 51.8394 97.332 52.6394L100.265 56.3061L100.865 55.7061C99.6654 54.4394 98.9987 53.7061 98.5987 53.1061C99.1987 52.6394 99.732 52.0394 99.732 51.3728V48.2394H101.465H102.732H107.132V48.1061ZM85.532 48.6394L85.4654 50.0394C84.4654 49.8394 83.9987 49.3728 83.9987 48.6394C83.9987 48.1061 84.4654 47.5061 84.8654 47.5061C85.132 47.5728 85.532 47.8394 85.532 48.6394ZM51.2654 49.1061V48.1061H53.732L52.8654 46.6394H43.9987H42.4654H38.132H36.932H29.8654H28.6654H23.332L24.1987 48.1061H26.6654V50.7061C26.6654 50.8394 26.5987 50.9061 26.5987 50.9061C26.3987 50.9061 25.9987 50.3728 25.6654 50.3728C25.3987 50.3728 24.9987 50.6394 24.9987 50.9728C24.9987 51.4394 25.4654 52.2394 25.732 52.6394L28.532 56.5061L29.1987 55.8394C28.332 54.8394 27.6654 54.1728 26.932 53.1728C27.2654 52.9061 27.732 52.5061 28.132 51.9061C28.5987 52.3061 29.132 52.7728 29.6654 52.7728C29.932 52.7728 30.332 52.7061 30.732 52.6394C31.332 53.5728 32.332 54.3061 33.3987 54.3061C34.132 54.3061 34.8654 53.9728 35.732 53.3061V54.9728L37.2654 56.1061V48.1061H37.732H38.932H43.2654H44.7987H49.7987V48.9728C48.732 49.1061 48.132 49.9728 48.132 50.8394C48.132 51.7728 48.8654 52.6394 50.2654 53.4394C49.5987 54.3061 48.132 54.9061 47.132 54.9061C46.332 54.9061 46.0654 54.7061 46.0654 54.2394C46.0654 53.7061 46.5987 53.2394 48.0654 53.2394L47.3987 51.6394C46.932 51.5728 46.132 51.7061 45.932 51.9061C45.8654 51.8394 45.732 51.7728 45.6654 51.7061L45.3987 51.3061C45.3987 51.2394 45.3987 51.1728 45.3987 51.1728C45.3987 50.7061 45.7987 50.3061 46.3987 50.3061C46.5987 50.3061 47.132 50.3728 47.3987 50.4394L46.6654 48.9061C46.532 48.8394 46.1987 48.8394 45.932 48.8394C44.932 48.8394 44.332 49.3728 44.132 50.0394L43.8654 49.5061H38.532L39.3987 50.9728H40.3987C40.1987 51.3061 40.132 51.5728 40.132 52.0394C40.132 53.1728 41.532 54.6394 42.8654 54.6394C43.332 54.6394 43.9987 54.3728 44.8654 53.7728C45.132 54.8394 46.6654 56.1061 48.0654 56.1061C49.9987 56.1061 52.6654 54.1728 52.6654 51.5061C52.6654 50.7728 51.932 49.5728 51.2654 49.1061ZM44.2654 50.9728C44.3987 51.2394 44.5987 51.5728 44.7987 51.7728C43.732 52.8394 42.732 53.3728 41.932 53.3728C41.532 53.3728 41.332 53.2394 41.332 52.8394C41.332 52.2394 41.8654 51.3728 42.3987 51.1728C42.732 50.9728 43.2654 50.9728 43.732 50.9728H44.2654ZM50.6654 52.8394C50.0654 52.3061 49.732 51.8394 49.732 51.2394C49.732 50.5728 50.1987 49.9061 50.732 49.9061C51.0654 49.9061 51.2654 50.1728 51.2654 50.9061C51.2654 51.4394 50.932 52.5061 50.6654 52.8394ZM32.5987 53.1061C32.132 53.1061 31.732 52.7728 31.732 52.1728C31.732 51.2394 32.3987 50.4394 33.332 50.4394C34.132 50.4394 35.0654 50.7728 35.732 51.4394V51.6394C34.8654 52.2394 33.332 53.1061 32.5987 53.1061Z" fill="black"/>
<path fill-rule="evenodd" clip-rule="evenodd" d="M20.5988 85.3727V81.9727H21.3322H22.2655H25.7322V84.0394C25.3988 83.4394 25.1988 83.1727 24.9322 82.9727C24.7322 82.8394 24.1988 82.7061 23.9322 82.7061C22.7322 82.7061 21.9988 83.5727 21.9988 84.5061C21.9988 85.5061 23.3322 86.6394 24.3988 86.6394C24.7988 86.6394 25.4655 86.3061 25.7988 86.0394V87.2394L26.9988 88.1061V85.4394C27.2655 85.1061 28.3322 84.4394 28.7322 84.4394C28.9322 84.4394 29.1322 84.6394 29.1322 84.8394C29.1322 85.1727 28.6655 86.2394 28.2655 86.9727L29.3988 87.7727C29.7988 87.2394 30.0655 86.1727 30.0655 85.6394C30.0655 84.3727 29.1988 83.3727 28.3322 83.3727C27.9988 83.3727 27.3322 83.6394 27.0655 83.9061V81.9061H30.9988L30.3322 80.7727H21.6655H20.7322H14.7988L15.4655 81.9061H16.3988V85.5727C16.3988 85.8394 16.4655 86.0394 16.8655 86.3727C17.1322 86.5727 20.1322 88.3061 20.4655 88.5727C20.6655 88.7061 20.7988 88.9061 20.7988 89.1061C20.7988 89.2394 20.6655 89.5061 20.5988 89.6394L21.6655 90.4394C21.8655 90.2394 22.1988 89.7061 22.1988 89.4394C22.1988 89.1061 21.9322 88.7727 21.5988 88.5727L18.6655 86.7727C17.6655 86.1727 17.5322 85.8394 17.5322 85.5061V81.9727H19.3322V84.5061C19.3322 84.9727 19.1988 85.1727 18.8655 85.1727C18.6655 85.1727 18.4655 85.1061 18.3322 85.1061L18.8655 85.9727C19.2655 86.1061 19.6655 86.1727 19.9322 86.1727C20.3988 86.2394 20.5988 86.0394 20.5988 85.3727ZM117.265 81.9727H118.199V83.8394C118.199 83.9727 118.132 84.0394 118.066 84.0394C117.866 84.0394 117.532 83.7061 117.199 83.7061C116.999 83.7061 116.799 83.9727 116.799 84.1061C116.799 84.3061 116.999 84.7061 117.532 85.2394L119.732 87.9727L120.199 87.5061C119.332 86.5727 118.799 85.9727 118.465 85.5727C118.932 85.2394 119.332 84.7727 119.332 84.2394V81.9061H121.532L120.866 80.7727H116.665H115.599H115.199C114.465 79.5727 113.999 78.6394 113.399 78.1061C112.932 77.7061 112.532 77.6394 112.332 77.6394C111.999 77.6394 111.599 77.6394 111.599 77.9061C111.599 78.0394 111.665 78.1727 112.132 79.1061C112.332 79.0394 112.666 78.9727 112.866 78.9727C113.132 78.9727 113.332 79.1061 113.532 79.3061C113.866 79.6394 114.199 80.0394 114.665 80.7727H113.799H112.866H110.399L110.999 81.9061H111.866V83.5727C111.866 83.9061 111.199 84.3061 110.599 84.3061C110.332 84.3061 109.865 84.1061 109.599 83.8394C110.065 83.5061 110.199 83.2394 110.199 82.9061C110.199 81.9727 108.866 80.7061 107.732 80.7061C107.399 80.7061 106.465 80.9727 105.999 81.1727L106.599 82.3727C107.465 82.0394 108.332 81.7727 108.599 81.8394C108.932 81.8394 109.132 81.9727 109.132 82.3061C109.132 82.9061 108.532 83.4394 107.265 83.6394C106.999 83.7061 106.932 83.7727 106.932 83.8394C106.932 83.9061 107.332 84.5061 107.665 84.8394C108.199 84.7061 108.799 84.5061 109.132 84.3061C109.265 84.5061 109.399 84.9061 109.399 85.2394C109.399 85.8394 108.799 86.3061 107.999 86.3061C107.266 86.3061 106.532 85.6394 105.932 84.4394L105.465 84.7061C106.199 86.2394 107.399 87.3061 108.465 87.3061C109.599 87.3061 110.399 86.5727 110.399 85.6394C110.399 85.4394 110.332 85.1061 110.265 84.9061V84.8394C110.532 85.0394 111.266 85.2394 111.399 85.2394C111.532 85.2394 111.732 85.2394 111.866 85.1727V87.1061L113.066 87.9061V81.9061H113.465H114.399H114.465V87.0394L115.665 87.8394V81.8394H116.199H117.265V81.9727ZM102.999 81.9727L102.332 80.8394H101.066C100.866 78.7727 99.8655 77.8394 98.6655 77.8394C97.7322 77.8394 96.9988 78.5061 96.9988 79.2394C96.9988 79.5727 97.1988 79.9727 97.4655 80.2394L98.1322 80.1727C98.1322 79.9727 98.1322 79.9061 98.1322 79.7727C98.1322 79.3061 98.5322 78.9061 99.0655 78.9061C99.7988 78.9061 100.465 79.7061 100.532 80.9061H99.5988H98.6655H90.0655L90.7322 82.0394H95.1322V84.1061C94.7988 83.5061 94.5988 83.2394 94.3322 83.0394C94.1322 82.9061 93.6655 82.7727 93.3322 82.7727C92.1322 82.7727 91.3988 83.6394 91.3988 84.5727C91.3988 85.5727 92.7322 86.7061 93.7988 86.7061C94.1988 86.7061 94.8655 86.3727 95.1988 86.1061V87.3061L96.3988 88.1727V85.5061C96.6655 85.1727 97.7322 84.5061 98.1322 84.5061C98.3322 84.5061 98.5322 84.7061 98.5322 84.9061C98.5322 85.2394 98.0655 86.3061 97.6655 87.0394L98.7988 87.8394C99.1988 87.3061 99.4655 86.2394 99.4655 85.7061C99.4655 84.4394 98.5988 83.4394 97.7322 83.4394C97.3988 83.4394 96.7322 83.7061 96.4655 83.9727V81.9727H99.4655H100.399V87.1061L101.599 87.9061V81.9061H102.999V81.9727ZM95.1322 84.7727C94.7988 85.0394 93.3988 85.9061 92.9988 85.9061C92.7322 85.9061 92.4655 85.6394 92.4655 85.1727C92.4655 84.5727 93.0655 83.9061 93.6655 83.9061C94.1322 83.9061 94.7322 84.1727 95.1322 84.7727ZM86.8655 87.9727V81.9727H88.4655L87.7988 80.8394H84.9988H84.0655H79.1988H78.2655H72.2655H71.0655H67.6655H66.7322H61.3322H60.3988H56.2655L56.9322 81.9727H58.7988V83.9061C58.7988 83.9727 58.7988 84.0394 58.7322 84.0394C58.5988 84.0394 58.2655 83.6394 57.9988 83.6394C57.7988 83.6394 57.4655 83.8394 57.4655 84.1061C57.4655 84.4394 57.7988 85.0394 58.0655 85.3727L60.2655 88.2394L60.7988 87.7727C60.1322 87.0394 59.5988 86.5061 59.0655 85.7727C59.3322 85.5727 59.7322 85.2394 59.9988 84.8394C60.3322 85.1727 60.7322 85.5061 61.1988 85.5061C61.3988 85.5061 61.7322 85.4394 61.9988 85.3727C62.4655 86.0394 63.2655 86.6394 64.0655 86.6394C64.5988 86.6394 65.1988 86.3727 65.8655 85.8394V87.0394L67.0655 87.8394V81.8394H67.4655H68.3988H71.7988H72.9988H76.8655V82.4394C75.9988 82.5727 75.5988 83.1727 75.5988 83.8394C75.5988 84.5061 76.1322 85.1727 77.2655 85.7727C76.7322 86.4394 75.5988 86.9061 74.7988 86.9061C74.1988 86.9061 73.9988 86.7061 73.9988 86.4394C73.9988 86.0394 74.3988 85.6394 75.5322 85.6394L74.9988 84.4394C74.6655 84.3727 74.0655 84.5061 73.8655 84.6394C73.7988 84.5727 73.7322 84.5727 73.6655 84.5061L73.5988 83.9727C73.5322 84.0394 73.4655 84.1061 73.3988 84.1727C73.3988 84.1727 73.3988 84.1061 73.3988 84.0394C73.3988 83.6394 73.7322 83.3727 74.1988 83.3727C74.3322 83.3727 74.7988 83.3727 74.9988 83.4394L74.4655 82.3727C74.3322 82.3727 74.0655 82.3061 73.9322 82.3061C73.1988 82.3061 72.6655 82.7061 72.5322 83.1727L72.3322 82.7727H68.1988L68.8655 83.9061H69.6655C69.5322 84.1061 69.4655 84.3727 69.4655 84.7061C69.4655 85.5727 70.5988 86.6394 71.5988 86.6394C71.9322 86.6394 72.5322 86.4394 73.1322 85.9727C73.3322 86.7727 74.5322 87.7061 75.5988 87.7061C77.1322 87.7061 79.1322 86.2394 79.1322 84.3061C79.1322 83.7727 78.5988 82.9061 78.0655 82.5061V81.7727H79.0655H79.9988H83.1988V82.8394H81.4655C80.1988 82.8394 79.6655 83.5727 79.6655 84.2394C79.6655 85.0394 80.1322 85.8394 81.3988 87.7061L81.8655 87.3061C81.1988 86.5061 80.7322 85.7061 80.7322 85.1061C80.7322 84.4394 80.9988 83.9061 81.8655 83.9061H83.1988V86.9061L84.3988 87.7061V81.7061H84.7988H85.7322H85.7988V86.8394L86.8655 87.9727ZM72.5322 84.1727C72.6655 84.3727 72.7988 84.6394 72.9988 84.7727C72.1322 85.5727 71.3988 85.9727 70.7988 85.9727C70.4655 85.9727 70.3322 85.8394 70.3322 85.5727C70.3322 85.1061 70.7322 84.5061 71.1322 84.3061C71.3988 84.1727 71.7988 84.1727 72.1322 84.1727H72.5322ZM77.4655 85.5061C76.9988 85.1061 76.7322 84.7727 76.7322 84.3061C76.7322 83.8394 77.0655 83.3061 77.5322 83.3061C77.7322 83.3061 77.9322 83.5061 77.9322 84.0394C77.9322 84.5061 77.6655 85.3061 77.4655 85.5061ZM61.9988 81.9727H65.8655V83.7727C65.5322 83.3727 65.0655 82.9727 64.8655 82.8394C64.6655 82.7061 64.1988 82.6394 63.7988 82.6394C62.5988 82.6394 61.6655 83.4394 61.6655 84.3061C61.3988 84.3727 61.1988 84.4394 60.9988 84.4394C60.6655 84.4394 60.3988 84.4394 59.9988 84.3061V81.9727H60.9988H61.9988ZM63.4655 85.7727C63.1322 85.7727 62.7988 85.5061 62.7988 85.0394C62.7988 84.3061 63.3322 83.7727 63.9988 83.7727C64.6655 83.7727 65.3322 84.0394 65.8655 84.5061V84.6394C65.1988 85.1061 63.9988 85.7727 63.4655 85.7727ZM49.9988 85.5727H52.0655V87.1727L53.2655 87.9727V81.9727H54.5988L53.9322 80.8394H47.7322H46.7988H42.0655H41.0655H32.5322L33.1988 81.9727H37.5988V84.0394H37.5322C37.1988 83.4394 36.9988 83.1727 36.7322 82.9727C36.5322 82.8394 36.0655 82.7061 35.7322 82.7061C34.5322 82.7061 33.7988 83.5727 33.7988 84.5061C33.7988 85.5061 35.0655 86.6394 36.1988 86.6394C36.5988 86.6394 37.2655 86.3061 37.5988 86.0394V87.2394L38.7988 88.1061V85.4394C39.0655 85.1061 40.1322 84.4394 40.5322 84.4394C40.7322 84.4394 40.9322 84.6394 40.9322 84.8394C40.9322 85.1727 40.4655 86.2394 40.0655 86.9727L41.1988 87.7727C41.5988 87.2394 41.8655 86.1727 41.8655 85.6394C41.8655 84.3727 40.9988 83.3727 40.1322 83.3727C39.7988 83.3727 39.1322 83.6394 38.8655 83.9061V81.9061H41.7988H42.7988H45.8655V82.9727H44.1322C43.0655 82.9727 42.5322 83.4394 42.5322 84.3727C42.5322 86.2394 43.9988 87.4394 45.5322 87.4394C45.9988 87.4394 46.3322 87.3061 46.3322 87.3061L47.2655 89.1727L47.8655 88.8394L46.8655 87.0394C47.1322 86.8394 47.3322 86.6394 47.3322 86.3061C47.3322 85.7727 46.1988 85.0394 45.8655 85.0394C45.5988 85.0394 45.4655 85.2394 45.4655 85.3727C45.4655 85.7727 45.6655 85.8394 45.6655 86.0394C45.6655 86.1727 45.2655 86.4394 44.7988 86.4394C44.3322 86.4394 43.5988 86.0394 43.5988 85.1061C43.5988 84.3727 44.0655 83.9061 44.6655 83.9061H46.9322C47.0655 83.9061 47.1322 83.7727 47.1322 83.5727V81.7061H47.6655H48.5988H48.9988V84.1727H48.5988C48.3988 84.1727 48.2655 84.3061 48.2655 84.5061C48.2655 84.9727 49.4655 86.2394 49.8655 86.2394C50.0655 86.2394 50.1988 86.1061 50.1988 85.9727V85.5727H49.9988ZM52.0655 81.9727V84.4394H49.9988V81.9727H52.0655ZM37.5988 84.7727C37.2655 85.0394 35.8655 85.9061 35.4655 85.9061C35.1988 85.9061 34.9322 85.6394 34.9322 85.1727C34.9322 84.5727 35.5322 83.9061 36.1322 83.9061C36.5988 83.9061 37.1988 84.1727 37.5988 84.7727ZM25.7322 84.7727C25.3988 85.0394 23.9988 85.9061 23.5988 85.9061C23.3322 85.9061 23.0655 85.6394 23.0655 85.1727C23.0655 84.5727 23.6655 83.9061 24.2655 83.9061C24.7322 83.9061 25.3322 84.1727 25.7322 84.7727Z" fill="black"/>
<path fill-rule="evenodd" clip-rule="evenodd" d="M38.0661 24.9727C51.8661 24.9727 62.9995 36.1727 62.9995 49.906C62.9995 63.706 51.8661 74.8393 38.0661 74.8393C24.2661 74.8393 13.1328 63.706 13.1328 49.906C13.1328 36.1727 24.2661 24.9727 38.0661 24.9727ZM38.0661 27.1727C50.5995 27.1727 60.7995 37.306 60.7995 49.906C60.7995 62.4393 50.6661 72.6393 38.0661 72.6393C25.5328 72.6393 15.3328 62.4393 15.3328 49.906C15.3328 37.3727 25.5328 27.1727 38.0661 27.1727Z" fill="black"/>
<path fill-rule="evenodd" clip-rule="evenodd" d="M97.0664 24.9727C110.866 24.9727 122 36.1727 122 49.906C122 63.706 110.8 74.8393 97.0664 74.8393C83.2664 74.8393 72.1331 63.6393 72.1331 49.906C72.0664 36.1727 83.2664 24.9727 97.0664 24.9727ZM97.0664 27.1727C109.6 27.1727 119.8 37.306 119.8 49.906C119.8 62.4393 109.6 72.6393 97.0664 72.6393C84.5331 72.6393 74.3331 62.4393 74.3331 49.906C74.3331 37.3727 84.4664 27.1727 97.0664 27.1727Z" fill="black"/>
<path fill-rule="evenodd" clip-rule="evenodd" d="M12.133 48.6393C10.6663 49.306 9.73296 47.2393 11.333 46.506L19.9996 42.5727L74.6663 17.1727L79.733 14.9727C85.7996 12.706 91.7996 11.0393 97.133 13.5727C105.4 17.7727 104.133 30.106 97.1996 35.906C95.933 36.9727 94.533 35.3727 95.5996 34.2393C106.2 23.0393 99.6663 9.43933 82.0663 16.506C80.933 16.9727 79.9996 17.306 78.933 17.7727C58.8663 26.8393 38.933 36.1727 18.933 45.506L12.133 48.6393Z" fill="black"/>
<path fill-rule="evenodd" clip-rule="evenodd" d="M118.733 48.7061C117.333 49.3728 116.333 47.3061 117.933 46.5728L161 26.6394L166.066 24.4394C172.133 22.1728 177.933 20.2394 183.266 22.7728C191.533 26.9728 190.266 39.3061 183.333 45.1061C182.066 46.1728 180.666 44.5728 181.733 43.4394C192.266 32.0394 185.8 18.4394 168.4 26.0394C167.333 26.5061 166.333 26.8394 165.266 27.3061C149.666 34.3728 134.133 41.3061 118.733 48.7061Z" fill="black"/>
</svg>
