<svg width="24" height="25" viewBox="0 0 24 25" fill="none" xmlns="http://www.w3.org/2000/svg">
<g clip-path="url(#clip0_37_2166)">
<path d="M22 5.84092L17.4 1.94092L16.1 3.44092L20.7 7.34092L22 5.84092ZM7.9 3.54092L6.6 2.04092L2 5.84092L3.3 7.34092L7.9 3.54092ZM12.5 8.14092H11V14.1409L15.7 17.0409L16.5 15.8409L12.5 13.4409V8.14092ZM12 4.14092C7 4.14092 3 8.14092 3 13.1409C3 18.1409 7 22.1409 12 22.1409C17 22.1409 21 18.1409 21 13.1409C21 8.14092 17 4.14092 12 4.14092ZM12 20.1409C8.1 20.1409 5 17.0409 5 13.1409C5 9.24092 8.1 6.14092 12 6.14092C15.9 6.14092 19 9.24092 19 13.1409C19 17.0409 15.9 20.1409 12 20.1409Z" fill="#3D3D3D"/>
</g>
<defs>
<clipPath id="clip0_37_2166">
<rect width="24" height="24" fill="white" transform="translate(0 0.140869)"/>
</clipPath>
</defs>
</svg>
