<svg width="14" height="17" viewBox="0 0 14 17" fill="none" xmlns="http://www.w3.org/2000/svg">
<path d="M12.4868 8.92324H4.7554V5.70909C4.7554 4.47455 5.74365 3.44889 6.97819 3.43642C8.22519 3.42395 9.24462 4.43714 9.24462 5.68103V6.17983C9.24462 6.59446 9.57819 6.92803 9.99282 6.92803H10.9904C11.4051 6.92803 11.7386 6.59446 11.7386 6.17983V5.68103C11.7386 3.06232 9.60313 0.933061 6.98442 0.942414C4.36571 0.951766 2.26139 3.10908 2.26139 5.72779V8.92324H1.51319C0.687049 8.92324 0.0167847 9.59351 0.0167847 10.4196V15.4077C0.0167847 16.2338 0.687049 16.9041 1.51319 16.9041H12.4868C13.313 16.9041 13.9832 16.2338 13.9832 15.4077V10.4196C13.9832 9.59351 13.313 8.92324 12.4868 8.92324Z" fill="#0D6EFD"/>
</svg>
