<svg width="25" height="26" viewBox="0 0 25 26" fill="none" xmlns="http://www.w3.org/2000/svg">
<path d="M12.4832 12.9808C14.6873 12.9808 16.4736 11.1945 16.4736 8.99041C16.4736 6.78633 14.6873 5 12.4832 5C10.2791 5 8.49281 6.78633 8.49281 8.99041C8.49281 11.1945 10.2791 12.9808 12.4832 12.9808ZM15.2765 13.9784H14.7559C14.0638 14.2964 13.2938 14.4772 12.4832 14.4772C11.6727 14.4772 10.9058 14.2964 10.2106 13.9784H9.68993C7.37674 13.9784 5.5 15.8552 5.5 18.1684V19.4653C5.5 20.2914 6.17026 20.9617 6.99641 20.9617H17.97C18.7962 20.9617 19.4664 20.2914 19.4664 19.4653V18.1684C19.4664 15.8552 17.5897 13.9784 15.2765 13.9784Z" fill="#0D6EFD"/>
</svg>
