<svg width="187" height="101" viewBox="0 0 187 101" fill="none" xmlns="http://www.w3.org/2000/svg">
<path fill-rule="evenodd" clip-rule="evenodd" d="M9.50596 50.6925L8.7793 49.9592C9.4425 49.2851 10.2332 48.7498 11.1054 48.3844C11.9775 48.019 12.9137 47.8308 13.8593 47.8308C14.8049 47.8308 15.7411 48.019 16.6132 48.3844C17.4854 48.7498 18.2761 49.2851 18.9393 49.9592L18.1993 50.6658C17.6321 50.0934 16.9572 49.639 16.2134 49.3289C15.4696 49.0188 14.6718 48.8591 13.866 48.8591C13.0601 48.8591 12.2623 49.0188 11.5185 49.3289C10.7747 49.639 10.0998 50.0934 9.53263 50.6658M12.0926 53.1192L11.426 52.4525C11.7497 52.1187 12.1373 51.8532 12.5656 51.672C12.9939 51.4907 13.4542 51.3973 13.9193 51.3973C14.3844 51.3973 14.8447 51.4907 15.273 51.672C15.7013 51.8532 16.0888 52.1187 16.4126 52.4525L15.746 53.1192C15.2642 52.6441 14.6159 52.3762 13.9393 52.3725C13.6035 52.37 13.2707 52.4348 12.9604 52.563C12.6501 52.6912 12.3686 52.8804 12.1326 53.1192M13.9393 54.9058L12.646 53.6392C12.9968 53.3066 13.4563 53.1124 13.9393 53.0925C14.4195 53.1076 14.8764 53.3027 15.2193 53.6392L13.9393 54.9058ZM13.9393 50.6658C14.5025 50.6612 15.0606 50.7724 15.579 50.9926C16.0974 51.2128 16.565 51.5373 16.9526 51.9458L17.7593 51.1392C17.262 50.6251 16.6663 50.2162 16.0078 49.937C15.3492 49.6578 14.6413 49.5139 13.926 49.5139C13.2107 49.5139 12.5027 49.6578 11.8441 49.937C11.1856 50.2162 10.5899 50.6251 10.0926 51.1392L10.8926 51.9525C11.2852 51.5426 11.7573 51.2171 12.28 50.9958C12.8027 50.7746 13.365 50.6623 13.9326 50.6658" fill="#0E6EB6"/>
<path fill-rule="evenodd" clip-rule="evenodd" d="M9.06008 55.7859H18.5601C11.7467 73.0192 10.5601 83.1192 17.4734 82.8526C2.30674 83.7459 4.27341 69.0126 9.06674 55.7859" fill="#0E6EB6"/>
<path fill-rule="evenodd" clip-rule="evenodd" d="M17.793 29.3527C26.4596 15.2327 40.513 13.7927 50.5263 18.9327C61.633 24.646 65.0596 37.866 62.293 49.506C59.8596 60.0927 52.8863 69.766 43.873 75.986C38.3558 79.7286 32.0873 82.22 25.5063 83.286C30.5519 81.6403 35.0671 78.6785 38.5863 74.706C40.7705 72.3343 42.6618 69.7089 44.2196 66.886C49.333 59.9927 51.6996 53.2393 51.8663 47.3593C52.1996 39.4727 48.7663 31.646 41.5196 28.026C35.213 24.8193 26.7196 24.986 17.793 29.3593" fill="#F26329"/>
<path fill-rule="evenodd" clip-rule="evenodd" d="M11.2476 45.2794C18.3142 31.2794 32.8676 30.2994 41.4409 36.3594C44.8198 38.757 47.1939 42.3182 48.1076 46.3594C49.2742 51.506 48.4209 56.8394 46.4876 61.926C44.7093 66.6587 42.026 70.9996 38.5876 74.706C33.7076 80.0994 26.7209 84.2127 19.2542 84.1327C16.2702 84.1484 13.3375 83.356 10.7676 81.8394C14.2942 83.5394 19.7809 82.9394 23.1342 81.5993C28.6809 79.326 33.1342 74.6127 35.9142 69.3994C39.3476 63.0127 42.0542 52.7327 36.5809 46.846C31.6142 41.3794 21.7076 39.5127 11.2476 45.2727" fill="#09A14A"/>
<path d="M177.247 53.2992L178.927 48.4792C178.727 48.4792 178.514 48.4792 178.334 48.4792C177.812 48.4581 177.29 48.5449 176.803 48.7341C176.315 48.9234 175.872 49.2111 175.501 49.5792C174.757 50.3131 174.25 51.2538 174.047 52.2792C173.901 52.744 173.917 53.245 174.094 53.6992C174.179 53.8669 174.312 54.0058 174.475 54.0983C174.639 54.1908 174.827 54.2329 175.014 54.2192C175.836 54.1674 176.62 53.8571 177.254 53.3325M182.587 46.3392L179.067 56.2192H176.207L176.534 55.2792C175.674 55.9658 174.62 56.3646 173.521 56.4192C173.085 56.4381 172.654 56.3335 172.275 56.1177C171.896 55.9019 171.586 55.5835 171.381 55.1992C170.894 54.2326 170.796 53.1158 171.107 52.0792C171.468 50.3228 172.453 48.7569 173.881 47.6725C175.463 46.4767 177.413 45.8707 179.394 45.9592C180.457 45.9479 181.518 46.0621 182.554 46.2992M170.901 46.1725L167.334 56.2192H164.474L168.054 46.1725H170.901ZM168.954 43.3592C169.036 42.9382 169.258 42.5572 169.583 42.2777C169.909 41.9983 170.319 41.8367 170.747 41.8192C170.93 41.8142 171.112 41.852 171.277 41.9296C171.443 42.0071 171.588 42.1223 171.701 42.2658C171.817 42.42 171.895 42.599 171.93 42.7888C171.965 42.9787 171.955 43.1739 171.901 43.3592C171.805 43.7963 171.571 44.1912 171.234 44.4858C170.907 44.7561 170.498 44.9067 170.074 44.9125C169.895 44.9173 169.718 44.8813 169.555 44.8074C169.392 44.7335 169.248 44.6235 169.134 44.4858C169.025 44.322 168.953 44.136 168.924 43.9412C168.896 43.7464 168.91 43.5476 168.967 43.3592M160.001 53.8525L161.834 48.6325C161.598 48.5944 161.36 48.5765 161.121 48.5792C160.182 48.5595 159.266 48.8658 158.527 49.4458C157.825 49.983 157.334 50.7499 157.141 51.6125C157.056 51.9038 157.04 52.211 157.094 52.5095C157.149 52.8081 157.272 53.0899 157.454 53.3325C157.675 53.5663 157.945 53.7476 158.245 53.863C158.545 53.9784 158.867 54.0249 159.187 53.9992C159.462 53.9837 159.734 53.9436 160.001 53.8792M167.334 41.0992L162.061 56.1058C160.95 56.3119 159.824 56.4257 158.694 56.4458C156.981 56.4458 155.721 56.0058 154.907 55.1125C154.094 54.2192 153.867 53.0658 154.194 51.5992C154.531 50.0183 155.408 48.6041 156.674 47.5992C157.981 46.5076 159.638 45.9252 161.341 45.9592C161.8 45.9667 162.259 46.0023 162.714 46.0658L164.467 41.0725L167.334 41.0992ZM147.814 46.1725L147.381 47.2992C148.411 46.5052 149.656 46.0405 150.954 45.9658C151.287 45.9345 151.623 45.9942 151.924 46.1387C152.226 46.2831 152.483 46.5068 152.667 46.7858C152.844 47.1362 152.95 47.518 152.978 47.9092C153.007 48.3005 152.958 48.6935 152.834 49.0658C152.771 49.3708 152.689 49.6715 152.587 49.9658L150.394 56.2258H147.547L149.661 50.2258C149.739 50.0577 149.797 49.8809 149.834 49.6992C150.034 48.7058 149.834 48.2192 149.254 48.2192C148.674 48.2192 147.667 48.7192 146.527 49.7658L144.241 56.2392H141.381L144.954 46.1725H147.814ZM143.747 41.0992L138.414 56.2458H135.334L140.667 41.0992H143.747ZM131.881 41.0992L126.547 56.2458H123.714L129.047 41.0992H131.881ZM119.214 53.3258L120.881 48.5058C120.681 48.5058 120.467 48.5058 120.287 48.5058C119.767 48.485 119.248 48.572 118.763 48.7612C118.277 48.9505 117.836 49.2381 117.467 49.6058C116.729 50.3224 116.219 51.2407 116.001 52.2458C115.846 52.7106 115.868 53.2158 116.061 53.6658C116.143 53.8331 116.273 53.972 116.435 54.0647C116.596 54.1573 116.782 54.1995 116.967 54.1858C117.79 54.1288 118.574 53.8192 119.214 53.2992M124.547 46.3058L121.047 56.2192H118.201L118.534 55.2792C117.673 55.9595 116.623 56.3575 115.527 56.4192C115.084 56.4458 114.643 56.3458 114.255 56.131C113.866 55.9161 113.547 55.5953 113.334 55.2058C112.857 54.2363 112.76 53.1236 113.061 52.0858C113.419 50.3286 114.405 48.7619 115.834 47.6792C117.421 46.4829 119.375 45.877 121.361 45.9658C122.422 45.9556 123.48 46.0697 124.514 46.3058M112.127 44.0258L111.287 46.1725H113.387L112.527 48.3725H110.414L109.161 51.6525C109.051 51.9001 108.97 52.1596 108.921 52.4258C108.714 53.3258 108.921 53.7592 109.501 53.7592C110.123 53.6696 110.722 53.4638 111.267 53.1525L110.687 55.8192C109.886 56.231 109.002 56.4588 108.101 56.4858C107.716 56.5131 107.331 56.4423 106.981 56.2803C106.632 56.1182 106.329 55.8701 106.101 55.5592C105.895 55.1934 105.765 54.7903 105.719 54.3735C105.672 53.9567 105.709 53.5348 105.827 53.1325C105.914 52.8458 106.001 52.5525 106.101 52.2592L107.627 48.4125H105.694L106.534 46.2125H108.481L109.287 44.0858L112.127 44.0258ZM105.161 46.1725L101.601 56.2192H98.7541L102.301 46.1725H105.161ZM103.194 43.3592C103.293 42.9324 103.527 42.549 103.861 42.2658C104.183 41.9893 104.59 41.8316 105.014 41.8192C105.198 41.8132 105.381 41.8505 105.547 41.9281C105.714 42.0057 105.86 42.1214 105.974 42.2658C106.082 42.4241 106.155 42.6031 106.19 42.7914C106.224 42.9797 106.219 43.1731 106.174 43.3592C106.068 43.7921 105.836 44.184 105.507 44.4858C105.18 44.7502 104.775 44.9001 104.354 44.9125C104.175 44.9214 103.996 44.8874 103.832 44.8132C103.669 44.7389 103.525 44.6267 103.414 44.4858C103.299 44.3247 103.222 44.1399 103.187 43.9451C103.153 43.7502 103.162 43.55 103.214 43.3592M93.9141 58.4458C94.0074 57.9792 93.6274 57.6325 92.7874 57.4525L91.5941 57.1658C91.2017 57.1895 90.8172 57.2867 90.4608 57.4525C90.2465 57.5106 90.0515 57.6245 89.8958 57.7826C89.74 57.9407 89.629 58.1374 89.5741 58.3525C89.4275 59.0592 90.0541 59.3992 91.4674 59.3992C92.0601 59.4238 92.6526 59.3495 93.2208 59.1792C93.3864 59.126 93.5351 59.0303 93.6521 58.9016C93.7691 58.7729 93.8503 58.6157 93.8875 58.4458M93.7674 51.7792C94.8008 51.7792 95.4674 51.0458 95.7674 49.6058C95.8206 49.4328 95.8379 49.2508 95.8185 49.0709C95.799 48.8909 95.7431 48.7168 95.6541 48.5592C95.5488 48.4258 95.4121 48.3207 95.2562 48.2532C95.1003 48.1858 94.9301 48.158 94.7608 48.1725C93.7208 48.1725 93.0341 48.8992 92.6875 50.3858C92.4941 51.2992 92.8341 51.7792 93.7408 51.7792M100.667 46.1725L99.9075 48.3725H98.3808C98.4854 48.9052 98.4854 49.4532 98.3808 49.9858C98.1486 51.0237 97.5615 51.9479 96.7208 52.5992C95.8195 53.3079 94.7005 53.6825 93.5541 53.6592C93.1077 53.6469 92.6611 53.6782 92.2208 53.7525C92.1011 53.764 91.9886 53.8147 91.9006 53.8967C91.8126 53.9786 91.7541 54.0873 91.7341 54.2058C91.7008 54.3258 91.7341 54.4325 91.9208 54.5658C92.5753 54.76 93.244 54.9026 93.9208 54.9925C95.1008 55.1992 95.9208 55.5325 96.3075 56.0725C96.5203 56.3542 96.6648 56.6815 96.7296 57.0286C96.7944 57.3756 96.7777 57.733 96.6808 58.0725C96.2075 60.2458 94.3141 61.3525 91.0074 61.3525C89.8778 61.4369 88.747 61.2061 87.7408 60.6858C87.4232 60.5093 87.1739 60.2316 87.0325 59.8969C86.8911 59.5623 86.8659 59.1899 86.9608 58.8392C87.1808 57.8792 88.1274 57.0992 89.8208 56.5925C89.475 56.4345 89.1949 56.1613 89.0283 55.8196C88.8617 55.4779 88.819 55.0889 88.9075 54.7192C89.1141 53.7858 89.8941 53.1658 91.2474 52.8658C90.7907 52.5523 90.4447 52.1023 90.2591 51.5802C90.0735 51.0581 90.0578 50.4907 90.2141 49.9592C90.4773 48.886 91.1128 47.9411 92.0074 47.2925C92.9492 46.5378 94.1277 46.141 95.3341 46.1725H100.667ZM89.3341 46.1725L85.7741 56.2458H82.9275L86.4408 46.1725H89.3341ZM87.3341 43.3592C87.4337 42.9328 87.6673 42.5496 88.0008 42.2658C88.32 41.9935 88.7215 41.8362 89.1408 41.8192C89.3242 41.8162 89.5058 41.8549 89.6721 41.9323C89.8384 42.0096 89.9849 42.1237 90.1008 42.2658C90.213 42.4219 90.2877 42.6018 90.3189 42.7914C90.3502 42.9811 90.3371 43.1754 90.2808 43.3592C90.1757 43.7927 89.9436 44.1851 89.6141 44.4858C89.2853 44.7571 88.8736 44.9077 88.4474 44.9125C88.2694 44.9188 88.0924 44.8835 87.9304 44.8094C87.7684 44.7354 87.6259 44.6246 87.5141 44.4858C87.4066 44.3212 87.3335 44.1365 87.2991 43.9429C87.2648 43.7493 87.2699 43.5508 87.3141 43.3592M74.7608 43.6192L71.2408 53.7125H74.1075C74.8209 53.725 75.5296 53.5952 76.1924 53.3308C76.8551 53.0664 77.4585 52.6726 77.9674 52.1725C79.0523 51.1664 79.7919 49.8436 80.0808 48.3925C80.2525 47.8088 80.2919 47.1942 80.1962 46.5934C80.1005 45.9926 79.872 45.4206 79.5275 44.9192C79.1281 44.4533 78.6235 44.0893 78.0554 43.8574C77.4873 43.6255 76.8721 43.5324 76.2608 43.5858L74.7608 43.6192ZM72.6075 41.0992H77.3941C79.8074 41.0992 81.5008 41.7658 82.4808 43.1525C83.4608 44.5392 83.7008 46.3058 83.2341 48.4858C82.7929 50.6289 81.6816 52.576 80.0608 54.0458C78.6382 55.4487 76.7253 56.2426 74.7274 56.2592H67.3008L72.6075 41.0992Z" fill="black"/>
<path fill-rule="evenodd" clip-rule="evenodd" d="M68.5007 66.5726H70.1473C70.6877 66.5902 71.2176 66.4206 71.6473 66.0926C71.8248 65.9376 71.9645 65.7441 72.0558 65.5269C72.147 65.3097 72.1875 65.0745 72.174 64.8393C72.1871 64.6012 72.1466 64.3631 72.0554 64.1427C71.9643 63.9224 71.8248 63.7252 71.6473 63.5659C71.2206 63.234 70.6868 63.0704 70.1473 63.1059H68.5007V66.5726ZM68.5007 67.4859V71.3393H67.5273V62.1726H69.934C70.7852 62.128 71.6278 62.362 72.334 62.8393C72.6285 63.0796 72.8622 63.3859 73.0162 63.7334C73.1703 64.0808 73.2403 64.4597 73.2207 64.8393C73.2356 65.2105 73.1631 65.5801 73.0091 65.9182C72.8551 66.2563 72.6239 66.5535 72.334 66.7859C71.6369 67.2861 70.7909 67.5352 69.934 67.4926L68.5007 67.4859Z" fill="black"/>
<path fill-rule="evenodd" clip-rule="evenodd" d="M77.1396 70.4525C77.4381 70.4595 77.7347 70.4038 78.0103 70.289C78.2859 70.1742 78.5344 70.0027 78.7396 69.7858C78.9566 69.5613 79.1272 69.2962 79.2416 69.0056C79.356 68.715 79.412 68.4047 79.4062 68.0925C79.4152 67.7809 79.3608 67.4706 79.2462 67.1807C79.1316 66.8907 78.9592 66.6271 78.7396 66.4058C78.5403 66.1779 78.2942 65.9956 78.0181 65.8713C77.742 65.7471 77.4423 65.6838 77.1396 65.6858C76.8332 65.6791 76.5291 65.7401 76.249 65.8646C75.969 65.9891 75.7199 66.1739 75.5196 66.4058C75.3009 66.6278 75.1291 66.8915 75.0146 67.1813C74.9 67.4711 74.8451 67.781 74.8529 68.0925C74.8428 68.7228 75.0824 69.3316 75.5196 69.7858C75.726 70.0067 75.9775 70.1805 76.257 70.2955C76.5365 70.4106 76.8375 70.4641 77.1396 70.4525ZM77.1396 71.3592C76.7104 71.3769 76.2823 71.3035 75.8836 71.1438C75.4848 70.984 75.1245 70.7416 74.8262 70.4325C74.2378 69.7807 73.9121 68.9339 73.9121 68.0558C73.9121 67.1778 74.2378 66.3309 74.8262 65.6792C75.4431 65.0745 76.2724 64.7358 77.1362 64.7358C78 64.7358 78.8294 65.0745 79.4462 65.6792C80.0278 66.3343 80.3489 67.1798 80.3489 68.0558C80.3489 68.9318 80.0278 69.7774 79.4462 70.4325C79.1498 70.7403 78.7916 70.9819 78.3952 71.1416C77.9989 71.3013 77.5732 71.3754 77.1462 71.3592" fill="black"/>
<path fill-rule="evenodd" clip-rule="evenodd" d="M84.1863 69.6994L85.9863 64.6194H86.5796L88.413 69.6927L90.333 64.7127H91.2263L88.653 71.3461H88.0663L86.2663 66.3727L84.4463 71.3461H83.8663L81.293 64.7127H82.2796L84.1863 69.6994Z" fill="black"/>
<path fill-rule="evenodd" clip-rule="evenodd" d="M96.667 67.2525C96.6084 66.9035 96.4616 66.5753 96.2403 66.2992C96.07 66.0921 95.8533 65.928 95.6077 65.8203C95.3622 65.7126 95.0947 65.6642 94.827 65.6792C94.5699 65.6882 94.3178 65.7524 94.0877 65.8674C93.8577 65.9824 93.6551 66.1456 93.4936 66.3458C93.2892 66.6217 93.1336 66.9306 93.0336 67.2592L96.667 67.2525ZM92.9003 68.0392C92.8984 68.3499 92.9594 68.6577 93.0797 68.9442C93.2 69.2306 93.3771 69.4897 93.6003 69.7058C93.8167 69.9346 94.0785 70.1157 94.369 70.2374C94.6594 70.3591 94.9721 70.4187 95.287 70.4125C95.6736 70.4136 96.0574 70.3459 96.4203 70.2125C96.8054 70.0585 97.165 69.8472 97.487 69.5858L97.7003 69.4058V70.4325H97.6336C97.3024 70.7188 96.9232 70.9445 96.5136 71.0992C95.9033 71.3161 95.2459 71.3649 94.6102 71.2406C93.9745 71.1163 93.384 70.8233 92.9003 70.3925C92.5921 70.0825 92.3508 69.7124 92.1914 69.3053C92.032 68.8982 91.9579 68.4627 91.9736 68.0258C91.9383 67.1591 92.223 66.3095 92.7736 65.6392C93.0242 65.3381 93.3398 65.0978 93.6965 64.9361C94.0533 64.7745 94.4421 64.6957 94.8336 64.7058C95.2308 64.6836 95.6279 64.7504 95.9959 64.9016C96.3639 65.0527 96.6934 65.2842 96.9603 65.5792C97.4598 66.2245 97.7191 67.0235 97.6936 67.8392V67.9725L92.9003 68.0392Z" fill="black"/>
<path fill-rule="evenodd" clip-rule="evenodd" d="M100.667 65.6793C100.793 65.4447 100.965 65.2377 101.172 65.0704C101.379 64.9031 101.618 64.7789 101.873 64.705C102.129 64.6311 102.397 64.6091 102.662 64.6401C102.926 64.6712 103.182 64.7548 103.414 64.8859C103.427 64.8867 103.44 64.8915 103.451 64.8999C103.462 64.9082 103.47 64.9196 103.474 64.9326V65.9726C103.414 65.9393 103.474 65.9726 103.394 65.9726C101.887 65.1326 100.967 66.3393 100.667 67.1593V71.3326H99.7402V64.6659H100.667V65.6793Z" fill="black"/>
<path fill-rule="evenodd" clip-rule="evenodd" d="M110.247 63.1327H107.307V62.2927H114.173V63.1327H111.233V71.2461H110.247V63.1327Z" fill="black"/>
<path fill-rule="evenodd" clip-rule="evenodd" d="M126.253 63.2725V66.1992H129.973V67.0658H126.253V70.3392H130.667V71.2125H125.273V62.3992H130.493V63.2725H126.253Z" fill="black"/>
<path fill-rule="evenodd" clip-rule="evenodd" d="M133.334 65.5526C133.556 65.2763 133.837 65.0532 134.156 64.8998C134.476 64.7464 134.826 64.6665 135.18 64.666C135.504 64.6539 135.826 64.7106 136.126 64.8324C136.426 64.9542 136.697 65.1384 136.92 65.3726C137.067 65.5307 137.194 65.7052 137.3 65.8926L137.434 65.6726C137.662 65.3641 137.958 65.1123 138.299 64.9366C138.64 64.7608 139.017 64.666 139.4 64.6593C139.724 64.6463 140.047 64.7027 140.347 64.8245C140.647 64.9464 140.917 65.131 141.14 65.366C141.367 65.607 141.543 65.8912 141.657 66.2015C141.772 66.5119 141.823 66.8422 141.807 67.1726V71.1193H140.84V67.2126C140.862 66.7752 140.711 66.3468 140.42 66.0193C140.282 65.8639 140.109 65.7422 139.916 65.6636C139.723 65.5851 139.515 65.5517 139.307 65.566C139.033 65.579 138.765 65.6528 138.523 65.7819C138.281 65.911 138.071 66.0923 137.907 66.3126C137.783 66.4364 137.676 66.5753 137.587 66.726V71.1193H136.62V67.2126C136.633 66.9958 136.602 66.7788 136.53 66.574C136.457 66.3692 136.346 66.1807 136.2 66.0193C136.06 65.8658 135.887 65.7455 135.695 65.667C135.502 65.5886 135.295 65.5541 135.087 65.566C134.811 65.5798 134.542 65.6538 134.298 65.7828C134.054 65.9118 133.841 66.0926 133.674 66.3126C133.556 66.4433 133.447 66.5813 133.347 66.726V71.1193H132.4V64.786H133.334V65.5526Z" fill="black"/>
<path d="M143.873 64.7993H144.84V65.5993C145.042 65.2591 145.362 65.0053 145.74 64.8859C146.311 64.6567 146.937 64.5977 147.542 64.7159C148.146 64.8342 148.703 65.1248 149.146 65.5526C149.705 66.2272 150.014 67.0741 150.02 67.95C150.026 68.8259 149.729 69.677 149.18 70.3593C148.02 71.6259 146.32 71.3393 144.933 70.6059L144.84 70.5459V73.6326H143.873V64.7993ZM147.766 65.9526C146.966 65.4326 145.8 65.5526 144.86 66.8126V69.3926C145.84 70.4459 147.106 70.5459 147.946 69.9326C148.241 69.6823 148.474 69.368 148.628 69.0137C148.783 68.6594 148.854 68.2745 148.836 67.8885C148.819 67.5025 148.714 67.1255 148.528 66.7865C148.343 66.4475 148.082 66.1554 147.766 65.9326" fill="black"/>
<path d="M83.6007 57.7393H65.334V58.7926H83.6007V57.7393Z" fill="black"/>
<path d="M181.413 57.7393H98.3066V58.7926H181.413V57.7393Z" fill="black"/>
<path fill-rule="evenodd" clip-rule="evenodd" d="M116.8 70.2794C117.099 70.2894 117.397 70.235 117.673 70.12C117.949 70.005 118.197 69.832 118.4 69.6127C118.835 69.1597 119.075 68.5539 119.067 67.926C119.072 67.2947 118.833 66.6858 118.4 66.226C118.201 66.002 117.953 65.8258 117.676 65.7104C117.399 65.595 117.1 65.5433 116.8 65.5594C116.499 65.5478 116.199 65.6014 115.921 65.7165C115.642 65.8316 115.392 66.0054 115.187 66.226C114.749 66.6823 114.509 67.2935 114.52 67.926C114.514 68.2374 114.569 68.5469 114.684 68.8366C114.798 69.1262 114.969 69.3901 115.187 69.6127C115.395 69.83 115.645 70.0015 115.923 70.1163C116.201 70.2311 116.5 70.2866 116.8 70.2794ZM116.8 71.1927C116.372 71.2067 115.945 71.1316 115.546 70.9721C115.148 70.8125 114.787 70.5721 114.487 70.266C114.184 69.9526 113.948 69.5817 113.791 69.1752C113.634 68.7687 113.56 68.3349 113.574 67.8994C113.554 67.4591 113.624 67.0195 113.781 66.6077C113.939 66.196 114.179 65.821 114.487 65.506C114.785 65.1962 115.145 64.9524 115.544 64.7905C115.942 64.6286 116.37 64.5521 116.8 64.566C117.228 64.5502 117.655 64.6258 118.052 64.7879C118.448 64.95 118.806 65.1948 119.1 65.506C119.406 65.8177 119.646 66.188 119.805 66.5947C119.965 67.0014 120.04 67.4361 120.027 67.8727C120.037 68.3089 119.961 68.7429 119.802 69.1492C119.643 69.5556 119.404 69.9261 119.1 70.2394C118.801 70.5438 118.443 70.7832 118.047 70.9427C117.651 71.1021 117.227 71.1782 116.8 71.166" fill="black"/>
<path fill-rule="evenodd" clip-rule="evenodd" d="M154.434 70.2793C154.732 70.2859 155.029 70.23 155.304 70.1152C155.58 70.0004 155.829 69.8292 156.034 69.6126C156.47 69.1604 156.71 68.5541 156.701 67.9259C156.707 67.2943 156.468 66.685 156.034 66.2259C155.828 66.007 155.58 65.8325 155.304 65.7132C155.028 65.5939 154.731 65.5324 154.431 65.5324C154.13 65.5324 153.833 65.5939 153.557 65.7132C153.281 65.8325 153.033 66.007 152.827 66.2259C152.609 66.4506 152.437 66.7167 152.322 67.0086C152.208 67.3006 152.153 67.6125 152.161 67.9259C152.152 68.2376 152.206 68.5478 152.321 68.8378C152.435 69.1277 152.608 69.3913 152.827 69.6126C153.033 69.8292 153.281 70.0004 153.557 70.1152C153.832 70.23 154.129 70.2859 154.427 70.2793M154.427 71.1926C153.998 71.2095 153.57 71.1357 153.172 70.976C152.773 70.8163 152.413 70.5744 152.114 70.2659C151.81 69.9536 151.572 69.5829 151.415 69.1761C151.258 68.7694 151.185 68.335 151.201 67.8993C151.18 67.4579 151.252 67.017 151.412 66.605C151.571 66.1929 151.815 65.8186 152.127 65.5059C152.424 65.1941 152.784 64.9489 153.183 64.7869C153.582 64.6248 154.01 64.5495 154.441 64.5659C154.87 64.5524 155.298 64.6291 155.697 64.791C156.095 64.9529 156.455 65.1964 156.754 65.5059C157.053 65.8215 157.286 66.1931 157.44 66.5993C157.595 67.0055 157.668 67.4383 157.654 67.8726C157.677 68.7492 157.354 69.5995 156.754 70.2393C156.453 70.5451 156.092 70.7852 155.694 70.9447C155.296 71.1042 154.869 71.1795 154.441 71.1659" fill="black"/>
<path fill-rule="evenodd" clip-rule="evenodd" d="M161.486 69.7793L163.293 64.6726H163.9L165.706 69.7659L167.626 64.7793H168.546L165.973 71.3993H165.386L163.573 66.4393L161.766 71.3993H161.173L158.6 64.7793H159.573L161.486 69.7793Z" fill="black"/>
<path fill-rule="evenodd" clip-rule="evenodd" d="M174.001 67.2527C173.946 66.9027 173.798 66.5737 173.574 66.2994C173.405 66.0924 173.19 65.9283 172.945 65.8205C172.701 65.7128 172.434 65.6644 172.168 65.6794C171.91 65.6834 171.656 65.7453 171.425 65.8607C171.194 65.9762 170.992 66.142 170.834 66.346C170.622 66.6168 170.465 66.9273 170.374 67.2594L174.001 67.2527ZM170.241 68.0394C170.238 68.3502 170.299 68.6583 170.419 68.9448C170.54 69.2314 170.717 69.4904 170.941 69.706C171.156 69.9332 171.415 70.1132 171.703 70.2349C171.991 70.3565 172.302 70.4171 172.614 70.4127C173.001 70.4122 173.384 70.3446 173.748 70.2127C174.132 70.0662 174.489 69.8541 174.801 69.586L175.034 69.406V70.4327H174.988C174.649 70.7185 174.263 70.944 173.848 71.0994C173.235 71.3174 172.576 71.3668 171.937 71.2425C171.299 71.1182 170.707 70.8247 170.221 70.3927C169.916 70.0805 169.677 69.7099 169.519 69.3032C169.361 68.8966 169.287 68.4621 169.301 68.026C169.272 67.1612 169.553 66.3145 170.094 65.6394C170.359 65.3502 170.681 65.1183 171.039 64.958C171.397 64.7978 171.784 64.7125 172.176 64.7075C172.568 64.7025 172.957 64.7779 173.319 64.929C173.681 65.0801 174.009 65.3037 174.281 65.586C174.786 66.2293 175.05 67.0287 175.028 67.846V67.9794L170.241 68.0394Z" fill="black"/>
<path fill-rule="evenodd" clip-rule="evenodd" d="M178 65.6126C178.128 65.3824 178.3 65.1797 178.506 65.0162C178.712 64.8527 178.949 64.7315 179.202 64.6596C179.456 64.5878 179.721 64.5667 179.982 64.5975C180.244 64.6283 180.497 64.7105 180.726 64.8393C180.726 64.8393 180.773 64.8393 180.8 64.8726V65.9526C180.72 65.866 180.8 65.9526 180.72 65.906C179.206 65.0593 178.293 66.2793 177.993 67.0793V71.2526H177.066V64.6126H178V65.6126Z" fill="black"/>
</svg>
