<svg width="203" height="101" viewBox="0 0 203 101" fill="none" xmlns="http://www.w3.org/2000/svg">
<path fill-rule="evenodd" clip-rule="evenodd" d="M101.414 41.59C107.895 49.5918 114.433 44.5361 124.526 30.3C122.131 33.6832 111.43 47.5961 110.119 56.5293H105.633C104.816 51.2454 102.649 46.5698 101.414 41.59Z" fill="#EC1C24"/>
<path d="M20.2363 71.7354H22.4221L23.3915 75.9358L24.4749 71.7354H26.5846V78.5208H25.1971V72.8378L23.8096 78.5208H22.7262L21.4528 72.8378V78.5208H20.2363V71.7354Z" fill="#231F20"/>
<path d="M27.7448 73.5031H29.1513V78.5209H27.7448V73.5031ZM29.1513 73.085H27.7258V71.6975H29.1513V73.085Z" fill="#231F20"/>
<path d="M30.1771 73.5031H31.5075V74.1874C31.7356 73.6552 32.1538 73.4081 32.762 73.4081C33.0851 73.4081 33.3512 73.4841 33.5793 73.6362C33.7884 73.7882 33.9214 73.9783 33.9974 74.2064C34.0545 74.4345 34.0925 74.7766 34.0925 75.2518V78.5399H32.686V75.2518C32.686 74.9096 32.6479 74.7006 32.5529 74.6245C32.4769 74.5485 32.3438 74.5105 32.2108 74.5105C31.9637 74.5105 31.7926 74.5865 31.7166 74.7386C31.6406 74.8906 31.6026 75.1757 31.6026 75.5939V78.5399H30.1961V73.5031H30.1771Z" fill="#231F20"/>
<path d="M35.0239 73.5031H36.4304V78.5209H35.0239V73.5031ZM36.4304 73.085H35.0049V71.6975H36.4304V73.085Z" fill="#231F20"/>
<path d="M40.7633 74.7196L39.775 75.0237C39.6419 74.5675 39.3948 74.3394 39.0337 74.3394C38.7486 74.3394 38.5966 74.4915 38.5966 74.7766C38.5966 74.9477 38.6536 75.0617 38.7676 75.1567C38.8817 75.2518 39.1097 75.3468 39.4519 75.4608C39.832 75.5939 40.1171 75.7079 40.2882 75.822C40.4592 75.917 40.6113 76.0881 40.7443 76.2781C40.8584 76.4872 40.9344 76.7153 40.9344 76.9814C40.9344 77.4375 40.7633 77.8367 40.4402 78.1408C40.0981 78.4639 39.6419 78.616 39.0337 78.616C37.8933 78.616 37.2661 78.1218 37.152 77.1144L38.2544 76.9434C38.3495 77.4375 38.6156 77.7036 39.0527 77.7036C39.4329 77.7036 39.6039 77.5516 39.6039 77.2475C39.6039 77.0764 39.5469 76.9624 39.4329 76.8673C39.3188 76.7913 39.1097 76.6963 38.8056 76.5822C38.2354 76.3922 37.8363 76.1831 37.6272 75.917C37.4181 75.6509 37.3041 75.3468 37.3041 75.0047C37.3041 74.5295 37.4752 74.1304 37.8173 73.8453C38.1594 73.5602 38.5776 73.4081 39.0907 73.4081C39.9651 73.4081 40.5162 73.8453 40.7633 74.7196Z" fill="#231F20"/>
<path d="M41.8662 71.9627L43.2347 71.9247V73.5212H44.166V74.6236H43.2347V76.4673C43.2347 76.8094 43.2347 77.0375 43.2537 77.1325C43.2727 77.2276 43.3107 77.3226 43.4057 77.3796C43.4818 77.4556 43.6338 77.4746 43.8239 77.4746C43.9379 77.4746 44.071 77.4746 44.223 77.4556V78.52C43.9189 78.596 43.6338 78.6341 43.3677 78.6341C42.9496 78.6341 42.6074 78.558 42.3984 78.387C42.1703 78.2349 42.0372 78.0258 41.9612 77.7787C41.9042 77.5317 41.8662 77.1515 41.8662 76.6193V74.6236H41.315V73.5212H41.8662V71.9627Z" fill="#231F20"/>
<path d="M44.7741 73.503H46.0095V74.7194C46.2376 73.8641 46.6177 73.446 47.1879 73.446C47.264 73.446 47.34 73.446 47.435 73.465V74.8335C47.34 74.8145 47.264 74.8145 47.2069 74.8145C46.5227 74.8145 46.1806 75.3276 46.1806 76.373V78.5398H44.7741V73.503Z" fill="#231F20"/>
<path d="M47.6251 73.5028H49.0316L49.6968 76.5629L50.3621 73.5028H51.5785L50.058 78.5966C49.9059 79.0907 49.7919 79.4139 49.6778 79.6229C49.5828 79.813 49.4308 79.9841 49.2217 80.0981C49.0126 80.2311 48.7465 80.2882 48.4424 80.2882C48.2523 80.2882 48.0433 80.2692 47.8532 80.2121V79.1098C47.9862 79.1288 48.1193 79.1478 48.2523 79.1478C48.5184 79.1478 48.7085 79.1098 48.8035 79.0147C48.8986 78.9197 48.9936 78.7296 49.0886 78.4255L47.6251 73.5028Z" fill="#231F20"/>
<path d="M56.2352 76.012C56.2352 75.3658 56.1972 74.9477 56.1021 74.7196C56.0071 74.4915 55.8551 74.3774 55.646 74.3774C55.4369 74.3774 55.2848 74.4915 55.1898 74.7006C55.0948 74.9096 55.0568 75.3468 55.0568 76.012C55.0568 76.6202 55.0948 77.0574 55.1708 77.2855C55.2468 77.5326 55.3989 77.6466 55.646 77.6466C55.8741 77.6466 56.0261 77.5326 56.1021 77.2855C56.1972 77.0574 56.2352 76.6393 56.2352 76.012ZM57.6797 76.012C57.6797 77.7607 56.9955 78.635 55.646 78.635C54.2775 78.635 53.6122 77.7607 53.6122 76.012C53.6122 74.2634 54.2965 73.4081 55.646 73.4081C56.9955 73.4081 57.6797 74.2824 57.6797 76.012Z" fill="#231F20"/>
<path d="M62.7734 71.7354H64.2939L65.0162 76.43L65.9095 71.7354H67.278L68.0953 76.449L68.9316 71.7354H70.1861L68.7415 78.5588H67.3921L66.4987 73.8451L65.5674 78.5588H64.2559L62.7734 71.7354Z" fill="#231F20"/>
<path d="M72.9236 76.012C72.9236 75.3658 72.8856 74.9477 72.7906 74.7196C72.6956 74.4915 72.5435 74.3774 72.3344 74.3774C72.1254 74.3774 71.9733 74.4915 71.8783 74.7006C71.7832 74.9096 71.7452 75.3468 71.7452 76.012C71.7452 76.6202 71.7832 77.0574 71.8593 77.2855C71.9353 77.5326 72.0873 77.6466 72.3344 77.6466C72.5625 77.6466 72.7146 77.5326 72.7906 77.2855C72.8856 77.0574 72.9236 76.6393 72.9236 76.012ZM74.3872 76.012C74.3872 77.7607 73.7029 78.635 72.3534 78.635C70.9849 78.635 70.3197 77.7607 70.3197 76.012C70.3197 74.2634 71.004 73.4081 72.3534 73.4081C73.7029 73.4081 74.3872 74.2824 74.3872 76.012Z" fill="#231F20"/>
<path d="M76.5337 73.5031V74.1874C76.7808 73.6552 77.18 73.4081 77.7502 73.4081C78.3394 73.4081 78.7005 73.6742 78.8336 74.1874C79.0617 73.6552 79.4608 73.4081 80.05 73.4081C80.3731 73.4081 80.6392 73.4651 80.8293 73.5792C81.0194 73.6932 81.1524 73.8643 81.2284 74.0733C81.3045 74.2824 81.3425 74.6626 81.3425 75.2518V78.5399H79.936V75.4038C79.936 75.0237 79.917 74.7766 79.8599 74.6816C79.8029 74.5675 79.6889 74.5105 79.5178 74.5105C79.2897 74.5105 79.1567 74.5865 79.0807 74.7386C79.0236 74.8906 78.9856 75.1757 78.9856 75.6319V78.5589H77.5791V75.3658C77.5791 75.0047 77.5601 74.7766 77.5031 74.6626C77.4461 74.5485 77.332 74.5105 77.161 74.5105C76.9329 74.5105 76.7808 74.5865 76.7048 74.7386C76.6288 74.8906 76.5908 75.1947 76.5908 75.6319V78.5589H75.1843V73.5031H76.5337Z" fill="#231F20"/>
<path d="M84.8405 75.4228C84.8405 75.3658 84.8405 75.3278 84.8405 75.2898C84.8405 74.6626 84.6315 74.3394 84.1943 74.3394C83.7762 74.3394 83.5481 74.7006 83.5481 75.4228H84.8405ZM86.171 76.2401H83.5481V76.5252C83.5481 76.9814 83.6051 77.2665 83.7382 77.4185C83.8522 77.5706 84.0233 77.6466 84.2133 77.6466C84.6315 77.6466 84.8786 77.3615 84.9356 76.7913L86.19 76.8673C85.962 78.0458 85.2967 78.616 84.1943 78.616C83.5101 78.616 82.9969 78.3879 82.6358 77.9317C82.2746 77.4755 82.1036 76.8483 82.1036 76.0881C82.1036 75.2137 82.2936 74.5485 82.6738 74.0923C83.0539 73.6362 83.5481 73.4081 84.1753 73.4081C84.7455 73.4081 85.2207 73.6172 85.6008 74.0163C85.981 74.4155 86.171 75.1567 86.171 76.2401Z" fill="#231F20"/>
<path d="M86.9882 73.5031H88.3186V74.1874C88.5467 73.6552 88.9649 73.4081 89.5731 73.4081C89.8962 73.4081 90.1623 73.4841 90.3904 73.6362C90.5995 73.7882 90.7325 73.9783 90.8086 74.2064C90.8656 74.4345 90.9036 74.7766 90.9036 75.2518V78.5399H89.4971V75.2518C89.4971 74.9096 89.4591 74.7006 89.364 74.6245C89.288 74.5485 89.155 74.5105 89.0219 74.5105C88.7748 74.5105 88.6038 74.5865 88.5277 74.7386C88.4517 74.8906 88.4137 75.1757 88.4137 75.5939V78.5399H87.0072V73.5031H86.9882Z" fill="#231F20"/>
<path d="M96.1683 76.1261C95.7691 76.1641 95.465 76.2591 95.2939 76.3922C95.1229 76.5252 95.0278 76.7533 95.0278 77.0764C95.0278 77.4946 95.1799 77.7036 95.503 77.7036C95.6741 77.7036 95.8261 77.6086 95.9592 77.4185C96.0922 77.2285 96.1683 76.8863 96.1683 76.3732V76.1261ZM95.0849 75.0997L93.7544 74.9667C93.8114 74.4535 94.0395 74.0733 94.4006 73.8073C94.7617 73.5412 95.2179 73.4081 95.7881 73.4081C96.2633 73.4081 96.6434 73.5032 96.9285 73.6742C97.2136 73.8453 97.3847 74.0543 97.4607 74.3014C97.5367 74.5295 97.5748 74.9096 97.5748 75.4038V77.3995C97.5748 78.0267 97.5938 78.3879 97.6508 78.5209H96.3583C96.3203 78.3879 96.2823 78.1218 96.2823 77.7416C95.9782 78.3308 95.522 78.616 94.9138 78.616C94.5146 78.616 94.2105 78.5019 93.9635 78.2738C93.7164 78.0457 93.6023 77.7036 93.6023 77.2475C93.6023 76.6963 93.7924 76.2591 94.1535 75.955C94.5147 75.6509 95.1989 75.4608 96.1683 75.4038V75.2138C96.1683 74.8716 96.1302 74.6435 96.0732 74.5105C96.0162 74.3774 95.8831 74.3204 95.6741 74.3204C95.3319 74.3394 95.1229 74.5865 95.0849 75.0997Z" fill="#231F20"/>
<path d="M98.6016 73.5031H99.9321V74.1874C100.16 73.6552 100.578 73.4081 101.187 73.4081C101.51 73.4081 101.776 73.4841 102.004 73.6362C102.213 73.7882 102.346 73.9783 102.422 74.2064C102.479 74.4345 102.517 74.7766 102.517 75.2518V78.5399H101.111V75.2518C101.111 74.9096 101.073 74.7006 100.978 74.6245C100.901 74.5485 100.768 74.5105 100.635 74.5105C100.388 74.5105 100.217 74.5865 100.141 74.7386C100.065 74.8906 100.027 75.1757 100.027 75.5939V78.5399H98.6206V73.5031H98.6016Z" fill="#231F20"/>
<path d="M105.919 75.6127C105.919 75.1186 105.862 74.7954 105.767 74.6244C105.672 74.4533 105.52 74.3773 105.311 74.3773C105.064 74.3773 104.912 74.4913 104.836 74.7194C104.76 74.9475 104.703 75.4227 104.703 76.1639C104.703 76.7151 104.741 77.0953 104.836 77.3043C104.931 77.5324 105.083 77.6274 105.292 77.6274C105.463 77.6274 105.615 77.5514 105.729 77.3994C105.843 77.2473 105.9 76.9432 105.9 76.487V75.6127H105.919ZM107.287 71.7354V78.5208H105.976V77.6845C105.767 78.2927 105.387 78.5778 104.836 78.5778C104.303 78.5778 103.904 78.3497 103.638 77.8745C103.372 77.3994 103.239 76.7912 103.239 76.0119C103.239 75.1376 103.391 74.4913 103.695 74.0542C103.999 73.617 104.398 73.408 104.912 73.408C105.387 73.408 105.71 73.579 105.9 73.9401V71.7354H107.287Z" fill="#231F20"/>
<path d="M113.635 76.0492L115.004 76.1252C114.947 76.8665 114.719 77.4557 114.301 77.9309C113.882 78.387 113.331 78.6341 112.647 78.6341C111.811 78.6341 111.184 78.33 110.746 77.7028C110.309 77.0756 110.1 76.2393 110.1 75.1369C110.1 74.0345 110.309 73.1792 110.746 72.571C111.184 71.9438 111.83 71.6397 112.685 71.6397C114.092 71.6397 114.871 72.514 115.004 74.2626L113.635 74.3576C113.597 73.3503 113.293 72.8371 112.685 72.8371C112.381 72.8371 112.134 73.0081 111.944 73.3313C111.754 73.6544 111.659 74.2816 111.659 75.2129C111.659 76.0492 111.735 76.6194 111.906 76.9425C112.077 77.2656 112.324 77.4177 112.666 77.4177C113.217 77.4177 113.54 76.9615 113.635 76.0492Z" fill="#231F20"/>
<path d="M115.765 71.7354H117.171V74.0352C117.418 73.617 117.836 73.408 118.407 73.408C118.749 73.408 119.015 73.484 119.205 73.655C119.395 73.8071 119.528 74.0162 119.585 74.2633C119.642 74.5103 119.661 74.8525 119.661 75.3276V78.5398H118.254V75.3086C118.254 74.9855 118.216 74.7574 118.159 74.6624C118.102 74.5484 117.969 74.5103 117.779 74.5103C117.589 74.5103 117.437 74.5674 117.323 74.6624C117.209 74.7574 117.152 75.0045 117.152 75.3656V78.5588H115.765V71.7354Z" fill="#231F20"/>
<path d="M120.611 73.5031H122.018V78.5209H120.611V73.5031ZM122.037 73.085H120.611V71.6975H122.037V73.085Z" fill="#231F20"/>
<path d="M124.45 71.7354H123.044V78.5208H124.45V71.7354Z" fill="#231F20"/>
<path d="M127.929 75.6127C127.929 75.1186 127.872 74.7954 127.777 74.6244C127.682 74.4533 127.53 74.3773 127.32 74.3773C127.073 74.3773 126.921 74.4913 126.845 74.7194C126.769 74.9475 126.712 75.4227 126.712 76.1639C126.712 76.7151 126.75 77.0953 126.845 77.3043C126.94 77.5324 127.092 77.6274 127.301 77.6274C127.472 77.6274 127.625 77.5514 127.739 77.3994C127.853 77.2473 127.91 76.9432 127.91 76.487V75.6127H127.929ZM129.297 71.7354V78.5208H127.986V77.6845C127.777 78.2927 127.396 78.5778 126.845 78.5778C126.313 78.5778 125.914 78.3497 125.648 77.8745C125.382 77.3994 125.249 76.7912 125.249 76.0119C125.249 75.1376 125.401 74.4913 125.705 74.0542C126.009 73.617 126.408 73.408 126.921 73.408C127.396 73.408 127.72 73.579 127.91 73.9401V71.7354H129.297Z" fill="#231F20"/>
<path d="M133.841 72.8948V77.3614H134.088C134.43 77.3614 134.696 77.3043 134.886 77.1523C135.076 77.0192 135.228 76.7912 135.343 76.449C135.457 76.1259 135.514 75.6507 135.514 75.0235C135.514 74.4533 135.457 73.9972 135.324 73.6931C135.19 73.389 135.038 73.1609 134.848 73.0658C134.658 72.9518 134.411 72.8948 134.069 72.8948H133.841ZM132.358 71.7354H133.974C134.677 71.7354 135.228 71.8304 135.666 72.0205C136.103 72.2105 136.445 72.5527 136.711 73.0658C136.977 73.579 137.11 74.2443 137.11 75.1186C137.11 75.7268 137.034 76.278 136.863 76.7341C136.711 77.2093 136.502 77.5704 136.236 77.8555C135.97 78.1216 135.685 78.3117 135.362 78.4067C135.038 78.5017 134.639 78.5398 134.145 78.5398H132.358V71.7354Z" fill="#231F20"/>
<path d="M140.492 75.4231C140.492 75.3661 140.492 75.3281 140.492 75.2901C140.492 74.6628 140.283 74.3397 139.846 74.3397C139.428 74.3397 139.2 74.7008 139.2 75.4231H140.492ZM141.804 76.2404H139.181V76.5255C139.181 76.9817 139.238 77.2667 139.371 77.4188C139.485 77.5708 139.656 77.6469 139.846 77.6469C140.264 77.6469 140.511 77.3618 140.568 76.7916L141.823 76.8676C141.594 78.046 140.929 78.6162 139.827 78.6162C139.143 78.6162 138.629 78.3881 138.268 77.932C137.907 77.4758 137.736 76.8486 137.736 76.0883C137.736 75.214 137.926 74.5488 138.306 74.0926C138.686 73.6365 139.181 73.4084 139.808 73.4084C140.378 73.4084 140.853 73.6175 141.233 74.0166C141.613 74.4157 141.804 75.157 141.804 76.2404Z" fill="#231F20"/>
<path d="M141.975 73.5028H143.306L144.009 76.4868L144.712 73.5028H145.871L144.503 78.5206H143.382L141.975 73.5028Z" fill="#231F20"/>
<path d="M152.314 71.7354H150.908V78.5208H152.314V71.7354Z" fill="#231F20"/>
<path d="M155.755 76.012C155.755 75.3658 155.717 74.9477 155.622 74.7196C155.527 74.4915 155.375 74.3774 155.166 74.3774C154.957 74.3774 154.804 74.4915 154.709 74.7006C154.614 74.9096 154.576 75.3468 154.576 76.012C154.576 76.6202 154.614 77.0574 154.69 77.2855C154.766 77.5326 154.919 77.6466 155.166 77.6466C155.394 77.6466 155.546 77.5326 155.622 77.2855C155.717 77.0574 155.755 76.6393 155.755 76.012ZM157.218 76.012C157.218 77.7607 156.534 78.635 155.185 78.635C153.816 78.635 153.151 77.7607 153.151 76.012C153.151 74.2634 153.835 73.4081 155.185 73.4081C156.534 73.4081 157.218 74.2824 157.218 76.012Z" fill="#231F20"/>
<path d="M159.404 76.4681C159.404 76.9433 159.442 77.2664 159.518 77.3995C159.594 77.5515 159.746 77.6085 159.993 77.6085C160.202 77.6085 160.354 77.5135 160.468 77.3234C160.563 77.1334 160.62 76.6582 160.62 75.9169C160.62 75.3087 160.582 74.8906 160.487 74.6625C160.392 74.4344 160.24 74.3394 160.031 74.3394C159.86 74.3394 159.708 74.4154 159.594 74.5484C159.48 74.6815 159.404 75.0046 159.404 75.4988V76.4681ZM158.035 73.5031H159.347V74.2443C159.613 73.6931 159.993 73.427 160.487 73.427C160.944 73.427 161.324 73.6361 161.628 74.0353C161.932 74.4534 162.084 75.0806 162.084 75.9169C162.084 76.7912 161.932 77.4565 161.647 77.9126C161.343 78.3688 160.925 78.5779 160.392 78.5779C160.012 78.5779 159.689 78.4258 159.442 78.1407V80.2124H158.073V73.5031H158.035Z" fill="#231F20"/>
<path d="M162.882 73.5031H164.213V74.1874C164.46 73.6552 164.859 73.4081 165.429 73.4081C166.018 73.4081 166.379 73.6742 166.513 74.1874C166.741 73.6552 167.14 73.4081 167.729 73.4081C168.052 73.4081 168.318 73.4651 168.508 73.5792C168.698 73.6932 168.831 73.8643 168.907 74.0733C168.983 74.2824 169.021 74.6626 169.021 75.2518V78.5399H167.653V75.4038C167.653 75.0237 167.634 74.7766 167.577 74.6816C167.52 74.5675 167.406 74.5105 167.235 74.5105C167.007 74.5105 166.874 74.5865 166.817 74.7386C166.76 74.8906 166.722 75.1757 166.722 75.6319V78.5589H165.315V75.3658C165.315 75.0047 165.296 74.7766 165.239 74.6626C165.182 74.5485 165.068 74.5105 164.897 74.5105C164.669 74.5105 164.517 74.5865 164.441 74.7386C164.365 74.8906 164.327 75.1947 164.327 75.6319V78.5589H162.92V73.5031H162.882Z" fill="#231F20"/>
<path d="M172.539 75.4228C172.539 75.3658 172.539 75.3278 172.539 75.2898C172.539 74.6626 172.329 74.3394 171.892 74.3394C171.474 74.3394 171.246 74.7006 171.246 75.4228H172.539ZM173.85 76.2401H171.227V76.5252C171.227 76.9814 171.284 77.2665 171.417 77.4185C171.531 77.5706 171.702 77.6466 171.892 77.6466C172.311 77.6466 172.558 77.3615 172.615 76.7913L173.869 76.8673C173.641 78.0458 172.976 78.616 171.873 78.616C171.189 78.616 170.676 78.3879 170.315 77.9317C169.954 77.4755 169.783 76.8483 169.783 76.0881C169.783 75.2137 169.973 74.5485 170.353 74.0923C170.733 73.6362 171.227 73.4081 171.854 73.4081C172.425 73.4081 172.9 73.6172 173.28 74.0163C173.66 74.4155 173.85 75.1567 173.85 76.2401Z" fill="#231F20"/>
<path d="M174.685 73.5031H176.015V74.1874C176.244 73.6552 176.662 73.4081 177.27 73.4081C177.593 73.4081 177.859 73.4841 178.087 73.6362C178.296 73.7882 178.429 73.9783 178.505 74.2064C178.562 74.4345 178.6 74.7766 178.6 75.2518V78.5399H177.194V75.2518C177.194 74.9096 177.156 74.7006 177.061 74.6245C176.985 74.5485 176.852 74.5105 176.719 74.5105C176.472 74.5105 176.301 74.5865 176.225 74.7386C176.149 74.8906 176.111 75.1757 176.111 75.5939V78.5399H174.685V73.5031Z" fill="#231F20"/>
<path d="M179.742 71.9627L181.111 71.9247V73.5212H182.042V74.6236H181.111V76.4673C181.111 76.8094 181.111 77.0375 181.13 77.1325C181.149 77.2276 181.187 77.3226 181.282 77.3796C181.358 77.4556 181.51 77.4746 181.7 77.4746C181.814 77.4746 181.947 77.4746 182.099 77.4556V78.52C181.795 78.596 181.51 78.6341 181.244 78.6341C180.826 78.6341 180.483 78.558 180.274 78.387C180.046 78.2349 179.913 78.0258 179.837 77.7787C179.78 77.5317 179.742 77.1515 179.742 76.6193V74.6236H179.191V73.5212H179.742V71.9627Z" fill="#231F20"/>
<path d="M67.3342 86.4468V90.0771H66.707L66.5169 89.2978C66.1558 89.887 65.6046 90.1721 64.8823 90.1721C64.103 90.1721 63.4948 89.868 63.0387 89.2598C62.5825 88.6516 62.3544 87.8343 62.3544 86.8079C62.3544 85.6865 62.5825 84.8122 63.0196 84.147C63.4568 83.5007 64.122 83.1776 64.9964 83.1776C66.3839 83.1776 67.1631 83.9569 67.3342 85.4964L65.9847 85.7245C65.8897 84.8312 65.5666 84.3941 65.0154 84.3941C64.6732 84.3941 64.4071 84.5651 64.2171 84.8882C64.008 85.2113 63.913 85.8386 63.913 86.7509C63.913 87.5682 64.008 88.1384 64.2171 88.4615C64.4071 88.7846 64.6922 88.9557 65.0724 88.9557C65.6806 88.9557 65.9847 88.4995 65.9847 87.6062H64.9584V86.4468H67.3342Z" fill="#231F20"/>
<path d="M70.7944 87.5687C70.7944 86.9225 70.7563 86.5043 70.6613 86.2762C70.5663 86.0482 70.4142 85.9341 70.2051 85.9341C69.9961 85.9341 69.844 86.0481 69.749 86.2572C69.6539 86.4663 69.6159 86.9035 69.6159 87.5687C69.6159 88.1769 69.6539 88.6141 69.73 88.8421C69.806 89.0892 69.958 89.2033 70.2051 89.2033C70.4332 89.2033 70.5853 89.0892 70.6613 88.8421C70.7563 88.5951 70.7944 88.1769 70.7944 87.5687ZM72.2389 87.5497C72.2389 89.2983 71.5546 90.1726 70.2051 90.1726C68.8366 90.1726 68.1714 89.2983 68.1714 87.5497C68.1714 85.8011 68.8557 84.9458 70.2051 84.9458C71.5546 84.9458 72.2389 85.8201 72.2389 87.5497Z" fill="#231F20"/>
<path d="M72.3912 85.0594H73.7406L74.4439 88.0244L75.1471 85.0594H76.3066L74.9381 90.0771H73.8167L72.3912 85.0594Z" fill="#231F20"/>
<path d="M79.2143 86.9593C79.2143 86.9023 79.2143 86.8643 79.2143 86.8262C79.2143 86.199 79.0052 85.8759 78.5681 85.8759C78.1499 85.8759 77.9218 86.237 77.9218 86.9593H79.2143ZM80.5258 87.7956H77.9028V88.0807C77.9028 88.5368 77.9598 88.8219 78.0929 88.974C78.2069 89.1261 78.378 89.2021 78.5681 89.2021C78.9862 89.2021 79.2333 88.917 79.2903 88.3468L80.5448 88.4228C80.3167 89.6012 79.6515 90.1714 78.5491 90.1714C77.8648 90.1714 77.3516 89.9433 76.9905 89.4872C76.6294 89.031 76.4583 88.4038 76.4583 87.6435C76.4583 86.7692 76.6484 86.104 77.0285 85.6478C77.4086 85.1917 77.9028 84.9636 78.53 84.9636C79.1003 84.9636 79.5754 85.1727 79.9556 85.5718C80.3357 85.9519 80.5258 86.7122 80.5258 87.7956Z" fill="#231F20"/>
<path d="M81.363 85.0585H82.5984V86.2749C82.8265 85.4196 83.2066 85.0014 83.7768 85.0014C83.8529 85.0014 83.9289 85.0014 84.0239 85.0204V86.3889C83.9289 86.3699 83.8529 86.3699 83.7958 86.3699C83.1116 86.3699 82.7695 86.8831 82.7695 87.9285V90.0952H81.363V85.0585Z" fill="#231F20"/>
<path d="M84.4791 85.0586H85.8095V85.7429C86.0376 85.2107 86.4558 84.9636 87.064 84.9636C87.3871 84.9636 87.6532 85.0396 87.8813 85.1917C88.0903 85.3437 88.2234 85.5338 88.2994 85.7619C88.3564 85.9899 88.3945 86.3321 88.3945 86.8072V90.0954H86.9879V86.8072C86.9879 86.4651 86.9499 86.256 86.8549 86.18C86.7789 86.104 86.6458 86.066 86.5128 86.066C86.2657 86.066 86.0946 86.142 86.0186 86.2941C85.9426 86.4461 85.9046 86.7312 85.9046 87.1494V90.0954H84.4981V85.0586H84.4791Z" fill="#231F20"/>
<path d="M89.3258 85.0586H90.6563V85.7429C90.9034 85.2107 91.3025 84.9636 91.8727 84.9636C92.4619 84.9636 92.823 85.2297 92.9561 85.7429C93.1842 85.2107 93.5833 84.9636 94.1725 84.9636C94.4956 84.9636 94.7617 85.0206 94.9518 85.1346C95.1419 85.2487 95.2749 85.4197 95.3509 85.6288C95.427 85.8379 95.465 86.218 95.465 86.8072V90.0954H94.0965V86.9593C94.0965 86.5791 94.0775 86.3321 94.0205 86.237C93.9634 86.123 93.8494 86.066 93.6783 86.066C93.4503 86.066 93.3172 86.142 93.2602 86.2941C93.2032 86.4461 93.1652 86.7312 93.1652 87.1874V90.1144H91.7587V86.9213C91.7587 86.5601 91.7396 86.3321 91.6826 86.218C91.6256 86.104 91.5116 86.066 91.3405 86.066C91.1124 86.066 90.9604 86.142 90.8843 86.2941C90.8083 86.4461 90.7703 86.7502 90.7703 87.1874V90.1144H89.3638V85.0586H89.3258Z" fill="#231F20"/>
<path d="M98.9821 86.9593C98.9821 86.9023 98.9821 86.8643 98.9821 86.8262C98.9821 86.199 98.7731 85.8759 98.3359 85.8759C97.9178 85.8759 97.6897 86.237 97.6897 86.9593H98.9821ZM100.294 87.7956H97.6707V88.0807C97.6707 88.5368 97.7277 88.8219 97.8607 88.974C97.9748 89.1261 98.1458 89.2021 98.3359 89.2021C98.7541 89.2021 99.0011 88.917 99.0582 88.3468L100.313 88.4228C100.085 89.6012 99.4193 90.1714 98.3169 90.1714C97.6327 90.1714 97.1195 89.9433 96.7583 89.4872C96.3972 89.031 96.2262 88.4038 96.2262 87.6435C96.2262 86.7692 96.4162 86.104 96.7964 85.6478C97.1765 85.1917 97.6707 84.9636 98.2979 84.9636C98.8681 84.9636 99.3433 85.1727 99.7234 85.5718C100.104 85.9519 100.294 86.7122 100.294 87.7956Z" fill="#231F20"/>
<path d="M101.129 85.0586H102.459V85.7429C102.687 85.2107 103.105 84.9636 103.714 84.9636C104.037 84.9636 104.303 85.0396 104.531 85.1917C104.74 85.3437 104.873 85.5338 104.949 85.7619C105.006 85.9899 105.044 86.3321 105.044 86.8072V90.0954H103.637V86.8072C103.637 86.4651 103.599 86.256 103.504 86.18C103.428 86.104 103.295 86.066 103.162 86.066C102.915 86.066 102.744 86.142 102.668 86.2941C102.592 86.4461 102.554 86.7312 102.554 87.1494V90.0954H101.129V85.0586Z" fill="#231F20"/>
<path d="M106.186 83.5004L107.554 83.4623V85.0589H108.486V86.1613H107.554V88.0049C107.554 88.3471 107.554 88.5751 107.573 88.6702C107.592 88.7652 107.63 88.8602 107.725 88.9173C107.801 88.9933 107.953 89.0123 108.143 89.0123C108.257 89.0123 108.391 89.0123 108.543 88.9933V90.0577C108.238 90.1337 107.953 90.1717 107.687 90.1717C107.269 90.1717 106.927 90.0957 106.718 89.9246C106.49 89.7726 106.357 89.5635 106.281 89.3164C106.224 89.0693 106.186 88.6892 106.186 88.157V86.1423H105.635V85.0399H106.186V83.5004Z" fill="#231F20"/>
<path d="M113.407 87.5687C113.407 86.9225 113.369 86.5043 113.274 86.2762C113.179 86.0482 113.027 85.9341 112.818 85.9341C112.609 85.9341 112.457 86.0481 112.362 86.2572C112.267 86.4663 112.229 86.9035 112.229 87.5687C112.229 88.1769 112.267 88.6141 112.343 88.8421C112.419 89.0892 112.571 89.2033 112.818 89.2033C113.046 89.2033 113.198 89.0892 113.274 88.8421C113.369 88.5951 113.407 88.1769 113.407 87.5687ZM114.852 87.5497C114.852 89.2983 114.167 90.1726 112.818 90.1726C111.449 90.1726 110.784 89.2983 110.784 87.5497C110.784 85.8011 111.468 84.9458 112.818 84.9458C114.186 84.9458 114.852 85.8201 114.852 87.5497Z" fill="#231F20"/>
<path d="M117.265 85.0581H118.159V86.1605H117.265V90.0759H115.916V86.1415H115.346V85.0391H115.916C115.916 84.5449 115.954 84.1648 116.03 83.9367C116.106 83.6896 116.258 83.4805 116.505 83.2905C116.752 83.1004 117.075 83.0054 117.494 83.0054C117.741 83.0054 117.969 83.0244 118.197 83.0624V84.1648C118.083 84.1458 117.988 84.1458 117.893 84.1458C117.627 84.1458 117.456 84.2028 117.38 84.3168C117.303 84.4309 117.265 84.678 117.265 85.0581Z" fill="#231F20"/>
<path d="M122.132 83.273H120.649V90.0584H122.132V83.273Z" fill="#231F20"/>
<path d="M123.311 85.0586H124.641V85.7429C124.869 85.2107 125.288 84.9636 125.896 84.9636C126.219 84.9636 126.485 85.0396 126.713 85.1917C126.922 85.3437 127.055 85.5338 127.131 85.7619C127.188 85.9899 127.226 86.3321 127.226 86.8072V90.0954H125.82V86.8072C125.82 86.4651 125.782 86.256 125.687 86.18C125.611 86.104 125.478 86.066 125.345 86.066C125.098 86.066 124.926 86.142 124.85 86.2941C124.774 86.4461 124.736 86.7312 124.736 87.1494V90.0954H123.33V85.0586H123.311Z" fill="#231F20"/>
<path d="M130.608 87.1504C130.608 86.6562 130.551 86.3331 130.456 86.162C130.361 85.991 130.209 85.9149 130 85.9149C129.753 85.9149 129.601 86.029 129.525 86.2571C129.449 86.4851 129.392 86.9603 129.392 87.7016C129.392 88.2528 129.43 88.6329 129.525 88.842C129.62 89.0701 129.772 89.1651 129.981 89.1651C130.152 89.1651 130.304 89.0891 130.418 88.937C130.532 88.785 130.589 88.4809 130.589 88.0247V87.1504H130.608ZM131.977 83.273V90.0584H130.665V89.2221C130.456 89.8303 130.076 90.1154 129.525 90.1154C128.993 90.1154 128.593 89.8874 128.327 89.4122C128.061 88.937 127.928 88.3288 127.928 87.5495C127.928 86.6752 128.08 86.029 128.384 85.5918C128.688 85.1547 129.088 84.9456 129.601 84.9456C130.076 84.9456 130.399 85.1167 130.589 85.4778V83.273H131.977Z" fill="#231F20"/>
<path d="M133.004 85.0586H134.411V90.0764H133.004V85.0586ZM134.43 84.6405H133.004V83.253H134.43V84.6405Z" fill="#231F20"/>
<path d="M137.869 87.6815C137.47 87.7196 137.166 87.8146 136.995 87.9476C136.824 88.0807 136.729 88.3088 136.729 88.6319C136.729 89.05 136.881 89.2591 137.204 89.2591C137.375 89.2591 137.527 89.1641 137.66 88.974C137.793 88.7839 137.869 88.4418 137.869 87.9286V87.6815ZM136.786 86.6552L135.455 86.5221C135.512 86.0089 135.74 85.6288 136.101 85.3627C136.462 85.0966 136.919 84.9636 137.489 84.9636C137.964 84.9636 138.344 85.0586 138.629 85.2297C138.914 85.4007 139.085 85.6098 139.161 85.8569C139.237 86.085 139.275 86.4651 139.275 86.9593V88.955C139.275 89.5822 139.294 89.9433 139.351 90.0764H138.059C138.021 89.9433 137.983 89.6772 137.983 89.2971C137.679 89.8863 137.223 90.1714 136.614 90.1714C136.215 90.1714 135.911 90.0574 135.664 89.8293C135.417 89.6012 135.303 89.2591 135.303 88.8029C135.303 88.2517 135.493 87.8146 135.854 87.5105C136.215 87.2064 136.9 87.0163 137.869 86.9593V86.7692C137.869 86.4271 137.831 86.199 137.774 86.066C137.717 85.9329 137.584 85.8759 137.375 85.8759C137.014 85.8759 136.824 86.123 136.786 86.6552Z" fill="#231F20"/>
<path d="M60.0746 73.5029H60.9679V74.6053H60.0746V78.5207H58.7441V74.6053H58.1739V73.5029H58.7441C58.7441 73.0088 58.7821 72.6286 58.8581 72.4005C58.9342 72.1535 59.0862 71.9444 59.3333 71.7543C59.5804 71.5642 59.9035 71.4692 60.3217 71.4692C60.5688 71.4692 60.7968 71.4882 61.0249 71.5262V72.6286C60.9109 72.6096 60.8158 72.6096 60.7208 72.6096C60.4547 72.6096 60.2836 72.6666 60.2076 72.7807C60.1126 72.8947 60.0746 73.1228 60.0746 73.5029Z" fill="#231F20"/>
<path d="M148.779 75.4228C148.779 75.3658 148.779 75.3278 148.779 75.2898C148.779 74.6626 148.57 74.3394 148.133 74.3394C147.715 74.3394 147.487 74.7006 147.487 75.4228H148.779ZM150.091 76.2401H147.468V76.5252C147.468 76.9814 147.525 77.2665 147.658 77.4185C147.772 77.5706 147.943 77.6466 148.133 77.6466C148.551 77.6466 148.798 77.3615 148.855 76.7913L150.11 76.8673C149.882 78.0458 149.216 78.616 148.114 78.616C147.43 78.616 146.917 78.3879 146.555 77.9317C146.194 77.4755 146.023 76.8483 146.023 76.0881C146.023 75.2137 146.213 74.5485 146.594 74.0923C146.974 73.6362 147.468 73.4081 148.095 73.4081C148.665 73.4081 149.14 73.6172 149.521 74.0163C149.901 74.4155 150.091 75.1567 150.091 76.2401Z" fill="#231F20"/>
<path fill-rule="evenodd" clip-rule="evenodd" d="M108.009 36.6491C109.929 36.6491 111.468 38.3407 111.468 40.4314C111.468 42.5222 109.91 44.2138 108.009 44.2138C106.089 44.2138 104.55 42.5222 104.55 40.4314C104.55 38.3217 106.089 36.6491 108.009 36.6491Z" fill="#EC1C24"/>
<path d="M72.7901 64.0377V59.9893H71.2886V59.4571H74.8999V59.9893H73.3984V64.0377H72.7901Z" fill="#231F20"/>
<path d="M75.1275 62.365C75.1275 62.7831 75.2226 63.1063 75.4126 63.3153C75.6027 63.5244 75.8308 63.6384 76.1159 63.6384C76.401 63.6384 76.6291 63.5244 76.8191 63.3153C77.0092 63.1063 77.1042 62.7831 77.1042 62.346C77.1042 61.9278 77.0092 61.6237 76.8191 61.4147C76.6291 61.2056 76.401 61.0916 76.1159 61.0916C75.8308 61.0916 75.6027 61.2056 75.4126 61.4147C75.2036 61.6237 75.1275 61.9469 75.1275 62.365ZM74.5383 62.365C74.5383 61.7568 74.7094 61.3006 75.0515 60.9965C75.3366 60.7494 75.6787 60.6354 76.0969 60.6354C76.553 60.6354 76.9332 60.7874 77.2183 61.0916C77.5034 61.3957 77.6554 61.7948 77.6554 62.327C77.6554 62.7451 77.5984 63.0873 77.4654 63.3343C77.3323 63.5814 77.1423 63.7715 76.9142 63.9045C76.6671 64.0376 76.401 64.1136 76.1159 64.1136C75.6597 64.1136 75.2796 63.9616 74.9945 63.6765C74.6904 63.3533 74.5383 62.9352 74.5383 62.365Z" fill="#231F20"/>
<path d="M78.9112 64.0384L77.9039 60.7122H78.4931L79.0253 62.6319L79.2153 63.3542C79.2153 63.3161 79.2724 63.0881 79.3864 62.6699L79.9186 60.7312H80.4888L80.983 62.6509L81.154 63.2781L81.3441 62.6319L81.9143 60.7122H82.4655L81.4201 64.0384H80.8309L80.2987 62.0617L80.1657 61.4915L79.5004 64.0384H78.9112Z" fill="#231F20"/>
<path d="M85.0504 62.3649C84.8414 62.441 84.5372 62.517 84.1381 62.574C83.91 62.612 83.739 62.65 83.6439 62.688C83.5489 62.726 83.4729 62.7831 83.4158 62.8781C83.3588 62.9541 83.3398 63.0492 83.3398 63.1442C83.3398 63.2962 83.3968 63.4103 83.5109 63.5243C83.6249 63.6194 83.796 63.6764 84.0051 63.6764C84.2141 63.6764 84.4232 63.6384 84.5753 63.5433C84.7463 63.4483 84.8604 63.3153 84.9554 63.1632C85.0124 63.0302 85.0504 62.8591 85.0504 62.612V62.3649ZM85.1075 63.6194C84.8984 63.7904 84.6893 63.9235 84.4992 63.9995C84.3092 64.0755 84.1001 64.1135 83.872 64.1135C83.5109 64.1135 83.2258 64.0185 83.0357 63.8474C82.8456 63.6764 82.7506 63.4483 82.7506 63.1632C82.7506 62.9921 82.7886 62.8591 82.8647 62.726C82.9407 62.593 83.0357 62.479 83.1498 62.4029C83.2638 62.3269 83.3968 62.2509 83.5489 62.2129C83.6629 62.1748 83.834 62.1558 84.0431 62.1368C84.4992 62.0798 84.8414 62.0228 85.0504 61.9468C85.0504 61.8707 85.0504 61.8137 85.0504 61.7947C85.0504 61.5666 84.9934 61.4146 84.8984 61.3196C84.7463 61.1865 84.5373 61.1295 84.2522 61.1295C83.9861 61.1295 83.796 61.1675 83.6629 61.2625C83.5299 61.3576 83.4349 61.5286 83.3778 61.7567L82.8266 61.6807C82.8837 61.4526 82.9597 61.2625 83.0737 61.1105C83.1878 60.9584 83.3588 60.8634 83.5679 60.7684C83.777 60.6923 84.0431 60.6543 84.3282 60.6543C84.6133 60.6543 84.8414 60.6923 85.0124 60.7494C85.1835 60.8254 85.3165 60.9014 85.4116 60.9964C85.4876 61.0915 85.5446 61.2245 85.5826 61.3766C85.6016 61.4716 85.6016 61.6427 85.6016 61.8898V62.631C85.6016 63.1442 85.6206 63.4863 85.6396 63.6194C85.6587 63.7524 85.7157 63.8854 85.7727 64.0185H85.1835C85.1455 63.9045 85.1075 63.7714 85.1075 63.6194Z" fill="#231F20"/>
<path d="M86.4748 64.0376V60.7114H86.9879V61.2246C87.121 60.9965 87.235 60.8255 87.3491 60.7494C87.4631 60.6734 87.5772 60.6354 87.7102 60.6354C87.9003 60.6354 88.0903 60.6924 88.2804 60.8065L88.0713 61.3196C87.9383 61.2436 87.8052 61.2056 87.6532 61.2056C87.5391 61.2056 87.4251 61.2436 87.3301 61.3196C87.235 61.3957 87.159 61.4907 87.121 61.6237C87.064 61.8138 87.026 62.0419 87.026 62.27V63.9996H86.4748V64.0376Z" fill="#231F20"/>
<path d="M88.984 62.3841C88.984 62.8022 89.079 63.1253 89.2501 63.3344C89.4211 63.5435 89.6492 63.6575 89.8773 63.6575C90.1244 63.6575 90.3334 63.5625 90.5045 63.3534C90.6756 63.1443 90.7706 62.8402 90.7706 62.4411C90.7706 61.9849 90.6756 61.6618 90.5045 61.4527C90.3334 61.2437 90.1054 61.1296 89.8583 61.1296C89.6112 61.1296 89.4021 61.2247 89.2311 61.4337C89.06 61.6238 88.984 61.9469 88.984 62.3841ZM90.7516 63.6195C90.5425 63.9426 90.2384 64.1137 89.8203 64.1137C89.5542 64.1137 89.3071 64.0377 89.098 63.9046C88.8699 63.7526 88.6989 63.5625 88.5848 63.2964C88.4708 63.0303 88.3948 62.7262 88.3948 62.4031C88.3948 62.08 88.4518 61.7759 88.5658 61.5098C88.6799 61.2437 88.8509 61.0346 89.06 60.8825C89.2881 60.7305 89.5352 60.6735 89.8013 60.6735C90.0103 60.6735 90.1814 60.7115 90.3335 60.8065C90.4855 60.8825 90.6186 60.9966 90.7136 61.1296V59.4761H91.2838V64.0567H90.7516V63.6195Z" fill="#231F20"/>
<path d="M91.9496 63.0492L92.5008 62.9542C92.5388 63.1823 92.6149 63.3533 92.7669 63.4674C92.919 63.5814 93.109 63.6384 93.3751 63.6384C93.6412 63.6384 93.8313 63.5814 93.9453 63.4864C94.0784 63.3914 94.1354 63.2583 94.1354 63.1253C94.1354 62.9922 94.0784 62.8972 93.9643 62.8212C93.8883 62.7641 93.6982 62.7071 93.3941 62.6311C92.976 62.5361 92.6909 62.441 92.5388 62.365C92.3868 62.289 92.2537 62.1749 92.1777 62.0419C92.1017 61.9088 92.0447 61.7568 92.0447 61.6047C92.0447 61.4527 92.0827 61.3196 92.1397 61.1866C92.2157 61.0535 92.2917 60.9585 92.4248 60.8825C92.5198 60.8255 92.6339 60.7684 92.7859 60.7114C92.938 60.6734 93.09 60.6354 93.2801 60.6354C93.5462 60.6354 93.7743 60.6734 93.9643 60.7494C94.1544 60.8255 94.3065 60.9205 94.4015 61.0535C94.4965 61.1866 94.5536 61.3576 94.5916 61.5667L94.0404 61.6427C94.0214 61.4717 93.9453 61.3386 93.8313 61.2436C93.7172 61.1486 93.5462 61.0916 93.3181 61.0916C93.052 61.0916 92.881 61.1296 92.7669 61.2246C92.6529 61.3006 92.5958 61.4147 92.5958 61.5287C92.5958 61.6047 92.6149 61.6618 92.6719 61.7188C92.7099 61.7758 92.7859 61.8328 92.8809 61.8708C92.938 61.8898 93.109 61.9468 93.3751 62.0229C93.7743 62.1369 94.0404 62.2129 94.2114 62.289C94.3635 62.365 94.4965 62.46 94.5916 62.5741C94.6866 62.7071 94.7246 62.8592 94.7246 63.0492C94.7246 63.2393 94.6676 63.4104 94.5536 63.5814C94.4395 63.7525 94.2875 63.8665 94.0784 63.9616C93.8693 64.0566 93.6412 64.0946 93.3751 64.0946C92.938 64.0946 92.6149 63.9996 92.3868 63.8285C92.1587 63.6575 92.0066 63.3914 91.9496 63.0492Z" fill="#231F20"/>
<path d="M99.2667 62.3649C99.0576 62.441 98.7535 62.517 98.3543 62.574C98.1262 62.612 97.9552 62.65 97.8601 62.688C97.7651 62.726 97.6891 62.7831 97.6321 62.8781C97.575 62.9541 97.556 63.0492 97.556 63.1442C97.556 63.2962 97.6131 63.4103 97.7271 63.5243C97.8411 63.6194 98.0122 63.6764 98.2213 63.6764C98.4304 63.6764 98.6394 63.6384 98.7915 63.5433C98.9625 63.4483 99.0766 63.3153 99.1716 63.1632C99.2286 63.0302 99.2667 62.8591 99.2667 62.612V62.3649ZM99.3047 63.6194C99.0956 63.7904 98.8865 63.9235 98.6964 63.9995C98.5064 64.0755 98.2973 64.1135 98.0692 64.1135C97.7081 64.1135 97.423 64.0185 97.2329 63.8474C97.0429 63.6764 96.9478 63.4483 96.9478 63.1632C96.9478 62.9921 96.9858 62.8591 97.0619 62.726C97.1379 62.593 97.2329 62.479 97.347 62.4029C97.461 62.3269 97.5941 62.2509 97.7461 62.2129C97.8601 62.1748 98.0312 62.1558 98.2403 62.1368C98.6964 62.0798 99.0386 62.0228 99.2476 61.9468C99.2476 61.8707 99.2476 61.8137 99.2476 61.7947C99.2476 61.5666 99.1906 61.4146 99.0956 61.3196C98.9435 61.1865 98.7345 61.1295 98.4494 61.1295C98.1833 61.1295 97.9932 61.1675 97.8601 61.2625C97.7271 61.3576 97.6321 61.5286 97.575 61.7567L97.0239 61.6807C97.0809 61.4526 97.1569 61.2625 97.2709 61.1105C97.385 60.9584 97.556 60.8634 97.7651 60.7684C97.9742 60.6923 98.2403 60.6543 98.5254 60.6543C98.8105 60.6543 99.0386 60.6923 99.2096 60.7494C99.3807 60.8254 99.5137 60.9014 99.6088 60.9964C99.6848 61.0915 99.7418 61.2245 99.7798 61.3766C99.7989 61.4716 99.7989 61.6427 99.7989 61.8898V62.631C99.7989 63.1442 99.8179 63.4863 99.8369 63.6194C99.8559 63.7524 99.9129 63.8854 99.9699 64.0185H99.4187C99.3617 63.9045 99.3237 63.7714 99.3047 63.6194Z" fill="#231F20"/>
<path d="M102.478 60.7113H102.992V61.1865C103.239 60.8254 103.581 60.6543 104.037 60.6543C104.246 60.6543 104.417 60.6923 104.588 60.7684C104.759 60.8444 104.873 60.9394 104.968 61.0535C105.044 61.1675 105.101 61.3005 105.139 61.4716C105.158 61.5856 105.177 61.7567 105.177 62.0228V64.0565H104.607V62.0418C104.607 61.8137 104.588 61.6427 104.55 61.5286C104.512 61.4146 104.436 61.3195 104.322 61.2625C104.208 61.1865 104.075 61.1675 103.923 61.1675C103.676 61.1675 103.486 61.2435 103.296 61.3956C103.125 61.5476 103.03 61.8327 103.03 62.2509V64.0565H102.478V60.7113Z" fill="#231F20"/>
<path d="M106.452 62.0609H108.296C108.277 61.7758 108.201 61.5667 108.087 61.4337C107.916 61.2246 107.669 61.1106 107.383 61.1106C107.117 61.1106 106.908 61.2056 106.737 61.3767C106.566 61.5287 106.471 61.7568 106.452 62.0609ZM108.296 62.9542L108.885 63.0302C108.79 63.3724 108.619 63.6385 108.372 63.8095C108.125 63.9996 107.802 64.0946 107.421 64.0946C106.946 64.0946 106.547 63.9425 106.262 63.6384C105.977 63.3343 105.844 62.9162 105.844 62.384C105.844 61.8328 105.996 61.3957 106.281 61.0916C106.566 60.7874 106.946 60.6354 107.402 60.6354C107.84 60.6354 108.201 60.7874 108.486 61.0916C108.771 61.3957 108.904 61.8138 108.904 62.365C108.904 62.403 108.904 62.441 108.904 62.5171H106.433C106.452 62.8782 106.547 63.1633 106.737 63.3533C106.927 63.5434 107.155 63.6384 107.421 63.6384C107.631 63.6384 107.802 63.5814 107.954 63.4674C108.106 63.3724 108.22 63.2013 108.296 62.9542Z" fill="#231F20"/>
<path d="M110.195 64.0384L109.188 60.7122H109.777L110.309 62.6319L110.499 63.3541C110.499 63.3161 110.557 63.088 110.671 62.6699L111.203 60.7312H111.773L112.267 62.6509L112.438 63.2781L112.628 62.6319L113.198 60.7122H113.75L112.704 64.0384H112.115L111.583 62.0617L111.45 61.4915L110.785 64.0384H110.195Z" fill="#231F20"/>
<path d="M116.354 62.3841C116.354 62.8022 116.449 63.1253 116.62 63.3344C116.791 63.5435 117.019 63.6575 117.247 63.6575C117.494 63.6575 117.703 63.5625 117.874 63.3534C118.045 63.1443 118.14 62.8402 118.14 62.4411C118.14 61.9849 118.045 61.6618 117.874 61.4527C117.703 61.2437 117.475 61.1296 117.228 61.1296C116.981 61.1296 116.772 61.2247 116.601 61.4337C116.43 61.6238 116.354 61.9469 116.354 62.3841ZM118.121 63.6195C117.912 63.9426 117.608 64.1137 117.19 64.1137C116.924 64.1137 116.677 64.0377 116.468 63.9046C116.24 63.7526 116.069 63.5625 115.955 63.2964C115.841 63.0303 115.765 62.7262 115.765 62.4031C115.765 62.08 115.822 61.7759 115.936 61.5098C116.05 61.2437 116.221 61.0346 116.43 60.8825C116.658 60.7305 116.905 60.6735 117.171 60.6735C117.38 60.6735 117.551 60.7115 117.703 60.8065C117.855 60.8825 117.988 60.9966 118.083 61.1296V59.4761H118.654V64.0567H118.121V63.6195Z" fill="#231F20"/>
<path d="M121.676 62.3649C121.467 62.441 121.163 62.517 120.764 62.574C120.536 62.612 120.365 62.65 120.27 62.688C120.175 62.726 120.099 62.7831 120.042 62.8781C119.985 62.9541 119.966 63.0492 119.966 63.1442C119.966 63.2962 120.023 63.4103 120.137 63.5243C120.251 63.6194 120.422 63.6764 120.631 63.6764C120.84 63.6764 121.049 63.6384 121.201 63.5433C121.372 63.4483 121.486 63.3153 121.581 63.1632C121.638 63.0302 121.676 62.8591 121.676 62.612V62.3649ZM121.714 63.6194C121.505 63.7904 121.296 63.9235 121.106 63.9995C120.916 64.0755 120.707 64.1135 120.479 64.1135C120.118 64.1135 119.832 64.0185 119.642 63.8474C119.452 63.6764 119.357 63.4483 119.357 63.1632C119.357 62.9921 119.395 62.8591 119.471 62.726C119.547 62.593 119.642 62.479 119.756 62.4029C119.87 62.3269 120.004 62.2509 120.156 62.2129C120.27 62.1748 120.441 62.1558 120.65 62.1368C121.106 62.0798 121.448 62.0228 121.657 61.9468C121.657 61.8707 121.657 61.8137 121.657 61.7947C121.657 61.5666 121.6 61.4146 121.505 61.3196C121.353 61.1865 121.144 61.1295 120.859 61.1295C120.593 61.1295 120.403 61.1675 120.27 61.2625C120.137 61.3576 120.042 61.5286 119.985 61.7567L119.433 61.6807C119.49 61.4526 119.566 61.2625 119.68 61.1105C119.794 60.9584 119.966 60.8634 120.175 60.7684C120.384 60.6923 120.65 60.6543 120.935 60.6543C121.22 60.6543 121.448 60.6923 121.619 60.7494C121.79 60.8254 121.923 60.9014 122.018 60.9964C122.094 61.0915 122.151 61.2245 122.189 61.3766C122.208 61.4716 122.208 61.6427 122.208 61.8898V62.631C122.208 63.1442 122.227 63.4863 122.246 63.6194C122.265 63.7524 122.322 63.8854 122.379 64.0185H121.79C121.771 63.9045 121.733 63.7714 121.714 63.6194Z" fill="#231F20"/>
<path d="M123.69 64.0384L122.683 60.7122H123.272L123.804 62.6319L123.994 63.3542C123.994 63.3161 124.051 63.0881 124.165 62.6699L124.698 60.7312H125.268L125.762 62.6509L125.933 63.2781L126.123 62.6319L126.693 60.7122H127.244L126.199 64.0384H125.61L125.078 62.0617L124.945 61.4915L124.279 64.0384H123.69Z" fill="#231F20"/>
<path d="M127.72 60.7113H128.233V61.1865C128.48 60.8254 128.822 60.6543 129.278 60.6543C129.488 60.6543 129.659 60.6923 129.83 60.7684C130.001 60.8444 130.115 60.9394 130.21 61.0535C130.286 61.1675 130.343 61.3005 130.381 61.4716C130.4 61.5856 130.419 61.7567 130.419 62.0228V64.0565H129.849V62.0418C129.849 61.8137 129.83 61.6427 129.792 61.5286C129.754 61.4146 129.678 61.3195 129.564 61.2625C129.45 61.1865 129.317 61.1675 129.164 61.1675C128.917 61.1675 128.727 61.2435 128.537 61.3956C128.366 61.5476 128.271 61.8327 128.271 62.2509V64.0565H127.72V60.7113Z" fill="#231F20"/>
<path d="M95.1426 17.5284C92.2346 17.5284 89.8397 20.3034 89.5356 23.8767C89.8587 23.8006 90.2008 23.7626 90.543 23.7626C93.0899 23.7626 95.1426 25.8153 95.1426 28.3622C95.1426 29.6167 94.6484 30.7571 93.8311 31.5744C94.2493 31.7074 94.6865 31.7644 95.1426 31.7644C98.2597 31.7644 100.788 28.5713 100.788 24.6369C100.788 20.7025 98.2597 17.5284 95.1426 17.5284Z" fill="#F48120"/>
<path d="M91.2847 30.8895C92.5968 30.8895 93.6605 29.6896 93.6605 28.2095C93.6605 26.7294 92.5968 25.5296 91.2847 25.5296C89.9725 25.5296 88.9088 26.7294 88.9088 28.2095C88.9088 29.6896 89.9725 30.8895 91.2847 30.8895Z" fill="#F48120"/>
<path fill-rule="evenodd" clip-rule="evenodd" d="M81.1157 24.6557C91.8736 42.579 108.143 32.8096 118.597 10.1726C112.268 27.1076 96.7393 42.6741 98.7731 55.7697H92.3868C90.7142 45.392 85.8294 35.0144 81.1157 24.6557Z" fill="#F48120"/>
</svg>
