<svg width="124" height="73" viewBox="0 0 124 73" fill="none" xmlns="http://www.w3.org/2000/svg">
<g clip-path="url(#clip0_201_18279)">
<path d="M123.237 -25.1101H-0.125V98.1352H123.237V-25.1101Z" fill="#2483C5"/>
<path d="M33.2519 64.866H19.8301V65.7988H33.2519V64.866Z" fill="white"/>
<path d="M19.8301 63.337V61.886H33.1483L33.2131 63.337H19.8301Z" fill="white"/>
<path d="M19.8301 60.3313V58.3491H33.0576L33.0965 60.3313H19.8301Z" fill="white"/>
<path d="M19.8301 56.7943V53.9182H32.9281L32.9928 56.7943H19.8301Z" fill="white"/>
<path d="M19.8301 52.4025V47.9587H57.958L58.243 52.4025H35.1693L32.5394 47.9587L32.8503 52.4025H19.8301Z" fill="white"/>
<path d="M19.8301 46.4172V40.9111H42.6058L45.9742 46.4172L45.6633 40.9111H58.243V46.4172H19.8301Z" fill="white"/>
<path d="M19.8301 39.3692V28.6162L35.2341 28.6551L41.6082 39.3692H19.8301Z" fill="white"/>
<path d="M58.2438 28.6162H45.6641V39.3692H58.2438V28.6162Z" fill="white"/>
<path d="M58.2443 53.9182V56.7943H38.1115L36.207 53.9182H58.2443Z" fill="white"/>
<path d="M58.2387 58.3491V60.3313H40.412L39.1035 58.3491H58.2387Z" fill="white"/>
<path d="M58.2388 61.886V63.337H42.3813L41.4355 61.886H58.2388Z" fill="white"/>
<path d="M58.2383 64.866V65.7988H44.0132L43.4043 64.866H58.2383Z" fill="white"/>
<path d="M74.9689 64.866H61.832V65.7988H74.9689V64.866Z" fill="white"/>
<path d="M74.9689 61.886H61.832V63.324H74.9689V61.886Z" fill="white"/>
<path d="M74.9689 58.3491H61.832V60.3313H74.9689V58.3491Z" fill="white"/>
<path d="M74.9689 53.9182H61.832V56.7943H74.9689V53.9182Z" fill="white"/>
<path d="M74.9689 47.9587H61.832V52.4154H74.9689V47.9587Z" fill="white"/>
<path d="M74.9689 40.9111H61.832V46.4172H74.9689V40.9111Z" fill="white"/>
<path d="M74.9689 28.6162H61.832V39.3692H74.9689V28.6162Z" fill="white"/>
<path d="M97.5594 27.9816H104.529V39.3565H79.1367C80.8212 35.9153 83.4451 33.021 86.7051 31.0081C89.9651 28.9952 93.7282 27.946 97.5594 27.9816Z" fill="white"/>
<path d="M93.2689 40.9111C92.4654 41.5877 91.8178 42.4301 91.3705 43.3805C90.9233 44.3309 90.687 45.3668 90.6778 46.4172H77.3984C77.4842 44.5366 77.8555 42.68 78.4997 40.9111H93.2689Z" fill="white"/>
<path d="M90.757 47.9587C91.0634 49.7014 91.9823 51.2774 93.348 52.4025H78.1772C77.7407 50.9588 77.4882 49.4657 77.4258 47.9587H90.757Z" fill="white"/>
<path d="M104.531 53.97V56.8461H80.149C79.5851 55.932 79.1038 54.9695 78.7109 53.97H104.531Z" fill="white"/>
<path d="M104.529 58.3491V60.3313H82.906C82.2764 59.7169 81.6959 59.0542 81.1699 58.3491H104.529Z" fill="white"/>
<path d="M104.532 61.886V63.337H86.7955C86.0792 62.8906 85.3872 62.4063 84.7227 61.886H104.532Z" fill="white"/>
<path d="M104.532 64.866V65.6304H92.6384C92.6384 65.6304 92.2368 65.7599 89.8789 64.8271L104.532 64.866Z" fill="white"/>
<path d="M90.3854 22.4885C90.0356 21.9703 89.1806 20.7525 87.4186 18.265C85.4494 15.4926 84.6462 14.21 84.3223 13.627L86.4988 12.1371C86.6443 12.4785 86.8086 12.8115 86.9911 13.1347C87.0818 13.3003 87.2077 13.4442 87.3599 13.5561C87.5121 13.6679 87.6869 13.7452 87.8721 13.7824H87.9498C88.0792 13.7879 88.2068 13.7502 88.3124 13.6751C88.4179 13.6 88.4955 13.4919 88.5328 13.3679C88.5525 13.2347 88.5525 13.0994 88.5328 12.9662V9.64964H85.5012V7.21402H92.6915L92.3676 6.76057L92.1474 6.43669C91.7515 5.74911 91.5625 4.96184 91.6032 4.16948C91.6101 3.63957 91.7373 3.11815 91.9752 2.6446C92.2131 2.17104 92.5555 1.75773 92.9765 1.43588C94.0095 0.700962 95.2602 0.335814 96.5263 0.399439C97.5756 0.446539 98.6037 0.711614 99.5449 1.17779C100.486 1.64396 101.32 2.30102 101.994 3.10713C102.941 4.27873 103.701 5.58977 104.248 6.99377V22.4108H101.151V9.64964H98.1717V22.4108H95.0883V15.933H93.7927L92.4972 13.6399H95.0883V9.64964H91.6551V13.3031C91.6509 13.8936 91.4453 14.4649 91.0721 14.9225C90.6592 15.4779 90.0622 15.8682 89.3879 16.0237L88.9733 16.1403L89.2583 16.4772L90.4761 18.0189C91.1757 18.7962 91.9271 19.6901 92.7304 20.7266L90.3854 22.4885ZM96.2024 2.71847C96.0386 2.70512 95.874 2.70512 95.7101 2.71847C95.4512 2.74813 95.2017 2.83284 94.9782 2.96692C94.7548 3.10099 94.5626 3.28132 94.4146 3.4958C94.1839 3.85393 94.0706 4.27512 94.0907 4.70065C94.0702 5.17049 94.1998 5.63464 94.4607 6.02593C94.7215 6.41723 95.1001 6.71536 95.5417 6.87717C95.8991 7.03598 96.2796 7.13658 96.6688 7.17515H99.9077C101.203 7.17515 101.203 7.17515 101.203 6.89013V6.79944C100.861 5.70405 100.205 4.73328 99.3159 4.00774C98.4268 3.28221 97.3442 2.83388 96.2024 2.71847Z" fill="white"/>
<path d="M76.1344 23.5637C75.7457 23.2399 75.3052 22.8512 74.8388 22.3978L74.774 22.32H74.3854H74.217H73.8412C73.1216 22.3126 72.4229 22.0767 71.8461 21.6463C71.6005 21.4794 71.4014 21.2526 71.2677 20.9874C71.134 20.7222 71.07 20.4273 71.0817 20.1305C71.0721 19.8879 71.1158 19.6462 71.2098 19.4223C71.3038 19.1984 71.4458 18.9979 71.6259 18.835C71.818 18.6604 72.043 18.5259 72.2876 18.4391C72.5323 18.3524 72.7918 18.3152 73.051 18.3297C73.3536 18.3325 73.6528 18.3941 73.9319 18.5111C74.7224 18.8956 75.3742 19.5157 75.7975 20.286C75.8257 20.3322 75.8658 20.3699 75.9138 20.395C75.9617 20.4201 76.0156 20.4317 76.0696 20.4285C76.2324 20.4184 76.3913 20.3743 76.536 20.299H76.6655C77.0269 20.1359 77.346 19.8922 77.5983 19.5864C77.8193 19.3119 77.9758 18.9913 78.0565 18.6483C78.1373 18.3052 78.14 17.9485 78.0647 17.6042C78.0434 17.4763 77.9899 17.356 77.9093 17.2544C77.8617 17.1975 77.8023 17.1518 77.7351 17.1205C77.668 17.0891 77.5947 17.0729 77.5206 17.0731H77.3133C77.0813 17.1272 76.8555 17.2053 76.6396 17.3062C76.4766 17.3844 76.3077 17.4494 76.1344 17.5006C75.8875 17.5801 75.6294 17.6195 75.37 17.6172C74.9249 17.6207 74.4839 17.5325 74.0744 17.3581C73.4245 17.0615 72.8524 16.618 72.4032 16.0625C71.536 15.2744 70.9876 14.1959 70.8615 13.0309C70.8559 12.7945 70.9058 12.5601 71.007 12.3464C71.1082 12.1327 71.258 11.9456 71.4445 11.8002C71.6178 11.6383 71.8217 11.5126 72.0441 11.4303C72.2665 11.348 72.5031 11.3108 72.74 11.3208H77.0801V9.63661H68.2963V22.3978H65.2V9.64957H62.3109V22.4107H59.2145V16.5548L58.8647 16.6973C58.7194 16.7501 58.5659 16.7764 58.4113 16.7751H58.0356L57.6987 16.6973V17.0731C57.7922 17.6924 57.7427 18.325 57.554 18.9223C57.3654 19.5196 57.0427 20.0658 56.6105 20.5192C55.6812 21.2734 54.501 21.6483 53.3068 21.5686C51.9838 21.5115 50.7286 20.967 49.7829 20.0399C48.3756 18.7491 47.2964 17.1413 46.6348 15.35L48.889 14.4172C49.0445 14.7022 49.2 15.0131 49.3295 15.2982C49.5923 15.8668 49.8864 16.4204 50.2105 16.9565C50.7799 17.9348 51.7101 18.6511 52.8016 18.9516C52.9803 18.9915 53.1626 19.0132 53.3457 19.0164C53.7428 19.0324 54.1313 18.8983 54.434 18.6407C54.6987 18.3385 54.8712 17.9667 54.9309 17.5694C54.9906 17.1721 54.9351 16.766 54.7708 16.3994C54.5918 16.0707 54.3306 15.794 54.0127 15.5964C53.6948 15.3989 53.331 15.2872 52.957 15.2722H52.8404H52.1797H51.7004C51.5319 14.9224 51.1562 14.0803 50.936 13.601C51.3376 13.4973 51.9595 13.2641 52.3611 13.1216C52.8221 12.9785 53.2229 12.687 53.5012 12.2925C53.6817 11.996 53.7759 11.655 53.7732 11.3079C53.7845 11.0319 53.7074 10.7595 53.553 10.5305C53.4374 10.3732 53.2846 10.2471 53.1082 10.1634C52.9318 10.0797 52.7374 10.0412 52.5425 10.0512C51.9345 10.0724 51.3509 10.2958 50.8842 10.686C50.5471 10.965 50.235 11.2727 49.9514 11.6058C49.3036 10.1289 48.9927 9.42933 48.8113 9.09248C48.896 9.00411 48.987 8.92185 49.0833 8.84633C50.0956 8.07194 51.3328 7.64892 52.6072 7.64147C53.6711 7.59827 54.7136 7.94883 55.5352 8.62609C55.8979 8.9236 56.188 9.29997 56.3833 9.72653C56.5787 10.1531 56.6741 10.6186 56.6623 11.0876C56.7003 11.9153 56.4119 12.7248 55.8591 13.3419L55.587 13.6399L55.9497 13.7953C56.1229 13.8816 56.2916 13.9768 56.455 14.0803C56.8345 14.3628 57.281 14.5414 57.7506 14.5986H57.8283C57.8283 14.5986 59.2534 14.4431 59.2534 13.9637V7.20099H77.7279L77.2744 6.72163C76.7951 6.20342 75.9789 5.32244 75.8882 5.14107C75.5848 4.62851 75.4363 4.03904 75.4607 3.4439C75.5003 2.78295 75.7377 2.14917 76.142 1.62477C76.5463 1.10037 77.0988 0.70955 77.7279 0.503009C78.2039 0.364943 78.6963 0.290878 79.1919 0.282766C79.6369 0.264311 80.0802 0.348537 80.4874 0.528921C81.3943 0.943495 81.485 1.21556 81.3166 2.71839H81.2129L80.6688 2.53702C80.3123 2.4239 79.9414 2.36281 79.5676 2.35564C79.2537 2.34248 78.9416 2.40935 78.6607 2.54997C78.4428 2.67829 78.2572 2.85473 78.1179 3.06581C77.9787 3.27688 77.8896 3.51699 77.8574 3.76779C77.8168 4.03324 77.8353 4.30437 77.9114 4.56189C77.9875 4.81941 78.1195 5.05697 78.2979 5.25767C78.4104 5.37534 78.5143 5.5009 78.6089 5.63338L78.9457 6.03499C79.1919 6.2941 79.3991 6.48844 79.6064 6.68277L80.021 7.07143V13.3937H73.9578L74.204 13.8212C74.204 13.899 74.6445 14.5986 74.787 14.7799L74.8906 14.8965C75.1347 15.275 75.4933 15.5655 75.9141 15.7257C76.0303 15.7392 76.1477 15.7392 76.2639 15.7257C76.6124 15.7022 76.9542 15.6189 77.2744 15.4795L77.4429 15.4148C78.0371 15.2021 78.6644 15.0968 79.2955 15.1038C79.6949 15.0815 80.093 15.1665 80.4485 15.35C81.174 15.7645 81.2518 16.7362 81.2518 17.5265C81.2519 18.3676 81.0069 19.1906 80.5467 19.8946C80.0866 20.5987 79.4311 21.1534 78.6607 21.4909L78.3368 21.6722L77.8834 21.8795L78.3109 22.1646C78.8809 22.5403 80.902 23.6674 81.0704 23.784L79.3603 25.7403L76.1344 23.5637Z" fill="white"/>
<path d="M27.4855 25.6625H27.2264C26.7988 25.5459 26.5268 25.1313 26.2547 24.7297L26.0992 24.4835L25.7365 23.9782H26.0215C26.2144 23.9815 26.4066 23.9553 26.5915 23.9005C26.7447 23.8484 26.8826 23.7594 26.9932 23.6414C27.0599 23.5617 27.1066 23.4672 27.1291 23.3657C27.1517 23.2642 27.1495 23.1588 27.1227 23.0584C27.0541 22.8971 26.9419 22.7581 26.7988 22.6568C26.5915 22.5013 26.4102 22.3458 26.2158 22.1774L20.0879 17.1378V7.21387H43.4077V22.4106H40.1559V15.1037H36.3988V16.6973C36.3966 16.9222 36.3434 17.1436 36.2434 17.345C36.1807 17.5083 36.0681 17.6477 35.9215 17.7431C35.7749 17.8385 35.6018 17.8851 35.4272 17.8762H35.3624C35.1421 17.8762 34.5721 17.6171 33.2766 16.0884C31.981 14.5596 31.8126 14.0025 31.8126 13.8082C31.8126 12.9531 32.2142 12.5774 33.1081 12.5774H40.1559V9.6495H29.7915V14.6762C29.7981 14.9768 29.7348 15.2749 29.6067 15.5469C29.4786 15.8189 29.2891 16.0575 29.0531 16.2438C28.5067 16.7401 27.7961 17.017 27.0579 17.0212L24.7 15.1037C25.2843 15.1445 25.8707 15.0651 26.4231 14.8705C26.5236 14.8145 26.6032 14.7274 26.6499 14.6223C26.6967 14.5171 26.708 14.3997 26.6822 14.2876V9.6495H23.1065V16.3993L24.8555 17.8503L27.9 20.4414L29.066 21.4131C29.334 21.6053 29.5597 21.8506 29.729 22.1336C29.8984 22.4166 30.0079 22.7314 30.0506 23.0584C30.1254 23.5199 30.0336 23.9929 29.7915 24.3928C29.5922 24.6628 29.3466 24.8953 29.066 25.0795C28.6069 25.4231 28.0577 25.6257 27.4855 25.6625Z" fill="white"/>
<path d="M38.1191 7.21387H45.0374V9.6495H42.239" fill="white"/>
</g>
<defs>
<clipPath id="clip0_201_18279">
<rect x="-0.0078125" y="0.172607" width="123.077" height="72" rx="5.80645" fill="white"/>
</clipPath>
</defs>
</svg>
